<?xml version="1.0" encoding="utf-8"?>
<!-- Generator: Adobe Illustrator 21.1.0, SVG Export Plug-In . SVG Version: 6.00 Build 0)  -->
<svg version="1.1" id="圖層_1" xmlns="http://www.w3.org/2000/svg" xmlns:xlink="http://www.w3.org/1999/xlink" x="0px" y="0px"
	 viewBox="0 0 580 580" style="enable-background:new 0 0 580 580;" xml:space="preserve">
<style type="text/css">
	.st0{fill:none;}
	.st1{fill:#A2D7DD;}
	.st2{fill:#F8C6B5;stroke:#FFFFFF;stroke-width:5;stroke-miterlimit:10;}
	.st3{fill:#EFF7FA;}
	.st4{fill:#E9473F;}
	.st5{fill:#FFFFFF;}
	.st6{fill:#ED7969;}
	.st7{fill:none;stroke:#FFFFFF;stroke-width:5;stroke-linecap:round;stroke-linejoin:round;}
	.st8{fill:#E6E6E6;}
	.st9{fill:none;stroke:#FFFFFF;stroke-width:6;stroke-linecap:round;stroke-linejoin:round;}
	.st10{fill:#FDEDDB;}
	.st11{fill:#898989;}
	.st12{fill:#F8C6B5;}
	.st13{fill:#D3B8A2;}
	.st14{fill:#4E2C4A;}
	.st15{fill:#9FA0A0;}
	.st16{fill:none;stroke:#FFFFFF;stroke-width:3;stroke-linecap:round;stroke-linejoin:round;}
	.st17{fill:#FFEB27;}
	.st18{fill:#252B55;}
	.st19{fill:#005D73;}
	.st20{fill:#006F83;}
</style>
<title>card3</title>
<rect class="st0" width="580" height="580"/>
<g>
	<path class="st1" d="M510.7,546.5c-10.5,11.8-30.2,14.7-45,16.5c-74.5,8.8-148.6-9.2-223.1-4.6c-39,2.4-77.9,3.4-116.5-3.9
		c-17.6-3.3-22.6-17.5-6.5-26.3c11.1-6,25.1-9.7,37.7-10.9c22.4-2.1,45.9-2.7,68.6-0.8c20.3,1.7,39.8,4,59.9,0
		c20.5-4,41.1-6.8,61.9-8.4c46.6-3.5,95.9-2.4,141,10.2C500.9,521.7,524.4,531,510.7,546.5z"/>
	<path class="st2" d="M103.3,346.9c-41.9,0-35.1,50.2-1.3,50.2h351.4c98.9,0,92.1-141.2,7.1-141.2H342.3c-67,0-60.7-82,0-82
		c4.2,0,12.6,0,17.4,0c15.5-0.1,95.1,0.1,109.9,0c6.2,0,36.3,0,41.6,0c68.5,0,72.2-102.1-2.6-102.1c-54.2,0-351.5,1.2-367.7,1.2
		c-41.9,0-42.5,53.3,0,53.3h52.7c25.2,0,26.5,50.2-3.7,50.2H79.4c-75.1,0-75.3,116.5-10.1,117.4c12.8,0.2,32.1-0.2,45.4-0.2
		c36.8,0,33.9,53.3,6.6,53.3H103.3z"/>
	<path class="st0" d="M264.6,131h85.6c3.4,0,6.1,2.7,6.1,6.1l0,0c0,3.3-2.7,6.1-6.1,6.1h-85.6c-3.4,0-6.1-2.7-6.1-6.1l0,0
		C258.5,133.7,261.3,131,264.6,131z"/>
	<rect x="285" y="38.6" class="st3" width="43.9" height="86.2"/>
	<rect x="290.8" y="51.3" class="st4" width="32.3" height="2.9"/>
	<rect x="290.8" y="57.7" class="st4" width="32.3" height="2.9"/>
	<rect x="290.8" y="64.1" class="st4" width="32.3" height="2.9"/>
	<rect x="290.8" y="70.5" class="st4" width="32.3" height="2.9"/>
	<rect x="290.8" y="76.9" class="st4" width="32.3" height="2.9"/>
	<rect x="290.8" y="83.3" class="st4" width="32.3" height="2.9"/>
	<rect x="290.8" y="89.7" class="st4" width="32.3" height="2.9"/>
	<rect x="295.3" y="30.2" class="st4" width="23.2" height="16.5"/>
	<rect x="300.4" y="36.3" class="st5" width="13.1" height="4.4"/>
	<rect x="304.7" y="31.9" class="st5" width="4.4" height="13.1"/>
	<rect x="279" y="111.1" class="st4" width="55.9" height="24.3"/>
	<rect x="279" y="104.7" class="st4" width="55.9" height="5.1"/>
	<rect x="296.8" y="119.2" class="st5" width="20.2" height="16.2"/>
	<rect x="302.7" y="116.1" class="st4" width="0.9" height="19.2"/>
	<rect x="310.2" y="116.1" class="st4" width="0.9" height="19.2"/>
	<path class="st0" d="M370.5,202.2h219.3c5.2,0,9.4,4.2,9.4,9.4v1c0,5.2-4.2,9.4-9.4,9.4H370.5c-5.2,0-9.4-4.2-9.4-9.4v-1
		C361.1,206.4,365.3,202.2,370.5,202.2z"/>
	<rect x="477.9" y="114" class="st3" width="101.9" height="96.5"/>
	<rect x="369.4" y="141.4" class="st4" width="52.1" height="69.1"/>
	<rect x="374.4" y="176.7" class="st5" width="41.1" height="34"/>
	<rect x="374.4" y="186.8" class="st4" width="41.1" height="1.6"/>
	<rect x="394.1" y="176.4" class="st4" width="1.6" height="34"/>
	<rect x="417.1" y="63" class="st4" width="61.9" height="147.4"/>
	<rect x="482.9" y="121.1" class="st4" width="52.6" height="4.6"/>
	<rect x="539.9" y="121.1" class="st4" width="35.6" height="4.6"/>
	<rect x="482.9" y="131.5" class="st4" width="52.6" height="4.6"/>
	<rect x="539.9" y="131.5" class="st4" width="35.6" height="4.6"/>
	<rect x="482.9" y="141.9" class="st4" width="52.6" height="4.6"/>
	<rect x="539.9" y="141.9" class="st4" width="35.6" height="4.6"/>
	<rect x="482.9" y="152.3" class="st4" width="52.6" height="4.6"/>
	<rect x="539.9" y="152.3" class="st4" width="35.6" height="4.6"/>
	<rect x="482.9" y="162.7" class="st4" width="52.6" height="4.6"/>
	<rect x="539.9" y="162.7" class="st4" width="35.6" height="4.6"/>
	<rect x="482.9" y="173.1" class="st4" width="52.6" height="4.6"/>
	<rect x="539.9" y="173.1" class="st4" width="35.6" height="4.6"/>
	<rect x="482.9" y="183.5" class="st4" width="52.6" height="4.6"/>
	<rect x="539.9" y="183.5" class="st4" width="35.6" height="4.6"/>
	<circle class="st4" cx="395.4" cy="120.2" r="16.7"/>
	<rect x="384.4" y="116.6" class="st5" width="22.1" height="7.4"/>
	<rect x="391.8" y="109.2" class="st5" width="7.4" height="22.1"/>
	<rect x="422.6" y="78.9" class="st5" width="4.9" height="4.9"/>
	<rect x="430.3" y="78.9" class="st5" width="4.9" height="4.9"/>
	<rect x="437.9" y="78.9" class="st5" width="4.9" height="4.9"/>
	<rect x="445.6" y="78.9" class="st5" width="4.9" height="4.9"/>
	<rect x="453.3" y="78.9" class="st5" width="4.9" height="4.9"/>
	<rect x="460.9" y="78.9" class="st5" width="4.9" height="4.9"/>
	<rect x="468.6" y="78.9" class="st5" width="4.9" height="4.9"/>
	<rect x="422.6" y="93.7" class="st5" width="4.9" height="4.9"/>
	<rect x="430.3" y="93.7" class="st5" width="4.9" height="4.9"/>
	<rect x="437.9" y="93.7" class="st5" width="4.9" height="4.9"/>
	<rect x="445.6" y="93.7" class="st5" width="4.9" height="4.9"/>
	<rect x="453.3" y="93.7" class="st5" width="4.9" height="4.9"/>
	<rect x="460.9" y="93.7" class="st5" width="4.9" height="4.9"/>
	<rect x="468.6" y="93.7" class="st5" width="4.9" height="4.9"/>
	<rect x="422.6" y="108.5" class="st5" width="4.9" height="4.9"/>
	<rect x="430.3" y="108.5" class="st5" width="4.9" height="4.9"/>
	<rect x="437.9" y="108.5" class="st5" width="4.9" height="4.9"/>
	<rect x="445.6" y="108.5" class="st5" width="4.9" height="4.9"/>
	<rect x="453.3" y="108.5" class="st5" width="4.9" height="4.9"/>
	<rect x="460.9" y="108.5" class="st5" width="4.9" height="4.9"/>
	<rect x="468.6" y="108.5" class="st5" width="4.9" height="4.9"/>
	<rect x="422.6" y="123.3" class="st5" width="4.9" height="4.9"/>
	<rect x="430.3" y="123.3" class="st5" width="4.9" height="4.9"/>
	<rect x="437.9" y="123.3" class="st5" width="4.9" height="4.9"/>
	<rect x="445.6" y="123.3" class="st5" width="4.9" height="4.9"/>
	<rect x="453.3" y="123.3" class="st5" width="4.9" height="4.9"/>
	<rect x="460.9" y="123.3" class="st5" width="4.9" height="4.9"/>
	<rect x="468.6" y="123.3" class="st5" width="4.9" height="4.9"/>
	<rect x="422.6" y="138.9" class="st5" width="4.9" height="4.9"/>
	<rect x="430.3" y="138.9" class="st5" width="4.9" height="4.9"/>
	<rect x="437.9" y="138.9" class="st5" width="4.9" height="4.9"/>
	<rect x="445.6" y="138.9" class="st5" width="4.9" height="4.9"/>
	<rect x="453.3" y="138.9" class="st5" width="4.9" height="4.9"/>
	<rect x="460.9" y="138.9" class="st5" width="4.9" height="4.9"/>
	<rect x="468.6" y="138.9" class="st5" width="4.9" height="4.9"/>
	<rect x="422.6" y="153.7" class="st5" width="4.9" height="4.9"/>
	<rect x="430.3" y="153.7" class="st5" width="4.9" height="4.9"/>
	<rect x="437.9" y="153.7" class="st5" width="4.9" height="4.9"/>
	<rect x="445.6" y="153.7" class="st5" width="4.9" height="4.9"/>
	<rect x="453.3" y="153.7" class="st5" width="4.9" height="4.9"/>
	<rect x="460.9" y="153.7" class="st5" width="4.9" height="4.9"/>
	<rect x="468.6" y="153.7" class="st5" width="4.9" height="4.9"/>
	<rect x="422.6" y="168.5" class="st5" width="4.9" height="4.9"/>
	<rect x="430.3" y="168.5" class="st5" width="4.9" height="4.9"/>
	<rect x="437.9" y="168.5" class="st5" width="4.9" height="4.9"/>
	<rect x="445.6" y="168.5" class="st5" width="4.9" height="4.9"/>
	<rect x="453.3" y="168.5" class="st5" width="4.9" height="4.9"/>
	<rect x="460.9" y="168.5" class="st5" width="4.9" height="4.9"/>
	<rect x="468.6" y="168.5" class="st5" width="4.9" height="4.9"/>
	<rect x="422.6" y="183.3" class="st5" width="4.9" height="4.9"/>
	<rect x="430.3" y="183.3" class="st5" width="4.9" height="4.9"/>
	<rect x="437.9" y="183.3" class="st5" width="4.9" height="4.9"/>
	<rect x="445.6" y="183.3" class="st5" width="4.9" height="4.9"/>
	<rect x="453.3" y="183.3" class="st5" width="4.9" height="4.9"/>
	<rect x="460.9" y="183.3" class="st5" width="4.9" height="4.9"/>
	<rect x="468.6" y="183.3" class="st5" width="4.9" height="4.9"/>
	<rect x="53.2" y="292" class="st4" width="55.4" height="119.1"/>
	<rect x="61.6" y="305.8" class="st5" width="38.6" height="1.9"/>
	<rect x="61.6" y="310.9" class="st5" width="38.6" height="1.9"/>
	<rect x="61.6" y="316.1" class="st5" width="38.6" height="1.9"/>
	<rect x="61.6" y="321.2" class="st5" width="38.6" height="1.9"/>
	<rect x="61.6" y="326.3" class="st5" width="38.6" height="1.9"/>
	<rect x="61.6" y="331.4" class="st5" width="38.6" height="1.9"/>
	<rect x="61.6" y="336.5" class="st5" width="38.6" height="1.9"/>
	<rect x="61.6" y="341.7" class="st5" width="38.6" height="1.9"/>
	<rect x="61.6" y="346.8" class="st5" width="38.6" height="1.9"/>
	<rect x="61.6" y="351.9" class="st5" width="38.6" height="1.9"/>
	<rect x="61.6" y="357" class="st5" width="38.6" height="1.9"/>
	<path class="st0" d="M0.3,406.6h157.5c4.4,0,8,3.6,8,8v0.8c0,4.4-3.6,8-8,8H0.3c-4.4,0-8-3.6-8-8v-0.8
		C-7.7,410.2-4.1,406.6,0.3,406.6z"/>
	<rect x="94.1" y="370" class="st3" width="61.9" height="45.3"/>
	<rect x="100" y="386.8" class="st4" width="48.9" height="28.9"/>
	<rect x="100" y="395.4" class="st3" width="48.9" height="1.4"/>
	<rect x="123.5" y="386.5" class="st3" width="2" height="28.9"/>
	<rect x="68.5" y="264.4" class="st4" width="24.7" height="24.7"/>
	<rect x="71.8" y="273.7" class="st5" width="18.1" height="6"/>
	<rect x="77.9" y="267.7" class="st5" width="6" height="18.1"/>
	<rect x="1.1" y="288.1" class="st3" width="52.6" height="125.2"/>
	<rect x="5.7" y="301.6" class="st4" width="4.2" height="4.2"/>
	<rect x="12.3" y="301.6" class="st4" width="4.2" height="4.2"/>
	<rect x="18.8" y="301.6" class="st4" width="4.2" height="4.2"/>
	<rect x="25.3" y="301.6" class="st4" width="4.2" height="4.2"/>
	<rect x="31.8" y="301.6" class="st4" width="4.2" height="4.2"/>
	<rect x="38.3" y="301.6" class="st4" width="4.2" height="4.2"/>
	<rect x="44.8" y="301.6" class="st4" width="4.2" height="4.2"/>
	<rect x="5.7" y="314.2" class="st4" width="4.2" height="4.2"/>
	<rect x="12.3" y="314.2" class="st4" width="4.2" height="4.2"/>
	<rect x="18.8" y="314.2" class="st4" width="4.2" height="4.2"/>
	<rect x="25.3" y="314.2" class="st4" width="4.2" height="4.2"/>
	<rect x="31.8" y="314.2" class="st4" width="4.2" height="4.2"/>
	<rect x="38.3" y="314.2" class="st4" width="4.2" height="4.2"/>
	<rect x="44.8" y="314.2" class="st4" width="4.2" height="4.2"/>
	<rect x="5.7" y="326.8" class="st4" width="4.2" height="4.2"/>
	<rect x="12.3" y="326.8" class="st4" width="4.2" height="4.2"/>
	<rect x="18.8" y="326.8" class="st4" width="4.2" height="4.2"/>
	<rect x="25.3" y="326.8" class="st4" width="4.2" height="4.2"/>
	<rect x="31.8" y="326.8" class="st4" width="4.2" height="4.2"/>
	<rect x="38.3" y="326.8" class="st4" width="4.2" height="4.2"/>
	<rect x="44.8" y="326.8" class="st4" width="4.2" height="4.2"/>
	<rect x="5.7" y="339.3" class="st4" width="4.2" height="4.2"/>
	<rect x="12.3" y="339.3" class="st4" width="4.2" height="4.2"/>
	<rect x="18.8" y="339.3" class="st4" width="4.2" height="4.2"/>
	<rect x="25.3" y="339.3" class="st4" width="4.2" height="4.2"/>
	<rect x="31.8" y="339.3" class="st4" width="4.2" height="4.2"/>
	<rect x="38.3" y="339.3" class="st4" width="4.2" height="4.2"/>
	<rect x="44.8" y="339.3" class="st4" width="4.2" height="4.2"/>
	<rect x="5.7" y="352.6" class="st4" width="4.2" height="4.2"/>
	<rect x="12.3" y="352.6" class="st4" width="4.2" height="4.2"/>
	<rect x="18.8" y="352.6" class="st4" width="4.2" height="4.2"/>
	<rect x="25.3" y="352.6" class="st4" width="4.2" height="4.2"/>
	<rect x="31.8" y="352.6" class="st4" width="4.2" height="4.2"/>
	<rect x="38.3" y="352.6" class="st4" width="4.2" height="4.2"/>
	<rect x="44.8" y="352.6" class="st4" width="4.2" height="4.2"/>
	<rect x="5.7" y="365.1" class="st4" width="4.2" height="4.2"/>
	<rect x="12.3" y="365.1" class="st4" width="4.2" height="4.2"/>
	<rect x="18.8" y="365.1" class="st4" width="4.2" height="4.2"/>
	<rect x="25.3" y="365.1" class="st4" width="4.2" height="4.2"/>
	<rect x="31.8" y="365.1" class="st4" width="4.2" height="4.2"/>
	<rect x="38.3" y="365.1" class="st4" width="4.2" height="4.2"/>
	<rect x="44.8" y="365.1" class="st4" width="4.2" height="4.2"/>
	<rect x="5.7" y="377.7" class="st4" width="4.2" height="4.2"/>
	<rect x="12.3" y="377.7" class="st4" width="4.2" height="4.2"/>
	<rect x="18.8" y="377.7" class="st4" width="4.2" height="4.2"/>
	<rect x="25.3" y="377.7" class="st4" width="4.2" height="4.2"/>
	<rect x="31.8" y="377.7" class="st4" width="4.2" height="4.2"/>
	<rect x="38.3" y="377.7" class="st4" width="4.2" height="4.2"/>
	<rect x="44.8" y="377.7" class="st4" width="4.2" height="4.2"/>
	<rect x="5.7" y="390.3" class="st4" width="4.2" height="4.2"/>
	<rect x="12.3" y="390.3" class="st4" width="4.2" height="4.2"/>
	<rect x="18.8" y="390.3" class="st4" width="4.2" height="4.2"/>
	<rect x="25.3" y="390.3" class="st4" width="4.2" height="4.2"/>
	<rect x="31.8" y="390.3" class="st4" width="4.2" height="4.2"/>
	<rect x="38.3" y="390.3" class="st4" width="4.2" height="4.2"/>
	<rect x="44.8" y="390.3" class="st4" width="4.2" height="4.2"/>
	<path class="st0" d="M47.2,93.5h137.5c3.7,0,6.7,3,6.7,6.7v0c0,3.7-3,6.7-6.7,6.7H47.2c-3.7,0-6.7-3-6.7-6.7v0
		C40.6,96.5,43.5,93.5,47.2,93.5z"/>
	<rect x="102.5" y="14.6" class="st4" width="29.7" height="84.5"/>
	<rect x="54.6" y="29.4" class="st4" width="48.9" height="69.7"/>
	<rect x="63.5" y="71.3" class="st3" width="57.8" height="27.8"/>
	<rect x="71.3" y="80.6" class="st4" width="42.3" height="18.5"/>
	<rect x="63.5" y="71.3" class="st6" width="57.8" height="4.4"/>
	<rect x="110.1" y="25.7" class="st5" width="14.5" height="4.8"/>
	<rect x="114.9" y="20.9" class="st5" width="4.8" height="14.5"/>
	<rect x="132" y="38.3" class="st4" width="44.1" height="60.8"/>
	<rect x="137" y="35" class="st4" width="34.1" height="6.7"/>
	<rect x="133.9" y="49.1" class="st5" width="40.4" height="1.5"/>
	<rect x="133.9" y="53.1" class="st5" width="40.4" height="1.5"/>
	<rect x="133.9" y="57.2" class="st5" width="40.4" height="1.5"/>
	<rect x="133.9" y="61.3" class="st5" width="40.4" height="1.5"/>
	<rect x="133.9" y="65.4" class="st5" width="40.4" height="1.5"/>
	<rect x="133.9" y="69.5" class="st5" width="40.4" height="1.5"/>
	<rect x="133.9" y="73.5" class="st5" width="40.4" height="1.5"/>
	<rect x="133.9" y="77.6" class="st5" width="40.4" height="1.5"/>
	<rect x="133.9" y="81.7" class="st5" width="40.4" height="1.5"/>
	<rect x="133.9" y="85.8" class="st5" width="40.4" height="1.5"/>
	<rect x="133.9" y="89.8" class="st5" width="40.4" height="1.5"/>
	<rect x="61.7" y="34.2" class="st5" width="3.3" height="3.3"/>
	<rect x="66.9" y="34.2" class="st5" width="3.3" height="3.3"/>
	<rect x="72.1" y="34.2" class="st5" width="3.3" height="3.3"/>
	<rect x="77.2" y="34.2" class="st5" width="3.3" height="3.3"/>
	<rect x="82.4" y="34.2" class="st5" width="3.3" height="3.3"/>
	<rect x="87.6" y="34.2" class="st5" width="3.3" height="3.3"/>
	<rect x="92.8" y="34.2" class="st5" width="3.3" height="3.3"/>
	<rect x="61.7" y="44.2" class="st5" width="3.3" height="3.3"/>
	<rect x="66.9" y="44.2" class="st5" width="3.3" height="3.3"/>
	<rect x="72.1" y="44.2" class="st5" width="3.3" height="3.3"/>
	<rect x="77.2" y="44.2" class="st5" width="3.3" height="3.3"/>
	<rect x="82.4" y="44.2" class="st5" width="3.3" height="3.3"/>
	<rect x="87.6" y="44.2" class="st5" width="3.3" height="3.3"/>
	<rect x="92.8" y="44.2" class="st5" width="3.3" height="3.3"/>
	<rect x="61.7" y="54.2" class="st5" width="3.3" height="3.3"/>
	<rect x="66.9" y="54.2" class="st5" width="3.3" height="3.3"/>
	<rect x="72.1" y="54.2" class="st5" width="3.3" height="3.3"/>
	<rect x="77.2" y="54.2" class="st5" width="3.3" height="3.3"/>
	<rect x="82.4" y="54.2" class="st5" width="3.3" height="3.3"/>
	<rect x="87.6" y="54.2" class="st5" width="3.3" height="3.3"/>
	<rect x="92.8" y="54.2" class="st5" width="3.3" height="3.3"/>
	<rect x="61.7" y="64.3" class="st5" width="3.3" height="3.3"/>
	<rect x="66.9" y="64.3" class="st5" width="3.3" height="3.3"/>
	<rect x="72.1" y="64.3" class="st5" width="3.3" height="3.3"/>
	<rect x="77.2" y="64.3" class="st5" width="3.3" height="3.3"/>
	<rect x="82.4" y="64.3" class="st5" width="3.3" height="3.3"/>
	<rect x="87.6" y="64.3" class="st5" width="3.3" height="3.3"/>
	<rect x="92.8" y="64.3" class="st5" width="3.3" height="3.3"/>
	<rect x="103.2" y="76.1" class="st3" width="1.1" height="23"/>
	<rect x="92.8" y="76.1" class="st3" width="1.1" height="23"/>
	<rect x="81.3" y="76.1" class="st3" width="1.1" height="23"/>
	<circle class="st7" cx="453.7" cy="523.5" r="12.6"/>
	<path class="st5" d="M289.4,340.6h34.6l0,0v6.4l0,0h-34.5c-1.8,0-3.2-1.5-3.2-3.3l0,0C286.3,342,287.7,340.6,289.4,340.6z"/>
	<path class="st5" d="M502.4,500.7l-27.9,13.8c-1.5,0.7-3.2,0-3.9-1.5c0,0,0,0,0,0l-0.9-1.3l5.9-5.9l30.2-19.7l1,2
		c0.5,1.1,0.6,2.4,0.2,3.5l-2.4,6.5C504.2,499.3,503.4,500.2,502.4,500.7z"/>
	<path class="st8" d="M501.6,496.5l-31.1,15.4c-0.3,0.2-0.8,0.1-1-0.2c-0.1-0.2-0.1-0.5,0-0.7l3.1-7.7c0.2-0.5,0.5-0.8,1-1
		l31.7-15.7c0.4-0.2,0.8,0,1,0.3c0.1,0.2,0.1,0.4,0,0.6l-2.8,7C503.1,495.4,502.4,496.1,501.6,496.5z"/>
	<polyline class="st7" points="434.9,447.4 434.9,499.7 447.9,510.8 	"/>
	<line class="st7" x1="363.4" y1="443.7" x2="363.4" y2="482.2"/>
	<circle class="st8" cx="362.3" cy="483" r="7.8"/>
	<circle class="st8" cx="454.2" cy="523.8" r="4.1"/>
	<path class="st9" d="M317.9,344.3h14.5c5.8,0,10.5,4.7,10.5,10.5v96.6"/>
	<path class="st10" d="M278.1,342.7c0.4-0.6,1.1-0.8,1.8-0.7c2.8,0.7,5.7,0.6,8.4-0.4c3.1-0.9,4.5-2,7.6-3.2s9.4,0.3,13.5,0.6
		c1.4,0.1,2.8,0.4,4.1,0.9c1.4,0.5-1.3,2-2.8,1.7c-3.9-0.7-5.7,1.5-6.5,2.1c-1.8,1.2,0.5,2.7,0.5,3.4c0.1,2.4-4.9,2.9-8.8,3.1
		c-1.3,0.1-2.6-0.3-3.8-1c-4-2-4.2,1-11.9,1c-2.4-1-1.5-4.2-2.2-5.9C277.7,343.8,277.8,343.2,278.1,342.7L278.1,342.7z"/>
	<path class="st10" d="M308.5,346.8c0.6-0.2,1.4-0.1,1.7,0.5c-2.8,2.7-4.5,2-8.6,2.1c-0.7,0-5.6-0.2-5.8-0.8
		c-0.2-0.5,1.8-0.8,2.1-1.2c0.6-1.2,1.8-2.1,3.1-2.4c1.3-0.3,1.6-0.4,2.7,0.4S305.3,347.7,308.5,346.8z"/>
	<path class="st11" d="M481.5,481.3c2.2,2.1,3.9-0.7,5.8-1.9c2.3-1.5,4.9-2.5,7.7-3c1.9-0.4,3.9-0.3,5.7,0.3c2,0.8,2.1,2.6,1.5,4.6
		c-0.1,0.4-0.3,0.7-0.5,1c-0.3,0.3-0.6,0.5-0.9,0.7l-12.5,6.9c-2.5,1.4-5,2.8-7.4,4.4c-0.7,0.6-1.6,1-2.5,1.3c-1,0.1-2-0.1-2.9-0.5
		c-1-0.3-1.9-1-2.5-1.9c-0.3-0.5-0.5-1.1-0.6-1.7l-0.7-3.1c-0.2-0.9-0.3-1.7-0.3-2.6c0.1-1.1,0.5-2.1,1.2-3c1.2-1.5,2.8-2.5,4.6-3
		C478.8,479,480.3,480.2,481.5,481.3z"/>
	<path class="st11" d="M481.5,488.6c2.2,2.1,3.9-0.7,5.8-1.9c2.3-1.5,4.9-2.5,7.7-3c1.9-0.4,3.9-0.3,5.7,0.3c2,0.8,2.1,2.6,1.5,4.6
		c-0.1,0.4-0.3,0.7-0.5,1c-0.3,0.3-0.6,0.5-0.9,0.7l-12.5,6.9c-2.5,1.4-5,2.8-7.4,4.4c-0.7,0.6-1.6,1-2.5,1.3c-1,0.1-2-0.1-2.9-0.5
		c-1-0.3-1.9-1-2.5-1.9c-0.3-0.5-0.5-1.1-0.6-1.7l-0.7-3.1c-0.2-0.9-0.3-1.7-0.3-2.6c0.1-1.1,0.5-2.1,1.2-3c1.2-1.5,2.8-2.5,4.6-3
		C478.8,486.4,480.3,487.5,481.5,488.6z"/>
	<path class="st12" d="M415.8,391.7c3.6-0.4,8.5,1.4,12.1,2.3c1,0.3,4.1,3.9,4.2,9.1c0,0.9-0.1,2.9-1.1,3.1
		c-1.2,0.2-2.1-0.9-2.7-1.8c-1.6-2.4-4.3-3.7-7.2-3.4c-2.5,0.3-5.2,1.7-7.3,0.2c-0.5-0.4-1-0.9-1.4-1.4c-2.6-2.6-6.7-2.5-10.4-2.2
		c0.1,0,1-5.9,4.2-6c1.2,0,2.6,0.7,3.8,0.8C411.9,392.4,413.8,392.1,415.8,391.7z"/>
	<path class="st13" d="M382,357.1l7.3,17.2c1.3,3.2,2.9,6.2,4.9,9c2.8,3.9,7.3,4.4,11.7,4.8c3.2,0.3,6.7,0.4,9.8,1.7
		c3,1.3,1.5,4.8,2,8.1c0.3,1.6-3.1,0.6-4.7,0.5c-7.5-0.4-15-0.7-22.5-1.2c-6.4-0.5-9.1-4.6-11.7-10c-4.3-9.7-7.5-19.7-9.8-30
		c-0.7-3.3-5-17,2.2-16.6c3,0.2,5,4.6,6.3,6.8C379.1,350.6,380.7,353.8,382,357.1z"/>
	<path class="st14" d="M437.9,409.8c14,1.8,18.8,15,24.3,26.8c3.1,6.7,9,18.5,12.1,25.2c0.7,1.6,7.4,17.8,7.4,17.8
		c-1.4,1.3-5,3.9-6.3,5.2c-21.2-11.5-23.6-29.5-34.6-47.4c-1.8,1.6-4.3,2.4-6.6,3c-12,3.4-24.1,6.8-36.6,7.7
		c-11.4,0.8-24.2-1.4-32.9-9.3c-6-5.4-3.1-16.4-1.4-23.3c0.3-1.6,0.9-3.1,1.8-4.4c1.4-1.8,3.4-3.2,5.6-4c5.7-2.4,11.8-0.9,17.8-1.2
		c7.4-0.4,14.8,0.7,22,1.7c8.8,1.3,17.7,1,26.5,2.1L437.9,409.8z"/>
	<path class="st10" d="M351.7,283.4c1.2-1.7,2.8-3.1,4.6-4.2c2.8-1.7,6.7-5.3,10-5.6c3.5-0.1,7,0.7,10.2,2.2
		c5.8,2.8,7.8,7.8,6.7,14.4c-0.1,0.6-0.8,3.5-0.6,4.1c0.7,1.6,3.4,1.2,3.8,2.7c0.1,0.6-0.2,1.2-0.7,1.4c-2.9,1.2,1,3.5,0.2,6.6
		c-2.1,7.9-5.7,12.4-7.5,12.7c-1.8,0.3-3.1-0.9-4.9-0.9c0.1,0,0.3,7.3,0.5,7.9c0.5,2.2,1.1,6.7,5.4,8.4c-7.1,0.4-14.1,0.7-21.4-6
		c0.5-2.7,1.7-7,1-10.5c-0.3-1.6-1-2.5-2.6-2.5c-4-0.1-4.9-2.7-6.9-6.3c-1.3-2.5-1.9-5.4-1.7-8.2c-0.1-3,0.2-6.1,0.8-9.1
		c0.7-2.5,1.8-6.1,3.5-8.1c1.3-1.2,2.7-2.3,4.3-3.2c1.6-1.2,3.3-2.3,4.9-3.4"/>
	<path class="st15" d="M371.6,288.8c-2.4,1.4-5.7,2.3-6.2,5.1c-0.4,2,0.9,3.8,1.4,5.7s-0.7,4.7-2.5,4.2c-0.8-0.2-1.3-1-1.9-1.5
		c-1.8-1.3-4.4-0.8-5.7,1c-0.3,0.4-0.5,0.9-0.6,1.4c-0.1,0.4,2.3,2,2.6,2.4c0.8,1.6,0.9,3.5,0.4,5.2c-0.4,1.7-2.2,2.5-3.8,3
		c-2.2,0.8-4.6,1.3-6.9,1.3c-5.4-0.1-11.4-5.7-13.9-10.3c-2-3.6-2.4-8.4-0.2-11.9c0.6-0.7,1-1.6,1.2-2.5c0-0.6-0.2-1.2-0.4-1.8
		c-1-3.8,1.5-7.5,4-10.4c1.5-1.8,3.3-3.4,5.2-4.8c1.8-1.2,4.2-1.5,5.8-2.8c3.1-2.6,3.7-6.8,8.4-8c3.7-0.9,6.8-0.7,9,2.5
		c-1.1-1.7,8.5-2.6,9.3-2.5c3.6,0.4,14.4,3.4,8.7,17.3c-1.8,4.5-8-0.6-9.2,1.8C374.5,287,375.3,286.7,371.6,288.8z"/>
	<path class="st8" d="M359.8,323.5c-1.4,0.2-1.1,6.2-2.2,7c-10.4,8.2-15.6,20-13.3,32.8c1.9,10.8,8.4,16.5,10.8,32.4
		c0.9,6.1,2.4,12,4.4,17.8c0.9,2.8,0.2,10.7,2.6,12.3c2.5,1.6,5.4,2.5,8.4,2.4c11.3-0.1,12.5,0.6,23.8-0.3
		c1.5-0.1,11.9-5.7,13.2-6.4c1.8-1,0.7-11.5,0.5-13.6c-0.8-7.4,0.6-14.8-2.4-32.6c-3.4-20.1-8.4-16-25.5-40.2
		c-3.4-4.8-0.7-10.4-3.8-11.7C375.1,323,362.4,323.1,359.8,323.5z"/>
	<path class="st14" d="M408.8,408.1c12.1,2.1,23.9,4.6,34.5,11.3c1.5,1,2.8,2.3,4,3.8c8.4,10.1,12.4,22.5,18.6,33.8
		c4.8,8.8,10.1,17.4,13.7,26.8c0.7,1.5,0.3,3.3-1.1,4.3l-4.6,4.3c-1.5,1.4-2.7,1.7-4.4,0.4c-4.9-3.7-9.6-7.7-13.8-12.1
		c-4.1-4.4-7.8-9.1-11.2-14.1c-3.6-5.1-7-10.5-10.5-15.7c-2.8-4.2-5.5-8.5-8.3-12.9c-8.7,4.2-24.5,9.8-34.2,9.8
		c-7.1,0-21.3-4.9-27-9c-6.6-4.7-1.6-19.6,1.3-25.1c5.9-11.2,25-8.6,35.4-6.8L408.8,408.1z"/>
	<path class="st13" d="M357.6,330.5c6.7-1.7,14.8,3.8,20.8,13.5c2.8,4.6,10.5,42.9,10.5,42.9c1.9,9.6,3.2,17.8,7.7,26.7
		c2.5,5.1,8.6,16.7,1.7,20.9c-10.4,6.3-22.3,7.1-34,4.8c-3.5-0.7-7.5-1.7-9.3-5.2c-0.8-1.7-1.2-3.6-1.2-5.4
		c-0.2-6.4,1.9-12.6,3.2-18.7s-0.4-10.8-2.2-16.7c-3.7-12.8-11.4-27.2-11-40.8C344,345.8,350.6,332.3,357.6,330.5z"/>
	<path class="st5" d="M374.6,403.9h39.8c9,0,16.3,7.2,16.3,16.2c0,0,0,0,0,0v27.7l0,0h-72.2l0,0V420
		C358.5,411.1,365.7,403.9,374.6,403.9L374.6,403.9z"/>
	<rect x="340.7" y="441.6" class="st5" width="103.6" height="12.6"/>
	<path class="st10" d="M420,397c3.6-0.4,8.5,1.4,12.1,2.3c1,0.3,4.1,3.9,4.2,9.1c0,0.9-0.1,2.9-1.1,3.1c-1.2,0.2-2.1-0.9-2.7-1.8
		c-1.6-2.4-4.3-3.7-7.2-3.4c-2.5,0.3-5.2,1.7-7.3,0.2c-0.5-0.4-1-0.9-1.4-1.4c-2.6-2.6-6.7-2.5-10.4-2.2c0.1,0,1-5.9,4.2-6
		c1.2,0,2.6,0.7,3.8,0.8C416.1,397.6,418,397.4,420,397z"/>
	<path class="st13" d="M350.9,346.4c1.5-2.8,7.6-3.9,11.5,1.3c3.9,5.2,10,34.9,11.3,37.7c1.3,2.8,1.4,3.8,5.2,4.5
		c3.3,0.6,30.8,4.4,35.2,6.3c2,0.9,3,4.7,3,6s-0.9,1.5-5.1,2.3c-4.3,0.8-38.3-0.2-43.8-0.2c-3.9,0-16.5-31.4-17.3-38.2
		C350.2,359.1,348,351.6,350.9,346.4z"/>
	<path class="st8" d="M361.5,536.1c-30.8,0-55.7-24.9-55.8-55.6c0-30.8,24.9-55.7,55.6-55.8c3.1,0,6.1,0.2,9.1,0.7
		c-5.6-1.9-11.5-2.9-17.4-2.9c-30.8,0-55.7,25.9-55.7,57.8s24.9,57.8,55.7,57.8c5.8,0,11.5-0.9,17-2.8
		C367.3,535.9,364.4,536.1,361.5,536.1z"/>
	<circle class="st7" cx="361.5" cy="480.4" r="55.7"/>
	<circle class="st16" cx="361.5" cy="480.4" r="49.4"/>
	<circle class="st16" cx="361.5" cy="480.4" r="49.4"/>
	<polyline class="st7" points="436.4,448.1 453.1,448.1 485.7,504.9 	"/>
	<path class="st17" d="M234,289.7c7.9,9.2,12.9,25.5,17.9,32.5c4.7,6.5,10.3,12.3,18.3,13.4c8.3,1.2,16.8,0.3,25.1,2.8
		c2.4,0.7,0.7,8.3,0.7,8.3c-8.1,0.7-16.2,1.3-24.3,1.9c-15.1,1-31.4-4.1-42.7-14.3c-7.5-6.8-12.3-19.5-13.9-29.3
		C213.3,293.2,221.8,275.4,234,289.7z"/>
	<path class="st10" d="M285.4,342.7c0.4-0.6,1.1-0.8,1.8-0.7c2.8,0.7,5.7,0.6,8.4-0.4c3.1-0.9,4.5-2,7.6-3.2c3-1.2,9.4,0.3,13.5,0.6
		c1.4,0.1,2.8,0.4,4.1,0.9c1.4,0.5-1.3,2-2.8,1.7c-3.9-0.7-5.7,1.5-6.5,2.1c-1.8,1.2,0.5,2.7,0.5,3.4c0.1,2.4-4.9,2.9-8.8,3.1
		c-1.3,0.1-2.6-0.3-3.8-1c-4-2-4.2,1-11.9,1c-2.4-1-1.5-4.2-2.2-5.9C285,343.8,285.1,343.2,285.4,342.7L285.4,342.7z"/>
	<path class="st10" d="M315.9,346.8c0.6-0.2,1.4-0.1,1.7,0.5c-2.8,2.7-4.5,2-8.6,2.1c-0.7,0-5.6-0.2-5.8-0.8
		c-0.2-0.5,1.8-0.8,2.1-1.2c0.6-1.2,1.8-2.1,3.1-2.4c1.3-0.3,1.6-0.4,2.7,0.4C312.1,346.1,312.6,347.7,315.9,346.8z"/>
	<path class="st18" d="M236.2,256.4c1.3,1.8,2.4,3.6,3.3,5.6c5,10.3,2.3,27.5-12,21.1c-5.9-2.6-12.1-5.6-15.2-11.3
		c-3.7-6.7-3.5-12.4,3.1-17.4C224.6,247.3,231.3,249.5,236.2,256.4z"/>
	<path class="st18" d="M244.2,537.3c2.9,2,5.5,5.6,8.6,6.7c2.8,1,13-1,13.2,3.7c0.2,4.6-14.9,3.1-17.9,3.3
		c-5.3,0.2-11.1,1.6-11.2-1.6c-0.1-5.6-3.3-13,3.4-13.3C241.7,536,243.1,536.4,244.2,537.3z"/>
	<path class="st18" d="M159.8,528.5c1.3,3.3,1.4,7.7,3.3,10.3c1.7,2.4,11.2,6.5,8.8,10.5s-14.1-5.8-16.7-7.4
		c-4.5-2.8-10.1-4.9-8.4-7.6c3.1-4.7,4.6-12.6,10.3-9.1C158.4,526,159.3,527.1,159.8,528.5z"/>
	<path class="st19" d="M229.3,426.9c-7.2,13.5-6.9,21.6-16.2,35.1c-11.9,17.2-38.9,54.7-52.5,70.6c-6.5,0-8.4-3.7-8.4-7.1
		c0-14.9,15.7-41.5,23.3-53.5c9.6-15.2,20.4-45,20.9-47.6c3.2-16.1-14.1-20.4-10.5-54.4c1.4-13.3,18-37,32.4-18.8
		c6.3,7.9,3.8,27.8,6.3,37.7c2.1,8.4,6.5,15,5.8,23.5C229.2,424.8,234.6,417,229.3,426.9z"/>
	<path class="st20" d="M245,383.5c5.1,17.9,7.6,36.6,8.6,55.2c1.4,29-1,58.1-3.1,87.1c-0.3,3.9-0.6,8.1-3,11.2
		c-2.3,3.2-7.3,4.7-10.3,2.1c-2-1.8-2.3-4.7-2.6-7.3c-2.5-29-5.4-58-9.8-86.8c-3.2-21-28.2-41.3-36.7-59.6
		c-6.3-13.7-2.1-31.3,11.6-43.2c3.7-3.2,16.4-1,21.3-0.3c6.2,0.9,10.1,6.9,12.8,12.6C238.5,363.7,242.2,373.5,245,383.5z"/>
	<path class="st10" d="M215.2,253c-1.4-1.7-3.1-3.1-4.6-4.7c-6.5-7-9-18.9-3.1-27c0.2-0.2,0.3-0.5,0.2-0.7c-0.1-0.2-0.6,0.1-0.3,0.2
		c3.8-3.1,8.2-5.5,12.8-7c3.1-1.2,6.5-1.5,9.8-1c3,0.8,5.8,2.3,8.2,4.4c1.7,1.2,3.2,2.9,4.2,4.8c0.9,2.1,1,4.4,0.3,6.6
		c-0.5,1.9-1.4,3.8-1.2,5.7c0.5,2.9,0.6,5.8,0.4,8.7c-0.4,3.2-2.1,5.6-3.3,8.5c-0.7,1.6-1.4,3.3-2.9,4.2c-1.5,0.8-3.3,1-5,0.4
		c-1.7-0.4-3.2-1.2-4.8-1.7c-1.5,7.4-0.2,15.1,3.6,21.6c-5.4-1-8.8-6.3-13.3-9.6c1.3-3.1,2.2-6.7,1-9.9
		C216.9,255.3,216.2,254.1,215.2,253z"/>
	<path class="st18" d="M240.7,222.2c-0.5,0.2-1,0.4-1.5,0.6c-3.1,1.5-4.8,4.8-7,7.5c-1.9,2.4-4.1,4.5-6.5,6.3
		c-2.3,1.8-4.5,1.7-5.7-0.4s-4.8-2.8-4,1c0.8,3.8,3.1,13,0.7,16.8c-1.2,1.9-6.7-0.3-8.9,0.4c-2.2,0.6-1.6-3.5-3.4-4.5
		c-3.3-1.9-12.6-5-10.7-8.5c1.7-3,3.1-6.1,4.2-9.3c2.1-5.9,5.2-13.9,9.9-18.2c6.4-5.8,13.1-9.8,21.5-8.2c3.7,0.7,9.7,5.6,13.1,7.2
		c2,1,4.3,2.4,4.2,4.6c-0.1,1.6-1.4,2.9-2.9,3.5C242.8,221.5,241.8,221.9,240.7,222.2z"/>
	<path class="st17" d="M211,359.6c5.6,0.6,15.9,0.8,17.4-0.7c8.4-8,9.4-19.4,12.8-29.7c4-12.1,6.7-32.9-1.2-44.1
		c-3-4.2-8.2-7.6-11.7-11.5c-4.8-5.3-9.3-10.8-16.4-13.2c-22.3-7.8-23.4,25.6-23.7,39.5c-0.2,8.6,1.5,22.7,3.2,31.1
		C196.3,354.6,197,358.2,211,359.6z"/>
	<path class="st17" d="M232.6,296.2c8.4,8.7,14.3,24.8,19.7,31.5c5.1,6.3,11,11.7,19,12.4c8.4,0.7,16.8-0.7,25.2,1.4
		c2.5,0.6,1.2,8.2,1.2,8.2c-8,1.1-16.1,2.2-24.2,3.2c-15,1.9-31.6-2.3-43.5-11.9c-7.9-6.4-13.4-18.7-15.4-28.4
		C212.1,300.8,219.5,282.6,232.6,296.2z"/>
	<path class="st18" d="M218.5,251.8c-0.8-11-7.3-27.7-20.1-16.4c-3.4,2.9-6.5,6.1-9.2,9.6c-8.9,12.2-27.9,12.8-34,28.2
		c-2.1,5.3,0.4,11.9,5.3,15c8.1,5,20.5-0.1,28.1-3.9C204.7,276.3,220.1,274.2,218.5,251.8z"/>
	<path class="st17" d="M235.6,372c1.7-0.4,3.7-1.1,4.3-2.8c0.6-1.4,0-3.1-0.6-4.5c-2.8-6.4-5.9-17.3-11.1-22.1
		c-4.1-3.8-13.1-6.6-18.4-6c-9.4,1-16,11.1-20.9,19.2c-0.8,1.4-0.6,3.1,0.4,4.2C200.5,371.7,220.5,375.6,235.6,372z"/>
</g>
</svg>
