<?xml version="1.0" encoding="utf-8"?>
<!-- Generator: Adobe Illustrator 21.1.0, SVG Export Plug-In . SVG Version: 6.00 Build 0)  -->
<svg version="1.1" id="圖層_1" xmlns="http://www.w3.org/2000/svg" xmlns:xlink="http://www.w3.org/1999/xlink" x="0px" y="0px"
	 viewBox="0 0 580 580" style="enable-background:new 0 0 580 580;" xml:space="preserve">
<style type="text/css">
	.st0{fill:none;}
	.st1{fill:#A2D7DD;}
	.st2{fill:none;stroke:#FFFFFF;stroke-width:5;stroke-linecap:round;stroke-linejoin:round;}
	.st3{fill:#FFFFFF;}
	.st4{fill:#E6E6E6;}
	.st5{fill:none;stroke:#FFFFFF;stroke-width:3;stroke-linecap:round;stroke-linejoin:round;}
	.st6{fill:none;stroke:#FFFFFF;stroke-width:2;stroke-miterlimit:10;}
	.st7{fill:none;stroke:#FFFFFF;stroke-width:3;stroke-miterlimit:10;}
	.st8{fill:none;stroke:#FFFFFF;stroke-width:2;stroke-linecap:round;stroke-linejoin:round;}
	.st9{fill:none;stroke:#FFFFFF;stroke-width:4;stroke-linecap:round;stroke-linejoin:round;}
	.st10{fill:#FDEDDB;}
	.st11{fill:#9FA0A0;}
	.st12{fill:#D3B8A2;}
	.st13{fill:#E4F3F1;}
	.st14{fill:#FAEDE4;}
	.st15{fill:none;stroke:#FBDED3;stroke-width:5;stroke-miterlimit:10;}
	.st16{fill:#FCE3CD;}
	.st17{fill:#E9DCD5;}
	.st18{fill:#E9473F;stroke:#FFFFFF;stroke-width:5;stroke-miterlimit:10;}
	.st19{fill:none;stroke:#FFFFFF;stroke-width:5;stroke-miterlimit:10;}
	.st20{fill:none;stroke:#FFFFFF;stroke-width:9;stroke-linecap:round;stroke-linejoin:round;}
	.st21{fill:#005D73;}
	.st22{fill:#006F83;}
	.st23{fill:#252B55;}
	.st24{fill:#FFEB27;}
	.st25{fill:#FDD35C;}
	.st26{fill:#A5BEC8;}
</style>
<title>card2</title>
<rect class="st0" width="580" height="580"/>
<path class="st1" d="M482.4,493.2c-3.3-0.8-6.4-2.2-9.2-4.2c-2.4-1.9-4.6-4.4-4.6-7.5c-0.1-5.2,5.4-8.4,10.2-10.5
	c11.4-4.9,26-7.5,35.7-15.5c6.8-5.6,8.2-19,4.3-27.1c-4.3-8.8-19.4-7.1-27.3-7.2c-14.3-0.2-28.6-0.8-42.9-1
	c-28.6-0.6-57.2-1-85.9-1.1c-86.2-0.5-172.2,2.6-258.4,2.6C86.2,421.5-4,431.1,0.1,458.4c1.1,7.3,16.6,23,93.4,26.2
	c84.5,3.6,165.2-13.8,211.3-7c9.4,1.4,32.9,7.6,18.7,19.4c-9,7.4-22.3,9.2-33.1,12.5c-12.9,4-48.2,16-58,29.6
	c-31.5,44,153.6,31.3,230.6,30.7c25.8-0.2,52.1-2.4,77.1-9c11.7-3.1,34.7-8.5,39.3-22c5-14.7-16.9-24.1-27-28.5
	c-13.3-5.7-27.1-10.1-41.2-13.3C502.8,495.2,491.5,495.6,482.4,493.2z"/>
<line class="st2" x1="180.2" y1="300.4" x2="180.2" y2="446.1"/>
<line class="st2" x1="154.4" y1="446.5" x2="211.5" y2="446.5"/>
<rect x="153.8" y="447.5" class="st3" width="4.1" height="8.2"/>
<circle class="st3" cx="155.8" cy="457.2" r="4.4"/>
<circle class="st4" cx="155.8" cy="457.2" r="2.7"/>
<rect x="207.8" y="447.5" class="st3" width="4.1" height="8.2"/>
<circle class="st3" cx="209.9" cy="457.2" r="4.4"/>
<circle class="st4" cx="209.9" cy="457.2" r="2.7"/>
<rect x="180.1" y="447.5" class="st3" width="4.1" height="8.2"/>
<circle class="st3" cx="182.1" cy="457.2" r="4.4"/>
<circle class="st4" cx="182.1" cy="457.2" r="2.7"/>
<line class="st5" x1="180.6" y1="283" x2="180.6" y2="421.4"/>
<path class="st5" d="M154.8,234.6h51.5c2.2,0,4,1.8,4,4v36c0,2.2-1.8,4-4,4h-51.5c-2.2,0-4-1.8-4-4v-36
	C150.8,236.4,152.6,234.6,154.8,234.6z"/>
<path class="st3" d="M159.4,239h42.3c1.5,0,2.8,1.3,2.8,2.8v23.4c0,1.5-1.3,2.8-2.8,2.8h-42.3c-1.5,0-2.8-1.3-2.8-2.8v-23.4
	C156.6,240.2,157.9,239,159.4,239z"/>
<path class="st3" d="M173.4,281.1h14.4c1.1,0,2,0.9,2,2v0.8c0,1.1-0.9,2-2,2h-14.4c-1.1,0-2-0.9-2-2v-0.8
	C171.4,282,172.3,281.1,173.4,281.1z"/>
<circle class="st3" cx="164.3" cy="272.8" r="1.9"/>
<circle class="st3" cx="175.2" cy="272.8" r="1.9"/>
<circle class="st3" cx="186" cy="272.8" r="1.9"/>
<circle class="st3" cx="196.8" cy="272.8" r="1.9"/>
<path class="st6" d="M80.3,165.9h14.5c2.1,0,3.9,1.7,3.9,3.9v32c0,2.1-1.7,3.9-3.9,3.9H80.3c-2.1,0-3.9-1.7-3.9-3.9v-32
	C76.5,167.7,78.2,165.9,80.3,165.9z"/>
<path class="st3" d="M87.2,158.2H88c1,0,1.8,0.8,1.8,1.8c0,0,0,0,0,0v6l0,0h-4.4l0,0v-6C85.4,159,86.2,158.2,87.2,158.2z"/>
<path class="st3" d="M86.4,205.6h2.4c0.5,0,1,0.4,1,1v13.5c0,0.5-0.4,1-1,1h-2.4c-0.5,0-1-0.4-1-1v-13.5
	C85.4,206.1,85.9,205.6,86.4,205.6z"/>
<rect x="85" y="211.4" class="st3" width="7.3" height="2.4"/>
<rect x="92.3" y="210" class="st3" width="1.4" height="4.8"/>
<path class="st3" d="M76.1,184.9V201c0,2.6,2.4,3.3,5,3.3h13c2.6,0,5.9-0.7,5.9-3.3v-16.1H76.1z"/>
<line class="st5" x1="68.7" y1="150.6" x2="68.7" y2="401.4"/>
<line class="st2" x1="68.7" y1="182.1" x2="68.7" y2="446.1"/>
<line class="st7" x1="51.5" y1="149.1" x2="84.9" y2="149.1"/>
<path class="st7" d="M42.5,147.3v6.6c0,3.1,2.6,5.7,5.7,5.7s5.7-2.6,5.7-5.7v-6.6"/>
<path class="st7" d="M82.4,147.3v6.6c-0.3,2.8,1.8,5.3,4.6,5.6s5.3-1.8,5.6-4.6c0-0.3,0-0.6,0-1v-6.6"/>
<line class="st2" x1="40.3" y1="446.5" x2="97.5" y2="446.5"/>
<rect x="39.7" y="447.5" class="st3" width="4.1" height="8.2"/>
<circle class="st3" cx="41.8" cy="457.2" r="4.4"/>
<circle class="st4" cx="41.8" cy="457.2" r="2.7"/>
<rect x="93.8" y="447.5" class="st3" width="4.1" height="8.2"/>
<circle class="st3" cx="95.8" cy="457.2" r="4.4"/>
<circle class="st4" cx="95.8" cy="457.2" r="2.7"/>
<path class="st8" d="M87.8,220.6c-1.1,16.7-1.1,35-0.6,51.7c0.4,14.2,0.7,28.3,3.3,42.4c1.2,5.4,3.4,10.6,6.4,15.3
	c2.1,3.6,5.4,6.3,9.2,7.9c3.2,1.1,6.7,1.1,10,1c16.8-0.3,33.9,0.4,50.6-2c13.2-1.9,25.6-9.1,39.1-8.7c3.7,0,7.3,1,10.5,2.9"/>
<rect x="39.9" y="246.5" class="st3" width="15.6" height="150.2"/>
<rect x="49.2" y="246.5" class="st4" width="6.3" height="150.2"/>
<circle class="st4" cx="116.1" cy="450.7" r="10.8"/>
<circle class="st3" cx="116.1" cy="450.7" r="6.3"/>
<path class="st3" d="M99.2,429.1h25.4l0,0v9.9c0,2.2-1.8,4-4,4c0,0,0,0,0,0h-17.5c-2.2,0-4-1.8-4-4l0,0
	C99.2,439,99.2,429.1,99.2,429.1z"/>
<rect x="103" y="439.1" class="st3" width="12.3" height="7.7"/>
<circle class="st4" cx="426.1" cy="450.7" r="10.8"/>
<circle class="st3" cx="426.1" cy="450.7" r="6.3"/>
<path class="st3" d="M439.1,443h-17.5c-2.2,0-4-1.8-4-4c0,0,0,0,0,0v-9.9l0,0h25.5l0,0v9.9C443.1,441.2,441.3,443,439.1,443
	C439.1,443,439.1,443,439.1,443z"/>
<rect x="426.9" y="439.1" class="st3" width="12.3" height="7.7"/>
<rect x="51.7" y="389" class="st4" width="435.3" height="18.5"/>
<rect x="40.7" y="381.1" class="st3" width="457.3" height="15.6"/>
<path class="st9" d="M232.6,428.3H92.1c-4.1,0-7.5-3.4-7.5-7.5c0-1.6,0.5-3.2,1.5-4.4l9.5-12.8c3.6-4.8,9.2-7.7,15.2-7.7h138.3
	c4.2,0,7.6,3.4,7.6,7.6c0,1.5-0.4,3-1.3,4.2l-8.5,12.9C243.7,425.4,238.3,428.3,232.6,428.3z"/>
<path class="st9" d="M446.1,429.1h-88.6c-4,0-7.2-3.2-7.2-7.2c0-1.5,0.5-3,1.4-4.3l14.5-19.6c1.4-1.8,3.5-2.9,5.8-2.9h59.3
	c2.2,0,4.3,1,5.7,2.8l14.9,19.6c2.4,3.2,1.8,7.7-1.3,10.1C449.3,428.6,447.7,429.1,446.1,429.1z"/>
<path class="st3" d="M481,360.2v13.5c0,4.1-3.3,7.4-7.4,7.4H128.3c-4.1,0-7.4-3.3-7.4-7.4v-13.5c0-4.1,3.3-7.4,7.4-7.4h345.3
	C477.7,352.8,481,356.1,481,360.2z"/>
<path class="st3" d="M145,364.9l-8.6,10.4c-2.6,3.1-7.3,3.6-10.4,1l-69.8-57.9c-3.1-2.6-3.6-7.3-1-10.4l8.6-10.4
	c2.6-3.1,7.3-3.6,10.4-1l69.8,57.9C147.2,357.1,147.6,361.8,145,364.9z"/>
<path class="st3" d="M156.4,354.3L150,362c-1.9,2.3-5.4,2.7-7.8,0.7l-67.5-56c-2.3-1.9-2.7-5.4-0.7-7.8l6.4-7.7
	c1.9-2.3,5.4-2.7,7.8-0.7l67.5,56C158,348.4,158.3,351.9,156.4,354.3z"/>
<line class="st9" x1="386.9" y1="397.9" x2="386.9" y2="428.4"/>
<line class="st9" x1="418.6" y1="397.8" x2="418.6" y2="428.3"/>
<path class="st10" d="M143.5,304l0.2,0.4c2.3,5.6,2.5,17-5,18.9c-1,0.3-5.9,1.2-6.7,0.5c2.9,2.9,6.3,5.3,9.9,7.3
	c-2.7,1.8-6,16.9-8.7,18.6c-1.3-4.6-5.5-14.5-15.8-18.8c-3.4-1.5-6.4-3.5-9.1-6c-4.6-4.1-10.8-7.3-11.8-13.9
	c-1-6.2,0.2-10.7,3.3-16.1c2.9-5.2,7.1-9.4,12.3-12.2c2.9-1.6,6.3-1.9,9.4-0.9c4.1,1.5,6.3,5.4,9,8.6c2.1,2.5,5.1,3.7,7.5,6
	C140.4,298.5,142.2,301.1,143.5,304z"/>
<path class="st11" d="M117.8,289.4c-0.1,1.2,0.4,2.6,0.4,3.8c-0.1,4-2.3,7.6-5.7,9.7c2.5,1.9,3.5,5.1,2.6,8c-3-0.6-9.5,0.3-5.5,4.5
	c1.8,1.9,5.4,1.6,7.4,3.2c1.1,1.1,2.1,2.3,2.7,3.8c0.8,1.3,1.3,2.9,1.2,4.4c-0.3,2.5-2.8,4-5.1,4.9c-5.8,2.4-11.6,0.9-13-3.6
	c-4.4-14-19.4-8.8-21.3-17.1c-2.3-10-3.3-14.6,5.4-23.9c3.4-3.7,12.1-6.6,16.2-9.3c4.1-2.7,4.7-5.9,9.7-7.2c2.9-0.8,5.9-0.7,8.7,0.4
	c1,0.4,1.9,1,2.6,1.9c1.4,1.8,1.4,4.3,1.4,6.5c0.3,1.7-0.5,3.4-2,4.4c-1.4,1.1-4.9,3-5.5,4.7C117.9,288.9,117.9,289.2,117.8,289.4z"
	/>
<path class="st12" d="M270.1,335c-1.7-1.1-3.5-2-5.4-2.7c-9.8-4.3-20-7.8-30.6-9.2c-12.5-1.7-25.4-5.3-38.1-3.1
	c-7.7,1.3-14.8,4.6-22.3,7c-8.8,2.8-14.3,0.7-22.9,0c-9.1-0.7-24.7,3.1-21.7,14.4c6.1,22.7,47.2,26,66.2,24.5
	c13.8-1,27.3-3.4,41-4.9c7.7-0.8,15.7-1.3,22.8-4.6c5.3-2.2,9.6-6.3,12.2-11.4c1.1-2.4,2.3-5.4,1-7.7
	C271.8,336.4,271,335.6,270.1,335z"/>
<path class="st13" d="M185.7,350.8c8.1-10.5,17-27.4,30.4-31c11.9-3.1,27.6,2.5,38.6,7.6c5.3,2.4,10.3,5.7,16,6.9
	c8,1.8,16.2-0.5,24.3-0.5c4,0.1,8,0.5,12,1c9.5,1,19,1.1,28.5,1.2c22.4,0.2,44.2-0.1,66.6-0.4c7.5-0.1,16.2,0,21.9,5.4
	c5.4,5.1,9.9,10.6,15.8,15.5c4,3.3,22.2,15.8,7.5,17.7c-9.3,1.2-17.6-1.1-26.7-1.3c-8.2-0.1-16.8,0.5-25.1,0.4
	c-18.1-0.1-36.2-0.4-54.3-1.1c-28.4-1.2-56.7-3.6-85.1-2.6c-19,0.7-38.2,2.9-57.1,0.7c-7.4-0.9-16.3-4.1-17.1-11.5
	C181.8,356.5,183.5,353.6,185.7,350.8z"/>
<rect x="123.5" y="392.9" class="st3" width="5.5" height="34.7"/>
<rect x="223.3" y="392.9" class="st3" width="5.5" height="34.7"/>
<rect x="157.1" y="396.6" class="st3" width="42.4" height="29.4"/>
<path class="st10" d="M264.5,335c4,0.2,5.8,1.7,9.7,0.3c1.4-0.6,2.8-1.1,4.3-1.5c2.6-0.2,2.5,1.5,7.8,1.5c2.8,0,3.1-1.6,1.4-3.9
	c-2-2.9-7.2-4.3-10.7-4.8c-3.6-0.7-7.3-0.3-10.7,1c-2.1,0.9-2.1,2.6-3.3,4.5c-0.5,0.8-0.7,2,0,2.6C263.6,334.9,264,335,264.5,335z"
	/>
<path class="st12" d="M159.3,334.1c16.3,2.5,32.2,7.5,47,14.8c0.8,0.4,1.6,0.7,2.5,0.8c1,0,1.9-0.3,2.8-0.7
	c12.5-5.3,25.1-10.3,37.5-15.6c8.7-3.8,22.3-11.6,30.1-0.5c-0.9,5.4-43.2,29.9-47,31.9c-0.9,0.5-6.8,2.5-7.6,3h-0.1
	c-3.6,2.2-7.4,4-11.4,5.4c-0.8,0.3-1.7,0.5-2.6,0.5c-1,0-2-0.3-2.9-0.6c-8.3-2.9-16.9-4.4-25.1-7.9c-6.3-2.7-12.3-6-17.9-10
	c-4.6-3.3-12.3-8-14.4-13.5C148,335.8,154.7,333.4,159.3,334.1z"/>
<circle class="st11" cx="468.8" cy="537.6" r="7"/>
<circle class="st11" cx="516.2" cy="537.6" r="7"/>
<circle class="st11" cx="534.7" cy="524" r="7"/>
<path class="st14" d="M475.3,399.5h59.1c5.4,0,9.7,4.3,9.7,9.7v106.4c0,5.4-4.3,9.7-9.7,9.7h-59.1c-5.4,0-9.7-4.3-9.7-9.7V409.2
	C465.5,403.9,469.9,399.5,475.3,399.5z"/>
<path class="st14" d="M461.2,410.8h59.1c5.4,0,9.7,4.3,9.7,9.7v106.4c0,5.4-4.3,9.7-9.7,9.7h-59.1c-5.4,0-9.7-4.3-9.7-9.7V420.5
	C451.5,415.2,455.9,410.8,461.2,410.8z"/>
<polygon class="st14" points="454.8,413.2 470.1,401.7 538.1,400.4 542.6,521.1 527.3,533.9 461.4,534.9 "/>
<path class="st15" d="M484.9,409.6v-10.5c0-3.6,2.9-6.5,6.4-6.5H508c4.5,0,8.2,3.7,8.2,8.3c0,0,0,0,0,0v8.4"/>
<path class="st16" d="M466.4,420.3L466.4,420.3c1,0,1.7,0.7,1.7,1.6v107.6c0,0.9-0.7,1.6-1.6,1.6h-0.1c-0.9,0-1.6-0.7-1.6-1.6V421.9
	C464.7,421,465.5,420.3,466.4,420.3z"/>
<path class="st16" d="M474.2,420.3L474.2,420.3c1,0,1.7,0.7,1.7,1.6v107.6c0,0.9-0.7,1.6-1.6,1.6h-0.1c-0.9,0-1.6-0.7-1.6-1.6V421.9
	C472.6,421,473.3,420.3,474.2,420.3z"/>
<path class="st16" d="M481.6,420.3L481.6,420.3c1,0,1.7,0.7,1.7,1.6v107.6c0,0.9-0.7,1.6-1.6,1.6h-0.1c-0.9,0-1.6-0.7-1.6-1.6V421.9
	C480,421,480.7,420.3,481.6,420.3z"/>
<path class="st16" d="M503.5,531.1L503.5,531.1c-1,0-1.7-0.7-1.7-1.6V421.9c0-0.9,0.7-1.6,1.6-1.6h0.1c0.9,0,1.6,0.7,1.6,1.6v107.6
	C505.1,530.3,504.4,531.1,503.5,531.1z"/>
<path class="st16" d="M510.9,531.1L510.9,531.1c-1,0-1.7-0.7-1.7-1.6V421.9c0-0.9,0.7-1.6,1.6-1.6h0.1c0.9,0,1.6,0.7,1.6,1.6v107.6
	C512.5,530.3,511.8,531.1,510.9,531.1z"/>
<path class="st16" d="M518.7,531.1L518.7,531.1c-1,0-1.7-0.7-1.7-1.6V421.9c0-0.9,0.7-1.6,1.6-1.6h0.1c0.9,0,1.6,0.7,1.6,1.6v107.6
	C520.3,530.3,519.6,531.1,518.7,531.1z"/>
<path class="st17" d="M481.6,493.9c-12.4,0.5-30.6-1.5-42.9-2.6s-25.1-1.3-36.9,2.7c-4.2,1.4-10.6,0.3-14.1,2.9
	c-0.7,0.5-0.7,0.5,1.4,2.5c2.1,2.1,38.7,7,46.1,7s42.4-6.2,42.4-6.2S485.2,493.8,481.6,493.9z"/>
<path class="st12" d="M398.3,499.4c6,0.5,11.9,0.4,17.9-0.1l29.9-2c12.3-0.8,24.5-2.1,36.8-3.7c2.2-0.3,0.9,4.5,0.7,5.4
	c-0.4,2.1-1.1,4.1-2.1,5.9c-1.5,2.5-3.9,4.1-5.8,6.2c-1.7,1.9-3.3,4-4.6,6.2c-2.8,4.8-5.2,9.9-7,15.2c-2.3,6.2-4.6,12.4-8.4,17.8
	c-1,1.8-2.5,3.2-4.4,4c-2.3,0.9-4.9,0.1-7.4-0.5c-6.7-1.6-13.7-1.4-20.3,0.6c-2.5,0.7-5.7,3-8.2,2.5c-2.5-0.5-6.3-3.9-8.6-5.4
	c-3.3-2-5.5-3.7-6.5-7.5c-0.9-3.6-1.5-7.2-2.3-10.8c-1.5-7.4-2.6-15-5.1-22.2c-0.9-2.8-2.3-5.5-4-8c-1.3-1.8-2.7-4.3-2.3-5.4
	c0.6-1.8,2.7-0.1,4.6,0.4C393.5,498.7,395.9,499.2,398.3,499.4z"/>
<path class="st12" d="M416.8,499.1c4,4.6,5.2,5.8,6.5,8.7c1,2.3,1.7,4.7,2.3,7.1c0.3,1.1,1.3,1.9,2.4,1.9c3.6-0.1,11-0.2,11.9-0.2
	c2.1,0,3.1,0.3,3.7-1.4c0.6-1.9,1.2-3.8,1.5-5.7c0.6-3.4,1.1-9.4,4.4-12.7C449.5,496.9,418.4,498.5,416.8,499.1z"/>
<path class="st14" d="M411.6,485.4c0.3-1.8,0.6-3.5,1.1-5.2c0.5-2.7,1.7-5.2,3.3-7.4c2.1-2.3,4.9-3.8,8-4.4c4.9-1,10-0.3,15,0.3
	c7.1,0.9,11.7,6.3,13.3,13.2c0.3,1.3,0.4,2.7,0.8,3.9c0.3,1.3,1.2,2.4,2.4,3.1c0.5,0.2,1,0.4,1.4,0.7c0.8,0.8,1.3,1.9,1.3,3
	c-0.2,0.6-2,0.3-2.6,0.3c-1.1,0-2.4-0.1-3.6-0.1c-0.7,0-1.7,0.2-2.3-0.3c-0.4-0.3-0.1-2,0.1-2.4c0.2-0.4,0.4-0.9,0.7-1.3
	c2.3-4.5-2.9-14.3-7.6-15.3c-7.5-1.7-20-4.2-25.7,2.7c-1.7,2.1-3.8,6.4-2.3,8.9c0.4,0.7,1.3,1.1,1.9,1.8c1.5,1.9,3.1,4.1-0.8,4.5
	c-3.9,0.4-4.9,1.5-4.5-1.9C411.6,488.7,411.5,486.1,411.6,485.4z"/>
<path class="st14" d="M412.6,499.6l3.9-0.3c0.4,0.4,0.7,0.5,0.8,1.2c0,1-0.3,2-0.8,2.9c-0.2,0.2-0.3,0.6-0.5,0.7
	c-1,0.7-0.8,1.7-0.6,2.7c0.1,0.8,0.3,1.5,0.5,2.3c1.3,4.5,4,8.4,7.8,11.1c0.6,0.4,1.2,0.8,1.9,1.1c3.8,2.1,8.3,2.8,12.5,2
	c2.6-0.4,5-1.5,6.8-3.3c2-2.3,3.6-4.8,4.9-7.6c0.4-0.8,3-10,2.5-10.1c-1.7-0.3-2.6-3.9-1.8-5.5l7-0.5c0.1,1.8,0.8,3.2-0.7,4.1
	c-0.4,0.2-0.9,0.5-1.2,0.8c-0.3,0.7-0.5,1.4-0.6,2.1c-1.8,7.2-3.9,14.9-9.5,20.1c-2.3,2-5.3,3.2-8.3,3.3c-3,0.1-6.1-0.4-8.9-1.5
	c-5.3-1.9-8.8-5.5-11.6-10.3c-1-1.7-1.8-3.5-2.5-5.4c-0.3-0.9-0.6-1.9-0.8-2.8c-0.1-1-0.6-1.9-1.4-2.5c-2-1.4-1.3-3.3-0.9-4.4
	c0-0.1,0.1-0.2,0.2-0.3c0.1-0.1,0.2-0.1,0.4-0.1L412.6,499.6z"/>
<circle class="st18" cx="417" cy="158.1" r="153.4"/>
<line class="st19" x1="417" y1="11.8" x2="417" y2="34.1"/>
<line class="st19" x1="417" y1="283.4" x2="417" y2="305.8"/>
<line class="st19" x1="343.5" y1="31.5" x2="354.7" y2="50.8"/>
<line class="st19" x1="479.3" y1="266.7" x2="490.5" y2="286.1"/>
<line class="st19" x1="289.7" y1="85.3" x2="309.1" y2="96.4"/>
<line class="st19" x1="525" y1="221.1" x2="544.3" y2="232.3"/>
<line class="st19" x1="270" y1="158.8" x2="292.3" y2="158.8"/>
<line class="st19" x1="541.7" y1="158.8" x2="564" y2="158.8"/>
<line class="st19" x1="289.7" y1="232.3" x2="309" y2="221.1"/>
<line class="st19" x1="525" y1="96.5" x2="544.3" y2="85.3"/>
<line class="st19" x1="343.5" y1="286.1" x2="354.7" y2="266.7"/>
<line class="st19" x1="479.4" y1="50.8" x2="490.5" y2="31.5"/>
<polyline class="st20" points="506.7,214.8 419.3,154.6 482.9,138 "/>
<path class="st16" d="M361.1,498.8c-0.9,1.7-1.7,3.4-2.3,5.2c-0.9,3.7-2.2,7.2-3.9,10.6c-1.1,2.3-2.9,4.3-5.1,5.7
	c-2.3,1.4-5.1,1.3-7.3-0.1c-0.7-0.5-1.1-1.2-1.3-2c0-0.6,0.1-1.1,0.3-1.7c0.3-0.6,0.7-1.3,0.9-2c0.9-3.1,2.5-6,3.7-9s3-7.6,1.9-10.6
	c-2.1-6-4.6-12-7.4-17.7c-10.7-22.8-17.3-38.6-31.8-63.4c-5.7-9.8,1.3-19.2,7.1-26.8l1.3-1.7c6.3-8.3,15.8-13.9,24.3-19.9
	c2.5-1.9,5.3-3.4,8.3-4.5c5.7-1.8,12.2-0.1,17.1,3.4s8.4,8.6,11,14.1c1.2,2.6,2.3,5.4,1.9,8.2c-0.6,2.6-1.8,5-3.7,6.8
	c-4.1,4.6-10.3,3-14.7,7.3c-2.8,2.6-6.4,2.4-9.8,2.7s-6.2,4-7.9,6.5c-0.8,1-1.3,2.2-1.5,3.5c0,1.2,0.3,2.4,0.8,3.5
	c0.9,2.6,1.9,5.1,3.1,7.5c1.1,1.7,1.9,3.6,2.5,5.5c1.2,4.7,1.3,9.6,1.8,14.4c0.9,7.2,2.2,14.4,3.9,21.5c1.6,7.2,3.1,14.8,6.4,21.5
	v0.1c1.3,2.2,2.5,3.8,2,6.6C362.4,495.8,361.9,497.3,361.1,498.8z"/>
<path class="st21" d="M355.5,487.6c-1.3,1.8-3.5,2.8-5.7,2.7c-4.2-0.3-6.7-4.7-8.5-8.5l-30.1-64.4c-1.7-3.6-3.4-7.4-3.5-11.4
	c0-2.9,0.6-5.7,1.7-8.3c6-15,19.7-24.1,32.6-32.6c4.6-3,9.9-5.5,15.4-4.8c6.4,0.7,11.6,5.4,15.7,10.4c2.6,3.2,5.1,6.6,6.2,10.6
	c1.1,4,0.6,8.6-2.2,11.6c-2.7,3.1-7.3,4.1-11.2,5.7c-2.3,1-4.4,2.2-6.6,3.1c-3.1,1.2-6.6,1.8-9.7,3.1s-6.1,3.7-6.8,7
	c-0.8,3.6,1.3,7.1,2.8,10.5c6.6,14.4,4.5,31.4,9.3,46.5c1.4,4.2,3.3,8.4,3,12.9C357.7,483.7,356.9,485.9,355.5,487.6z"/>
<path class="st21" d="M393,331.1c3-1.9,6.1-3.8,9.1-5.6c5.9-3.5,10.8-6.2,17.7-3.4c5.1,2.2,8.7,6.7,9.8,12.2c0.6,3.1,0.9,6.2,1,9.3
	c0.1,0.9,0,1.8-0.3,2.7c-0.5,1-1.3,1.8-2.3,2.4c-20.7,15-43.3,27.1-67.3,35.8c-6.8,2.5-17.8,8-24.7,3c-6.9-4.9-0.6-15.7,4.1-20
	c6-5.2,12.3-9.9,19-14.1C370.3,345.8,381.5,338.3,393,331.1z"/>
<path class="st10" d="M365.7,541.3c-1.6,0.8-4,0.8-4.9-0.7c-0.8-1.3,0-2.9,0.5-4.4c3.7-11.5,7.8-21.5,4.8-27.5
	c-4.4-8.9-8.5-18-13.2-26.8c-3.7-7-7.1-15.8-10.9-22.9c-3.9-7.3-7.8-13.1-11-20.7c-4-9.6-11.5-23.4-7.6-34
	c3.2-8.6,9.6-15.7,16.3-21.8c7.1-6.5,14.8-12.1,23.2-16.7c3.7-2,9.9-5.9,14.4-4.6c9.8,3,18.2,9.5,25.1,17c5.3,5.8-2.3,12.3-6.5,16
	c-6.5,5.7-14.6,9.1-22.4,12.5c-5.1,2.3-13.4,6.6-19,7.4c1-0.1,7.8,14.7,8.6,16.4c2.5,4.9,4.5,10.1,6,15.5
	c4.9,18.1,3.1,37.7,8.4,55.7c0.5,1.6,3.9,1.9,5.6,4.9c2.1,3.7-2.1,6.4-3.6,10.5c-3.1,8.8-6.6,18-13.7,23.9"/>
<path class="st22" d="M463,325.8c-2.5-4.7-19.2-18.8-19.2-18.8c-1-0.8-9.4,2.4-10.8,2.6c-4.6,0.6-7.2,0.2-9.1,5.5
	c-1,2.7-1.2,5.5-2.2,8.1c-2.4,6.6-8.6,10.9-14.4,14.8c-14.9,10-9.9,4.2-24.8,14.2c-7.4,5-18.8,10.4-26.2,15.3
	c-0.5,0.3-1.1,0.9-2,1.6C345,375,337,382.8,330,391.3c-4,4.9-7.9,10.3-8.6,16.5c-0.6,5.6,1.3,11.1,3.4,16.4
	c10.2,25.4,23.6,49.4,35,74.3c1.1,2.4,3.8,3.6,6.3,2.8c3.4-1.2,6.3-3.3,8.6-6c0.7-0.9,1.1-2,1-3.2c-0.1-6.4-1-14.2-1.2-17.4
	c-1-13.4-1.8-15.7-5.6-28.6c-3.2-11.2-7.9-22-14.1-31.9c14.1-5.1,28.5-10.4,40.2-19.5c18.5-7,38.1-15.8,54.5-27.1
	C464.4,357.5,472,342.8,463,325.8z"/>
<path class="st23" d="M389.8,213.9c-2.5-2.1-5.3-3.6-8.4-4.5c-5.3-1.8-9.7-6.2-13.9-9.7c0.5-1.1,0.8-2.3,1-3.5
	c1.1-9.5-17.8-23.7-23.5-12.5c-4,7.8,0.9,17.6,3.9,24.9c4.9,11.8,10.3,26.8,7.7,39.7c-1.3,6.5-4.6,12.5,4,15.5
	c6.5,2.2,13.8-0.7,18.8-5.4c7.1-6.6,13.7-18.6,15.1-28.2C395.5,224.4,394.2,217.9,389.8,213.9z"/>
<path class="st10" d="M360.1,344.1c-2.2,0.9-4.8,4.3-6.6,5.8c-2.5,2.2-3.7,5.8-3.5,6.3c0.5,0.7,2.1-3,4.1-4.3
	c-0.7,0.8-4,6.1-3.6,6.5c0.9,1.4,3.8-5,5.4-5.6c-0.5,0.9-4,5.3-3.8,6.2c0.4,1.5,4.7-5.4,6-5.8c-0.8,1-4.2,6.5-3.8,7
	c0.7,0.8,3.1-3.2,3.5-3.6s1.5-1.6,1.9-2.1c0.8-0.9,1-1.6,1.7-1.9c0.2-0.1,0.5-0.3,0.7-0.2c0.7,0.3,0.5,1.3,0.1,2.7
	c-0.2,0.7,0,2.3,0.5,1.6c1-1.4,1.6-3,1.9-4.7c0.6-3.1,3.9-4.6,6.5-5.7c2.3-0.8,4.4-1.7,6.6-2.9c0.8-0.5,2.6-1.3,2.9-2.3
	c1-3.3-4.4-8.2-7.5-6.2c-1.8,1.1-3.1,3-4.9,4.1C365.9,340.5,362.5,343.1,360.1,344.1z"/>
<path class="st24" d="M392.6,273.7c-0.6,18.2-4.6,46.8-23.8,63.7c-1.5,1.3-4.9,1.7-5.3,4.8c3.5-1.1,8.5-0.2,6.1,5.1
	c2.8,2.7,16.8-7.2,19.3-10.4c12.6-16.6,10.7-34.8,14-43.4L392.6,273.7z"/>
<path class="st24" d="M401.6,341c1.3-0.3,2.5-0.5,3.6-0.7c16.9-2.2,37.9,1.3,50-14.8c4-5.3,2-12.1-1.9-21.7
	c-2.9-7-5.5-24.6-9.1-38.3c-9.5-36.7-25.9-47-35-48.2s-17.1-2.8-23.7,8.1c-1.7,3.1-2.8,6.5-3.1,10c-1,5.2-1.3,10.5-0.9,15.8
	c1.4,12,10.1,32.1,15.5,48c2.5,7.2,2.7,15,0.8,22.4c-0.9,3.5-2.1,6.9-3.5,10.1c-0.8,1.9-4.7,7.8-1.3,9.2
	C395.5,342.1,398.6,341.6,401.6,341z"/>
<path class="st25" d="M401.6,341c1.3-0.3,2.5-0.5,3.6-0.7c6.1-0.8,10.7,0.3,14.8-4.7c3.6-4.6,5.7-10.2,5.9-16
	c0.4-7.4-1.5-14.6-3.4-21.7c-3.1-11.3-6.7-22.7-12.7-32.7c-4.3-7.2-10.4-13.9-18.6-15.8c-2-0.4-6.6-1.3-8.4-0.1
	c-2,1.4-1.3,2.7-0.8,5.3c1,4.8,2.3,9.6,4,14.2c3.4,10.3,7.5,20.2,11,30.5c2.5,7.2,2.7,15,0.8,22.4c-0.9,3.5-2.1,6.9-3.5,10.1
	c-0.8,1.9-4.7,7.8-1.3,9.2C395.5,342.1,398.6,341.6,401.6,341z"/>
<path class="st10" d="M382,351.4c-1.1,1.2-2.3,2.2-3.7,3.1c-5.3,3.1-6.6,5.8-8,11.7c-0.1,0.3,0,0.8,0.4,0.8c0.1,0,0.2-0.1,0.3-0.2
	c1.7-1.8,1.8-4.9,4.9-6.8c-2.8,3.3-2.8,5.4-3.5,7.6c-0.1,0.3-0.2,0.8,0.1,1c0.3,0.2,0.7-0.1,0.9-0.4c0.7-1.1,1.3-2.2,1.7-3.4
	c0.8-1.5,1.9-2.8,3.2-3.8c-1.7,2.3-2.7,4.9-3.1,7.7c0,0.3,0,0.6,0.3,0.8c0.9,0.5,1.5-2.6,1.8-3.1c0.8-1.6,1.8-3,3.1-4.1
	c-0.7,1.4-1.1,2.9-1.2,4.4c-0.1,0.4-0.1,0.9,0,1.4c0.3,1.6,1,0.7,1.4-0.2c0.2-0.5,0.3-1.9,0.7-2.7c0.7-1.4,1.9-2.6,3.4-3.3
	c1.8-0.7,3.6-3.4,4.3-6.7c0.4-2.3,1.4-4.6,2.9-6.4c0.7-0.7,1.3-1.5,1.8-2.4c0.4-0.7,3.4-3.8,2.1-4.7c-1.7-1.1-3.5-1.9-5.3-2.6
	c-1.9-0.7-3.1,2-3.6,3.3c-0.4,1.1-0.5,2.3-0.9,3.4C385.2,348,383.9,350,382,351.4L382,351.4z"/>
<path class="st24" d="M394.3,348.8c1.2-1,2.3-2.1,3.3-3.3c8.7-10.4,16.7-21.5,22-34c1.9-4.2,3.2-8.7,3.7-13.2
	c0.3-4.5-0.1-9-1.3-13.3c-4-17-12.5-32.7-24.6-45.4c-1.8-1.8-4.1-3.1-6.5-3.8c-9.2-3-11.1,6.5-9.6,11.9
	c3.7,13.7,11.2,29.8,18.2,42.2c1.4,2,2.3,4.3,2.9,6.6c0.2,2.5-0.1,5-0.9,7.4c-2.8,9.8-8.3,18.5-12.5,27.7
	c-2.3,4.8-9.2,18.9,1.6,18.7C391.9,350.1,393.2,349.6,394.3,348.8z"/>
<path class="st10" d="M391.4,206.8c0.8-3,2.5-5.8,3.4-8.8c1.1-3.7,1.4-7.6,0.9-11.4c-0.6-6.3-2.2-12.3-6.5-17
	c-4.6-4.9-16.1-9.7-22.8-8.2c-14.4,3.3-23.1,16.5-22.7,24.3c0.5,10.3,7.4,14.8,12.4,18.1c1.4,0.9-0.2,5.9,5.8,11
	c5.3,4.4,16.6,10.5,19.6,2.8c0.1-0.4,0.2-0.8,0.7-0.9c0.8-0.2,1.4,0.5,1.7,1.2c1.6,3.8,1.6,8-0.1,11.8c5.1,0.7,10-2.1,11.9-6.9
	c0.1-0.2,0.1-0.4,0.1-0.7c-0.1-0.4-0.3-0.7-0.6-0.9C391.5,217.4,390.1,211.9,391.4,206.8z"/>
<path class="st23" d="M340.9,193.9c2.6,1.6,5.8,1.9,8.7,0.8c4.6-1.7,3.4-6.1,8.1-7.7c4,4.8,18.7,7.4,24.3,6.6s6.7-1.5,7.8,7.6
	c0.6,5.1-0.5,13.2,1.7,18c3.6,8.2,12.7,12,21.5,13.7c5.1,1,8.6,0.5,12.2-3.2c5.3-5.4,9.7-14,6.3-21.5c-3-6.8-9.7-10.1-15.6-14.1
	c-6.6-4.5-12.3-10.1-16.9-16.7c-3.4-4.8-6.2-10.2-10.3-14.4c-4.4-4.4-9.7-5.8-15.9-6.2c-5-0.3-12.4,0.1-16.8,2.8
	s-6.7,11.2-10.3,15.1c-3.2,3.4-8.3,7.4-8.2,12.6C337.5,189.9,338.7,192.4,340.9,193.9z"/>
<path class="st22" d="M311.5,551.3c6.7-2.1,13-5.1,18.9-8.9c-0.7-2.5-2.2-4.8-4.1-6.7c-0.8-0.7-1.3,0.8-1.8,1.5
	c-0.8,1.2-1.8,2.7-3.2,3.2c-2.3,0.7-5.5-0.3-7.7-1.1c-1.6-0.6-3.4-1.4-5.1-0.9c-0.8,0.4-1.4,1-1.9,1.8c-2.9,4.1-6.1,8.7-10.7,10.6
	c-1.6,0.7-4.1,1.1-4.8,3.2c0,0.1,0,0.2-0.1,0.3C297.8,554.7,305.5,553.3,311.5,551.3z"/>
<path class="st26" d="M311.5,551.3c-6,1.9-13.7,3.4-20.3,2.9c-1.7,6.6,16.7,1.1,18.3,0.8c4.9-1.1,11-2.6,21.6-9.5
	c-0.1-1-0.4-2.1-0.7-3.1C324.5,546.2,318.2,549.2,311.5,551.3z"/>
<path class="st26" d="M267.4,530.5c-0.1,0.1-0.1,0.1-0.2,0.2c-3.8,6.4,15.7,4.9,17.5,4.9c5-0.1,11.2-0.2,22.9-4.8c0.1-1,0.1-2,0-3
	C285.8,535.7,274.4,533.5,267.4,530.5z"/>
<path class="st22" d="M307.6,527.8c-0.2-2.7-1.1-5.3-2.6-7.5c-0.6-0.9-1.5,0.5-2,1.1c-1,1-2.3,2.3-3.7,2.4c-2.4,0.2-5.3-1.5-7.3-2.7
	c-1.4-0.9-3-2.1-4.7-1.9c-0.8,0.2-1.6,0.7-2.2,1.3c-3.7,3.4-7.7,7.2-12.5,8.1c-1.6,0.3-4,0.3-5.1,1.9
	C274.4,533.5,285.8,535.7,307.6,527.8z"/>
</svg>
