<?xml version="1.0" encoding="utf-8"?>
<!-- Generator: Adobe Illustrator 21.1.0, SVG Export Plug-In . SVG Version: 6.00 Build 0)  -->
<svg version="1.1" id="圖層_1" xmlns="http://www.w3.org/2000/svg" xmlns:xlink="http://www.w3.org/1999/xlink" x="0px" y="0px"
	 viewBox="0 0 480 480" style="enable-background:new 0 0 480 480;" xml:space="preserve">
<style type="text/css">
	.st0{fill:#E9473F;}
	.st1{fill:#FFFFFF;}
	.st2{fill:#F29983;}
	.st3{fill:none;stroke:#FFFFFF;stroke-width:2;stroke-linecap:round;stroke-miterlimit:10;}
	.st4{fill:none;stroke:#FFFFFF;stroke-width:1.5;stroke-linecap:round;stroke-linejoin:round;}
	.st5{fill:#FDEDDB;}
	.st6{fill:none;stroke:#FFFFFF;stroke-width:1.5;stroke-linecap:round;stroke-miterlimit:10;}
	.st7{fill:#A2D7DD;}
	.st8{fill:#006F83;}
	.st9{fill:#252B55;}
	.st10{fill:#C9CACA;}
	.st11{fill:#D3B8A2;}
	.st12{fill:#FFEB27;}
	.st13{fill:#4E2C4A;}
	.st14{fill:#F8C6B5;}
	.st15{fill:none;}
</style>
<g>
	<path class="st0" d="M172.8,431.9c-24.5,0-76.5,0.5-90.7,0c53.1-29.2,83.2-72.7,83.2-72.7h77.1
		C242.3,359.2,218.4,413.2,172.8,431.9z"/>
	<path class="st1" d="M158.9,401.5l15.2-21.6l-10.1,4.7l4.9-7l10.1-4.7l6.9,0.6l-20.1,28.6L158.9,401.5z"/>
	<path class="st1" d="M179.7,403.5c-5.5-0.5-8.1-3.7-4-9.7c1.9-2.7,4.6-4.7,7.7-5.8c-0.5-1-1.3-2.9,0.8-5.9c3.6-5.1,9.7-8,15.8-7.6
		c5.2,0.5,7.7,4,3.9,9.4c-1.8,2.4-4.3,4.2-7.1,5.4c0.5,1,1.6,2.9-1,6.4C192.4,401,186.1,404,179.7,403.5z M188,391.6
		c-2.1,0-4.1,1.1-5.3,2.8c-1.2,1.7-0.7,3.1,1.1,3.3c2.1,0,4.1-1.1,5.3-2.8C190.3,393.3,189.8,391.7,188,391.6L188,391.6z M196,380.3
		c-1.9,0-3.7,1-4.8,2.5c-1.1,1.6-0.6,2.9,1,3c1.9,0,3.7-1,4.8-2.5C197.9,381.9,197.5,380.6,196,380.3L196,380.3z"/>
	<path class="st1" d="M138.2,414.5c0.1,0,0.1,0.1,0.1,0.1c0,0.1-0.1,0.1-0.2,0.1c-0.2,0.1-0.5,0.4-0.7,0.6h2.8l0.6-1.1l1.1,0.1
		c0.2,0,0.2,0.1,0.2,0.1c-0.1,0.1-0.2,0.2-0.4,0.4l-0.4,0.6h4.2l-0.6,1.1h-4.2l-0.6,1.1h3.6l-0.6,1h-3.6l-0.6,1.1h4.8l-0.6,1.1
		h-11.8l0.6-1.1h5.8l0.6-1.1h-3.4l0.6-1h3.4l0.6-1.1h-3.4c-0.7,0.6-1.4,1.2-2.2,1.7l-0.8-0.6c1.4-1,2.9-2.2,4.1-3.4L138.2,414.5z
		 M148.6,409.1l-2.9,4.9h-8.8l2.9-4.9H148.6z M145.5,412h-6.3l-0.5,0.8h6.3L145.5,412z M146.2,411l0.5-1h-6.3l-0.5,1H146.2z"/>
	<path class="st1" d="M151.7,418.6c0.1,0,0.1,0.1,0.1,0.1c-0.1,0.1-0.2,0.2-0.4,0.2c-1,0.7-1.9,1.4-2.9,2.2l-0.6-0.6
		c1.1-0.7,2.2-1.4,3.1-2.3L151.7,418.6z M155.1,410.4l1-1.7l1,0.1c0.2,0,0.2,0,0.2,0.1c-0.1,0.1-0.2,0.2-0.4,0.4l-0.7,1.2h2.1l1-1.7
		l1,0.1c0.2,0,0.2,0,0.2,0.1c-0.1,0.1-0.2,0.2-0.4,0.4l-0.7,1.2h1.1l-0.6,1h-1.1l-3.1,5.4h1.2l-0.6,1H149l0.6-1h1.6l3.1-5.4H153
		l0.6-1L155.1,410.4z M154.6,416.9l0.7-1.2h-2.1l-0.7,1.2H154.6z M154.2,420l-1.4,0.7c0.1-0.6,0-1.3-0.1-1.9l1.2-0.6
		C154.2,418.7,154.4,419.4,154.2,420L154.2,420z M155.8,414.7l0.7-1.2h-2.1l-0.7,1.2H155.8z M162.1,408.8h4.3l-6.3,10.9
		c-0.4,0.6-0.8,1-1.4,1.1c-0.5,0.1-1,0.2-1.6,0.2l0.2-1.1h1.2c0.2,0,0.6-0.1,0.7-0.4l1.6-2.7h-2.2c-0.4,0.5-0.7,1-1.1,1.4
		c-0.7,1-1.6,1.9-2.5,2.8l-0.8-0.6c0.8-0.7,1.6-1.6,2.3-2.4c0.7-1,1.4-2.1,2.1-3.1l2.9-4.9L162.1,408.8z M157,412.6l0.7-1.2h-2.1
		l-0.7,1.2H157z M161.4,415.7l1.4-2.4h-2.2l-1,1.6l-0.5,0.8H161.4z M163.3,412.2l1.3-2.3h-2.1l-1.3,2.3H163.3z"/>
	<path class="st1" d="M178.1,418.2l-0.7,1.2h-12.3l0.7-1.2H178.1z M181.4,410.4l-0.7,1.2h-9.9l0.7-1.2H181.4z"/>
	<path class="st1" d="M231.1,364.9c-22.9,0.2-46.6,0.5-69.7-0.4l-0.7,1c12.7,0.5,25.3,0.6,38,0.6c10.9,0,21.7-0.1,32.6-0.2l8.3-0.1
		l0.5-1L231.1,364.9z"/>
	<ellipse class="st2" cx="217.8" cy="362.6" rx="2.8" ry="1.1"/>
	<ellipse class="st2" cx="183.8" cy="362.6" rx="2.8" ry="1.1"/>
	<path class="st3" d="M183.8,362.1c-1.1-3.4,4-7.1,4.6-3.4"/>
	<path class="st3" d="M218.4,361.9c0.5-4.9,3.5-6.3,4-3"/>
	<path class="st4" d="M257.6,341.6c2.1,0.4,4.1,0.7,6.3,0.8"/>
	<path class="st4" d="M257.4,346.6c1.6,0.2,3,0.5,4.5,0.7"/>
	<path class="st4" d="M252.4,350.3c3.1,0.5,7.8,1.2,12.4,1.9"/>
	<path class="st0" d="M267,355.5c-23.4,0-67.1,0.5-80.7,0c52.5-32.8,72.5-73.1,72.5-73.1h73.7C332.5,282.3,298.6,340.5,267,355.5z"
		/>
	<path class="st1" d="M250.3,327.6l13.9-22.4l-9.9,5.3l4.5-7.4l9.9-5.3l6.9,0.2l-18.3,29.7L250.3,327.6z"/>
	<path class="st1" d="M285.7,316.5l-13.1,11.6l-7.6-0.2l13.1-11.5c-0.6,0.1-1.2,0.2-1.8,0.1c-3.7-0.1-6.2-3.4-2.5-9.2
		c3.9-6.3,10.5-9.4,15.9-9.3c5.4,0.1,8.1,3.5,4.2,9.9C292,311.1,288.9,313.8,285.7,316.5z M286,304.4c-2.2,0.1-4.1,1.3-5.2,3.3
		c-1.3,2.2-0.7,3.4,1,3.5c2.2-0.1,4.1-1.3,5.2-3.3C288.3,305.6,287.6,304.4,286,304.4L286,304.4z"/>
	<path class="st1" d="M224.2,340.2c0.1,0,0.1,0.1,0.1,0.1c0,0.1-0.1,0.1-0.2,0.1c-0.2,0.1-0.5,0.4-0.7,0.6h2.8l0.6-1.1l1.1,0.1
		c0.2,0,0.2,0.1,0.2,0.1c-0.1,0.1-0.2,0.2-0.4,0.4l-0.4,0.6h4.2l-0.6,1.1h-4.2l-0.6,1.1h3.6l-0.6,1h-3.6l-0.6,1.1h4.8l-0.6,1.1
		h-11.8l0.6-1.1h5.8l0.6-1.1h-3.4l0.6-1h3.5l0.6-1.1h-3.4c-0.7,0.6-1.4,1.2-2.2,1.7l-0.8-0.6c1.4-1,2.9-2.2,4.1-3.4L224.2,340.2z
		 M234.6,334.6l-2.9,4.9h-8.8l2.9-4.9H234.6z M231.7,337.6h-6.3l-0.5,0.8h6.3L231.7,337.6z M232.2,336.7l0.5-1h-6.3l-0.5,1H232.2z"
		/>
	<path class="st1" d="M237.8,344.3c0.1,0,0.1,0.1,0.1,0.1c-0.1,0.1-0.2,0.2-0.4,0.2c-1,0.7-1.9,1.4-2.9,2.2l-0.6-0.6
		c1.1-0.7,2.2-1.4,3.1-2.3L237.8,344.3z M241.2,336l1-1.7l1,0.1c0.2,0,0.2,0,0.2,0.1c-0.1,0.1-0.2,0.2-0.4,0.4l-0.7,1.2h2.1l1-1.7
		l1,0.1c0.2,0,0.2,0,0.2,0.1c-0.1,0.1-0.2,0.2-0.4,0.4l-0.7,1.2h1.1l-0.6,1h-1.1l-3.1,5.5h1.2l-0.6,1h-7.1l0.6-1h1.6l3.1-5.4H239
		l0.6-1L241.2,336z M240.6,342.5l0.7-1.2h-2.1l-0.7,1.2H240.6z M240.4,345.7l-1.4,0.7c0.1-0.6,0-1.3-0.1-1.9l1.2-0.6
		C240.2,344.4,240.4,345,240.4,345.7L240.4,345.7z M241.8,340.4l0.7-1.2h-2.1l-0.7,1.2H241.8z M248.1,334.5h4.3l-6.3,10.9
		c-0.4,0.6-0.8,1-1.4,1.1c-0.5,0.1-1,0.2-1.6,0.2l0.2-1.1h1.2c0.2,0,0.6-0.1,0.7-0.4l1.6-2.7h-2.2c-0.4,0.5-0.7,1-1.1,1.4
		c-0.7,1-1.6,1.9-2.5,2.8l-0.8-0.7c0.8-0.7,1.6-1.6,2.3-2.4c0.7-1,1.4-2.1,2.1-3.1l2.9-4.9L248.1,334.5z M243,338.2l0.7-1.2h-2.1
		l-0.7,1.2H243z M247.4,341.4l1.4-2.4h-2.1l-1,1.6l-0.5,0.8H247.4z M249.4,337.9l1.3-2.3h-2.1l-1.3,2.3H249.4z"/>
	<path class="st1" d="M263.6,344.8l-0.7,1.2h-12.3l0.7-1.2H263.6z M265,339.8l-0.7,1.2H255l0.7-1.2H265z M268.5,335.2l-0.7,1.2
		h-10.9l0.7-1.2H268.5z"/>
	<path class="st1" d="M256,288.1l-0.5,1c4.9,0.1,9.9,0.1,15,0.1c12.5,0,25-0.2,37.2-0.4c7.1-0.1,14.5-0.2,21.8-0.4l0.5-1
		c-7.5,0.1-15.1,0.2-22.3,0.4C290.8,288.1,273.3,288.3,256,288.1z"/>
	<ellipse class="st2" cx="306.8" cy="285.4" rx="2.8" ry="1.1"/>
	<ellipse class="st2" cx="272.8" cy="285.4" rx="2.8" ry="1.1"/>
	<path class="st3" d="M272.8,284.9c-1.1-3.4,4-7.1,4.6-3.4"/>
	<path class="st3" d="M306.3,284.9c0.6-5.7,4-7.1,4.6-3.4"/>
	<path class="st5" d="M158.7,180.5c-0.6-1.7-1.7-3-3-4.1c-1.6-1.3-4-1.1-5.3,0.5c-0.7,0.8-1.1,2.1-0.8,3.1c0.2,2.5,2.1,4.6,4.5,5.1
		L158.7,180.5z"/>
	<path class="st0" d="M278.2,296.9c-20.1,0-67.1,0.4-78.9,0c43.7-24,70.8-66,70.8-66l60.1,1.1C330.4,231.9,313.2,267.6,278.2,296.9z
		"/>
	<path class="st1" d="M249.7,275.1l3.9-6.2l18.5-11.5c1.5-0.7,2.7-1.8,3.6-3.2c1-1.7,0.7-2.8-1-2.9c-2,0-3.8,1.1-4.7,2.8l-7-0.2
		c3.7-6,10.3-9.1,15.7-8.9c5.8,0.1,7.7,3.7,4.2,9.4c-2,3.2-4.4,4.9-8.3,7.4l-12,7.5l11.1,0.4l-3.9,6.2L249.7,275.1z"/>
	<path class="st1" d="M278.9,276.2c-5.1-0.1-8-3.4-4-9.7l7.4-11.9c3.8-6.2,10.7-9.3,15.7-9.2c5.1,0.1,8,3.4,4,9.7l-7.4,11.9
		C290.8,273.3,284.1,276.3,278.9,276.2z M294.9,255c1.3-2.1,0.6-3.2-0.9-3.2c-2,0.1-3.8,1.2-4.8,3.1l-7.4,11.9
		c-1.3,2.1-0.6,3.2,0.9,3.2c2-0.1,3.8-1.2,4.8-3.1L294.9,255z"/>
	<path class="st1" d="M236.3,285.6c0.1,0,0.1,0.1,0.1,0.1c0,0.1-0.1,0.1-0.2,0.1c-0.2,0.1-0.5,0.4-0.7,0.5h2.8l0.7-1.1l1.1,0.1
		c0.2,0,0.2,0.1,0.2,0.2c-0.1,0.1-0.2,0.2-0.4,0.4l-0.4,0.5l4.3,0.1l-0.6,1.1l-4.3-0.1l-0.7,1.1h3.7l-0.6,1h-3.7l-0.6,1.1l4.9,0.1
		l-0.6,1.1l-12-0.2l0.6-1.1l5.9,0.1l0.6-1.1H233l0.6-1h3.4l0.7-1.1h-3.4c-0.7,0.6-1.5,1.2-2.2,1.7l-0.9-0.6c1.5-1,2.9-2.1,4.3-3.4
		L236.3,285.6z M247,280.2l-2.9,4.9l-8.9-0.1l2.9-4.9L247,280.2z M244,283.3l-6.4-0.1l-0.5,0.9l6.4,0.1L244,283.3z M244.5,282.2
		l0.6-1l-6.4-0.1l-0.6,1L244.5,282.2z"/>
	<path class="st1" d="M250,290c0.1,0,0.1,0.1,0.1,0.1c-0.1,0.1-0.2,0.2-0.4,0.2c-1,0.7-2,1.5-3.1,2.1l-0.6-0.6
		c1.1-0.7,2.2-1.5,3.2-2.3L250,290z M253.6,281.8l1-1.7l1,0.1c0.2,0,0.2,0,0.2,0.1c-0.1,0.1-0.2,0.2-0.4,0.4l-0.7,1.2h2.1l1-1.7
		l1,0.1c0.2,0,0.2,0,0.2,0.1c-0.1,0.1-0.2,0.2-0.4,0.4l-0.7,1.2h1.1l-0.6,1h-1.1l-3.2,5.5h1.2l-0.6,1l-7.2-0.1l0.6-1h1.6l3.3-5.5
		h-1.5l0.6-1L253.6,281.8z M253,288.3l0.7-1.2h-2.2l-0.7,1.2H253z M252.6,291.6l-1.5,0.7c0.1-0.6,0.1-1.3-0.1-2l1.2-0.6
		C252.6,290.3,252.6,290.9,252.6,291.6L252.6,291.6z M254.2,286.2l0.7-1.2h-2.1l-0.7,1.2H254.2z M260.7,280.3l4.4,0.1l-6.5,10.9
		c-0.4,0.5-0.9,0.9-1.6,1c-0.5,0.1-1,0.1-1.6,0.1l0.2-1.1h1.2c0.2,0,0.6-0.1,0.7-0.4l1.6-2.7H257c-0.4,0.5-0.7,1-1.1,1.5
		c-0.7,1-1.6,2-2.6,2.8l-0.7-0.6c0.9-0.7,1.6-1.5,2.3-2.5c0.7-1,1.5-2,2.2-3.1l3.1-5L260.7,280.3z M255.5,284.1l0.7-1.2h-2.1
		l-0.7,1.2H255.5z M259.8,287.3l1.5-2.5h-2.1l-1,1.6l-0.5,0.9H259.8z M261.9,283.8l1.3-2.3h-2.1l-1.3,2.3H261.9z"/>
	<path class="st1" d="M281.3,281.8l-6.4,10.7h-1.2l0.5-0.9l-9.1-0.1l-0.5,0.9h-1.2l6.4-10.7L281.3,281.8z M274.9,290.5l1-1.6h-2.7
		c-0.6,0-0.7-0.2-0.5-0.7l3.1-5.1h-1.8c-0.9,1.5-1.8,2.8-2.9,4c-1,1.1-2.2,2.1-3.6,2.8l-0.4-1c1.2-0.6,2.3-1.5,3.2-2.5
		c0.9-1.1,1.7-2.2,2.3-3.3h-2.3l-4.5,7.6L274.9,290.5z M274.3,287.4c-0.1,0.1,0,0.2,0.1,0.2h2.2l2.8-4.8H277L274.3,287.4z"/>
	<ellipse class="st2" cx="309.6" cy="233.2" rx="2.5" ry="1"/>
	<ellipse class="st2" cx="281.6" cy="233.2" rx="2.5" ry="1"/>
	<path class="st6" d="M281.5,232.7c-1-3.1,2.8-6.5,3.9-1.8"/>
	<path class="st6" d="M310.1,232.4c0.5-4.4,3.2-4.8,3.6-1.2"/>
	<path class="st1" d="M322.5,236c-18.3,0-37,0-55.6-0.5l-0.7,1c18.7,0.5,37.9,0.5,56.2,0.5h5.1l0.6-1H322.5z"/>
	<path class="st0" d="M368.9,227.4c-18,0-49.9,2.3-60.3,2c28.9-27.4,39.6-71.9,39.6-71.9h56.7C404.9,157.3,399.2,202.5,368.9,227.4z
		"/>
	<path class="st1" d="M337.2,204.5l3.7-6.4l18.1-12c1.5-0.7,2.6-2,3.4-3.3c1-1.7,0.7-2.8-1.1-2.8c-2,0.1-3.7,1.2-4.5,3.1h-7.1
		c3.6-6,10-9.4,15.3-9.4c5.8,0,7.8,3.6,4.5,9.3c-1.8,3.2-4.2,5-8.2,7.6l-11.9,7.7h11.1l-3.7,6.4L337.2,204.5z"/>
	<path class="st1" d="M365.1,204.5l13.4-23.2l-9.8,5.8l4.4-7.6l9.8-5.8h7.1l-17.8,30.7H365.1z"/>
	<ellipse class="st2" cx="388.8" cy="159.9" rx="2.5" ry="1"/>
	<ellipse class="st2" cx="360.8" cy="159.9" rx="2.5" ry="1"/>
	<path class="st6" d="M360.8,159.4c-1-3.1,3.6-6,4-2.7"/>
	<path class="st6" d="M389.3,159.2c0.5-4.4,3.1-5.5,3.6-2.7"/>
	<path class="st1" d="M346.8,163.8c7.7,0,15.7,0.1,23.6,0.1c11.1,0,22.5-0.1,33.7-0.6l0.1-1c-19.1,0.7-38.6,0.6-57.5,0.5h-0.1
		l-0.4,1H346.8z"/>
	<path class="st1" d="M334.4,216.9c0.1,0,0.1,0.1,0.1,0.1l-0.1,0.1c-0.1,0.1-0.4,0.2-0.5,0.5h2.2l0.4-0.9l0.9,0.1
		c0.1,0,0.2,0.1,0.2,0.1c-0.1,0.1-0.1,0.2-0.2,0.2l-0.1,0.5h3.4l-0.4,0.9h-3.4l-0.4,0.9h2.8l-0.2,0.9h-2.8l-0.4,0.9h3.8l-0.4,0.9
		h-9.4l0.4-0.9h4.7l0.4-0.9h-2.7l0.2-0.9h2.7l0.4-0.9h-2.7c-0.5,0.5-1,1-1.5,1.3l-0.7-0.5c1-0.7,2-1.7,2.7-2.7L334.4,216.9z
		 M341.8,212.6l-1.5,3.9h-7l1.5-3.9H341.8z M339.9,214.9h-5l-0.2,0.7h5L339.9,214.9z M340.2,214.2l0.2-0.7h-5l-0.2,0.7H340.2z"/>
	<path class="st1" d="M345.9,220.2c0.1,0,0.1,0.1,0.1,0.1c0,0.1-0.1,0.1-0.2,0.2c-0.6,0.6-1.2,1.2-2,1.7l-0.6-0.5
		c0.7-0.6,1.5-1.2,2.1-1.8L345.9,220.2z M347.2,213.6l0.5-1.3l0.9,0.1c0.1,0,0.2,0,0.2,0.1c-0.1,0.1-0.1,0.2-0.2,0.2l-0.4,1h1.7
		l0.5-1.3l0.9,0.1c0.1,0,0.2,0,0.2,0.1c-0.1,0.1-0.1,0.2-0.2,0.2l-0.4,1h0.9l-0.2,0.9h-0.9l-1.6,4.4h1l-0.2,0.9H344l0.2-0.9h1.2
		l1.6-4.4h-1.2l0.2-0.9L347.2,213.6z M347.9,218.8l0.4-1h-1.6l-0.4,1H347.9z M348.3,221.3l-1,0.6c0-0.5-0.2-1.1-0.4-1.6l0.9-0.5
		C347.9,220.3,348.2,220.8,348.3,221.3L348.3,221.3z M348.5,217.1l0.4-1h-1.7l-0.4,1H348.5z M349.1,215.4l0.4-1h-1.7l-0.4,1H349.1z
		 M352.6,212.5h3.6l-3.2,8.7c-0.1,0.5-0.5,0.7-1,0.9c-0.4,0.1-0.7,0.1-1.2,0.1v-0.9h0.9c0.2,0,0.4-0.1,0.5-0.4l0.7-2.1h-1.7
		c-0.2,0.4-0.4,0.7-0.6,1.2c-0.5,0.7-1,1.5-1.5,2.2l-0.7-0.6c0.5-0.6,1-1.2,1.3-2c0.5-0.7,0.9-1.6,1.1-2.5l1.5-3.9L352.6,212.5z
		 M353.2,217.9l0.7-2h-1.7l-0.5,1.3c-0.1,0.2-0.1,0.5-0.2,0.6H353.2z M354.2,215.2l0.6-1.8h-1.6l-0.6,1.8H354.2z"/>
	<path class="st1" d="M369,212.7l-0.4,1h-4.5l-1.3,2.6h4.3l-2,4.4h1.6l-0.4,1h-9.8l0.4-1h2.7l1.7-3.4h-2.1l0.4-1h2.3l1.3-2.6H360
		l0.4-1H369z M364,220.7l1.6-3.4h-3.3l-1.7,3.4H364z"/>
	<path class="st0" d="M417.1,165c-18-0.1-47.5-1.7-58.1-2.1c35.3-21.3,34.7-71.4,34.7-71.4l56.7,0.5
		C450.4,91.9,451.6,154.6,417.1,165z"/>
	<path class="st1" d="M388.5,138.8l3.8-6.4l18.3-11.9c1.5-0.7,2.6-1.8,3.4-3.3c1-1.7,0.7-2.8-1.1-2.8c-2,0-3.7,1.2-4.7,2.9h-7.1
		c3.6-6,10-9.3,15.4-9.2c5.8,0,7.8,3.6,4.4,9.3c-2,3.2-4.3,4.9-8.2,7.5l-11.9,7.7l11.1,0.1l-3.8,6.4L388.5,138.8z"/>
	<path class="st1" d="M408.1,139l3.8-6.4l18.3-11.9c1.5-0.7,2.6-1.8,3.4-3.3c1-1.7,0.7-2.8-1.1-2.8c-2,0-3.7,1.2-4.7,2.9l-7.1-0.1
		c3.6-6,10-9.3,15.4-9.2c5.8,0,7.8,3.6,4.4,9.3c-2,3.2-4.3,4.9-8.2,7.5l-11.9,7.7l11.1,0.1l-3.8,6.4L408.1,139z"/>
	
		<ellipse transform="matrix(1.000000e-02 -0.9999 0.9999 1.000000e-02 338.9855 530.8461)" class="st2" cx="437.6" cy="94.2" rx="1" ry="2.4"/>
	
		<ellipse transform="matrix(9.249696e-03 -1 1 9.249696e-03 311.4511 502.2402)" class="st2" cx="409.2" cy="93.9" rx="1" ry="2.5"/>
	<path class="st6" d="M409.1,93.5c-1-3.1,3.6-6,4-2.7"/>
	<path class="st6" d="M437.6,93.5c0.5-4.4,3.2-5.5,3.6-2.6"/>
	<path class="st1" d="M439.6,96c-14.9-0.1-30.6-0.4-45.9-0.4c0,0.4,0,0.6,0,1c15.3,0.1,30.9,0.2,45.9,0.4l10.5,0.1
		c0-0.4,0-0.7,0.1-1L439.6,96z"/>
	<path class="st1" d="M387.7,148.7c0.1,0,0.1,0.1,0.1,0.1l-0.1,0.1c-0.2,0.1-0.4,0.2-0.5,0.4l2.2,0.1l0.4-0.9l0.9,0.1
		c0.1,0,0.2,0.1,0.2,0.1c-0.1,0.1-0.1,0.2-0.2,0.2l-0.1,0.4l3.4,0.1l-0.4,0.9l-3.4-0.1l-0.4,0.9l2.8,0.1l-0.4,0.9l-2.8-0.1l-0.4,0.9
		l3.8,0.1l-0.4,0.9l-9.4-0.4l0.4-0.9l4.7,0.1l0.4-0.9l-2.7-0.1l0.4-0.9l2.7,0.1l0.4-0.9l-2.7-0.1c-0.5,0.5-1,0.9-1.5,1.3l-0.7-0.5
		c1.1-0.7,2-1.6,2.8-2.6L387.7,148.7z M395.1,144.7l-1.6,3.9l-7-0.2l1.6-3.9L395.1,144.7z M393.2,146.9l-5-0.2l-0.2,0.7l5,0.2
		L393.2,146.9z M393.5,146.1l0.2-0.7l-5-0.2l-0.2,0.7L393.5,146.1z"/>
	<path class="st1" d="M399,152.4c0.1,0,0.1,0.1,0.1,0.1c0,0.1-0.1,0.1-0.2,0.2c-0.6,0.6-1.3,1.1-2,1.6l-0.6-0.5
		c0.7-0.5,1.5-1.1,2.2-1.8L399,152.4z M400.5,145.9l0.6-1.3l0.9,0.1c0.1,0,0.2,0,0.2,0.1c-0.1,0.1-0.1,0.1-0.2,0.2l-0.4,1h1.7
		l0.6-1.3l0.9,0.1c0.1,0,0.2,0,0.2,0.1c-0.1,0.1-0.1,0.1-0.2,0.2l-0.4,1h0.9l-0.7,0.6h-0.9L402,151h1l-0.4,0.9l-5.8-0.2l0.4-0.9h1.2
		l1.7-4.3H399l0.4-0.9L400.5,145.9z M401,151l0.4-1h-1.7l-0.4,1H401z M401.2,153.6l-1,0.5c0-0.5-0.1-1.1-0.4-1.6l0.9-0.5
		C401,152.5,401.1,153.1,401.2,153.6L401.2,153.6z M401.7,149.5l0.4-1h-1.7l-0.4,1H401.7z M402.4,147.7l0.4-1H401l-0.4,1H402.4z
		 M405.9,144.9l3.4,0.1l-3.4,8.6c-0.2,0.5-0.6,0.7-1.1,0.9c-0.4,0.1-0.7,0.1-1.2,0.1v-0.9h0.9c0.2,0,0.4-0.1,0.5-0.2l0.9-2.1
		l-1.7-0.1c-0.2,0.4-0.4,0.7-0.6,1.1c-0.5,0.7-1,1.5-1.6,2.2l-0.7-0.5c0.6-0.6,1.1-1.2,1.5-1.8c0.5-0.7,0.9-1.6,1.2-2.5l1.6-3.9
		L405.9,144.9z M406.3,150.3l0.7-2h-1.7l-0.5,1.2l-0.2,0.6L406.3,150.3z M407.4,147.6l0.7-1.8h-1.7l-0.7,1.8H407.4z"/>
	<path class="st1" d="M414.8,150.1c0.1,0,0.1,0.1,0.1,0.1c0,0.1-0.1,0.1-0.4,0.2c-0.5,0.9-1.1,1.6-1.8,2.3c-0.7,0.7-1.6,1.3-2.6,1.8
		l-0.6-0.7c0.5-0.2,1-0.5,1.5-0.9c0.5-0.4,1-0.9,1.5-1.3c0.6-0.6,1.1-1.3,1.5-2L414.8,150.1z M418.5,145.3c0.1,0,0.2,0.1,0.2,0.1
		c-0.1,0.1-0.2,0.2-0.4,0.2l-0.7,1.7l4.2,0.1l-0.4,1l-9.3-0.4l0.4-1l4,0.1l0.9-2.2L418.5,145.3z M418.4,152.1
		c0.1,0.7,0.4,1.6,0.9,2.2l-1.5,0.5c-0.2-0.7-0.5-1.5-0.6-2.2c-0.1-0.9-0.1-1.7,0-2.6l1.1-0.2C418.3,150.7,418.3,151.4,418.4,152.1
		L418.4,152.1z"/>
	<path class="st0" d="M441.3,88.8c-18,0-53.3,0.4-63.7,0c39-21.4,44.8-72.4,44.8-72.4h56.7C479.1,16.5,476.4,67.4,441.3,88.8z"/>
	<path class="st1" d="M408.8,63.6l3.7-6.4l18.1-12c1.5-0.7,2.6-2,3.4-3.3c1-1.7,0.7-2.8-1.1-2.8c-2,0.1-3.7,1.2-4.5,3.1h-7.1
		c3.6-6,10-9.4,15.3-9.4c5.8,0,7.8,3.6,4.5,9.3c-1.8,3.2-4.2,5-8.2,7.6L421,57.3h11.1l-3.7,6.4L408.8,63.6z"/>
	<path class="st1" d="M438,63.8c-5.1,0-8.7-2.7-4.7-9.7h7.1c-1.2,2.2-0.5,3.2,1.2,3.2c2.2-0.1,4-1.3,5-3.3c1.1-1.8,0.5-3.2-1.5-3.2
		h-1l3.6-6.1h1c2-0.1,3.7-1.2,4.7-2.9c1.1-2,0.4-2.9-1.1-2.9c-1.8,0.1-3.6,1.2-4.5,2.9H441c3.3-5.8,9.8-9.3,15.3-9.3
		c5.8,0,7.7,3.8,4.7,9.1c-1.5,2.7-3.8,4.8-6.6,6c1,1.2,1.8,3.1-0.4,6.7C450.7,60,444.7,63.6,438,63.8z"/>
	<path class="st1" d="M410.8,75.6c0.1,0,0.1,0.1,0.1,0.1l-0.1,0.1c-0.1,0.1-0.4,0.2-0.5,0.5h2.2l0.4-0.9l0.9,0.1
		c0.1,0,0.2,0.1,0.2,0.1c-0.1,0.1-0.1,0.2-0.2,0.2l-0.1,0.5h3.4l-0.4,0.9h-3.4l-0.4,0.9h2.8l-0.2,0.9h-2.8l-0.4,0.9h3.8l-0.4,0.9
		h-9.4l0.4-0.9h4.7l0.4-0.9H409l0.2-0.9h2.7l0.4-0.9h-2.7c-0.5,0.5-1,1-1.5,1.3l-0.7-0.5c1-0.7,2-1.7,2.7-2.7L410.8,75.6z
		 M418.2,71.3l-1.3,3.9h-7l1.5-3.9H418.2z M416.4,73.6h-5l-0.2,0.7h5L416.4,73.6z M416.6,72.9l0.2-0.7h-5l-0.2,0.7H416.6z"/>
	<path class="st1" d="M422.4,78.9c0.1,0,0.1,0.1,0.1,0.1c0,0.1-0.1,0.1-0.2,0.2c-0.6,0.6-1.2,1.2-2,1.7l-0.6-0.5
		c0.7-0.6,1.5-1.2,2.1-1.8L422.4,78.9z M423.7,72.4l0.5-1.3l0.9,0.1c0.1,0,0.2,0,0.2,0.1c-0.1,0.1-0.1,0.2-0.2,0.2l-0.4,1h1.7
		l0.5-1.3l0.9,0.1c0.1,0,0.2,0,0.2,0.1c-0.1,0.1-0.1,0.2-0.2,0.2l-0.4,1h0.9l-0.2,0.9h-0.9l-1.6,4.4h1l-0.2,0.9h-5.8l0.2-0.9h1.2
		l1.6-4.4h-1.1l0.2-0.9L423.7,72.4z M424.3,77.5l0.4-1H423l-0.4,1H424.3z M424.7,80.1l-1,0.6c0-0.5-0.2-1.1-0.4-1.6l0.9-0.5
		C424.3,79,424.6,79.5,424.7,80.1L424.7,80.1z M424.9,75.8l0.4-1h-1.7l-0.4,1H424.9z M425.5,74.1l0.4-1h-1.7l-0.4,1H425.5z
		 M429,71.2h3.6l-3.2,8.7c-0.1,0.5-0.5,0.7-1,0.9c-0.4,0.1-0.7,0.1-1.2,0.1V80h0.9c0.2,0,0.4-0.1,0.5-0.4l0.7-2.1h-1.7
		c-0.2,0.4-0.4,0.9-0.6,1.2c-0.5,0.7-1,1.5-1.5,2.2l-0.7-0.5c0.5-0.6,1-1.2,1.3-2c0.5-0.7,0.9-1.6,1.1-2.5l1.6-4L429,71.2z
		 M429.6,76.7l0.7-2h-1.7l-0.5,1.3l-0.2,0.6H429.6z M430.6,73.9l0.6-1.8h-1.7l-0.7,1.8H430.6z"/>
	<path class="st1" d="M444.9,71.4l-3.3,9.2h-1l0.4-1h-5.6l-0.4,1h-1l3.3-9.2H444.9z M441.2,78.8l1-2.7h-5.6l-1,2.7H441.2z
		 M442.6,75.1l1-2.7h-5.6l-1,2.7H442.6z"/>
	<path class="st1" d="M421.6,21.6l-0.2,1c10.8,0.6,22.1,1,33.2,1c8.2,0,16.3-0.1,23.9-0.5c0-0.4,0.1-0.7,0.1-1
		C459.6,22.9,440.6,22.8,421.6,21.6z"/>
	<ellipse class="st2" cx="463.4" cy="19" rx="2.5" ry="1"/>
	<ellipse class="st2" cx="435.3" cy="19" rx="2.5" ry="1"/>
	<path class="st6" d="M435.3,18.5c-1-3.1,3.6-6,4-2.7"/>
	<path class="st6" d="M463.9,18.3c0.5-4.4,3.1-5.5,3.6-2.7"/>
	<path class="st7" d="M466.2,450.2c-5-0.6-10.1-0.8-15.2-1c-39.6-1.8-79.2-1.3-118.9-0.8l-145.5,1.7c-45.7,0.6-91.5,1-137.1,3
		c-13.6,0.6-31.2-0.4-43.8,5.7c-1,0.3-1.8,1.1-2.4,2c-0.7,1.6,0.3,3.6,1.8,4.3c1.5,0.7,3.2,1,4.8,0.8l284.5-1.8l176.3-1.1
		c0.9,0,1.9,0,2.9-0.1c6.2-0.2,6.9-10.4,0.7-11.5C471.6,450.9,468.9,450.5,466.2,450.2z"/>
	<path class="st5" d="M120.6,407.7c-3.5,0.2-7.9,1.6-8.1,5.9c-0.4,5.6,9.1,6,12.7,5.1c1.7-0.4,2.9-1.8,4.6-2.3
		c2.2-0.7,4.3-1,6.6-0.8c3.4,0.2,6.7,0.7,9.9,1.4c3.6,0.6,9.7-1,6.2-5.4c-2.2-2.9-5.9-5.6-9.6-5.6c-4.1,0.1-8.3,1-12,2.6
		c-3.1,1.3-5.3,1.7-8.1-0.2C122.1,407.7,121.3,407.6,120.6,407.7z"/>
	<path class="st8" d="M155.7,345.3c-1,0-1.9,0.1-2.8,0.4c-7.7,1.9-14.5,8.5-19,14.7c-5.4,7.3-8.9,15.8-12.3,24.3
		c-2.8,6.8-5.6,13.8-6.1,21.1c-0.1,2.2,0,4.7,1.8,5.9c2,1.4,4.9,0.2,7.1-1.2c11.9-7.7,20.4-19.6,28.4-31.1
		c3.8-5.1,7.3-10.7,10.3-16.4c1.4-2.8,2.6-5.7,2.6-8.9C165.7,348.4,160.8,345.2,155.7,345.3z"/>
	<path class="st9" d="M186.1,184.5c0.6-0.7,1.3-0.8,3.1-1.8c3.4-1.8,10.3-7.2,9.8-11.6c-0.7-5.3-9.2-7.2-13.4-6.6
		c-1,0.2-1.9,0.2-3,0.1c-1.2-0.2-1.8-1.4-3-1.9c-18.8-8.3-31.3,2.8-40.1,17.1c-3.6,5.9-10.1,10.4-17,10.7c-7.1,0.2-13.7-3.6-20.6-5
		c-12.2-2.5-28.9,4.1-39.4,10.2c-3.5,2-7.1,4.9-7.7,9C53,216.8,68,218.3,76.8,218c10.2-0.4,20-3.4,30.1-4.7
		c17.5-2.4,35.1-3.7,52.6-5.9c9.8-1.2,21.1-4.2,24.5-14.7c0.7-2,0.6-4.3,1.3-6.2C185.4,185.7,185.7,185.1,186.1,184.5z"/>
	<path class="st5" d="M154.1,231.6c1-1.9,0.8-4.2,0.7-6.2c-0.5-7.5-1-13.7,7.8-19.6c3-2,4.3-8.9,3.4-13.1c-1.6-7.1-9.8-4.9-14.1-1.9
		c-6.5,4.4-11,11.9-14.3,18.7C132.3,220.5,146.5,227.2,154.1,231.6z"/>
	<path class="st7" d="M17.1,452.6c1.8,1.2,4.1,1.7,6.3,1.3c1.6-0.2,3-1,4.7-1.1c4.2-0.4,7.4,3.5,9.9,6.8c0.6,0.8,1.2,1.8,0.7,2.8
		c-0.5,0.6-1.2,1-1.9,1.1c-8.3,1.8-16.9,0.5-25.3-0.8c-2.3-0.4-5.1-1.1-5.6-3.4c-0.5-1.9,1-3.8,2.8-4.8c1.8-1,3.7-1.3,5.4-2.3
		L17.1,452.6z"/>
	<path class="st5" d="M118.4,304.1c-1.1,1.4-1.3,3.5-0.4,5c2.3,4.1,5.3,1.2,8.1,0.2c3.5-1.1,7.2-0.6,10.2,1.4c1.3,1,2.6,2.3,4.3,2.4
		c2.5,0.2,9.6-0.7,10.3-3.7c0.1-0.4,0.1-0.7,0-1.1c-0.2-0.5-0.8-0.8-1.3-1c-1.8-0.6-3.4-0.1-5.1-0.4c-1.8-0.2-3-1.9-4.2-3.4
		c-2.8-3.2-6.6-5.6-10.8-5.7C126.2,298.1,120.6,300.8,118.4,304.1z"/>
	<path class="st5" d="M21.1,446.9c1.8,1.2,4.1,1.7,6.3,1.3c1.6-0.2,3-1,4.7-1.1c4.2-0.4,7.4,3.5,9.9,6.8c0.6,0.8,1.2,1.8,0.7,2.8
		c-0.5,0.6-1.2,1-1.9,1.1c-8.3,1.8-16.9,0.5-25.3-0.8c-2.3-0.4-5.1-1.1-5.6-3.4c-0.5-1.9,1-3.8,2.8-4.8c1.8-1,3.7-1.3,5.4-2.3
		L21.1,446.9z"/>
	<path class="st8" d="M124.3,317.1c12.5,9.6,24.5,19.5,36.4,29.7c1.7,1.4,3.5,3.1,3.6,5.3c0.1,2.4-1.8,4.4-3.7,5.9
		c-7.5,5.1-17.4,5.6-26.5,4.4c-17.8-2.4-34.2-10.5-49.3-20.1C73,334.7,50.9,323.3,53.5,306c1.9-13.1,12.8-24.2,26.6-20
		c3.6,1.1,6.7,3.4,9.8,5.5C101.5,299.8,113,308.3,124.3,317.1z"/>
	<path class="st8" d="M92.4,316.1c-2.8,20-6.7,39.8-11.6,59.4c-0.8,3.7-2,7.4-3.8,10.8c-1.4,2.4-3.1,4.7-4.9,6.7
		c-16.4,19.5-31.6,36.5-43.1,59.3c-8.1,3.6-11.7,1-14.5-3.4c-0.6-1.1,1.2-5.9,1.4-7.1c5.4-22.8,19.8-39.3,33.4-58.3
		c1.7-2.2,3-4.6,3.8-7.1c0.7-3.1,0.2-6.3-0.4-9.5c-3-17.5-4.3-35.2-4-52.9c0.2-11.4,1.3-23.4,7.1-33.2c3.2-5.4,8.1-10.2,14.4-11.4
		c9.2-1.7,18.2,5.7,21.6,14.5s2.6,18.4,1.8,27.9L92.4,316.1z"/>
	<path class="st5" d="M152.3,202.9c-7.3-10.9-6.1-26.5,5.4-34l-1,0.4c9.3-3.7,25.9-4,29.3,7.7c2.2,7.5,1.6,15.6-1.6,22.8
		c-2.2,5.1-7.4,15.6-14.3,15.1C163.3,214.3,156.6,209.3,152.3,202.9z"/>
	<path class="st5" d="M125.7,146.4l-1.1,0.2c-9.2,2-15.7,5.5-20.8,13.8c-1.6,2.3-2.4,4.8-2.4,7.5c0,3.8-0.5,6.3,2.8,8.3
		c1.2,0.7,1.4,1.9,1,3.2c-1.1,3.1-4.1,6.1-5.7,8c2.8,8.9,8.6,11.9,14.6,14.8c-2.8-3.4-1.1-7.3-0.5-9.3c0.1-0.6,3.4-6.5,3.4-6.6
		c4.9,8.5,14.4-3.5,17.1-6.8c6.6-7.9,9.7-18.2,8.6-28.5C141.7,143.7,131.2,145.2,125.7,146.4z"/>
	<path class="st10" d="M128.4,160.4c-2.9,0-6.2-0.8-8,1.3c-1.3,1.6-1.1,3.8-1.7,5.7c-0.5,1.9-3,3.8-4.3,2.4c-0.5-0.7-0.8-1.4-1-2.3
		c-1-2.5-4.9-3.1-6.7-1.1c-0.2,0.4,1,3,1,3.5c-0.1,1.8-1,3.6-2.3,4.9c-1.2,1.2-3.2,1.1-4.9,0.7c-2.4-0.4-4.7-1.2-6.8-2.3
		c-4.7-2.8-7.2-10.8-7.1-16.2c0.1-4.2,2.2-8.5,5.9-10.5c0.8-0.4,1.7-0.8,2.3-1.7c0.2-0.6,0.5-1.2,0.6-1.8c1.1-3.8,5-5.9,8.7-7.2
		c2.3-0.8,4.6-1.4,6.9-1.6c2.2-0.1,4.4,0.8,6.6,0.5c4.1-0.7,6.7-4.2,11.4-2.9c3.7,1.1,6.3,2.9,6.7,6.8c-0.1-2,8.9,1.9,9.5,2.5
		c3,2.2,10.9,10.2-1.1,19.6c-4,3.1-6.7-4.6-9-3C131.8,160.2,132.7,160.4,128.4,160.4z"/>
	<path class="st11" d="M96,183.8c-7.5,1.3-15.7,8.4-21.6,13.2c-7.5,6.2-13.7,13.8-18.2,22.4c-6.1,11.7-30.8,51.4-7.7,53.5
		c14.4,1.3,30.2,15.7,36-22.3c3.7-24,42.6-39.8,27.9-59.8C107.9,184.5,102,182.8,96,183.8z"/>
	<path class="st12" d="M125.3,294.6L125.3,294.6c-4.2-13.3,1-27.7,8.1-38.9c5.1-8,25.4-20.4,20.7-29.2c-5.1-9.8-13.7-17-24.8-17.8
		c-9.1-0.7-17.4,4.1-24.9,8.7c-11.5,7.2-51,43.9-34.2,58.9c8.1,7.3,16.5,12.7,27.5,14.4C106.9,292,116.2,292.9,125.3,294.6z"/>
	<path class="st5" d="M126.6,336.7c-1.3,1.3-1.7,3.2-1,4.9c1.8,4.3,5,1.9,8,1.3c3.6-0.7,7.2,0.4,9.9,2.8c1.2,1.1,2.3,2.6,4,3
		c2.5,0.5,9.6,0.5,10.7-2.5c0.1-0.4,0.1-0.6,0.1-1c-0.2-0.6-0.7-1-1.2-1.2c-1.7-0.8-3.4-0.5-5-1c-1.7-0.5-2.8-2.3-3.7-3.8
		c-2.3-3.5-5.9-6.3-10.1-6.9C135.1,331.7,129.2,333.6,126.6,336.7z"/>
	<path class="st13" d="M49.3,256.8c-1.9,0.6-3.7,1.6-5.3,3c-12.2,10.8-8.3,29.9,3.8,39c7.7,5.7,17.6,7.9,27.2,7.4
		c8.7-0.5,18.2-2.8,25.9,1.6c13.2,7.3,17.7,20.1,26.3,30.4c3,3.6,10.8,1,12.3-1.9c2.2-4.4-1.9-18.9-6.1-27.8
		c-6-12.7-15.3-24.4-28.1-30.1c-14-6.1-17.6-5.9-29.1-15.9c-3.5-3-20.5-5.9-25-6C50.7,256.6,49.9,256.7,49.3,256.8z"/>
	<path class="st5" d="M73.9,294.1c-2.2,2.3-3.8,4.9-5,7.8c-0.6,1.6-1.2,3.1-1.9,4.7c-3.5,7.2-14.6,11.7-21.9,7.3
		c-0.1-0.1-0.2-0.2-0.4-0.4c-0.6-1.3,1.7-2.5,2.3-3.2c1-1.3,0.6-2.6,0.7-4.3c0.1-2.2,1.8-3.8,3.8-4.7c2-0.7,4.1-1.3,6.1-1.7
		c2.9-0.8,5.6-2.2,7.9-4.2c2-1.8,4.3-4.4,7.2-4.8l0.7,2L73.9,294.1z"/>
	<path class="st12" d="M87.8,236.7c10.9-10.2,26.9-29.1,44.1-23.4c30.7,10.1-32.1,41.1-37.1,45.9c-10.9,10.2-11.7,25.9-20.2,37.5
		c-1.7,2.8-4.6,5.9-7.5,4.7c-7.2-2.9-1.7-15.4-0.1-20.2C72,265.8,75.6,248.1,87.8,236.7z"/>
	<path class="st9" d="M189.7,167.5c-1.4,6,2.8,11-1,15.1c-6.9,7.5-21.1,10.3-33.2,7.9c-3-0.6-6.3,0.8-8.7-1.1
		c-1.6-1.4-2.5-3.5-2.4-5.6c0.1-2.2,0.7-4.2,1.8-6.1c5.6-10.5,24.1-19.3,34.5-10.7c1.1,1,2.2,1.9,3.5,2.4L189.7,167.5z"/>
	<path class="st9" d="M163.9,177.6c3.7,4.8,2.2,13.3-0.6,18.7c-2.2,4.3-6.1,7.1-9.8,9.8c-2.6,1.9-5.4,3.8-8.5,4.8
		c-3.1,1.1-6.6,0.7-9.3-1.1c-4.4-3.2-5-10.3-2.8-15.4c2.3-5.1,6.6-8.7,10.8-12.1L163.9,177.6z"/>
	<path class="st14" d="M143.6,223.4c1.2,0.7,3.6-1.3,6.9,1.6c2.4,2,5.6,10.5,8,6.2c1.8-3.1,2.2-7.9,1.4-9.2
		c-3.8-6.8-8.7-0.2-12.9-3.7c-0.2-0.2-4.8-2.8-5.3-2.4C135,220.1,140,221.5,143.6,223.4z"/>
	<path class="st5" d="M143.6,221.5c1.2,0.7,5-0.1,8.4,2.8c2.4,2,4.3,10.2,6.6,5.9c1.8-3.1,2.2-8.9,1.4-10.2
		c-3.8-6.8-8.7-0.2-12.9-3.7c-0.2-0.2-4.8-2.8-5.3-2.4C135,218,140,219.5,143.6,221.5z"/>
	<path class="st11" d="M90.8,188.6c0.8-0.5,1.8-0.7,2.6-1c10.3-1.9,19,6.6,26.6,12.2c9.5,6.9,19.4,11,33.2,15.3
		c4.7,1.6,2.3,7.1-2.3,9.5c-1,0.5-2,0.6-3.1,0.6c-9.1,0.2-18.1-0.6-26.9-2.2c-9.6-1.8-20.6-7.5-27.8-14.1
		C88.1,204.6,83.7,192.4,90.8,188.6z"/>
</g>
<title>card5</title>
<rect class="st15" width="480" height="480"/>
</svg>
