<?xml version="1.0" encoding="utf-8"?>
<!-- Generator: Adobe Illustrator 21.1.0, SVG Export Plug-In . SVG Version: 6.00 Build 0)  -->
<svg version="1.1" id="圖層_1" xmlns="http://www.w3.org/2000/svg" xmlns:xlink="http://www.w3.org/1999/xlink" x="0px" y="0px"
	 viewBox="0 0 580 580" style="enable-background:new 0 0 580 580;" xml:space="preserve">
<style type="text/css">
	.st0{fill:none;}
	.st1{fill:#A2D7DD;}
	.st2{fill:#E9473F;}
	.st3{fill:#FFFFFF;}
	.st4{fill:#252B55;}
	.st5{fill:#FDEDDB;}
	.st6{fill:#FFEB27;}
	.st7{fill:#006F83;}
	.st8{fill:#FDD35C;}
	.st9{fill:#005D73;}
	.st10{fill:#E6E6E6;}
	.st11{fill:none;stroke:#FFFFFF;stroke-width:5;stroke-linecap:round;stroke-linejoin:round;}
	.st12{fill:none;stroke:#FFFFFF;stroke-width:3;stroke-linecap:round;stroke-linejoin:round;}
	.st13{fill:none;stroke:#E6E6E6;stroke-width:2;stroke-linecap:round;stroke-linejoin:round;}
	.st14{fill:none;stroke:#FFFFFF;stroke-width:4;stroke-linecap:round;stroke-linejoin:round;}
	.st15{fill:none;stroke:#FFFFFF;stroke-width:7;stroke-linecap:round;stroke-linejoin:round;}
	.st16{fill:#3B3233;}
	.st17{fill:#FCE3CD;}
	.st18{fill:#D3B8A2;}
	.st19{fill:#4E2C4A;}
	.st20{fill:#9FA0A0;}
	.st21{fill:#BEA894;}
</style>
<title>card1</title>
<rect class="st0" width="580" height="580"/>
<g>
	<path class="st1" d="M231.4,483c-24.7,5.2-49.4,10.7-74,16.5c-24.8,5.9-53,9.7-75.4,22c-4.7,2.6-9.2,5.6-12.4,9.8
		c-3.2,4.2-4.9,10-3.2,15c1.3,3.9,4.3,7,7.4,9.7c2.5,2.4,5.4,4.4,8.5,6c9.9,4.8,24.6,8.2,35.4,10.3c48.2,9,97.9,10.8,146.3,1.3
		c15-3,90.3-15.3,73.2-43.5c-3-5-9.9-8.2-9.8-14.1c0.1-6.2,7.7-9,13.8-10.5c7.3-1.8,14.4-4.3,21.3-7.4c3.3-1.5,6.7-3.2,9-6
		c2.3-2.8,3.4-7,1.6-10.2c-1.3-2.3-3.5-4.1-6.1-4.8c-45.3-14.3-87.2-4.2-129.6,4.5L231.4,483z"/>
	<rect x="217.3" y="0.4" class="st2" width="168.9" height="69.7"/>
	<rect x="343.2" y="82.7" class="st2" width="171.4" height="64.1"/>
	<rect x="28.8" y="93.6" class="st2" width="195.5" height="59.7"/>
	<rect x="367.4" y="172.2" class="st2" width="183.8" height="67"/>
	<rect x="65.2" y="169.3" class="st2" width="213.9" height="67.4"/>
	<rect x="325.3" y="272.7" class="st2" width="221.6" height="73.8"/>
	<path class="st3" d="M267.8,26.4c-0.7-4.4-1.5-8.5-2.1-12.7c-0.1-0.7,0-1.5,0.4-2.1c0.7-0.7,1.9-0.8,2.7-0.2
		c1.5,1.1,2.8,0.6,4.1,0.1c1.9-0.6,3.7-1.2,5.5-1.8c1.3-0.5,2.7,0,3.3,1.3c0.2,0.5,0.3,1.1,0.1,1.6c-0.5,2.8-0.9,5.5-1.4,8.3
		c-0.1,0.7-0.2,1.5-0.3,2.6c1.1-0.1,2.3-0.3,3.4-0.5c1-0.3,2,0,2.6,0.8c0.6,0.5,0.7,1.4,0.2,2.1c-0.1,0.1-0.2,0.2-0.3,0.3
		c-1.1,1.1-2.2,2.3-3.4,3.3c-1,0.9-2.1,1.7-3.8,1.1l1.9-3.5c-0.5,0-1,0-1.6,0.1c-3.4,1.2-6.9,2.3-10.2,3.7c-1.6,0.8-3.1,1.8-4.5,2.9
		c-0.8,0.7-2,0.8-2.9,0.3c-1.1-0.7-1.4-2-0.4-2.7c1.3-1,2.3-2.4,2.8-4c0.1-0.4,0.9-0.8,1.5-0.9C266.4,26.2,267.1,26.2,267.8,26.4z
		 M278,13.4l-6.6,2.1c-0.9,0.2-1.4,1-1.3,1.9c0.1,1.7,0.2,3.3,0.3,5c0.1,1.1,0.3,2.2,0.6,3.3c0.1,0.5,0.5,0.8,1.1,0.4
		c-0.6-1.1-0.2-2.2,0-3.3c0.2-1.1,0.4-1.9-0.6-2.8s-0.6-2,0.6-2.4c1.8-0.6,3.4-2.3,5.7-1.1L278,13.4z M277.3,20.1l-0.6-0.3l-2.7,5.7
		l2.3-0.8c0.2-1.1,0.4-1.8,0.5-2.4C277,21.6,277.2,20.9,277.3,20.1L277.3,20.1z"/>
	<path class="st3" d="M273.4,50.9c0.2,1.3,0.3,2.6,0.4,3.8c0.2,1.6,0,2-0.9,2.1c-1,0.3-2-0.3-2.3-1.2c0-0.2-0.1-0.3-0.1-0.5
		c-0.2-1.2-0.3-2.4-0.3-3.5c0-5.9,0.1-11.7,0.2-17.6c0-0.5,0.4-1.4,0.7-1.5c0.6-0.2,1.3,0,1.9,0.3c0.5,0.5,1,1.1,1.3,1.7
		c1.4-0.6,2.9-1.3,4.4-1.9c2-0.8,3.7-0.1,4.2,2.1c0.5,2.3,0.9,4.6,1.1,7c0.5,4.6,0.9,9.3,1.4,13.9c0.1,1.3-0.4,2.1-1.5,2
		c-2.2-0.1-4.3-0.8-6-2.1c-0.5-0.5-0.9-1-1.2-1.7c-0.1-0.5-0.1-1,0-1.5c0.5,0,1,0,1.6,0.1c0.5,0.2,0.9,0.7,1.4,0.9
		c0.6,0.2,1.3,0.4,1.9,0.6c0.4-2.7-0.1-5.1-0.1-7.8C278.8,47.8,276.7,50.1,273.4,50.9z M281,39.9l-1-4c-2.9,0.2-4.3,2.3-6.2,3.8
		c-0.2,0.1,0,0.6-0.1,1C276.1,40.4,278.2,38.7,281,39.9L281,39.9z M281.2,41.6c-1.3,0.5-2.4,0.8-3.4,1.3c-1,0.4-2.3,1.1-3.4,1.6
		c-0.8,0.3-1.2,1.1-1,1.9c0.1,0.2,0.1,0.3,0.2,0.4c2.6-0.8,5.1-2.2,7.1-4.1C281.1,42.5,281,42.1,281.2,41.6L281.2,41.6z"/>
	<path class="st3" d="M168.5,218.6c2.2-0.4,3.7,1.9,6,1.4c0.1-2.5-0.5-4.8-0.6-7.6c-0.8,0.7-1.7,1.3-2.6,1.9c-1.3,0.6-2.7,1.1-4,1.7
		c-1.4,0.7-3,0.6-4.2-0.4c-0.2,0.5-0.3,0.9-0.5,1.2c-0.7,1.9-1.4,3.8-2.1,5.7c-0.4,0.8-1.4,1.2-2.2,0.8c-0.1-0.1-0.3-0.2-0.4-0.3
		c-0.2-0.4-0.3-0.9-0.1-1.3c0.4-1.3,0.9-2.5,1.4-3.7c1.4-3.8,2-7.8,2-11.8c0-0.9-0.2-1.9-0.5-2.7c-0.4-0.9,0-1.9,0.9-2.3
		c0.2-0.1,0.3-0.1,0.5-0.1c3-0.8,6-1.5,8.9-2.3c0.9-0.3,1.8-0.6,2.6-1c0.8-0.4,1.8-0.3,2.5,0.3c0.8,0.5,1.1,1.5,0.8,2.3
		c-0.8,2.3-0.5,4.6-0.4,6.9c0.2,3.3,0.6,6.7,0.9,10c0.1,1.2,0.4,2.5,0.6,3.7c0.4,1.7-0.1,2.4-1.8,2.4c-2.5,0.2-5.1-0.7-7-2.3
		C168.5,220.4,167.7,219.8,168.5,218.6z M172.9,206.5l0.4-0.3l-0.3-5c-2.1,0.3-4.2,0.8-6.2,1.6c-2.2,0.8-2.8,2-2.2,4.3
		c1.8-0.4,3.6-0.9,5.5-1.3C171.1,205.6,172.1,205.5,172.9,206.5z M173.4,207.9c-1.2,0.2-2.4,0.5-3.5,0.8c-1.8,0.6-3.5,1.3-5.3,2
		c-0.8,0.3-1.2,1.2-0.9,2c0,0,0,0,0,0c2.1,0.5,4.4,0.2,6.2-1l3.6-2.1L173.4,207.9z"/>
	<path class="st3" d="M158.4,190.1c-0.1-2.1-0.2-4.1-0.4-6.2c-0.1-1.6,0.5-2.6,2-2.1c2.2,0.6,4.2-0.3,6.3-0.5
		c1.6-0.1,3.2-0.4,4.9-0.6c0.9-0.2,1.7-0.4,2.5-0.7c1.1-0.5,2.4-0.1,3,0.9c0.3,0.4,0.4,0.9,0.3,1.4c-1.2,2.4-0.7,5-0.8,7.4
		c-0.1,1.8,0,3.5,0.2,5.3c0.1,1.5-0.3,2-1.7,1.5c-2.9-1-5.7-0.4-8.5,0.3c-1.1,0.3-2.2,0.8-3.2,1.4c-1.9,1.1-2.9,0.8-4-1.1
		c-1-1.6-0.7-3.4-0.8-5.1C158.2,191.4,158.3,190.8,158.4,190.1L158.4,190.1z M168.5,183.7c0.2,0.9,0.3,1.5,1.2,1.4
		c0.3,0,0.5,0,0.8,0c0.9,0.1,1.6,0.8,1.7,1.7c0,0.9-0.7,1.1-1.4,1.2c-0.6,0.1-1.2,0.2-1.8,0.4c-0.4,0.2-0.7,0.5-0.8,0.9
		c-0.2,1.3-0.2,2.6-0.3,4.1c1-0.1,1.8-0.1,2.7-0.3c0.8-0.1,1.8-0.4,2.6-0.6c0-1.6,0-3.1,0-4.6s0-3.1,0-4.8L168.5,183.7z M161.5,195
		c3.4-0.8,4.1-2.1,3-4.8l-3,0.9V195z M164.7,184.8c-2.4,0.5-3,1-2.7,2.6c0.7-0.2,1.3-0.3,1.9-0.5
		C165.1,186.4,165.1,186.4,164.7,184.8L164.7,184.8z"/>
	<path class="st3" d="M109.8,214.9l1.8,1.1l-0.8-9.1l-5.2,2.5c-0.4,2.2-0.9,4.5-1.3,6.7c-0.2,0.9-0.4,1.7-0.7,2.6
		c-0.5,1.9-0.8,2.1-2.9,1.5c-0.1-0.4-0.1-0.8,0-1.2c1-3.7,1.7-7.5,2.1-11.3c0.2-1.6,0.8-3.2,0.5-4.6c-0.4-2.6,0.9-4.9,0.6-7.4
		c-0.1-1.1-0.2-2.1-0.4-3.2c-0.3-1,0.3-2.1,1.3-2.4c0.1,0,0.2-0.1,0.3-0.1c1.8-0.4,3.4-1.3,4.8-2.5c0.9-0.9,2.3-1.1,3.3-0.3
		c0.6,0.3,0.9,0.9,0.8,1.6c-0.1,4.2-0.3,8.5-0.3,12.8c-0.2,4.7,0.1,9.3,1.1,13.9c0.1,0.6,0.4,1.2,0.5,1.8c0.2,1.1-0.3,1.9-1.3,1.9
		c-1.6,0.1-3.2-0.3-4.5-1.2C108.2,217,108.3,215.9,109.8,214.9z M107,198.3c1.2-0.5,2.2-0.8,3.1-1.2c0.3-0.1,0.5-0.4,0.6-0.7
		c0.1-1.7,0-3.4-0.4-5.1C107,192.7,107.4,195.4,107,198.3L107,198.3z M106.5,205.8c0.9-0.5,1.8-0.9,2.7-1.4c2-1.2,2.1-1.5,1.4-3.9
		C106.8,201.4,106.2,201.7,106.5,205.8L106.5,205.8z"/>
	<path class="st3" d="M126.3,209.6c-1.9,0.8-3,1.7-3.4,3.3c-0.3,1.3-1,1.6-2.1,1.1c-1.1-0.4-1.3-1.1-0.8-2.2c0.7-1.5,1.5-3,2.2-4.6
		c0.3-0.6,0.5-1.1,0.9-1.8c-0.8-0.2-1.6,0.1-2.1,0.7c-0.8,0.9-2.1,1-3.1,0.3c-0.6-0.3-1.2-0.8-1-1.4c0.2-0.6,0.6-1,1.1-1.3
		c1.4-0.6,2.9-0.9,4.2-1.6c3.2-1.6,6.8-1.8,10-3.3c0.8-0.4,1.7-0.2,2.2,0.5c0.6,0.5,0.7,1.3,0.2,1.9c-0.2,0.2-0.5,0.4-0.8,0.5
		c-0.8,0.3-1.7,0.3-2.6,0.5c-2.1,0.4-4,1.1-4.6,3.8c0.6-0.1,1.1-0.1,1.5-0.2c3-0.6,6-1.3,9.1-1.8c1.9-0.4,2.9,0.8,2.6,2.7
		c-0.6,3.9-1.1,7.9-1.5,11.8c0,0.7,0,1.4,0.1,2.1c0,1.3-0.5,1.8-1.8,2c-2.3,0.3-5.5-1.2-6.2-3.2c-0.1-0.3-0.3-0.6-0.5-0.9l-2.7,3.5
		c-0.5,0.6-1,1.3-1.5,2c-1.2,1.5-1.9,1.6-3.8,0.5c0.1-0.4,0.3-0.8,0.5-1.1c2.1-2.9,4.2-5.8,6.3-8.7c1.3-2,2.2-4.3,2.7-6.7
		c-1.1-0.2-1.3,0.2-1.7,1.1c-0.9,2.3-1.9,4.5-2.9,6.8c-0.2,0.7-0.9,1.1-1.6,0.9c-1.2-0.2-1.6-0.9-1.2-2c0.4-1.1,1-2.3,1.5-3.5
		C126,211,126.1,210.5,126.3,209.6z M135,219.5c1.1-3.7,1.7-10.7,1.1-12l-5,10.4L135,219.5z"/>
	<path class="st3" d="M122.2,191.2c0.1-0.9,0.2-1.9,0.2-2.8c0-0.4-0.1-0.8-0.4-1.2c-0.6-0.6-0.8-1.2-0.4-1.8s1.1-1.5,2.2-1.6
		c1.4,0,2.7-0.2,4.1-0.4c0.6-0.1,1.2-0.3,1.8-0.6c2.1-0.9,3.8,0.3,3.5,2.5c-0.5,3.6-1.1,7.2-1.5,10.9c-0.1,0.8-0.5,1.5-1.3,1.3
		c-1.7-0.3-3,0.6-4.5,1.1c-0.6,0.2-1.2,0.4-1.8,0.4c-1.1,0.1-2.1-0.6-2.3-1.7c0-0.2,0-0.3,0-0.5c-0.1-1.9,0-3.8,0-5.6L122.2,191.2z
		 M125.1,192.8c-0.1,0.6-0.2,1-0.2,1.3c0,0.4,0,0.7,0.1,1.1c3.3-0.5,3.9-1.1,3.8-3.5L125.1,192.8z M129.7,186.1
		c-0.9,0.2-1.6,0.3-2.3,0.6c-1.5,0.5-1.6,0.6-1.3,2.4h3.4L129.7,186.1z"/>
	<path class="st3" d="M209.5,196c-0.2,0.9-0.3,1.6-0.5,2.2c-0.4,0.8,0,1.8,0.8,2.2c0,0,0,0,0,0c1.2,0.8,2.4,1.6,3.6,2.4
		c0.4,0.3,0.8,0.6,1.1,1c0.3,0.4,0.3,1-0.1,1.3c-0.2,0.2-0.5,0.3-0.8,0.2c-0.8-0.1-1.6-0.2-2.3-0.5c-0.7-0.3-1.3-0.7-2-1.1
		c-0.1,0.4-0.2,0.8-0.2,1.1c0.2,1.9,0.4,3.9,0.6,5.8c0.1,0.8,0,1.5-0.7,1.8c-0.7,0.2-1.3,0.1-2-0.2c-0.7-0.3-1-1-0.9-1.7
		c0.1-1.4,0.2-2.9,0.2-4.3c0-0.8-0.1-1.6-0.3-2.4c-1.1,1.3-1.8,2.2-2.5,3.1c-0.6,0.7-1.1,1.4-1.7,2c-1.4,1.4-1.9,1.5-4.1,0.4
		c0.1-0.5,0.4-0.9,0.7-1.4c3-2.6,5.1-6.1,6.2-9.9c-1,0.1-2,0.4-2.9,0.9c-1.4,0.5-1.8,0.4-2.7-0.6c-0.9-1-0.7-2.1,0.8-2.5
		c1.2-0.3,2.5-0.5,3.6-0.9c2.4-0.8,2.4-0.8,1.9-3.3c-0.8-0.2-1.7-0.4-2.5-0.7c-0.7-0.3-1.2-1.1-1-1.8c0.1-0.9,0.8-1,1.5-1.1
		c2.9-0.4,5.7-0.8,8.6-1.2c0.3-0.1,0.6-0.1,0.9-0.1c0.8,0,1.5,0.3,1.6,1.2s-0.6,1.1-1.3,1.3l-4.6,1l0.2,2.7c0.7-0.2,1.3-0.4,2-0.5
		c0.6-0.1,1.1-0.3,1.5-0.1c0.6,0.3,1.1,0.8,1.4,1.4c0.3,0.7-0.4,1.1-1.1,1.3C211.6,195.4,210.6,195.6,209.5,196z"/>
	<path class="st3" d="M229.9,198.2c1.2-0.2,2-0.4,2.9-0.6s1.6-0.2,2.2,0.6c0.7,1.1,0.5,1.8-0.8,2c-1.2,0.2-2.6,0.4-4,0.6
		c0,0.7-0.1,1.2-0.1,1.8c0,5.4,0,10.7,0,16.1c0,1.9-0.3,3.8-0.4,5.7c-0.1,1-0.1,2.1-1.4,2.4c-0.9,0.2-1.8-0.1-2.9-1.1
		c1.9-2.2,1.7-5,1.8-7.7c0.2-4.8,0.1-9.7,0.1-14.6c0-0.5-0.1-1.1-0.2-1.8c-2.9,0.5-5.7,1.3-8.5,2.2c-0.8,0.5-1.7,0.5-2.5,0.1
		c-0.5-0.3-0.9-0.8-1.1-1.4c-0.1-0.6,0.4-1.1,1.1-1.3c2.1-0.5,4.2-1,6.2-1.5c1.2-0.3,2.3-0.5,3.5-0.7c0.7,0,1.3-0.6,1.3-1.3
		c0-0.1,0-0.2,0-0.3c-0.1-1.4-0.2-2.9-0.2-4.3c-0.2-3.3-0.3-6.5-0.5-9.8c-0.1-1.3,0.3-1.9,1.2-1.9c1.1-0.1,2,0.7,2.1,1.7
		c0,0.1,0,0.2,0,0.2c0,1.7-0.2,3.4-0.1,5.1C229.6,191.7,229.8,194.7,229.9,198.2z"/>
	<path class="st3" d="M219.1,196.2c1,0.3,2,0.6,2.9,1.1c0.4,0.4,0.6,0.9,0.6,1.4c0,0.7-0.7,0.7-1.3,0.8c-0.9,0.1-1.7,0.2-2.6,0.4
		c-0.8,0.2-1.6-0.1-2.1-0.6c-0.5-0.4-0.6-1.1-0.4-1.7c0.1-0.6,0.6-1,1.2-0.9h1.5L219.1,196.2z"/>
	<path class="st3" d="M219.8,191.4c1.1-0.1,2.2,0.3,3,1.1c0.7,0.9,0.5,1.7-0.6,2c-0.6,0.1-1.2,0.2-1.9,0.3c-1,0.1-2-0.5-2.4-1.5
		c-0.2-0.5,0-1.2,0.5-1.4c0,0,0,0,0,0C218.9,191.7,219.4,191.5,219.8,191.4z"/>
	<path class="st3" d="M319.3,26.4c-0.2,0.9-0.3,1.7-0.6,2.4c-0.4,0.9-0.1,2,0.8,2.4c0,0,0,0,0,0c1.3,0.8,2.6,1.7,3.9,2.6
		c0.5,0.3,0.9,0.6,1.2,1.1c0.3,0.5,0.2,1.1-0.3,1.5c-0.2,0.1-0.4,0.2-0.6,0.2c-0.9-0.1-1.7-0.3-2.5-0.6c-0.7-0.3-1.4-0.7-2.1-1.2
		c-0.1,0.4-0.2,0.8-0.2,1.2c0.2,2.1,0.4,4.2,0.6,6.3c0.1,0.8,0,1.7-0.8,1.9c-0.7,0.2-1.5,0.1-2.1-0.2c-0.7-0.3-1.1-1.1-0.9-1.8
		c0.1-1.5,0.2-3.1,0.2-4.7c0-0.9-0.1-1.7-0.3-2.6c-1.1,1.4-1.9,2.4-2.7,3.4c-0.6,0.7-1.2,1.5-1.9,2.1c-1.5,1.5-2.1,1.6-4.4,0.5
		c0.1-0.5,0.4-1,0.7-1.5c3.2-2.8,5.5-6.5,6.7-10.6c-1.2,0-2.1,0.7-3.2,1c-1.5,0.5-1.9,0.4-2.9-0.6c-0.9-1.1-0.8-2.2,0.8-2.7
		c1.3-0.4,2.6-0.6,3.9-1c2.6-0.8,2.6-0.9,2-3.6c-0.9-0.2-1.8-0.5-2.7-0.8c-0.8-0.3-1.2-1.2-1.1-2c0.2-1,0.9-1.1,1.7-1.2
		c3.1-0.4,6.2-0.9,9.3-1.3c0.3-0.1,0.7-0.1,1-0.1c0.9,0,1.6,0.4,1.8,1.3c0.1,1-0.6,1.2-1.4,1.4l-5,1.2l0.2,2.9
		c0.7-0.2,1.4-0.4,2.1-0.6c0.5-0.1,1.2-0.4,1.6-0.1c0.6,0.3,1.2,0.8,1.5,1.5c0.3,0.8-0.5,1.2-1.1,1.4
		C321.6,25.7,320.5,26.1,319.3,26.4z"/>
	<path class="st3" d="M341.3,28.8c1.3-0.3,2.2-0.5,3.1-0.6s1.7-0.2,2.4,0.7c0.7,1.1,0.5,2-0.8,2.2c-1.3,0.2-2.8,0.4-4.3,0.6
		c0,0.8-0.1,1.3-0.1,1.9c0,5.8,0,11.6-0.1,17.3c0,2-0.3,4.1-0.5,6.1c-0.1,1.1-0.1,2.2-1.5,2.6c-1,0.3-1.9-0.1-3.1-1.2
		c2-2.4,1.8-5.4,2-8.3c0.2-5.2,0.1-10.5,0.1-15.7c0-0.6-0.1-1.2-0.2-1.9c-3.1,0.6-6.2,1.4-9.2,2.4c-0.8,0.5-1.9,0.6-2.7,0.1
		c-0.5-0.3-0.9-0.9-1.1-1.5c-0.1-0.7,0.4-1.2,1.2-1.4c2.2-0.5,4.5-1.1,6.7-1.6c1.3-0.3,2.5-0.6,3.8-0.8c0.8,0,1.4-0.6,1.4-1.4
		c0-0.1,0-0.2,0-0.3c-0.1-1.6-0.2-3.1-0.2-4.7c-0.2-3.5-0.3-7.1-0.5-10.6c-0.1-1.4,0.3-2,1.3-2.1c1.2-0.1,2.2,0.8,2.2,2
		c0,0,0,0.1,0,0.1c0,1.8-0.2,3.7-0.2,5.5C341,21.7,341.2,25.1,341.3,28.8z"/>
	<path class="st3" d="M329.6,26.6c1.1,0.3,2.1,0.7,3.1,1.1c0.4,0.4,0.7,0.9,0.6,1.5c0,0.8-0.7,0.8-1.4,0.8c-0.9,0.1-1.8,0.2-2.8,0.4
		c-0.8,0.1-1.6-0.1-2.2-0.7c-0.5-0.5-0.7-1.2-0.4-1.8c0.1-0.6,0.7-1.1,1.3-1.1h1.6L329.6,26.6z"/>
	<path class="st3" d="M330.4,21.5c1.4,0,2.5,0.2,3.3,1.1c0.8,0.9,0.5,1.9-0.7,2.1c-0.7,0.1-1.3,0.2-2,0.3c-1.1,0.1-2.1-0.6-2.6-1.6
		c-0.3-0.6,0-1.2,0.5-1.5c0,0,0.1,0,0.1,0C329.5,21.7,329.9,21.6,330.4,21.5z"/>
	<path class="st3" d="M407.5,325.5l3.6,0.6l-0.3-9.5l-4.6,1.9c-0.3,2-0.4,4.1-0.3,6.2c0,0.6,0.3,1.3-0.6,1.6
		c-0.8,0.3-1.6-0.4-1.8-1.4c-0.1-0.5-0.2-1-0.1-1.5c0.4-4.1,0.8-8.3,1.3-12.4c0.2-2.2,0.1-2.9,0.4-5.1c0.2-1.2,0.4-2.4,0.4-3.6
		c-0.1-1.5,0.2-2.1,1.6-2.4l3-0.8c1.5-0.5,3.2,0.3,3.7,1.9c0.1,0.3,0.1,0.5,0.1,0.8c0.1,2.4,0,4.8-0.1,7.2
		c-0.2,5.4-0.5,10.9,0.4,16.3c0.1,0.8,0.2,1.6,0.2,2.3c0,1.2-0.5,1.7-1.6,1.6c-1-0.1-1.9-0.3-2.9-0.6
		C408.4,328.3,407.4,327,407.5,325.5z M410.7,308c0.2-1.8,0.2-3.6,0-5.4c-0.8,0-3.3,0-3.3,0.8c0,2.1,0.1,3.2,0.2,5.4L410.7,308z
		 M407.1,312c0,0.1,0,2.9,0,3c1.2-0.2,2.5-0.6,3.8-0.8c0-0.4-0.1-2.2-0.2-2.9C409.1,311.6,408.7,311.6,407.1,312z"/>
	<path class="st3" d="M377,323.8v-2.7c1.2,0,2.3,0.1,3.5,0.3c2,0.5,2.3,1.8,1.1,3.4c-1.8,2.6-5.1,3.8-8.2,3c-6-1.2-9.5-5.2-11.2-11
		c-0.3-0.9-0.5-1.9-0.8-2.9c-0.4-1.5,0-2.3,1-2.6c1.2-0.3,2.5,0.3,3,1.5c0.2,0.9,0.4,1.8,0.4,2.7c0.3,3.7,2.6,7,6,8.5
		C373.4,325,375.5,324.9,377,323.8z"/>
	<path class="st3" d="M359.5,305.7c-1.1,4.1-2.2,8.2-3.4,12.3c-0.3,1-0.5,2-0.8,3.1c-0.3,1.4-0.8,1.8-2,1.6
		c-1.4-0.1-2.2-0.9-2.1-2.2c0-0.7,0.2-1.3,0.5-2c1.5-3.9,2.6-7.9,3.3-12c0.2-1,0.2-2,0.3-2.9c0.1-1.6,0.8-2.5,2.1-2.3
		c1.4,0.1,2.5,1.3,2.5,2.7C359.7,304.5,359.6,305.1,359.5,305.7L359.5,305.7z"/>
	<path class="st3" d="M392,319.2c-1.7,0.2-2.4-0.5-2.9-1.9c-1.4-4.1-2.9-8.2-4.5-12.3c-0.4-0.8-0.3-1.7,0.3-2.3
		c0.7-0.7,1.8-0.7,2.5,0c0.7,0.6,1.3,1.4,1.6,2.4c1.2,3.6,2.2,7.2,3.2,10.9C392.8,316.9,392.7,318.2,392,319.2z"/>
	<path class="st3" d="M376.7,310.8c-0.9,0.8-2.2,0.7-3-0.1c0,0-0.1-0.1-0.1-0.1c-1.1-1.1-2.1-2.4-3.1-3.6c-0.6-0.6-0.6-1.5,0-2
		c0,0,0,0,0,0c0.6-0.4,1.3-0.6,2-0.6c0.5,0.1,1,0.3,1.3,0.8C375.2,306.8,376.5,308.5,376.7,310.8z"/>
	<path class="st3" d="M512.7,305.7c-0.2,0.9-0.3,1.6-0.5,2.2c-0.4,0.8,0,1.8,0.8,2.2c0,0,0,0,0,0c1.2,0.8,2.4,1.6,3.6,2.4
		c0.4,0.3,0.8,0.6,1.1,1c0.3,0.4,0.3,1-0.1,1.3c-0.2,0.2-0.5,0.3-0.8,0.2c-0.8-0.1-1.6-0.2-2.4-0.5c-0.7-0.3-1.3-0.7-2-1.1
		c-0.1,0.4-0.2,0.8-0.2,1.1c0.2,2,0.4,3.9,0.6,5.8c0.1,0.8,0,1.5-0.7,1.8c-0.7,0.1-1.3,0.1-2-0.2c-0.7-0.3-1-1-0.9-1.7
		c0.1-1.4,0.2-2.9,0.2-4.3c0-0.8-0.1-1.6-0.3-2.4c-1.1,1.3-1.8,2.2-2.5,3.2c-0.6,0.7-1.1,1.4-1.7,2c-1.4,1.4-1.9,1.5-4.1,0.4
		c0.1-0.5,0.4-1,0.7-1.4c3-2.6,5.2-6.1,6.2-9.9c-1,0.1-2,0.4-2.9,0.9c-1.4,0.5-1.8,0.4-2.7-0.6c-0.9-1-0.7-2.1,0.8-2.5
		c1.2-0.3,2.5-0.5,3.7-0.9c2.4-0.8,2.4-0.8,1.9-3.4c-0.8-0.2-1.7-0.4-2.5-0.7c-0.8-0.3-1.2-1.1-1.1-1.8c0.1-0.9,0.8-1,1.5-1.1
		c2.9-0.4,5.7-0.8,8.6-1.2c0.3-0.1,0.6-0.1,0.9-0.1c0.8,0,1.5,0.3,1.6,1.3c0.1,0.9-0.6,1.2-1.3,1.3l-4.6,1.1l0.3,2.6
		c0.7-0.2,1.3-0.4,2-0.5c0.6-0.1,1.1-0.3,1.5-0.1c0.6,0.3,1.1,0.8,1.4,1.4c0.3,0.7-0.4,1.1-1.1,1.3
		C514.7,305.1,513.7,305.4,512.7,305.7z"/>
	<path class="st3" d="M533.1,307.9c1.2-0.2,2-0.4,2.9-0.6s1.6-0.2,2.2,0.7c0.7,1.1,0.5,1.8-0.8,2.1s-2.6,0.4-4.1,0.6
		c0,0.7-0.1,1.3-0.1,1.8c0,5.4,0,10.8,0,16.1c0,1.9-0.3,3.8-0.4,5.7c-0.1,1-0.1,2.1-1.4,2.4c-0.9,0.2-1.8-0.1-2.9-1.1
		c1.9-2.2,1.7-5,1.8-7.7c0.2-4.9,0.1-9.7,0.1-14.6c0-0.5-0.1-1.1-0.2-1.8c-2.9,0.5-5.8,1.3-8.5,2.2c-0.8,0.5-1.7,0.5-2.5,0.1
		c-0.5-0.3-0.9-0.8-1.1-1.4c-0.1-0.6,0.4-1.1,1.1-1.3c2.1-0.5,4.2-1,6.3-1.5c1.2-0.3,2.3-0.5,3.5-0.7c0.7,0,1.3-0.6,1.3-1.3
		c0-0.1,0-0.2,0-0.3c-0.1-1.4-0.2-2.9-0.2-4.3c-0.2-3.3-0.3-6.6-0.5-9.9c-0.1-1.3,0.3-1.9,1.2-1.9c1.1-0.1,2,0.7,2.1,1.7
		c0,0.1,0,0.1,0,0.2c0,1.7-0.2,3.4-0.1,5.1C532.8,301.4,533,304.5,533.1,307.9z"/>
	<path class="st3" d="M522.2,305.9c1,0.3,2,0.6,2.9,1.1c0.4,0.4,0.6,0.9,0.6,1.4c0,0.7-0.7,0.7-1.3,0.8c-0.9,0.1-1.7,0.2-2.6,0.4
		c-0.8,0.2-1.6-0.1-2.1-0.6c-0.5-0.4-0.6-1.1-0.4-1.7c0.1-0.6,0.7-1,1.2-1h1.5L522.2,305.9z"/>
	<path class="st3" d="M523,301.2c1.1-0.1,2.2,0.3,3,1.1c0.7,0.9,0.5,1.8-0.6,2c-0.6,0.1-1.2,0.2-1.9,0.3c-1,0-2-0.5-2.4-1.5
		c-0.2-0.5,0-1.2,0.5-1.4c0,0,0,0,0,0C522.1,301.4,522.6,301.2,523,301.2z"/>
	<path class="st3" d="M465,315.5c0.5-0.8,0.9-1.5,1.4-2.1c1.7-2.4,3.5-4.8,5.2-7.3c1.2-1.8,1.1-2.5-0.4-4.2
		c-2.3,0.5-4.9,0.6-7.1,1.7c-0.4,0.3-0.6,0.7-0.6,1.2c-0.8,7.3-0.7,11.8-1.5,19.1c0,0.8,0.1,1.6,0.3,2.4c0.2,1.1-0.2,1.8-1,2
		c-1.1,0.3-2.2-0.3-2.6-1.4c-0.1-0.5-0.1-1.1,0-1.6c0.6-5.7,0.7-7.8,1.4-13.5c0.4-3.2,0.3-6.3-0.3-9.5c-0.4-1.7,0.6-2.1,2.1-2.3
		c2.9-0.5,4.1-0.5,6.6-0.9c-0.4-0.4-3.2-3.3-2.5-4.1c0.7-0.9,2.8-0.4,3.7,0.4c0.8,0.8,1.5,1.6,2.1,2.5c0.2,0.3,0.6,0.5,1,0.5
		c0.5,0,1-0.1,1.5-0.2c2.9-0.3,5.9-0.1,8.8-0.5c0.6-0.1,1.1-0.1,1.7-0.3c0.5-0.1,1.1-0.2,1.6-0.3c0.4,0,0.8,0,1.1,0.1
		c0.8,0.1,1.4,0.8,1.3,1.6c0,0.2-0.1,0.3-0.1,0.4c-1.1,3.9-0.7,6.3-0.5,10.2c0.2,4.8,0.5,9.6,0.8,14.4c0,0.2,0,0.4,0.1,0.6
		c0.2,2.2-1.1,3.4-3.1,2.7c-2-0.7-4.7-1.3-5.3-4.2c1.6-1.1,2.9,0.9,4.6,0.5c0.7-2.7,0.3-5.5,0-8.4c-4.4-1.3-7.3-4.4-10.2-7.9
		c-1.1,1.4-2,2.6-3,3.9c-1.3,1.5-2.5,3.1-3.8,4.5C467.1,316.6,464,317.5,465,315.5z M474.6,300.7c3.2,4.2,5.5,9,10.5,11.8
		c-0.2-4.9-0.3-7.8-0.5-12.4C481.2,300.4,478.4,300.6,474.6,300.7L474.6,300.7z"/>
	<path class="st4" d="M431.8,386.1c-0.5-0.2-0.8-0.7-0.9-1.2c0-0.3-0.1-0.5-0.1-0.8c-0.3-1.5-0.7-3.5,1.1-5.2l4.2-4.2
		c1.8-1.8,3.5-3.6,3.6-5.7c0.1-2.2-1.6-4.1-3.9-4.2c-2.2-0.1-4.1,1.6-4.2,3.9c0,0.2,0,0.4,0,0.7c0.1,0.9-0.5,1.8-1.4,1.9
		c-0.9,0.1-1.8-0.5-1.9-1.4l0,0c-0.5-4,2.3-7.7,6.3-8.2c4-0.5,7.7,2.3,8.2,6.3c0.1,0.5,0.1,0.9,0,1.4c-0.3,3.4-2.9,6-4.6,7.8
		l-4.2,4.2c-0.4,0.4-0.4,0.7-0.1,2.2c0.1,0.3,0.1,0.6,0.2,0.9c0.1,0.9-0.5,1.8-1.4,1.9C432.5,386.3,432.1,386.3,431.8,386.1
		L431.8,386.1z"/>
	<path class="st4" d="M431.3,394.9c-0.2-0.1-0.4-0.3-0.6-0.4c-0.2-0.2-0.4-0.5-0.5-0.8c-0.6-0.6-0.9-1.4-0.9-2.2
		c0-0.5,0.1-1,0.3-1.5c0.4-0.7,1.1-1.2,2-1.3c0.6-0.3,1.2-0.4,1.9-0.3c0.9,0.1,1.6,0.6,2.1,1.4c0.9,1.9,0.2,4.2-1.7,5.1
		c-0.1,0-0.2,0.1-0.2,0.1C432.9,395.3,432,395.2,431.3,394.9z"/>
	<path class="st4" d="M125,269.4c-0.5-0.2-0.8-0.7-0.9-1.2c0-0.3-0.1-0.5-0.1-0.8c-0.3-1.5-0.7-3.5,1.1-5.2l4.2-4.2
		c1.8-1.8,3.5-3.6,3.6-5.7c0.1-2.2-1.6-4.1-3.9-4.2c-2.2-0.1-4.1,1.6-4.2,3.9c0,0.2,0,0.4,0,0.7c0.1,0.9-0.5,1.8-1.4,1.9
		c-0.9,0.1-1.8-0.5-1.9-1.4l0,0c-0.5-4,2.3-7.7,6.3-8.2c4-0.5,7.7,2.3,8.2,6.3c0.1,0.5,0.1,0.9,0,1.4c-0.3,3.4-2.9,6-4.6,7.8
		l-4.2,4.2c-0.4,0.4-0.4,0.7-0.1,2.2c0.1,0.3,0.1,0.6,0.2,0.9c0.1,0.9-0.5,1.8-1.4,1.9C125.7,269.6,125.3,269.5,125,269.4L125,269.4
		z"/>
	<path class="st4" d="M124.5,278.2c-0.2-0.1-0.4-0.3-0.6-0.4c-0.2-0.2-0.4-0.5-0.5-0.8c-0.6-0.6-0.9-1.4-0.9-2.2
		c0-0.5,0.1-1,0.3-1.5c0.4-0.7,1.1-1.2,2-1.3c0.6-0.3,1.2-0.4,1.9-0.3c0.9,0.1,1.6,0.6,2.1,1.4c0.9,1.9,0.2,4.2-1.7,5.1
		c-0.1,0-0.2,0.1-0.2,0.1C126.1,278.5,125.3,278.5,124.5,278.2z"/>
	<path class="st4" d="M403.6,64.8c-0.4-0.3-0.7-0.8-0.6-1.4c0-0.3,0-0.5,0-0.8c0-1.6,0-3.5,2-4.9l5-3.3c2.1-1.4,4.1-2.9,4.7-4.9
		c0.5-2.2-0.8-4.4-3-4.9c-2.2-0.5-4.4,0.8-4.9,3c-0.1,0.2-0.1,0.4-0.1,0.6c0,0.9-0.8,1.6-1.7,1.6c-0.9,0-1.6-0.8-1.6-1.7l0,0
		c0.3-4.1,3.8-7.1,7.8-6.8s7.1,3.8,6.8,7.8c0,0.4-0.1,0.9-0.2,1.3c-0.9,3.3-4,5.4-6,6.7l-5,3.3c-0.5,0.3-0.5,0.6-0.5,2.1
		c0,0.3,0,0.6,0,0.9c0,0.9-0.8,1.6-1.7,1.6C404.3,65.1,403.9,65,403.6,64.8L403.6,64.8z"/>
	<path class="st4" d="M401.5,73.3c-0.2-0.2-0.4-0.3-0.5-0.5c-0.2-0.3-0.3-0.6-0.3-0.9c-0.4-0.7-0.6-1.5-0.5-2.3
		c0.1-0.5,0.3-1,0.6-1.4c0.5-0.6,1.4-1,2.2-0.9c0.6-0.2,1.3-0.2,1.9,0.1c0.8,0.3,1.4,1,1.8,1.8c0.6,2-0.6,4.1-2.6,4.7
		c-0.1,0-0.2,0-0.3,0.1C402.9,74,402.2,73.8,401.5,73.3z"/>
	<path class="st4" d="M543.8,156.6c-0.5,0-1-0.3-1.3-0.7l-0.5-0.6c-1-1.3-2.1-2.8-1.4-5.1l1.9-5.7c0.8-2.5,1.5-4.8,0.8-6.7
		c-0.9-2-3.3-3-5.3-2.1c-2,0.9-3,3.3-2.1,5.3c0.1,0.2,0.2,0.4,0.3,0.6c0.5,0.7,0.4,1.8-0.3,2.3c-0.7,0.5-1.8,0.4-2.3-0.3
		c0,0,0-0.1-0.1-0.1c-2.3-3.4-1.3-7.9,2-10.2c3.4-2.3,7.9-1.3,10.2,2c0.3,0.4,0.5,0.8,0.7,1.2c1.3,3.2,0.1,6.7-0.7,9l-1.9,5.7
		c-0.2,0.5-0.1,0.8,0.9,2l0.5,0.7c0.5,0.7,0.4,1.8-0.4,2.3C544.5,156.5,544.2,156.6,543.8,156.6L543.8,156.6z"/>
	<path class="st4" d="M547.3,164.6c-0.3,0-0.5,0-0.8-0.1c-0.3-0.1-0.6-0.3-0.8-0.5c-0.8-0.3-1.4-0.8-1.8-1.5
		c-0.3-0.4-0.4-0.9-0.4-1.5c0-0.9,0.5-1.6,1.2-2.1c0.4-0.5,0.9-0.9,1.6-1.1c0.8-0.2,1.7-0.1,2.5,0.3c1.7,1.3,2,3.7,0.8,5.3
		c-0.1,0.1-0.1,0.1-0.2,0.2C548.8,164.3,548.1,164.6,547.3,164.6z"/>
	<path class="st4" d="M139.6,78.6c-0.5-0.1-1-0.4-1.2-0.9c-0.1-0.2-0.2-0.5-0.4-0.7c-0.7-1.4-1.6-3.2-0.5-5.3l2.8-5.3
		c1.2-2.3,2.3-4.5,1.9-6.5c-0.5-2.2-2.7-3.5-4.9-2.9s-3.5,2.7-2.9,4.9c0.1,0.2,0.1,0.4,0.2,0.6c0.4,0.8,0,1.8-0.8,2.2
		c-0.8,0.4-1.8,0-2.2-0.8c-1.6-3.7,0-8.1,3.7-9.7c3.7-1.6,8.1,0,9.7,3.7c0.2,0.4,0.3,0.8,0.4,1.3c0.7,3.4-1.1,6.6-2.2,8.8l-2.8,5.3
		c-0.3,0.5-0.2,0.8,0.5,2.1c0.1,0.3,0.3,0.5,0.4,0.8c0.4,0.8,0.1,1.8-0.8,2.2C140.3,78.5,139.9,78.6,139.6,78.6L139.6,78.6z"/>
	<path class="st4" d="M141.7,87.1c-0.3,0-0.5-0.1-0.7-0.2c-0.3-0.1-0.5-0.4-0.7-0.6c-0.7-0.4-1.2-1.1-1.5-1.8
		c-0.2-0.5-0.2-1-0.1-1.5c0.2-0.8,0.7-1.5,1.5-1.9c0.5-0.5,1.1-0.7,1.7-0.8c0.9-0.1,1.7,0.2,2.4,0.7c1.4,1.5,1.4,3.9-0.2,5.4
		c-0.1,0.1-0.1,0.1-0.2,0.2C143.2,87,142.5,87.2,141.7,87.1z"/>
	<path class="st4" d="M241.1,147c-0.5-0.1-1-0.4-1.2-0.9c-0.1-0.2-0.2-0.5-0.4-0.7c-0.7-1.4-1.6-3.2-0.5-5.3l2.8-5.3
		c1.2-2.3,2.3-4.5,1.9-6.5c-0.5-2.2-2.7-3.5-4.9-2.9s-3.5,2.7-2.9,4.9c0.1,0.2,0.1,0.4,0.2,0.6c0.4,0.8,0,1.8-0.8,2.2
		c-0.8,0.4-1.8,0-2.2-0.8c-1.6-3.7,0-8.1,3.7-9.7c3.7-1.6,8.1,0,9.7,3.7c0.2,0.4,0.3,0.8,0.4,1.3c0.7,3.4-1.1,6.6-2.2,8.8l-2.8,5.3
		c-0.3,0.5-0.2,0.8,0.5,2.1c0.1,0.3,0.3,0.5,0.4,0.8c0.4,0.8,0.1,1.8-0.8,2.2C241.8,146.9,241.5,147,241.1,147L241.1,147z"/>
	<path class="st4" d="M243.2,155.5c-0.3,0-0.5-0.1-0.7-0.2c-0.3-0.1-0.5-0.4-0.7-0.6c-0.7-0.4-1.2-1.1-1.5-1.8
		c-0.2-0.5-0.2-1-0.1-1.5c0.2-0.8,0.7-1.5,1.5-1.9c0.5-0.5,1.1-0.7,1.7-0.8c0.9-0.1,1.7,0.2,2.4,0.7c1.4,1.5,1.4,3.9-0.2,5.4
		c-0.1,0.1-0.1,0.1-0.2,0.2C244.8,155.4,244,155.6,243.2,155.5z"/>
	<path class="st3" d="M428.9,218.3c2.5,0,3.4,2.5,5.4,3.1c-0.1-7.1-0.1-18.7-0.2-25.6c0-0.2-0.2-0.4-0.5-0.8l-8,1.8
		c1.1,2.4,2,4.5,3.2,6.5c1.2,2,2.5,3.8,3.8,5.7c-0.7,0.9-2.1,1.1-3,0.4c0,0-0.1-0.1-0.1-0.1c-0.9-0.7-1.7-1.5-2.5-2.4
		c-0.6-0.6-1.1-1.3-1.7-2.1c-1.1,1.4-2,2.7-3,3.9c-0.7,0.8-1.5,1.5-2.3,2.1c-1,0.4-2.1,0.3-3-0.4c-0.5-0.4-0.5-1.1-0.1-1.6
		c0,0,0,0,0.1-0.1c1.4-1.8,2.9-3.6,4.2-5.5c0.7-1,1.2-2.1,1.5-3.3c0.3-0.9-0.4-1.5-1.3-1.2c-1.4,0.5-2.8,1.2-4.2,1.9
		c-0.5,0.4-0.8,1.1-0.8,1.7c-0.3,2.4-0.6,4.9-0.8,7.3c-0.3,3-0.7,6-0.8,8.9c-0.1,2,0.1,4.1,0.2,6.2c0,0.4,0,0.9-0.1,1.3
		c-2.2,0.8-2.9,0.6-3.6-1.4c-0.3-0.7-0.4-1.5-0.4-2.2c0-2.2,0.1-4.4,0.3-6.7c0.3-4.7,0.7-9.5,1.1-14.2c0.1-1.6-0.6-3.1-0.1-4.7
		c0.5-1.6,1.4-2.6,3-1.7c1.8,1.1,3.2,0.3,4.9-0.5c-0.7-0.9-1.2-1.8-1.8-2.5c-0.8-0.7-0.9-2-0.2-2.8c0.1-0.1,0.2-0.2,0.3-0.3
		c3-0.2,4.1,2.1,5.4,4.4c1.6-0.4,3.1-0.8,4.6-1.2c2.1-0.5,4.2-0.9,6.2-1.3c1.7-0.4,3.4,0.7,3.8,2.4c0.1,0.2,0.1,0.5,0.1,0.7
		c-0.1,4.4-0.4,8.9-0.3,13.3c0.1,3.9,0.6,12.5,1.1,16.4c0.2,1.9-0.5,2.9-2.4,2.6c-2.3-0.4-4.5-1.1-5.5-3.6c-0.4-0.7-0.8-1.3-1.3-1.9
		C429.4,220.1,429,219.2,428.9,218.3z"/>
	<path class="st3" d="M62.6,134.6c2.5,0,3.4,2.5,5.4,3.1c-0.1-7.1-0.1-18.7-0.2-25.6c0-0.2-0.2-0.4-0.5-0.8l-8,1.8
		c1.1,2.4,2,4.5,3.2,6.5c1.2,2,2.5,3.8,3.8,5.7c-0.7,0.9-2.1,1.1-3,0.4c0,0-0.1-0.1-0.1-0.1c-0.9-0.7-1.7-1.5-2.5-2.4
		c-0.6-0.6-1.1-1.3-1.7-2.1c-1.1,1.4-2,2.7-3,3.9c-0.7,0.8-1.5,1.5-2.3,2.1c-1,0.4-2.1,0.3-3-0.4c-0.5-0.4-0.5-1.1-0.1-1.6
		c0,0,0,0,0.1-0.1c1.4-1.8,2.9-3.6,4.2-5.5c0.7-1,1.2-2.1,1.5-3.3c0.3-0.9-0.4-1.5-1.3-1.2c-1.4,0.5-2.8,1.2-4.2,1.9
		c-0.5,0.4-0.8,1.1-0.8,1.7c-0.3,2.4-0.6,4.9-0.8,7.3c-0.3,3-0.7,6-0.8,8.9c-0.1,2,0.1,4.1,0.2,6.2c0,0.4,0,0.9-0.1,1.3
		c-2.2,0.8-2.9,0.6-3.6-1.4c-0.3-0.7-0.4-1.5-0.4-2.2c0-2.2,0.1-4.4,0.3-6.7c0.3-4.7,0.7-9.5,1.1-14.2c0.1-1.6-0.6-3.1-0.1-4.7
		c0.5-1.6,1.4-2.6,3-1.7c1.8,1.1,3.2,0.3,4.9-0.5c-0.7-0.9-1.2-1.8-1.8-2.5c-0.8-0.7-0.9-2-0.2-2.8c0.1-0.1,0.2-0.2,0.3-0.3
		c3-0.2,4.1,2.1,5.4,4.4c1.6-0.4,3.1-0.8,4.6-1.2c2.1-0.5,4.2-0.9,6.2-1.3c1.7-0.4,3.4,0.7,3.8,2.4c0.1,0.2,0.1,0.5,0.1,0.7
		c-0.1,4.4-0.4,8.9-0.3,13.3c0.1,3.9,0.6,12.5,1.1,16.4c0.2,1.9-0.5,2.9-2.4,2.6c-2.3-0.4-4.5-1.1-5.5-3.6c-0.4-0.7-0.8-1.3-1.3-1.9
		C63,136.4,62.7,135.5,62.6,134.6z"/>
	<path class="st3" d="M100.6,136.3c0.5-3.5,0.7-7.1,0.6-10.7c-2.6-0.5-2.9-0.5-3.7,1.7c-1.7,4.6-4.9,8.1-8.3,11.4
		c-0.7,0.8-1.8,1.1-2.8,0.7c-0.7-0.3-1.3-0.9-1.7-1.6c-0.1-0.4,0.5-1.3,1.1-1.8c2.8-2.2,5.1-5,6.6-8.2c0.1-0.3,0.2-0.5,0.4-1
		l-2.1,0.2c-0.9,0.1-1.8-0.3-2.3-1c-0.4-0.5-0.6-1.1-0.5-1.8c0.3-0.6,0.8-1,1.4-1.1c3.4-0.5,6.9-0.9,10.4-1.4
		c0.7-0.1,1.5-0.1,2.2-0.3c2.2-0.4,3.8,0.8,3.8,3.1c-0.1,4.4-0.3,8.9-0.5,13.3c-0.1,1.4-0.7,2-2.1,2.1c-3.2,0.4-6.3-1.3-7.8-4.1
		c-0.2-0.4-0.2-0.8,0-1.2c0.3-0.3,0.7-0.4,1.1-0.3c0.9,0.3,1.8,0.7,2.7,1.1C99.3,135.7,99.8,135.9,100.6,136.3z"/>
	<path class="st3" d="M111.3,115.1c-1.4-0.2-2.8-0.5-4.1-0.9c-2.5-0.8-4.8-1.9-7.2-2.8c-0.3-0.2-0.6-0.4-0.9-0.6
		c-0.8-0.5-1.1-1.5-0.8-2.3c0.4-0.9,1.3-0.9,2.1-0.9c0.6,0.1,1.1,0.3,1.7,0.6c2.9,1.5,5.9,3.2,9.3,3.4c0.2,0,0.4,0.1,0.6,0.2
		c0.9,0.4,1.9,0.9,1.7,2C113.5,115,112.3,115,111.3,115.1z"/>
	<path class="st3" d="M83.5,120.5c0.9-1.1,1.9-2.3,2.8-3.5c0.8-1,1.6-1.9,2.3-2.9c0.6-0.9,1.6-1.4,2.7-1.1c1.1,0.2,2.1,1,2.4,2
		c0.3,0.9-0.1,1.8-0.8,2.3c-1.5,1.3-3.1,2.5-4.6,3.8C86.5,122.7,85.5,122.6,83.5,120.5z"/>
	<path class="st3" d="M148,127.4l3.8-6.6c-1-0.4-1.8-0.6-2.6-1c-0.7-0.3-1.3-0.7-2-1.1c-1.3-0.9-1.7-2-1.1-2.9
		c0.6-0.9,2-1.1,3.3-0.2c0.5,0.4,1,0.9,1.4,1.5c0.6,0.6,1.2,1.1,2,1.9c1-1.8,1.9-3.7,2.6-5.7c0.4-1.6,1.3-2,2.7-1.6
		c1.2,0.3,1.9,1.6,1.6,2.8c0,0.1-0.1,0.2-0.1,0.3c-0.2,0.4-0.4,0.8-0.6,1.3l5.4,3.8c0.7,0.5,1.5,1.1,1.1,2c-0.4,0.9-1.4,1.1-2.3,0.6
		c-1.6-0.8-3.2-1.6-4.7-2.4c-0.4-0.2-0.7-0.4-1.2-0.8l-7,10.9c0.3,0.1,0.6,0.2,0.8,0.3c2.6,1.8,2.9,1.8,4.5-1
		c0.3-0.4,0.5-0.7,0.8-1.1c2,0.7,2.3,1.1,2,2.9c-0.1,0.9-0.3,1.8-0.5,2.6c0,1.2-1,2.1-2.2,2c-0.2,0-0.4-0.1-0.6-0.1
		c-1.9-0.5-3.7-1.3-5.3-2.5c-0.5-0.3-0.9-0.6-1.3-0.9c-1.2,0.8-2.3,1.4-3.3,2.2c-1,0.8-1.7,0.5-2.5-0.4l3.2-3.9
		c-0.7-0.9-1.4-1.7-2-2.5c-1.1-1.4-2-2.9-3-4.4c-0.8-1.1-0.7-2.1,0.1-2.7c1-0.7,2.4-0.6,3.4,0.2c0.5,0.7,0.8,1.5,1.1,2.4
		C145.8,124.9,146.7,126.3,148,127.4z"/>
	<path class="st3" d="M129.4,129.9c1.5,0.9,1.7,1.4,0.9,2.7c-0.5,0.7-1,1.3-1.6,1.9c-1.1,1.1-2.2,2.2-3.3,3.3c-0.7,0.9-2,1.1-3,0.6
		c-0.7-0.3-1.2-0.8-1.5-1.5c-0.3-0.8,0.2-1.5,1-2C124.4,133.2,126.9,131.5,129.4,129.9z"/>
	<path class="st3" d="M133.9,130.1c-1.8,0-2.5-1-1.9-2.3c0.9-2.1,1.8-4.1,2.8-6.1c0.6-1.1,2-1.6,3.2-1c0.2,0.1,0.3,0.2,0.5,0.4
		c1.2,0.9,1.2,1.9,0.1,3.3c-1.3,1.6-2.4,3.3-3.6,4.9C134.7,129.6,134.3,129.9,133.9,130.1z"/>
	<path class="st3" d="M123.5,117.4l5.3,0.3c0.2,0,0.5,0,0.6,0.1c0.6,0.5,1.5,1,1.6,1.6c0.2,1.1-0.8,1.3-1.6,1.4
		c-1.5,0.3-3.1,0.6-4.6,0.7c-0.9,0-1.7-0.2-2.5-0.7c-0.9-0.4-1.3-1.3-1-2.2C121.6,117.7,122.2,117.3,123.5,117.4z"/>
	<path class="st3" d="M122.2,130.6c-0.8-0.4-1.6-0.9-2.3-1.5c-0.6-0.7-0.5-1.8,0.2-2.4c0.2-0.1,0.3-0.2,0.5-0.3
		c1.3-0.5,2.7-0.9,4.1-1.2c0.7-0.1,1.5-0.1,2.2,0.2c1.2,0.5,1.2,1.6,0.2,2.4c-0.3,0.2-0.6,0.3-0.9,0.5c-0.8,0.5-1.6,1-2.4,1.4
		C123.4,130,122.9,130.3,122.2,130.6z"/>
	<path class="st3" d="M406.5,131.3c1.9-1.1,2.8-2.8,4.1-4.3c-0.7-1-1.7-1.8-2.8-2.3c-0.9-0.4-1.3-0.9-1.1-1.9c0.3-1,1.1-1.2,1.9-1.1
		c0.7,0.1,1.3,0.3,1.9,0.6c0.8,0.7,2,0.6,2.7-0.2c0,0,0,0,0-0.1c0.9-0.9,1.7-1.9,2.4-2.9c0.6-1.1,2-1.5,3.1-0.8
		c0.3,0.1,0.5,0.3,0.7,0.6c0.5,0.4,0.5,1.2,0.1,1.7c-0.9,1-1.8,2-2.8,2.9c-0.7,0.6-1.4,1.2-2.1,1.9c1.3,1.7,3,3.3,4.8,4.5
		c0.6,0.4,1.2,0.9,1.7,1.4c0.3,0.5,0.4,1.1,0.2,1.6c-0.4,0.5-1,0.9-1.6,1c-0.8-0.1-1.5-0.4-2.1-0.9c-1.4-1.1-2.7-2.4-4.1-3.6
		c-0.3-0.2-0.6-0.4-0.8-0.5c-0.6,0.7-1.1,1.4-1.6,2.1c-0.9,1.2-2,2.4-3.1,3.4c-1.2,1.1-3,1-4.1-0.2c-0.3-0.3-0.5-0.7-0.6-1.2
		c-0.4-1.2-0.6-2.5-0.6-3.8c0.1-4,0.3-8,0.4-12c0-1.3-0.1-2.7-0.1-4c0-0.9,0.3-1.7,0.2-2.6c-0.1-2.6-0.2-5.1-0.3-7.7
		c-0.1-0.6-0.2-1.2-0.4-1.8c-0.6-1.9,0.8-3.6,2.5-2.9c2.4,1,4.6,0.4,6.9-0.1c0.5-0.1,0.9-0.2,1.4-0.2c1.3-0.1,2.4,0.9,2.5,2.2
		c0,0.1,0,0.2,0,0.4c-0.2,3-0.3,5.9-0.5,8.9c-0.1,2-0.5,2.4-2.5,3.1c-1.8,0.6-3.5,1.3-5.3,2.1c-0.4,0.2-0.7,0.6-0.7,1.1
		c-0.4,4.9-1.1,9.7-0.5,14.6C406.3,130.6,406.4,131,406.5,131.3z M406.9,105.4l4.7-1.3l-0.1-2.3l-4.7,0.7L406.9,105.4z M407.1,110.6
		c1.3,0,3.7-0.6,4-1.2c0.2-0.5,0.3-1,0.4-1.5C408.2,108.2,407.3,108.7,407.1,110.6L407.1,110.6z"/>
	<path class="st3" d="M389.3,104.8c1.1-0.4,2-0.7,2.9-1c2.6-0.7,4.1,0.4,4.2,3c0.1,1.8,0,3.6,0.1,5.5c0.2,4.5,0.4,9,0.6,13.6
		c0,0.4,0,0.8,0,1.2c0,0.9-0.6,1.7-1.4,2c-1,0.5-2.2,0.1-2.7-0.9c0-0.1-0.1-0.1-0.1-0.2c-1.5,1-3,2-4.5,2.8
		c-0.8,0.4-1.6,0.6-2.5,0.6c-1.5-0.1-2.1-1.1-2-2.5c0.1-1.4,0.6-3.2,0.1-4.6c-0.4-1.9-0.4-3.8,0.1-5.7c0.4-3.5,0.6-7,0.6-10.5
		c0-1.1,0-2.1,0.1-3.2c0.1-1.1,1.1-1.9,2.2-1.8c0.4,0,0.7,0.2,1,0.4C388.6,104,388.9,104.4,389.3,104.8z M393.5,124.1l-0.3-3.6
		c-1.8,0.3-3.5,1-5,2c-0.4,0.3-0.6,0.7-0.7,1.2c-0.1,1.1,0,2.1,0,3.5L393.5,124.1z M392.5,107.6c-3.7,1.3-4.7,2.2-3.9,5.4
		c0.7-0.3,1.4-0.5,2-0.8C393.1,111,393.3,110.5,392.5,107.6z M393,115.2l-4.4,1.8c-0.7,0.3-0.8,0.8-0.4,1.4l4.8-1.2L393,115.2z"/>
	<path class="st3" d="M477.9,213.5c-1.3,1.1-2.1,2.7-3.9,2.5c-0.6,0-1.1-0.2-1.7-0.3c1.1-1.9,2-3.6,2.9-5.4c0.8-1.6,0.4-2.1-1.4-2.4
		c-0.4,0-0.8-0.1-1.2-0.3c-0.7-0.2-1.3-0.9-1.3-1.6c0-0.9,0.5-1.3,1.3-1.6c0.2-0.1,0.4-0.1,0.6-0.2c3.4-1.3,3.6-1.7,2.8-5.6
		l-1.7-0.5c-1-0.2-1.7-1-1.6-2c0-0.9,0.5-1.3,1.7-1.6c2.1-0.5,4.3-1.2,6.5-1.7c0.7-0.2,1.4-0.1,2.1,0.1c0.5,0.2,0.9,0.7,1.1,1.3
		c0.1,0.4-0.4,0.9-0.8,1.2c-0.5,0.3-1,0.5-1.5,0.6c-0.6,0.2-1.3,0.4-1.9,0.6l0.3,3.7c0.4-0.3,0.9-0.6,1.3-0.8
		c0.6-0.3,1.2-0.5,1.9-0.4c0.6,0.1,1.2,0.5,1.5,1.1c0.4,0.7-0.1,1.3-0.7,1.7l-3.7,2.5c0.2,1.3,1.9,2.2,0.6,3.5
		c1.4,1.2,3.2,1.9,5.1,1.8c0.9,0,2-0.1,2.3,1.1c0.2,0.6-1,1.5-2.3,1.6c-1.3,0.1-2.8-0.1-4.4-0.2c0,0.4,0,0.8,0,1.3
		c0.3,2.1,0.6,4.2,1,6.2c0.2,1,0.1,1.8-0.9,2.2c-1,0.3-2.1,0-2.7-0.8c-0.3-0.8-0.5-1.6-0.5-2.5C478.6,216.8,478.4,215.1,477.9,213.5
		z"/>
	<path class="st3" d="M506.8,207.4c0,1,0,1.9,0,2.7c0,5.2,0.1,10.5,0.2,15.7c0.1,0.9-0.5,1.7-1.4,1.8c0,0-0.1,0-0.1,0
		c-1.1,0.2-2.2-0.4-2.6-1.5c-0.1-0.5-0.1-0.9,0-1.4c1.2-3.9,0.7-7.8,0.7-11.7c0-1.5-0.2-2.9-0.3-4.6c-1.2,0.2-2.1,0.4-3,0.6
		c-1.7,0.4-3.3,0.8-5,1.1c-0.8,0.1-1.6,0.2-2.4,0.1c-0.9,0.1-1.6-0.5-1.8-1.4c-0.1-0.8,0.5-1.5,1.6-1.8c1.5-0.3,3.1-0.6,4.6-0.9
		c1.9-0.4,3.8-0.8,6-1.3c-0.2-1.8-0.4-3.5-0.5-5.1c-0.4-3.6-0.7-7.1-1.1-10.7c-0.1-1.3,0.3-2,1.4-2.1c1.3-0.3,2.5,0.5,2.8,1.7
		c0,0.6,0,1.2-0.1,1.8c-0.3,4.5,0.6,8.9,0.8,13.6c1.7-0.4,3.2-0.7,4.7-1c0.8-0.1,1.6-0.1,2.4,0c0.6,0,1.1,0.5,1.1,1
		c0,0.1,0,0.2,0,0.2c-0.2,0.6-0.5,1.1-1.1,1.3c-1,0.3-2.1,0.6-3.2,0.8L506.8,207.4z"/>
	<path class="st3" d="M495.1,200.7c1,0.1,2,0.3,3,0.6c0.7,0.2,1.3,0.6,1.9,1.1c0.3,0.4,0.4,0.8,0.3,1.3c-0.1,0.3-0.7,0.5-1.1,0.7
		c-0.2,0.1-0.4,0.1-0.6,0c-1.6-0.1-3.2-0.3-4.8-0.5c-0.5,0-0.9-0.2-1.3-0.5c-0.4-0.4-0.6-1-0.6-1.5c0-0.4,0.6-0.9,1.1-1
		C493.6,200.7,494.4,200.7,495.1,200.7z"/>
	<path class="st3" d="M498.3,196.5c-0.9,0-1.9-0.2-2.8-0.4c-0.6-0.2-1.2-0.5-1.7-1.1c-0.3-0.5-0.5-1.1-0.3-1.6
		c0.2-0.5,0.7-0.8,1.2-0.8c1.6,0.2,3.3,0.6,4.9,1.1c0.6,0.3,1.1,0.9,1.2,1.6c0,0.9-1,1.1-1.9,1.1
		C498.7,196.4,498.5,196.5,498.3,196.5z"/>
	<path class="st3" d="M443.1,123.1c-1.3,1.1-2.1,2.7-3.9,2.5c-0.6,0-1.1-0.2-1.7-0.3c1.1-1.9,2-3.6,2.9-5.4c0.8-1.6,0.4-2.1-1.4-2.4
		c-0.4,0-0.8-0.1-1.2-0.3c-0.7-0.2-1.3-0.9-1.3-1.6c0-0.9,0.5-1.3,1.3-1.6c0.2-0.1,0.4-0.1,0.6-0.2c3.4-1.3,3.6-1.7,2.8-5.6
		l-1.7-0.5c-1-0.2-1.7-1-1.6-2c0-0.9,0.5-1.3,1.7-1.6c2.1-0.5,4.3-1.2,6.5-1.7c0.7-0.2,1.4-0.1,2.1,0.1c0.5,0.2,0.9,0.7,1.1,1.3
		c0.1,0.4-0.4,0.9-0.8,1.2c-0.5,0.3-1,0.5-1.5,0.6c-0.6,0.2-1.3,0.4-1.9,0.6l0.3,3.7c0.4-0.3,0.9-0.6,1.3-0.8
		c0.6-0.3,1.2-0.5,1.9-0.4c0.6,0.1,1.2,0.5,1.5,1.1c0.4,0.7-0.1,1.3-0.7,1.7l-3.7,2.5c0.2,1.3,1.9,2.2,0.6,3.5
		c1.4,1.2,3.2,1.9,5.1,1.8c0.9,0,2-0.1,2.3,1.1c0.2,0.6-1,1.5-2.3,1.6s-2.8-0.1-4.4-0.2c0,0.4,0,0.8,0,1.3c0.3,2.1,0.6,4.2,1,6.2
		c0.2,1,0.1,1.8-0.9,2.2c-1,0.3-2.1,0-2.7-0.8c-0.3-0.8-0.5-1.6-0.5-2.5C443.8,126.4,443.6,124.7,443.1,123.1z"/>
	<path class="st3" d="M472,117c0,1,0,1.9,0,2.7c0,5.2,0.1,10.5,0.2,15.7c0.1,0.9-0.5,1.7-1.4,1.8c0,0-0.1,0-0.1,0
		c-1.1,0.2-2.2-0.4-2.6-1.5c-0.1-0.5-0.1-0.9,0-1.4c1.2-3.9,0.7-7.8,0.7-11.7c0-1.5-0.2-2.9-0.3-4.6c-1.2,0.2-2.1,0.4-3,0.6
		c-1.7,0.4-3.3,0.8-5,1.1c-0.8,0.1-1.6,0.2-2.4,0.1c-0.9,0.1-1.6-0.5-1.8-1.4c-0.1-0.8,0.5-1.5,1.6-1.8c1.5-0.3,3.1-0.6,4.6-0.9
		c1.9-0.4,3.8-0.8,6-1.3c-0.2-1.8-0.4-3.5-0.5-5.1c-0.4-3.6-0.7-7.1-1.1-10.7c-0.1-1.3,0.3-2,1.4-2.1c1.3-0.3,2.5,0.5,2.8,1.7
		c0,0.6,0,1.2-0.1,1.8c-0.3,4.5,0.6,8.9,0.8,13.6c1.7-0.4,3.2-0.7,4.7-1c0.8-0.1,1.6-0.1,2.4,0c0.6,0,1.1,0.5,1.1,1
		c0,0.1,0,0.2,0,0.2c-0.2,0.6-0.5,1.1-1.1,1.3c-1,0.3-2.1,0.6-3.2,0.8L472,117z"/>
	<path class="st3" d="M460.3,110.3c1,0.1,2,0.3,3,0.6c0.7,0.2,1.3,0.6,1.9,1.1c0.3,0.4,0.4,0.8,0.3,1.3c-0.1,0.3-0.7,0.5-1.1,0.7
		c-0.2,0.1-0.4,0.1-0.6,0c-1.6-0.1-3.2-0.3-4.8-0.5c-0.5,0-0.9-0.2-1.3-0.5c-0.4-0.4-0.6-1-0.6-1.5c0-0.4,0.6-0.9,1.1-1
		C458.8,110.3,459.5,110.2,460.3,110.3z"/>
	<path class="st3" d="M463.5,106.1c-0.9,0-1.9-0.2-2.8-0.4c-0.6-0.2-1.2-0.5-1.7-1.1c-0.3-0.5-0.5-1.1-0.3-1.6
		c0.2-0.5,0.7-0.8,1.2-0.8c1.6,0.2,3.3,0.6,4.9,1.1c0.6,0.3,1.1,0.9,1.2,1.6c0,0.9-1,1.1-1.9,1.1C463.9,106,463.7,106,463.5,106.1z"
		/>
	<path class="st3" d="M178.5,130.2c-1.3,1.1-2,2.5-3.7,2.4c-0.5,0-1.1-0.1-1.6-0.2c1-1.8,1.9-3.4,2.7-5.1c0.8-1.7,0.4-2-1.3-2.3
		c-0.4,0-0.8-0.1-1.1-0.2c-0.7-0.2-1.2-0.8-1.2-1.5c0-0.9,0.5-1.3,1.2-1.5c0.2-0.1,0.4-0.1,0.6-0.2c3.2-1.3,3.4-1.6,2.7-5.3
		l-1.6-0.5c-0.9-0.2-1.6-1-1.6-1.9c0-0.8,0.5-1.3,1.6-1.5c2.1-0.5,4.1-1.1,6.2-1.6c0.7-0.2,1.4-0.1,2,0.1c0.5,0.2,0.9,0.7,1.1,1.2
		c0.1,0.3-0.4,0.9-0.8,1.2c-0.4,0.3-0.9,0.4-1.4,0.6c-0.6,0.2-1.2,0.4-1.8,0.6l0.3,3.5c0.4-0.3,0.8-0.6,1.3-0.8
		c0.6-0.3,1.2-0.4,1.8-0.4c0.6,0.1,1.1,0.5,1.4,1.1c0.4,0.6-0.1,1.2-0.7,1.6l-3.5,2.4c0.2,1.2,1.8,2.1,0.5,3.4
		c1.3,1.2,3,1.8,4.8,1.7c0.9,0,1.9-0.1,2.2,1.1c0.2,0.6-0.9,1.4-2.1,1.5c-1.2,0.1-2.7-0.1-4.2-0.2c0,0.4,0,0.8,0,1.2
		c0.3,2,0.6,3.9,0.9,5.9c0.2,0.9,0.1,1.7-0.9,2.1c-0.9,0.3-2,0-2.6-0.8c-0.3-0.7-0.5-1.6-0.5-2.4
		C179.3,133.4,179.1,131.8,178.5,130.2z"/>
	<path class="st3" d="M205.9,124.4c0,1,0,1.8,0,2.6c0,4.9,0.1,9.9,0.1,14.8c0.1,0.8-0.5,1.6-1.3,1.7c0,0-0.1,0-0.1,0
		c-1,0.2-2.1-0.4-2.5-1.4c-0.1-0.4-0.1-0.9,0-1.3c1.1-3.6,0.7-7.4,0.7-11.1c0-1.4-0.2-2.8-0.3-4.4c-1.1,0.2-2,0.4-2.8,0.5
		c-1.6,0.3-3.2,0.7-4.7,1.1c-0.8,0.1-1.5,0.2-2.3,0.1c-0.8,0.1-1.5-0.5-1.7-1.3c-0.1-0.8,0.5-1.5,1.5-1.7c1.5-0.3,2.9-0.5,4.4-0.8
		c1.8-0.4,3.6-0.8,5.7-1.2c-0.2-1.7-0.4-3.3-0.5-4.8c-0.3-3.4-0.7-6.8-1.1-10.1c-0.1-1.2,0.3-1.8,1.3-2c1.2-0.2,2.4,0.5,2.7,1.6
		c0,0.6,0,1.2-0.1,1.7c-0.3,4.2,0.5,8.5,0.8,12.9c1.6-0.3,3-0.7,4.5-0.9c0.7-0.1,1.5-0.1,2.2,0c0.6,0,1,0.6,1,1.1c0,0,0,0,0,0.1
		c-0.1,0.5-0.5,1-1,1.3c-1,0.3-2,0.6-3,0.7L205.9,124.4z"/>
	<path class="st3" d="M194.8,118.1c1,0.1,1.9,0.3,2.8,0.5c0.7,0.2,1.3,0.6,1.8,1.1c0.3,0.3,0.4,0.8,0.3,1.2c-0.1,0.3-0.6,0.5-1,0.7
		c-0.2,0-0.4,0-0.6,0c-1.5-0.1-3-0.2-4.5-0.4c-0.4,0-0.9-0.2-1.2-0.5c-0.4-0.4-0.6-0.9-0.6-1.4c0-0.4,0.6-0.8,1-0.9
		C193.4,118.1,194.1,118,194.8,118.1z"/>
	<path class="st3" d="M197.8,114.1c-0.9,0-1.8-0.2-2.6-0.3c-0.6-0.2-1.2-0.5-1.6-1c-0.3-0.4-0.4-1-0.3-1.5c0.2-0.4,0.6-0.7,1.1-0.8
		c1.6,0.2,3.1,0.6,4.6,1.1c0.6,0.3,1,0.9,1.1,1.5c0,0.9-1,1.1-1.8,1.1C198.2,114.1,198,114.1,197.8,114.1z"/>
	<path class="st3" d="M449.2,325.4c0-1.1-0.9-1.9-2-1.9c0,0,0,0,0,0c-0.2,1.1-0.4,2.2-0.6,3.3c-0.3,1.5-0.9,1.7-2.1,0.8
		c-1.5-1.2-2.7-2.8-3.5-4.6c-0.6-1.3-0.5-1.6,0.6-2.5c1.1-0.9,2.4-1.8,3.6-2.7c0.9-0.7,1.1-1.3,0.6-2.1c-0.3-0.8-1.2-1.2-2-0.8
		c-0.1,0-0.2,0.1-0.3,0.1c-0.6,0.3-1.2,0.7-1.8,1.2c-0.7,0.5-1.3,1.1-2.3,1.9c-0.8-4.9-1.2-9.9-1.1-14.8c1.6-0.3,3.1-0.6,4.5-0.9
		c0.6-0.1,1.2-0.4,1.1-1.2c0-0.8-0.7-1.4-1.4-1.3c-0.5,0-0.9,0.1-1.3,0.2l-7,0.9c0.2,0,0.5-1.8,0.8-2.1c0.7-0.8,1.4-0.2,2.1-0.2
		c0.8-0.1,1.5-0.6,1.8-1.4c0.1-0.3-0.8-1.2-1.3-1.1c-3.3,1.1-2-2.2-2.9-2.1c-2.1-0.4,0.1,2.8-4.1,2.4c-1.1,0.1-1.3,1.1-0.6,2
		c0.4,0.5,1.4,0.1,1.8,0.5c-0.2,0.6-0.9,2.1-1.1,2.8l-4,0.5l-0.1-2.2l1.1-0.7c0.5-0.3,1.3-1.3,0.8-1.9c-0.3-0.4-0.9-0.1-1.3,0
		s-2.5,0.7-2.5,0.1c-0.2-0.5-0.2-1.1-0.4-1.6c-0.3-0.6-0.8,0-1.1,0.2c-0.4,0.5,0.3,1.7-0.2,2.1c-0.1,0.1-0.3,0.2-0.5,0.2
		c-0.7,0.2-3.9,0.9-2.6,2.2c0.4,0.4,3.2,0,3.7,0c0.9,0.1,0.7,1.1,1.1,2.1c-1.7,0.2-3.2,0.4-4.6,0.7c-1.2,0.2-1.6,0.8-1.2,1.9
		c0.2,0.4,0.4,0.8,0.8,1.1c0.6,0.3,0.8,1,0.7,1.7l-0.3,2c-1,0.9-2-0.3-2.2-0.8c-0.4-0.9,0.1-4.1-0.8-4.1c-1.2,0-1.2,2.1-1.2,2.9
		c0,3.4,0.8,3.5,2.1,5c-1.2,0.2-2.5,0.8-2.5,1.9c0,1.4,0.1,2.6,0,3.8c-0.1,1.1-0.2,2.2-0.2,3.3c0,0.7,0.1,1.6,0.9,1.7
		c1.1,0.2,1.2-0.8,1.5-1.5c0.1-0.3,0.2-0.6,0.2-1c0.3-1.4,0.6-2.8,0.9-4.2c0.2-0.4,0.4-0.8,0.7-1.1c0.6,0.8,0.3,2.4,0.3,3.4
		c0,1.2-0.2,2.4-0.7,3.5c-0.3,0.6-0.4,1.3,0.4,1.7c0.7,0.4,1.5,0.2,1.9-0.5c0-0.1,0.1-0.1,0.1-0.2c0.4-0.8,0.6-1.6,0.7-2.4
		c0.2-1.7,0.4-3.4,0.5-5c0.2-2.2,0.5-4.4,0.7-6.6c1.1,0.3,1.5,0.7,1.4,1.7c-0.2,2.2-0.4,4.4-0.5,6.6c-0.1,1.5,0,3.1,0.1,4.7
		c-0.1,0.7,0.4,1.3,1.1,1.4c1.6,0.2,3.3,0.4,4.6-0.9c1-1,2-2.1,2.9-3.2c0.7-0.7,0.8-1.9,0.1-2.7c-0.5,0.2-3.1,1.8-3.1,0.9
		c-0.1-1.4,1.6-1.8,2.7-2.7c0.8-0.5,1.2-1.4,1.3-2.3c-0.1-0.5-0.3-1-0.7-1.4c-0.5-0.4-1-0.3-1.6-0.2c-1.5,0.2-2.9-1.7-0.1-2.4
		c1.3-0.3,0.5-2.2-0.7-2.5c-0.5-0.1-1-0.1-1.5,0.1c-1.7,0.2-3.4,0.4-5.1,0.7c-0.5-1.2,0.1-1.6,1.1-1.8c3.1-0.6,6.1-1.2,9.2-1.8
		c0.4,0,0.8,0,1.1,0c0.1,1.2,0.3,2.3,0.4,3.5c0.5,3.7,0.9,7.5,1.4,11.2c0.3,1,0,2.1-0.8,2.8c-1.4,1.3-2.7,2.6-4,3.9
		c1,1.6,1.8,1.8,3.2,0.8c1.1-0.8,2-1.6,3.1-2.5c0.3,0.7,0.7,1.3,1.2,1.9c1.2,1.5,2.4,2.9,3.6,4.2c1,0.9,2.3,1.4,3.6,1.3
		c1.2,0.1,2.3-0.7,2.5-2c0,0,0,0,0,0C449.3,327.9,449.3,326.6,449.2,325.4z M430,314c0.8,0.3-0.3,1.4-0.6,1.7
		c-0.6,0.6-1.4,0.9-2.3,0.8c-0.6-0.1-1-0.8-0.9-1.4c0-0.1,0-0.2,0.1-0.3C426.7,314,429.2,313.7,430,314L430,314z"/>
	<path class="st2" d="M426.6,311.2c0-0.2,0.1-0.5,0.2-0.7c0.3-0.2,0.7-0.2,0.9,0.1c0,0,0,0,0,0.1c0.2,0.3,0.3,0.7,0.2,1.1
		c-0.2,0.2-1,0.6-1.3,0.4C426.4,312,426.6,311.5,426.6,311.2z"/>
	<path class="st2" d="M427.5,320.7c-0.9,0.4-1.4-0.8-0.8-1.5c0.3-0.3,0.7-0.4,1.1-0.4c0.6,0,0.8,0.2,0.8,0.8
		C428.5,320.1,428,320.5,427.5,320.7z"/>
	<path class="st4" d="M328.5,189.4c1.7-0.9,3.4-1.7,5.2-2.4c6.6-2.5,13.8-2.7,20.7-2.1c8.5,0.7,16.9,2.6,25.4,3
		c3.7,0.2,7.7-0.1,10.4-2.6c3.3-3.1,3.2-8.6,0.9-12.5c-3-5.1-8.6-7.8-13.6-10.3c-12-6.1-26.3-9.9-36.3-19.3
		c-7.9-7.4-14.7-16.1-23.3-22.6c-12.7-9.5-34.5-6.7-40.8,10c-3.4,9,2.3,13.1,1.1,20.7c-1.3,9.1-5.4,19-3.8,28.6
		c1.4,8.5,6.6,21.2,12.4,23.9c8.3,3.9,20-4.6,28.6-7.6C320.1,194.6,324.2,191.8,328.5,189.4z"/>
	<path class="st5" d="M279.2,192.3c-7,5,10.6,15.6,21.9,12.9c5.3-1.3,21.5-7.6,22.5-12.9c0.5-2.8-11.6-4.8-14.7-6.4
		c-2.4-1.2-3.9-9.5,3.4-17.3c1.7-1.9-5-8.4-7.3-8.9c-5.2-1.2-7.1,0.6-12.1,2.2c-2.7,0.9-3.5,10.1-1.6,12c4.5,4.5,4.5,11.3,2.3,12.4
		C289.9,188.1,281.9,190.4,279.2,192.3z"/>
	<path class="st5" d="M280.1,142.9c-3,14.3,6.4,37.7,18.7,38.5c5.6,0.4,14.6-4.5,18-14.7c6-17.8,4.8-43.1-16.8-42.9
		C288.9,123.9,282.2,132.6,280.1,142.9z"/>
	<path class="st4" d="M287,155.1c0.5-1.4,0.8-2.8,0.9-4.2c0.1-2.9-0.4-7.2,3.6-7.4c1.7-0.1,15.4-6.8,14.5-10
		c2.5,9.2,11.4,11.3,19.2,14.5l-2,0.1c0.5,2.9,1.3,5.8,2.6,8.5c0.3,0.8,0.8,1.4,1.4,2c1.7,1.4,4.5,0.4,5.6-1.5
		c1.1-1.9,0.9-4.3,0.4-6.4c-0.8-3.2-1.9-6.4-3.1-9.5c-3.6-8.8-9.4-14.9-18.5-18.1c-6.1-2.1-12.4-0.9-18.5,0.5s-9.8-0.4-13.9,4.5
		c-5.2,6.3-8.5,19.8-8,27.6c0.2,3.3,2.3,11.2,6.7,11.3c2.7,0.1,3.8-3.2,5.1-5.1C284.6,159.7,285.9,157.5,287,155.1z"/>
	<path class="st5" d="M284.5,493.2c-3.7-0.2-7.3,0.8-10.4,2.8c-1.5,1-3,2.9-1.9,4.4c0.7,0.9,2,1.1,3.2,1c4.1-0.2,8.1-0.8,12-1.8
		c2.5-0.5,4.9-1.6,6.9-3.2c1.1-1.1,2.1-2.6,1.5-4.1c-0.3-0.6-0.6-1.1-0.9-1.6c-2.4-3.8-0.4-8.8-0.4-13.3c0.1-0.4-0.1-0.8-0.3-1.2
		c-0.3-0.3-0.8-0.4-1.2-0.3h-5.8C286.1,475.9,284.6,491.8,284.5,493.2z"/>
	<path class="st5" d="M319.8,495.4c-3.7-0.2-7.3,0.8-10.4,2.8c-1.5,1-3,2.9-1.9,4.4c0.7,0.9,2,1.1,3.2,1c4.1-0.2,8.1-0.8,12-1.8
		c2.5-0.5,4.9-1.6,6.9-3.2c1.1-1.1,2.1-2.6,1.5-4.1c-0.3-0.6-0.6-1.1-0.9-1.6c-2.4-3.8-0.4-8.8-0.4-13.3c0.1-0.4-0.1-0.8-0.3-1.2
		c-0.3-0.3-0.8-0.4-1.2-0.3h-5.8C321.5,478.1,319.9,494,319.8,495.4z"/>
	<path class="st5" d="M231.8,289.9c-2.1,0.7-4.3,1.2-6.7,2c-2.9,1-5.6,2.6-8,4.6c-1.6,1.4-3.1,4.4-2.3,6.4c1.3,2.8,3.9,1.6,5.9,0.3
		c2.7-2,5.8-3.5,9-4.4c-1.1,0.3-1.7,7.6,1.6,5.1c0.6-0.6,1.1-1.3,1.3-2.1c1.1-2.6,1.3-3.5,3.7-4.6c1.4-0.7,4.8-5.1,5.7-6.4
		s1.6-4.1,0.7-5.5c-1.2-2-5.2-0.4-6.8,0.6C234.7,286.5,233,289.5,231.8,289.9z"/>
	<path class="st6" d="M271.7,259.6c-2.6,4.5-22.1,26.5-30.8,33.4c-5,4-7.4,1.2-10.1-0.9c-1.5-1.2-0.8-2.9,0.1-4.6
		c4-7.6,11.8-22,17.9-30.9c5.6-8.3,9.4-11.7,9.8-14.3c4.1-28.3,17.2-54.7,21-48.1c9.2,15.8,1.7,42.4-1.5,51.1
		C273.9,256.6,273.5,256.5,271.7,259.6z"/>
	<path class="st7" d="M315.4,272.9c8.9,0.5,18,7.5,21.7,14.8c5.6,11.3,8.1,27.1,3.8,69.5c-1.1,10.5-14.5,18.6-24.4,12.1
		c-9.5-6.2-10.9-50.7-13.3-61c-2.2-9.7-8-25.5,2.1-32.7C308.2,273.6,311.8,272.6,315.4,272.9z"/>
	<path class="st7" d="M306.7,273.5c-1.5-6.8-5-6-8.3-5.7c-6.8,0.8-17.2,9.1-21,15c-4,6.2-6.1,23.1-6.5,40.3
		c-1.1,10.6-0.3,22.4-0.2,27.5c0.2,11.7,2.7,43.4,4.1,54.9c1.1,8.5,4.9,54.8,8.5,76.5c0.4,2.3,10.9,1.9,11.7-0.8
		c8.1-28.1,6.8-73.9,9.2-104.3c1.1-14.1,5.8-44.5,1.5-61C308.1,299.7,308.8,283.4,306.7,273.5z"/>
	<path class="st8" d="M284,216.3c-0.7-0.7-1.6-1.2-2.6-1.3c-2.9-0.4-5.3,2.2-6.4,4.9c-1.7,4-1.9,8.4-2,12.7
		c-0.1,3.8-1.3,17.6,0.6,21c0.2,0.4,0.5,0.7,1,0.8c0.8-1.8,1.9-4.5,3.6-9.2C281.5,235.9,283.5,226.2,284,216.3z"/>
	<path class="st7" d="M332.8,335.5c9.5,6.2,8.4,7,8.1,15.3c-1.2,30.5-0.3,69.6-8.3,125.9c-0.4,2.7-0.6,8.7-3.4,9
		c-1.7,0.2-5.6,0.8-8,0.1c-3.6-1.1-3.6-10.2-4-13.9c-1.6-17.2-3.9-37.3-5.6-56.1c-1-11.2-3.6-58.3-3.8-69.5
		c-0.1-5-0.9-10.3,2.7-14.1c4.1-4.2,10.7-3.2,16.8-3.5C329.7,328.6,331.2,334.5,332.8,335.5z"/>
	<path class="st6" d="M335.2,282.9c1.2-11.5-3.3-23.6-2.3-34.6c0.5-5.1,9.9-37.8,1.5-50.4c-1.5-2.3-4.9-4.1-7.1-5.6
		c-4.7-3.1-9.4-0.8-13.9,0.8c-10.5,3.5-18.8,4.1-28.2-2.6c-3-2.2-9.5,3.8-11.3,6c-6.1,7.8-4.7,22.3-1.9,30.1
		c5.3,14.3,5.4,48.5,4.5,54.5C274.7,293,333.7,297.1,335.2,282.9z"/>
	<path class="st8" d="M330.3,279.9c1.9-2.1,3.9-4.1,6-5.9c5.1-4.1,3.9-7.3,2.8-13.3c-1.4-6.5-3.3-12.8-5.8-18.9
		c-3.2-8.3-2.9-16.4-1.9-25.1c0.2-1.9,1.2-13.9-1.7-11.7c-1.7,1.3-4.5-1.3-6.2,0c-4.4,3.3-2.6,13.5-2.3,18c0.6,9.3,3.5,19,2.1,28.4
		c-1.4,10.1-7.2,20-6.9,30.5c0.1,3.7-1.6,11.6,4,8c3.3-2.1,5.5-5.7,8.3-8.5C329.3,281,329.8,280.5,330.3,279.9z"/>
	<path class="st4" d="M296.3,492.4c0.6-0.3,1.4,0.1,1.6,0.7c0.1,0.3,0.1,0.6,0,0.9l0,0c-0.4,0.7-0.9,1.2-1.5,1.6
		c-6.1,4.3-13.2,7.2-20.6,8.3c-8,1.2-5.9-8.3,0.7-8.6c3.3-0.2,6.8,2.7,9.9,2.2S292.9,493.8,296.3,492.4z"/>
	<path class="st4" d="M331.6,494.6c0.6-0.3,1.4,0.1,1.6,0.7c0.1,0.3,0.1,0.6,0,0.9l0,0c-0.4,0.7-0.9,1.2-1.5,1.6
		c-6.1,4.3-13.2,7.2-20.6,8.3c-8,1.2-5.9-8.3,0.7-8.6c3.3-0.2,6.8,2.7,9.9,2.2C324.8,499.3,328.2,496,331.6,494.6z"/>
	<path class="st9" d="M307.4,340.7c-4.1-6.3-6.2,9.2-6.4,12.8c-0.8,22.1-2.6,39.7-4.1,62.1c-1.5,22.3-1.5,40.2-4.2,67.3
		c1.2-0.4,2.1-0.9,2.4-1.6c8.1-28.1,6.8-73.9,9.2-104.3C304.9,368.6,306.8,354.3,307.4,340.7z"/>
	<polygon class="st3" points="234.5,474.6 133.7,474.6 181.3,434.3 282.2,434.3 	"/>
	<rect x="181.1" y="325" class="st3" width="100.8" height="47.7"/>
	<rect x="181.1" y="325" class="st10" width="100.8" height="2.1"/>
	<line class="st11" x1="180" y1="433.6" x2="180" y2="486.3"/>
	<ellipse class="st10" cx="180.8" cy="484.5" rx="4.6" ry="9.2"/>
	<ellipse class="st11" cx="180.6" cy="479.6" rx="23.7" ry="58.7"/>
	<ellipse class="st11" cx="180.6" cy="479.6" rx="23.7" ry="58.7"/>
	<ellipse class="st12" cx="180.6" cy="479.6" rx="18.5" ry="53.2"/>
	<path class="st3" d="M204.2,543.3h-32.9c-1.7-0.1-3-1.5-3-3.2l-0.2-1.7l8.3-2.8l37.8-4.4v2.4c0,1.3-0.5,2.5-1.4,3.4l-5.3,5
		C206.5,542.8,205.4,543.3,204.2,543.3z"/>
	<path class="st10" d="M205.4,538.9h-36.6c-0.4,0-0.8-0.3-0.8-0.8c0-0.2,0.1-0.4,0.3-0.6l6.5-5.8c0.4-0.3,0.9-0.5,1.4-0.5h37.3
		c0.4,0,0.8,0.4,0.8,0.8c0,0.2-0.1,0.4-0.3,0.6l-5.9,5.3C207.4,538.5,206.5,538.9,205.4,538.9z"/>
	<path class="st3" d="M181.1,427.9L137.6,464v-31.1c0-12.1,5.4-23.8,13.9-32.4l29.5-22.6V427.9z"/>
	<polyline class="st11" points="236.3,477.3 236.3,520.7 244.9,539 	"/>
	<ellipse class="st11" cx="244.7" cy="540.2" rx="9.1" ry="16.9"/>
	<ellipse class="st10" cx="244.7" cy="539.1" rx="3.3" ry="6.1"/>
	<polyline class="st11" points="137,477.3 137,520.7 145.6,539 	"/>
	<ellipse class="st11" cx="145.4" cy="540.2" rx="9.1" ry="16.9"/>
	<ellipse class="st10" cx="145.4" cy="539.1" rx="3.3" ry="6.1"/>
	<path class="st11" d="M209.7,537.9l9-43.2c0.6-3,2.1-5.7,4.3-7.7l57.7-52.5"/>
	<path class="st13" d="M211.3,538.5l9-43.2c0.6-3,2.2-5.7,4.4-7.7l57.7-52.5"/>
	<path class="st11" d="M116.4,537.9l9.9-45.7c0.6-3,2.1-5.7,4.3-7.7l56.8-50"/>
	<polyline class="st14" points="273.8,436.2 273.8,485.5 285.2,485.5 	"/>
	<ellipse class="st10" cx="282.3" cy="484.5" rx="4.6" ry="9.2"/>
	<path class="st3" d="M283.1,433.1l1.1-0.9c1.1-1,1.5-2.5,1.1-3.9c-0.4-1.4-1.7-2.3-3.1-2.5H181.3c-0.8,0.1-1.5,0.4-2.1,1
		l-47.6,38.7c-1.1,0.9-1.2,2.3-1.1,3.7c0.1,1.7,0.1,2.5,0.1,2.5c-0.7,1.2-0.7,2.7-0.1,4c0.5,1.3,1.8,2.1,3.1,2h100.8
		c0.7,0.1,1.5-0.1,2.1-0.5l47.6-38.5c1.4-1,1.7-3,0.7-4.5C284.5,433.7,283.9,433.3,283.1,433.1L283.1,433.1z M182.5,439.6h82.1
		L233.3,465h-82.1L182.5,439.6z"/>
	<path class="st3" d="M151,543.3h-32.9c-1.7-0.1-3-1.5-3-3.2l-0.2-1.7l8.3-2.8l37.8-4.4v2.4c0,1.3-0.5,2.5-1.4,3.4l-5.3,5
		C153.4,542.8,152.2,543.3,151,543.3z"/>
	<path class="st10" d="M152.3,538.9h-36.6c-0.4,0-0.8-0.3-0.8-0.8c0-0.2,0.1-0.4,0.3-0.6l6.5-5.8c0.4-0.3,0.9-0.5,1.4-0.5h37.3
		c0.4,0,0.8,0.4,0.8,0.8c0,0.2-0.1,0.4-0.3,0.6l-5.9,5.3C154.3,538.5,153.3,538.9,152.3,538.9z"/>
	<path class="st11" d="M282.7,436.2V327.3c0-4.4,1.9-8.6,5.1-11.6l14.1-12.9"/>
	<path class="st13" d="M284.3,428.7V327.3c0-4.4,1.9-8.6,5.1-11.6l14.1-12.9"/>
	<path class="st15" d="M292,313l11.1-10.2"/>
	<path class="st11" d="M181.5,436.2V327.3c0-4.4,1.9-8.6,5.1-11.6l14.1-12.9"/>
	<path class="st15" d="M189.6,313l11.1-10.2"/>
	<path class="st16" d="M143.6,539c-0.2,0.5-0.2,1.1-0.1,1.6c0.9,5.6,7.6,1.9,10.1,0.1c1.1-0.9,2.3-1.6,3.5-2.2
		c2.4-1.1,5.4-1.1,7-3.2c1.3-1.8,1.2-6.2-0.9-7.2c-1.8-0.8-5.5,1-7,1.9C153.2,531.8,144.8,534.8,143.6,539z"/>
	<path class="st16" d="M172.8,536c-0.8,0.6-1.2,1.6-1.2,2.5c-0.2,2.8,2.9,4.9,5.5,4.7c4.3-0.2,7.3-4.5,10.3-7.1
		c1.5-1.3,4.2-2.2,4.8-4.2c0.2-0.9,0.1-1.8-0.3-2.6c-1.7-5.1-6.2-3-9.2-0.2c-1.8,1.8-3.7,3.4-5.8,4.8
		C175.5,534.7,173.8,535.1,172.8,536z"/>
	<path class="st17" d="M210.1,320.1c0.1,6.1,1.4,15.1-2.7,19.5c5.5,8.6,10.6,5.7,16.4,5.9c3.1,0.1,9.2-3.6,11.3-5.9
		c1.9-2,1.3-8.9,1.6-11.7c0.7-8.2-0.5-12.1-0.6-20.4l-7.9-0.5c-2.6-0.1-5.4-0.3-7.5,1.1c-3.5,2.2-4,7.3-7.1,10.1L210.1,320.1z"/>
	<path class="st18" d="M148.5,427.4l9.1-22.1c0.6-1.7,1.4-3.2,2.6-4.5c1.2-1.3,3-1.9,4.8-1.4c2.7,1,3,4.5,3.3,7.3
		c0.4,4.7,1.7,9.3,3.9,13.4c2.4,4.7,5.9,9.6,4.5,14.7c-1.5,5.3-7.6,7.8-13.1,8.7c-5,0.8-10,1.1-15,0.7c-1.7,0-3.5-0.4-5-1.3
		C139.3,440.2,147,431.2,148.5,427.4z"/>
	<path class="st19" d="M156,433.3c-7.8,1.8-14.4,6.1-15.8,15.2c-0.4,4.1-0.4,8.2,0.2,12.3c2.4,21.8,6.1,43.5,13,64.3
		c0.6,1.9,1.1,4.2,2.9,5.3c1.5,0.9,3.5,0.7,5.2,0.5c1,0.1,1.9-0.5,2-1.5c0-0.1,0-0.1,0-0.2c3.2-14.5,4.5-49.5,5-64.3
		c0.3-10.5,9.6-10.6,15.9-16.3c10.6-9.5-12-16.3-18.6-16.3C162.5,432.3,159.2,432.7,156,433.3z"/>
	<path class="st19" d="M144.4,441.1c2.7-6.2,9.5-9.7,15.3-12.4c11.3-5.2,21.4-12.3,33.2-16.4c4.9-1.7,8.4-2.5,12,2.4
		c3,4.1,1.9,7.4-1.7,10.5c-4.6,4.1-9.5,7.9-14.6,11.3c-7,4.7-14.4,8.8-22.1,12.3c-5,2.2-15,8.4-20.3,4.2
		C143,450.5,142.8,444.7,144.4,441.1z"/>
	<path class="st19" d="M258.8,412.6c1,2.1,1.6,4.4,1.9,6.7c0.4,3.8,0.4,7.7,0,11.5c-0.4,5.3,0.1,10.2-2.5,15
		c-2.7,4.8-6.4,8.9-10.8,12.1c-8,5.8-10,6.1-19.6,7.3c-23.8,2.9-34.4-10.2-48.5-10.3c-4.3,0-12.4-0.6-12.4-6.2
		c0-10.2,10.7-14.9,18.8-18c10.3-4,20.8-7.6,31.2-11.6c4.4-1.5,8.4-3.8,12-6.6c3.4-2.8,6.9-5.7,11.3-6.8c5-1.2,12.6-0.8,16.2,3.3
		C257.3,410,258.1,411.2,258.8,412.6z"/>
	<path class="st19" d="M184.8,436.3c7.4,1.7,11.6,8.8,12.2,16.5c1.6,22.3-1.2,50.2-5.8,71.8c-0.4,1.9-0.8,3.8-1.2,5.7
		c-0.6,2.5-6.3,1.5-8.6,0.1c-0.7-2.4-1.3-4.8-1.7-7.2C175,500,169,472,166.8,448.7c-0.8-8,6.7-12.4,13.8-12.7
		C182,435.9,183.4,436,184.8,436.3z"/>
	<path class="st10" d="M221.9,330.5c3.1-1.3,5.8-3.4,7.9-6c3.3-4.1,6.2-7.4,7.4-13.8c-0.5,1.1,0.8,7.9,1.1,9c0.4,1.5,1.2,1.7,3,2.3
		c3.4,1.1,6.6,6.5,6.8,10.2c0.2,4.4-5.7,8.9-6.6,13.2c-0.6,2.4-1.4,4.8-2.3,7.1c-2.8,8.3-2.7,17.3-4.3,25.9
		c-2.7,14.3-9.9,27.5-12.6,41.8c-0.4,1.9-0.8,4-2.4,5.2c-0.9,0.5-1.8,0.8-2.9,0.9c-8.8,1.5-17.9,1.4-26.7-0.3
		c-2.9-0.6-6-1.5-7.9-3.8c-3.3-4.2-0.9-10.2,1.2-15c6.2-14.2,8.9-29.6,12-44.7c1.1-5.3,8.3-45.6,15.1-41.6c2.3,1.4,1.6,5.5,2.4,7.6
		C214.3,331.8,218.9,331.7,221.9,330.5z"/>
	<path class="st18" d="M194.6,406.5c0.8-1.4,1.6-2.8,2.3-4.2c3.6-7.3,4.3-16.4,6.3-24.4c2.1-8.5,2.5-17.1,3.6-25.8
		c1.4-11.1,5.1-22,4.2-33.3c-1.7-0.3-3.4,0.8-4.8,1.8c-6.5,4.6-13.7,8.5-20,13.3c-12.2,9.4-17.8,29.7-23,43.7
		c-5.5,15-9.9,34.6,2.4,47.5c2.5,2.7,6.7,3.3,10.2,3.9c0.8,0.2,1.7,0.2,2.5,0c1.2-0.5,2.2-1.5,2.8-2.7
		C185.5,420,190.7,413.4,194.6,406.5z"/>
	<path class="st18" d="M208.6,429.2c-0.2,1.1-0.4,2.1-0.6,3.2c-1.3,7,1.7,4.9,6.9,6.5c3.4,1.1,6.8,3.1,8.3,6.5s1,7.5,3.2,10.8
		c1.1,1.7,2.9,2.9,5,3.3c2,0.3,4,0,5.8-0.8c9.4-3.5,16.4-13.5,21.8-21.5c5.6-8.4,10.4-17.5,12.6-27.4c2.4-10.9,1.4-22.3-0.1-33.4
		c-1.4-10.6-5.4-20.7-10.2-30.2c-4-7.9-8.5-16.7-15.8-22.1c-3.9-2.9-5.1-3.1-7.7,0.7c-2.3,3.3-4.4,6.8-6.6,10.2
		c-4.3,6.8-8.3,13.9-11.8,21.2c-5.6,12-9.5,25-9.6,38.3c-0.1,7.4,0.7,14.7,0.6,22.1C210.2,420.8,209.6,425.1,208.6,429.2z"/>
	<path class="st5" d="M238.5,292c-1.3,0.8-2.7,1.4-4.2,1.7c0,0-2-9-4.6-11c-2.5-2-6.8-5.3-9.8-4.6c-2.9,0.7-16.3,6.6-16.3,6.6
		s-4.7,2.5-4.3,9.6c0.2,4.7-0.2,8.8,0.9,13.3c1.1,4.3,1.1,3.2,3,7.2c0.9,1.7,4.8,8.2,6.1,9.4c1.4,1.2,2.5,3.3,4.2,4.4
		c2.5,1.6,6.1,1.4,8.8,0.4c4-1.6,6.7-5.1,9.3-8.5c1.6-2.1,3.7-5.2,5.3-7.4v0.4c0.5-1,1.2-1.9,1.9-2.8c1-1.4,1.6-3,1.7-4.8
		c0,0,4.9-8.6,4.6-10.2S240,290.8,238.5,292z"/>
	<path class="st20" d="M226.1,283.6c1.3,6.4,3.5,13.9,9.8,15.9c0.5-1.4,1.3-3.7,2.8-4.8c2.6-1.5,4,1.7,3.9,4.7
		c-0.1,2.9-1.8,5.6-4.3,7c-1.1,0.5-2.1,1.3-2.8,2.3c-0.8,1.5,0.1,3.4,1.4,4.6c5.1,4.8,14,1.6,17.8-4.2c2.1-3.2,3.3-7.4,1.7-10.8
		c-0.2-0.4,2.5-5.8,2.7-6.8c0.5-2.7,0.5-5.4,0-8c-1.2-5.8-5.7-12.1-11.5-14.1c-1.4-0.5-3.3-0.2-4.3-1.5c-0.6-0.8-0.4-2.1-0.9-3
		c-4-6.9-14.5-6.8-20.9-3.8c-1.1,0.5-3.6,3.2-4.5,3.2c-5.4-0.2-11.1,0.3-15.4,3.6c-5.5,4.1-2.8,8.6-4.8,13.5c-2.2,5.3-9.7,9.4-7,16
		c0.8,1.9,2.6,3.3,3.1,5.3c0.4,1.6-0.2,3.1-0.4,4.6c-0.1,1.6,0.4,3.1,1.3,4.3c1.3,1.6,3.1,2.8,5.1,3.5c1.5,0.6,4.2,1.2,5.4-0.2
		c0.6-1.1,0.9-2.3,0.8-3.6c0.1-2.5-0.1-5-0.7-7.4c-0.3-1.2-1.4-7-3.2-7.5c4.1,1.3,10.1-1.6,12.1-2.3
		C215.5,293,226.7,287,226.1,283.6z"/>
	<path class="st21" d="M186.7,374.9c-0.2-2.5-1.5-4-5-3.5c-5.3,0.8-12.4,3.6-15.6,8.1c-2.8,3.9-4,10.3-5.6,14.8
		c-1.5,4.6-2.7,9.8,0.2,13.6c1.2,1.4,2.6,2.5,4.1,3.4c4.1,2.6,7.9,5.6,12.2,7.8c2.3,1.2,11.3,10.7,12.8,7.4
		c2.4-5.4-11.7-15.4-12-20.8c-0.4-5.6,3.2-11.3,5.1-16.4C184.5,384.8,187.1,379.7,186.7,374.9z"/>
	<path class="st5" d="M205.4,430.2c0.7,0.6,1.4,1.3,2.1,1.9c1.4,1.3,2.6,3.4,2.3,5.4c-0.2,1.2-1,2.3-2.1,2.8c-2.1,1.1-4.6-1-6.6-2.3
		c-2.7-1.9-5.8-3.2-9-3.8c-3-0.7-8-1.6-7.5-5.5c0.3-2.4-2-5.5,0.7-6.1c2.1-0.4,4.5,1.2,6.4,1.9C195.5,426,202.2,427.5,205.4,430.2z"
		/>
	<path class="st18" d="M164.4,403.1c4.1,2.2,8,4.8,11.7,7.7c4.9,3.7,8.8,8.7,14.1,11.7c2.4,1.3,3.6,1.1,2.1,3.8
		c-1.1,2.1-2.2,4.1-3.5,6.1c-0.1,0.2-0.3,0.4-0.4,0.5c-0.3,0.1-0.5,0.1-0.8,0c-8.3-2.5-17.7-0.9-25.5-4.9
		c-5.2-2.5-9.8-6.2-13.4-10.6c-2.5-3.2-5.5-8.8-3.3-12.8C149.4,397.6,157.3,399.4,164.4,403.1z"/>
	<path class="st5" d="M207.4,424.2c-2.9,0-5.8,0-8.7-0.2c-0.8,0-7.1,0.5-5.4,2.4c0.3,0.2,0.6,0.3,1,0.3c0.9-0.3,1.8-0.4,2.8-0.4
		c0.1,0,0.3,0.1,0.3,0.2c0,0.1-0.3,0.4-0.5,0.4c-2.9,0.2-6,2.5-8,4.5c-2.5,2.5-1.4,5.1,1.5,6.5c1.6,0.8,3,1.4,4.8,0.8
		c1.2-0.5,2.3-1,3.4-1.6c2.1-1,4.5-1.5,6.9-1.3c1.7,0.3,3.4,0.4,5.1,0.3c3.7-0.5,5.4-4,8.6-5.4c1-0.4,2.3-0.7,2.6-2
		c0-0.7-0.2-1.3-0.8-1.8c-1.5-1.4-3.4-2.3-5.4-2.6c-2.4-0.2-4.9-0.3-7.3-0.1L207.4,424.2z"/>
	<path class="st21" d="M243.6,390.6c0.9-1.3,1.6-2.7,2-4.3c1.4-6.1-1.1-12.4,0-18.5c0.7-3.7,5-12.6,10-10.7c3.5,1.3,3.9,7,4.7,10.1
		c2.4,9.1,3,18.8,0.6,27.9c-0.7,3-2,5.9-3.9,8.4c-2.4,2.7-5.3,4.9-8.5,6.5c-7.4,4-15.5,6.9-23.8,8.3c-4.3,0.7-10.1-1.6-6.1-6.5
		c3.8-4.6,8.2-8.7,13.2-12C235.7,397.1,240.7,394.6,243.6,390.6z"/>
	<path class="st18" d="M254,334.9c6.2,4.6,14,20.5,15.4,23.8c3.8,9.4,8.8,26.6,5.8,36.5c-1,3.3-1.1,7.3-3.2,10.2
		c-2.9,4.2-10.7,5.5-14.8,2.3c-2.5-1.9-3.7-1.4-4.7-4.2c-1.3-3.4-2.4-10.3-3-13.9c-1.8-10.6-4.4-24.7-4.7-35.6
		c-0.1-5.6,0.7-11.2,2.4-16.5C248.7,333,251.2,332.9,254,334.9z"/>
	<path class="st18" d="M257.8,418.8c2.9-0.7,6.1-1.1,8.6-2.7c2-1.3,3.6-3.2,4.6-5.4c1.7-3.3,2.3-7.5,0.4-10.7
		c-2.9-5.1-13.2-4.5-18.9-3.3c-9.7,2.1-15.6,5.7-24.4,10.2c-5.2,2.6-36.5,22.4-19,26.6C224.6,437.3,243.3,422.1,257.8,418.8z"/>
	<path class="st18" d="M156.3,415.5c-1,0.4-1.5,1.1-2.6,1.1c-5.1,0-8.2-3.9-8.6-9c-0.8-8.6,5.3-17.2,8.8-24.7
		c6.6-14.6,13.8-34.6,27.4-44.2c0.9-0.8,2.1-1.3,3.3-1.4c2,0,3.9,1.2,4.7,3.1c4.8,9.5,1.5,21.4-2.1,30.4
		c-3.3,8.5-7.4,16.6-12.2,24.3C170.4,402.1,164.3,412.3,156.3,415.5z"/>
	<path class="st3" d="M281.9,425.7l-38.2,37.1v-17.9c0-11.9,5.4-23.3,13.8-31.7l24.4-23.9V425.7z"/>
	<path class="st10" d="M283.6,541c-15.1,0-27.4-27.5-27.4-61.4s12.3-61.4,27.4-61.4h0.2c-1.4-0.5-2.9-0.8-4.4-0.8
		c-15.3,0-27.7,27.9-27.7,62.4s12.4,62.4,27.7,62.4c1.9,0,3.7-0.4,5.5-1.2C284.5,541,284,541,283.6,541z"/>
	<ellipse class="st11" cx="282.2" cy="479.6" rx="23.7" ry="58.7"/>
	<ellipse class="st12" cx="282.2" cy="479.6" rx="18.5" ry="53.2"/>
	<path class="st5" d="M300.5,313.8c-2.1-0.3-0.1-1.5,1.2-2.1c0.9-0.4,1.7-0.8,2.5-1.4c0.8-0.5,1.4-1.3,1.6-2.2
		c-2.7,2.8-6.2,4.8-10.1,5.4c-0.2,0.1-0.5,0-0.7-0.1c-0.2-0.2-0.2-0.5-0.1-0.7c0.1-0.2,0.3-0.4,0.6-0.6c2.6-1.8,6.5-2.6,7.9-5.2
		c-3.2,2.2-6.6,4.4-10.4,5c-0.2,0-0.4,0-0.6-0.1c-0.3-0.2-0.4-0.6-0.2-1c0.2-0.3,0.5-0.5,0.9-0.6c1.2-0.6,2.5-1,3.7-1.6
		c1.2-0.6,2.2-1.6,2.9-2.8c-2.2,1.7-4.9,2.7-7.7,2.8c-0.3,0-0.6,0-0.8-0.2c-0.3-0.3-0.2-0.8,0.1-1.1c0.3-0.3,0.7-0.4,1.2-0.5
		c1.9-0.5,3.8-1.3,5.5-2.3c0.9-0.5,1.6-1.1,2.1-2c0.2-0.4-2.6-0.6-2.8-0.6c-0.7,0-1.5,0.3-2.1,0.1c-1.1-0.4-0.9-0.9-0.1-1.4
		c1.2-0.6,2.5-0.9,3.9-0.9c2.2-0.1,7.5,0.3,11-5.2c0.8-1.3,5.1-5.7,6.7-6.3c1.8-0.6-2.9,1.7-1.1,1c1-0.4,2.3,1.1,3.2,1.6
		c0.9,0.4,1.6,1.2,1.8,2.2c0.2,1.2-0.4,4-1.4,4.6c-1,0.6-0.8,3-1.8,3.6c-3.2,1.9-6.1,4.5-8.3,7.5c-1,1.4-2.3,2.5-3.8,3.2
		C303.6,312.7,302.1,313.3,300.5,313.8z"/>
	<path class="st6" d="M348,257.3c-5.3,13.2-9.8,20.7-27.3,41.2c-1.9,2.3-6.6,6.3-9.4,4.7c-7.6-4.3-4.5-6-0.4-12.5
		c4.9-7.8,6-10.5,10.7-20.3c2.2-4.6,7.1-13.6,7.1-16.5c0.1-9-6.9-34.2-6.8-43.2c0-3.7,1.2-15,7.2-14.7c3.7,0.2,5.7,1.9,7.9,4.9
		C343.5,209.6,349.5,253.6,348,257.3z"/>
</g>
</svg>
