<svg xmlns="http://www.w3.org/2000/svg" viewBox="0 0 406.42 459.28"><defs><style>.cls-1{fill:#a2d7dd;}.cls-2{fill:#fdeddb;}.cls-3{fill:#ffeb27;}.cls-4{fill:#252b55;}.cls-5{fill:#006f83;}.cls-6{fill:#fff;}.cls-7{fill:#e6e6e6;}.cls-10,.cls-11,.cls-12,.cls-8,.cls-9{fill:none;stroke-linecap:round;stroke-linejoin:round;}.cls-11,.cls-12,.cls-8,.cls-9{stroke:#fff;}.cls-8{stroke-width:5px;}.cls-9{stroke-width:3px;}.cls-10{stroke:#e6e6e6;stroke-width:2px;}.cls-11{stroke-width:4px;}.cls-12{stroke-width:7px;}.cls-13{fill:#3b3233;}.cls-14{fill:#d3b8a2;}.cls-15{fill:#4e2c4a;}.cls-16{fill:#9fa0a0;}.cls-17{fill:#e9473f;}.cls-18{fill:#4cbbb4;}</style></defs><title>card1</title><g id="object"><ellipse class="cls-1" cx="138.37" cy="409.61" rx="138.37" ry="38.27"/><path class="cls-2" d="M167.38,398.93a16.31,16.31,0,0,0-9.47,2.56c-1.37.88-2.72,2.65-1.76,4,.62.85,1.85.92,2.9.87a52.74,52.74,0,0,0,10.9-1.64,14.49,14.49,0,0,0,6.22-2.9c1-.94,1.87-2.38,1.4-3.7a7.38,7.38,0,0,0-.85-1.42c-2.21-3.45-.36-7.94-.33-12a1.44,1.44,0,0,0-.29-1.06,1.53,1.53,0,0,0-1.1-.3l-5.27,0C168.88,383.25,167.44,397.66,167.38,398.93Z"/><path class="cls-2" d="M199.38,400.93a16.31,16.31,0,0,0-9.47,2.56c-1.37.88-2.72,2.65-1.76,4,.62.85,1.85.92,2.9.87a52.74,52.74,0,0,0,10.9-1.64,14.49,14.49,0,0,0,6.22-2.9c1-.94,1.87-2.38,1.4-3.7a7.38,7.38,0,0,0-.85-1.42c-2.21-3.45-.36-7.94-.33-12a1.44,1.44,0,0,0-.29-1.06,1.53,1.53,0,0,0-1.1-.3l-5.27,0C200.88,385.25,199.44,399.66,199.38,400.93Z"/><path class="cls-2" d="M119.57,214.69c-2,.65-3.93,1.06-6,1.82a23.48,23.48,0,0,0-7.21,4.15c-1.46,1.23-2.8,4-2.13,5.78,1.18,2.52,3.53,1.49,5.32.3a26.41,26.41,0,0,1,8.18-4c-1,.29-1.57,6.85,1.42,4.59a4.37,4.37,0,0,0,1.22-1.89c1-2.34,1.2-3.15,3.35-4.15,1.31-.61,4.37-4.62,5.17-5.81s1.41-3.73.67-5c-1-1.79-4.68-.33-6.17.5C122.25,211.57,120.68,214.32,119.57,214.69Z"/><path class="cls-3" d="M147.34,195.34a88.75,88.75,0,0,1-19.5,22.09c-4.55,3.62-6.74,1.07-9.11-.84a2.65,2.65,0,0,1,.07-4.15,36.93,36.93,0,0,0,8.21-9.75c8.44-13.47,14.92-28.42,17-44.18,2.24-17.4,13.93-34,17.38-28.06,8.33,14.33,3.66,31.64.73,39.58C158.29,180.26,153.14,186.21,147.34,195.34Z"/><path class="cls-3" d="M172.37,205c2.88-.15-2.46-9.18-2-11.22a74.44,74.44,0,0,0,1.54-23c-.57-7.77-.43-15.57-.71-23.34-.19-5.33-.08-8.36-3.44-12.81-4.38-5.79-12,4.66-13,7.62-3.14,9.29-2.52,19.71-2.05,25.21C153.4,175.63,167.46,205.3,172.37,205Z"/><path class="cls-4" d="M207.46,129.9c7.42-4,15.28-6,24.13-7.22,7.11-1,20.92-4.13,23.79-11.83,4.69-12.58-20.58-15.23-26.93-19.52-6.12-4.14-11.29-9.5-16.58-14.64-9.47-9.2-19.35-22.76-33.83-19.86-13.29,2.66-23.32,8.76-20.44,26.06,2.76,16.58-9.94,33.15,1.6,45.48,11.35,12.14,30.29,13.38,43.85,4.21Q205.23,131.11,207.46,129.9Z"/><path class="cls-5" d="M196.49,193.26c8.43-1.66,17.35,2,20.5,11.13,6.49,18.88,3.08,47.92.61,67.89-1.17,9.46-11.8,16.15-20.83,10.29C188.1,277,183.55,238.28,181.4,229c-2.52-10.93-4.19-22.44,5-30.7A21.26,21.26,0,0,1,196.49,193.26Z"/><path class="cls-5" d="M176.7,192c3-.35,8.47.68,9.8,6.81,3.95,18.28-2.77,61-11.4,77.94-5,9.74-12.26,22.44-15.86,5.79s-11.94-42.08-3.75-79C156.87,197.38,170.53,192.75,176.7,192Z"/><path class="cls-5" d="M185.22,234.28c6.16,13.42,1.12,45.32,0,59.33-2.17,27.52-.66,66.36-8,91.79-.69,2.39-13.11,4.52-13.23,3-1.55-20-4.52-61.19-5.46-68.93-1.26-10.44-3.56-39.13-3.75-49.73-.2-11.26-4.29-57.94,21.87-38.36C178.82,232.93,184.12,231.88,185.22,234.28Z"/><path class="cls-5" d="M211.13,256c8.66,5.63,6.57,27.1,6.27,34.64-1.08,27.67.09,42.94-7.09,93.94-.35,2.48-.13,6.18-2.62,6.43-1.57.16-5.35,1-7.06,1.22-3.4.38-3.27-9.23-3.59-12.64-1.44-15.63-3.57-33.79-5.06-50.85-.89-10.16-2.13-43.12-2.39-53.31-.12-4.55-1.47-8.79,1.83-12.21,3.69-3.82,8.78-8.33,14.33-8.58A8.87,8.87,0,0,1,211.13,256Z"/><path class="cls-3" d="M217,204.39c-5.07-13.12-6.78-19.61-3.28-32.61,2.23-8.28,5.09-17.92,4.5-26.5s-7.7-15.4-16.64-18.25c-11-3.5-24.2-4.14-35.14,0-3.83,1.45-7.17.53-9.05,4.92-4.07,9.5-3.1,22.83-3.1,26,0,14.82,2.56,29,4.19,34.93.89,3.24-2,8-3,10.73C150.86,216.08,220.06,212.35,217,204.39Z"/><path class="cls-2" d="M163.33,130.45c-4.66,6.22,8.83,13.78,19.08,11.33,4.83-1.15,18-7.69,18.91-12.56.45-2.55-11.73-4.37-13.27-4.69-2.38-.5-1.35-10,1.9-15.5,1.17-2-1.91-8-4-8.5-4.71-1.06-6.41.51-11,2-2.48.8-3.29,7.41-2.75,9.75.94,4.09,4.48,7.58,2.17,11.17C173.62,124.61,164.83,128.45,163.33,130.45Z"/><path class="cls-2" d="M160,84.29c-2.9,14.07,2.67,31.33,16.8,34,25.94,4.89,32.82-53,2.8-52.77C168.62,65.61,162.08,74.11,160,84.29Z"/><path class="cls-4" d="M166.39,94c.47-4.29,1.37-8.4,4.75-9.14,1.62-.35,15.1-6.66,14.23-9.87,2.45,9.05,11.2,11.12,18.9,14.27l-1.94.09a31,31,0,0,0,2.56,8.31,5.45,5.45,0,0,0,1.34,2c1.67,1.38,4.43.42,5.54-1.44s.93-4.22.36-6.31a82.72,82.72,0,0,0-3-9.43c-3.5-8.64-9.26-14.69-18.14-17.8a28.86,28.86,0,0,0-11.43-1.43,47.65,47.65,0,0,0-6.77.65c-5,1-4.74.69-8.26,4.41-1.78,1.88-3.68-1.18-5.28.75-6.08,7.35-9.45,18.08-7.9,27.59,1,6,8.87,16.11,13.57,6.69C165.9,101.31,166,97.59,166.39,94Z"/><path class="cls-3" d="M203.53,177.61c-1.63,15.17-1,22.51.17,24.5.25-1.33,8.49-23.5,8.74-24.83.83-4.38-3.46-11.34-3.67-15.79-.08-1.68-3-30.08-6.73-26.56-1.14,1.07-1.42,9.16-1.35,10.85C200.87,150.11,204.47,168.92,203.53,177.61Z"/><path class="cls-3" d="M201.56,127c2.52,3.84-1,12.28-8.36,15.22-4.17,1.67-19,6.29-23.41,5.51a17.15,17.15,0,0,1-9.84-4.95c-2.51-2.77-3.68-6.92-2.29-10.39a5.54,5.54,0,0,1,3.91-3.57,7.44,7.44,0,0,1,3.08.3,78.8,78.8,0,0,0,14.82,2.68,31.64,31.64,0,0,0,11.22-1.22C194.32,129.49,197.72,127.42,201.56,127Z"/><path class="cls-4" d="M179,397.89a1.39,1.39,0,0,1,.48,1.78,3.82,3.82,0,0,1-1.4,1.45,43.69,43.69,0,0,1-18.67,7.54c-7.22,1.09-5.36-7.52.62-7.81,3-.15,6.12,2.4,9,2C172.25,402.43,175.57,398.77,179,397.89Z"/><path class="cls-4" d="M211,399.89a1.39,1.39,0,0,1,.48,1.78,3.82,3.82,0,0,1-1.4,1.45,43.69,43.69,0,0,1-18.67,7.54c-7.22,1.09-5.36-7.52.62-7.81,3-.15,6.12,2.4,9,2C204.25,404.43,207.57,400.77,211,399.89Z"/><polygon class="cls-6" points="122.06 382.28 30.69 382.28 73.87 346.28 165.24 346.28 122.06 382.28"/><rect class="cls-6" x="73.7" y="247.28" width="91" height="43"/><rect class="cls-7" x="73.7" y="247.28" width="91" height="2"/><line class="cls-8" x1="72.7" y1="344.88" x2="72.7" y2="392.61"/><ellipse class="cls-7" cx="73.34" cy="391.02" rx="4.19" ry="8.34"/><ellipse class="cls-8" cx="73.24" cy="386.59" rx="21.48" ry="53.24"/><ellipse class="cls-8" cx="73.24" cy="386.59" rx="21.48" ry="53.24"/><ellipse class="cls-9" cx="73.24" cy="386.58" rx="16.77" ry="48.19"/><path class="cls-6" d="M94.57,444.28H64.8a2.83,2.83,0,0,1-2.74-2.92l-.18-1.53,7.53-2.55,34.21-4v2.14a4.28,4.28,0,0,1-1.3,3.1l-4.77,4.55A4.32,4.32,0,0,1,94.57,444.28Z"/><path class="cls-7" d="M95.72,440.28H62.53a.7.7,0,0,1-.47-1.22L68,433.77a1.94,1.94,0,0,1,1.29-.49h33.82a.72.72,0,0,1,.48,1.25l-5.36,4.8A3.72,3.72,0,0,1,95.72,440.28Z"/><path class="cls-6" d="M73.7,339.7l-39,32.66v-28.1a42.09,42.09,0,0,1,12.44-29.35L73.7,294.45Z"/><polyline class="cls-8" points="123.66 384.45 123.66 423.78 131.46 440.44"/><ellipse class="cls-8" cx="131.31" cy="441.51" rx="8.23" ry="15.28"/><ellipse class="cls-7" cx="131.31" cy="440.51" rx="2.99" ry="5.54"/><polyline class="cls-8" points="33.66 384.45 33.66 423.78 41.46 440.44"/><ellipse class="cls-8" cx="41.31" cy="441.51" rx="8.23" ry="15.28"/><ellipse class="cls-7" cx="41.31" cy="440.51" rx="2.99" ry="5.54"/><path class="cls-8" d="M99.57,439.37l8.15-39.17a13.39,13.39,0,0,1,3.93-7l52.3-47.57"/><path class="cls-10" d="M101,439.92l8.15-39.17a13.39,13.39,0,0,1,3.93-7l52.3-47.57"/><path class="cls-8" d="M15,439.37l9-41.46a13.39,13.39,0,0,1,3.93-7l51.44-45.28"/><polyline class="cls-11" points="157.68 347.25 157.68 391.9 167.95 391.9"/><ellipse class="cls-7" cx="165.34" cy="391.02" rx="4.19" ry="8.34"/><path class="cls-6" d="M166.13,344.42l1-.81a3,3,0,0,0-1.89-5.33H73.87a3,3,0,0,0-1.89.67l-43.18,35c-1,.8-1,2.07-.94,3.33.13,1.5.13,2.21.13,2.21a4.46,4.46,0,0,0-.13,3.79,3,3,0,0,0,2.83,2h91.37a3,3,0,0,0,1.89-.67l43.18-35a3,3,0,0,0-1-5.19Zm-91.2,5.86h74.44l-28.37,23H46.56Z"/><path class="cls-6" d="M46.39,444.28H16.62a2.83,2.83,0,0,1-2.74-2.92l-.18-1.53,7.53-2.55,34.21-4v2.14a4.28,4.28,0,0,1-1.3,3.1l-4.77,4.55A4.32,4.32,0,0,1,46.39,444.28Z"/><path class="cls-7" d="M47.54,440.28H14.36a.7.7,0,0,1-.47-1.22l5.91-5.28a1.94,1.94,0,0,1,1.29-.49H54.91a.72.72,0,0,1,.48,1.25L50,439.33A3.72,3.72,0,0,1,47.54,440.28Z"/><path class="cls-8" d="M165.76,347.25V248.56a14.19,14.19,0,0,1,4.63-10.49l12.79-11.65"/><path class="cls-10" d="M167.18,340.44V248.56a14.19,14.19,0,0,1,4.63-10.49l12.79-11.65"/><path class="cls-12" d="M174.15,235.62l10.1-9.2"/><path class="cls-8" d="M74.06,347.25V248.56a14.19,14.19,0,0,1,4.63-10.49l12.79-11.65"/><path class="cls-12" d="M81.38,235.62l10.1-9.2"/><path class="cls-13" d="M39.64,440.4a3.19,3.19,0,0,0-.09,1.45c.84,5,6.87,1.74,9.18.13a19.82,19.82,0,0,1,3.17-2c2.15-1,4.92-1,6.31-2.9,1.15-1.58,1-5.65-.83-6.49-1.67-.75-5,.88-6.37,1.76C48.39,433.94,40.76,436.64,39.64,440.4Z"/><path class="cls-13" d="M66.1,437.68A3,3,0,0,0,65,440c-.15,2.55,2.61,4.42,5,4.3,3.94-.2,6.59-4.1,9.34-6.41,1.37-1.15,3.89-2,4.4-3.85a4.05,4.05,0,0,0-.27-2.32c-1.56-4.62-5.6-2.71-8.35-.18a31.89,31.89,0,0,1-5.29,4.29C68.56,436.55,67.09,436.87,66.1,437.68Z"/><path class="cls-2" d="M99.92,242c.07,5.5,1.29,13.71-2.48,17.72,5,7.8,9.61,5.2,14.88,5.31,2.77.06,8.38-3.29,10.28-5.31,1.74-1.85,1.21-8.1,1.42-10.63.6-7.46-.46-11-.52-18.48l-7.12-.42c-2.34-.14-4.86-.23-6.83,1-3.15,2-3.58,6.64-6.41,9.11Z"/><path class="cls-14" d="M44.15,339.3l8.29-20a12.45,12.45,0,0,1,2.35-4.1A4.24,4.24,0,0,1,59.1,314c2.41.9,2.74,4.08,3,6.64a33.34,33.34,0,0,0,3.5,12.19c2.17,4.25,5.36,8.72,4.1,13.33-1.32,4.84-6.89,7-11.84,7.88a58.58,58.58,0,0,1-13.62.64,9,9,0,0,1-4.5-1.18C35.82,350.83,42.74,342.69,44.15,339.3Z"/><path class="cls-15" d="M50.87,344.66c-7.06,1.59-13.09,5.51-14.27,13.75a44.67,44.67,0,0,0,.2,11.11c2.13,19.76,5.49,39.41,11.76,58.31.56,1.68,1,3.81,2.62,4.79,1.39.8,3.18.63,4.7.46a1.6,1.6,0,0,0,1.82-1.52c2.86-13.17,4.11-44.88,4.49-58.3.27-9.5,8.72-9.65,14.46-14.77,9.64-8.61-10.86-14.75-16.83-14.75A41.25,41.25,0,0,0,50.87,344.66Z"/><path class="cls-15" d="M40.36,351.73c2.46-5.66,8.59-8.77,13.9-11.22,10.24-4.71,19.36-11.17,30.09-14.83,4.47-1.52,7.64-2.26,10.88,2.2,2.69,3.7,1.7,6.66-1.55,9.54a126.46,126.46,0,0,1-13.26,10.25,131.31,131.31,0,0,1-20,11.11c-4.54,2-13.6,7.59-18.38,3.77C39.13,360.24,39,354.92,40.36,351.73Z"/><path class="cls-15" d="M144,325.85a20.51,20.51,0,0,1,1.72,6.1,53,53,0,0,1,0,10.42c-.33,4.83.12,9.24-2.24,13.57a33.51,33.51,0,0,1-9.81,10.94c-7.23,5.22-16.09,6.28-24.75,5-12.52-1.81-24.15-7.66-37-7.74-3.93,0-11.23-.52-11.23-5.62,0-9.24,9.68-13.53,17-16.38,9.37-3.62,18.87-6.88,28.23-10.51a37,37,0,0,0,10.9-6c3.12-2.53,6.24-5.21,10.24-6.18,4.56-1.1,11.45-.73,14.71,3A14.57,14.57,0,0,1,144,325.85Z"/><path class="cls-15" d="M77,347.33c6.67,1.53,10.5,7.95,11,14.94,1.48,20.18-1.1,45.53-5.28,65.11-.37,1.73-.68,3.48-1.09,5.2-.54,2.31-5.69,1.35-7.79.1a48,48,0,0,1-1.52-6.52c-4.24-21.1-9.58-46.53-11.62-67.64C60,351.3,66.8,347.26,73.23,347A14.21,14.21,0,0,1,77,347.33Z"/><path class="cls-7" d="M110.65,251.47a18,18,0,0,0,7.12-5.44c3-3.71,4.69-8.21,6.75-12.48-.44.92.43,3.73.59,4.74q.41,2.56,1,5.08c.77,3.23,2,6.31,2.24,9.65.22,4,.8,8,0,11.83a61.35,61.35,0,0,1-2.12,6.4c-2.53,7.52-2.48,15.65-3.93,23.45-2.41,13-8.94,24.91-11.42,37.88-.33,1.73-.7,3.67-2.15,4.67a6.22,6.22,0,0,1-2.59.86A68.16,68.16,0,0,1,82,337.78c-2.65-.52-5.46-1.31-7.14-3.43-3-3.76-.83-9.21,1.08-13.62,5.57-12.89,8.1-26.79,10.87-40.48,1-4.85,7.48-41.36,13.66-37.72,2.09,1.23,1.43,5,2.13,6.89C103.77,252.68,107.94,252.51,110.65,251.47Z"/><path class="cls-14" d="M85.93,320.38c.74-1.27,1.44-2.55,2.08-3.84,3.28-6.63,3.91-14.89,5.68-22.06,1.9-7.71,2.26-15.54,3.23-23.36,1.25-10,4.62-19.9,3.85-30.13-1.56-.23-3,.72-4.33,1.63-5.93,4.14-12.41,7.67-18.09,12.07-11,8.55-16.14,27-20.82,39.63-5,13.56-8.94,31.31,2.21,43,2.31,2.42,6.09,3,9.22,3.56a5.08,5.08,0,0,0,2.29,0,5.18,5.18,0,0,0,2.56-2.44C77.66,332.54,82.31,326.59,85.93,320.38Z"/><path class="cls-14" d="M98.57,340.92c-.19,1-.39,1.91-.57,2.87-1.19,6.33,1.57,4.41,6.27,5.88,3.12,1,6.14,2.83,7.56,5.89s.9,6.83,2.84,9.76a7,7,0,0,0,4.5,3,10,10,0,0,0,5.24-.69c8.49-3.19,14.9-12.23,19.74-19.5,5.07-7.62,9.45-15.86,11.41-24.8,2.18-9.92,1.29-20.24-.08-30.3-1.3-9.59-4.89-18.76-9.21-27.36-3.59-7.14-7.75-15.12-14.28-20-3.52-2.64-4.63-2.79-7,.64-2.06,3-4,6.16-5.94,9.27a182.68,182.68,0,0,0-10.65,19.22c-5.08,10.88-8.62,22.67-8.73,34.68-.06,6.68.64,13.34.52,20A63.29,63.29,0,0,1,98.57,340.92Z"/><path class="cls-2" d="M125.65,216.53a11.82,11.82,0,0,1-3.77,1.55s-1.85-8.2-4.12-10-6.2-4.8-8.84-4.14-14.8,6-14.8,6-4.25,2.24-3.94,8.7c.2,4.24-.2,8,.81,12.06,1,3.9.92,2.9,2.76,6.49.79,1.55,4.32,7.44,5.55,8.55s2.22,3,3.79,4c2.25,1.45,5.51,1.28,7.93.34,3.6-1.41,6.11-4.65,8.43-7.74,1.48-2,3.37-4.75,4.84-6.71l0,.41a20.77,20.77,0,0,1,1.68-2.54,8.14,8.14,0,0,0,1.51-4.31s4.42-7.83,4.19-9.25S127.06,215.49,125.65,216.53Z"/><path class="cls-16" d="M114.39,208.92c1.17,5.81,3.2,12.63,8.87,14.38.47-1.3,1.18-3.32,2.53-4.32,2.33-1.35,3.63,1.56,3.54,4.25a7.56,7.56,0,0,1-3.92,6.36,5.64,5.64,0,0,0-2.52,2.06c-.69,1.4.13,3.1,1.26,4.17,4.58,4.33,12.65,1.42,16.17-3.81,1.93-2.88,3-6.68,1.5-9.81-.16-.34,2.29-5.27,2.46-6.15a18.46,18.46,0,0,0,0-7.28c-1.08-5.28-5.17-11-10.43-12.75-1.27-.43-3-.17-3.91-1.35-.55-.72-.36-1.92-.84-2.75-3.6-6.29-13.12-6.13-18.93-3.45-.93.43-3.23,2.87-4,2.84-4.88-.18-10.08.3-14,3.22-4.94,3.68-2.5,7.78-4.39,12.22-2,4.79-8.78,8.54-6.32,14.54.69,1.68,2.35,3,2.78,4.76.34,1.42-.19,2.77-.31,4.17a5.73,5.73,0,0,0,1.22,3.94,10.52,10.52,0,0,0,4.6,3.15c1.33.5,3.84,1.08,4.86-.22a5.85,5.85,0,0,0,.72-3.23,24.76,24.76,0,0,0-.66-6.73c-.27-1.09-1.28-6.3-2.93-6.81,3.74,1.15,9.15-1.42,11-2.05C104.87,217.5,115,212.07,114.39,208.92Z"/><path class="cls-14" d="M79.37,291.62c1.71-4.86,3.64-14.72,4.25-19.84s-.56-6.91-3.19-11.34C69.52,272.72,60.24,293.71,55,309.27c-1.37,4.06-2.42,8.91.17,12.33a13.39,13.39,0,0,0,3.74,3.05A154.82,154.82,0,0,0,74,333c1,.47,3,1.24,4.07.64,2.38-1.33-.08-2.44-1.56-3.7C74.37,328.09,63,321.18,63.78,320c3.54-5.31,6-8.56,8.5-12.76A93.61,93.61,0,0,0,79.37,291.62Z"/><path class="cls-2" d="M95.35,342.25l.21.14c1.06.67,2.51.9,3.29,2,.45.6,1.18,3.6-.41,2.93a5,5,0,0,1-.84-.58c-.44-.3-1.19-.41-1,.35s1,1.16,1.34,1.69c.52.84,1.13,1.83.66,2.85-1.4,3-6.54-.06-8.05-1.31s-2.91-3.82-5-4.28c-2.71-.59-6.19-1.53-8.51-3.11-1.1-.75.2-2.61.41-3.93.47-2.9,4.92-3.45,7.22-3.9,1.7-.33,3.55,1.18,4.81,2.12a22.18,22.18,0,0,1,3.23,2.77A14.87,14.87,0,0,0,95.35,342.25Z"/><path class="cls-14" d="M62,321.92q.94.35,1.85.75a54.94,54.94,0,0,1,9.27,5.74A71,71,0,0,0,81,333.17c3,1.61,5.34,4,2.42,7-.34.35-3.36,4.29-3.35,4.29-5.58-1.84-11.57-1.85-17.4-2.55s-11.91-2.27-16-6.46C44,332.85,40,325.85,42.14,322s9.74-2.69,13.16-2A46.58,46.58,0,0,1,62,321.92Z"/><path class="cls-2" d="M96.49,336.37c-2.64,0-5.27,0-7.89-.18-.72,0-6.42.43-4.86,2.19a1.06,1.06,0,0,0,.9.25,8.58,8.58,0,0,1,2.52-.34c.13,0,.28.09.31.23s-.26.32-.49.34c-2.66.19-5.41,2.25-7.26,4.05-2.3,2.24-1.23,4.63,1.35,5.93,1.46.73,2.68,1.27,4.32.71a27.2,27.2,0,0,0,3-1.49,12.45,12.45,0,0,1,6.22-1.22,22.6,22.6,0,0,0,4.63.27c3.38-.48,4.92-3.6,7.8-4.91.86-.4,2.1-.65,2.34-1.78a1.89,1.89,0,0,0-.68-1.59,8.88,8.88,0,0,0-4.88-2.35,39.08,39.08,0,0,0-6.61-.09Z"/><path class="cls-14" d="M136.33,309.23a81.93,81.93,0,0,1-4.71-46.7c.3-1.52.72-3.17,2-4.09a19.2,19.2,0,0,1,1.78,2.8c4.15,7.46,7.89,15.22,10.06,23.48s2.73,17.07.54,25.32a20.69,20.69,0,0,1-3.52,7.63,23.93,23.93,0,0,1-7.75,5.85A71.46,71.46,0,0,1,113.14,331c-2.9.49-8.29-.21-6.65-4.41,1-2.61,6.09-5.64,8.32-7.2C121.36,314.86,128.91,312,136.33,309.23Z"/><path class="cls-14" d="M139.72,255.48c5.66,4.19,12.7,18.58,13.93,21.57,3.48,8.48,7.95,24.11,5.27,33.07-1.38,4.62-1.43,11.24-7,11.62-8.14.56-10.82,2-11.66-4.34a141.69,141.69,0,0,0-3.1-15.72c-2.37-9.49-5.54-19-5.77-28.88a44.37,44.37,0,0,1,2.18-14.95C134.95,253.76,137.2,253.61,139.72,255.48Z"/><path class="cls-14" d="M143.19,331.51c2.68-.6,5.49-1,7.8-2.46a12.19,12.19,0,0,0,4.17-4.86c1.52-3,2.08-6.79.38-9.7-2.67-4.59-9.19-4.85-14.38-3.74-8.76,1.87-16.87,6-24.86,10C111.57,323.12,83.2,341,99,344.84,113.07,348.23,130,334.45,143.19,331.51Z"/><path class="cls-14" d="M52.65,330.66a7.44,7.44,0,0,1-2.77.56c-4.62,0-8.18-4.63-8.6-9.23-.71-7.75,4.56-16.18,7.66-23,6-13.22,12.53-31.35,24.87-40a6.14,6.14,0,0,1,3-1.31A4.7,4.7,0,0,1,81,260.45c4.33,8.57-.48,19.53-3.7,27.66A269.91,269.91,0,0,1,60.46,322.2C58.54,325.57,56,329.28,52.65,330.66Z"/><path class="cls-6" d="M164.7,337.72l-34,33.66V355.11a41.26,41.26,0,0,1,12.2-28.77l21.8-21.7Z"/><path class="cls-7" d="M166.56,442.23c-13.7,0-24.81-24.91-24.81-55.64s11.11-55.64,24.81-55.64h.18a11.73,11.73,0,0,0-4-.72c-13.87,0-25.11,25.3-25.11,56.52s11.24,56.52,25.11,56.52a12,12,0,0,0,4.94-1.1C167.32,442.21,166.94,442.23,166.56,442.23Z"/><ellipse class="cls-8" cx="165.24" cy="386.59" rx="21.48" ry="53.24"/><ellipse class="cls-9" cx="165.24" cy="386.58" rx="16.77" ry="48.19"/><path class="cls-2" d="M181.83,236.32c-.21-.75.45-1.46,1.12-1.87s1.54-.75,2.25-1.23a2.93,2.93,0,0,0,1.42-2c-2.76,2.14-5.66,4.35-9.1,4.93a.81.81,0,0,1-.67-.09.56.56,0,0,1-.08-.66,1.47,1.47,0,0,1,.5-.51c2.35-1.66,5.52-2.34,7.12-4.73-2.9,2-5.94,4-9.42,4.5a.89.89,0,0,1-.56,0,.63.63,0,0,1-.14-.87,1.7,1.7,0,0,1,.78-.57c1.12-.51,2.29-.88,3.38-1.45a5.54,5.54,0,0,0,2.59-2.51,12,12,0,0,1-7,2.53,1,1,0,0,1-.76-.19.74.74,0,0,1,.12-1,2.33,2.33,0,0,1,1-.44,18,18,0,0,0,5-2.08,4.88,4.88,0,0,0,1.91-1.8c.18-.36-2.37-.51-2.55-.51-.6,0-1.35.3-1.93.06-1-.41-.78-.84-.05-1.27a8,8,0,0,1,3.49-.77,8.21,8.21,0,0,0,5.35-2.24c1-1,6.88-6.23,8.25-6.7,1.66-.57-.2.18,1.4-.53.87-.39,2.09.93,2.92,1.42a2.83,2.83,0,0,1,1.67,2c.17,1.12-.35,3.6-1.25,4.18s-3.07,3.37-4,3.92c-3.45,2-4,4.42-5.14,6.11a8.83,8.83,0,0,1-3.41,2.92A24.88,24.88,0,0,1,181.83,236.32Z"/><path class="cls-3" d="M221.7,181.28c-2.75,12.56-8,25.5-21.5,41.22-1.75,2-6,5.71-8.51,4.27-6.9-3.94-4.07-5.48-.35-11.34,4.48-7.07,9.23-14.58,11.71-22.62.79-2.58,3.88-17.07,3.9-19.77.07-8.18-5.64-21.92-5.58-30.1,0-3.31-.09-13.25,5.33-13,3.35.15,7,3.15,9,5.83C221.53,143.61,226.14,161,221.7,181.28Z"/><rect class="cls-1" x="254.76" y="33.66" width="88.23" height="31.89" rx="3.93" ry="3.93"/><rect class="cls-17" x="251.57" y="30.47" width="88.23" height="31.89" rx="3.93" ry="3.93"/><path class="cls-6" d="M277.62,40.32h6.91q-.14-1.09-.18-2.36h-3.07q-.23,0-.23-.29V37c0-.21.08-.31.23-.31h4c.21,0,.31.08.31.25a20.48,20.48,0,0,0,.25,3.36h6.39q.39,0,.39.29V52.84a1.31,1.31,0,0,1-.86,1.17,7.53,7.53,0,0,1-2.11.45c-.14,0-.23-.08-.25-.25a4.19,4.19,0,0,0-.45-1.25c0-.05.06-.08.18-.08a4.63,4.63,0,0,0,1.76-.18.63.63,0,0,0,.35-.59V41.55h-5.14a11.58,11.58,0,0,0,1.09,3,8.66,8.66,0,0,0,1.91,2.38A11.32,11.32,0,0,0,291,48.15c.16.07.23.16.23.27s-.06.1-.18.16q-.35.31-.7.66a.53.53,0,0,1-.39.14,6.14,6.14,0,0,1-1.76-1.31,9.83,9.83,0,0,1-2.07-2.71,12.63,12.63,0,0,1-.94-2.13q-.22.45-.45.84a19.18,19.18,0,0,1-1.48,2.34,20,20,0,0,1-1.89,2.05,6.13,6.13,0,0,1-1.48,1.05c-.09,0-.18-.09-.27-.27s-.45-.51-.72-.78a.59.59,0,0,1-.16-.27,15.55,15.55,0,0,0,2.36-1.64,13.21,13.21,0,0,0,2-2.34,26.48,26.48,0,0,0,1.35-2.66h-5.7V54.39q0,.21-.33.21h-.78q-.31,0-.31-.21V40.62Q277.3,40.32,277.62,40.32Z"/><path class="cls-6" d="M303.48,37.82A8.87,8.87,0,0,1,301,38.9v2.73h2.89q.23,0,.23.33v.61q0,.31-.23.31h-2.62a13.54,13.54,0,0,0,1.29,2.29,11.75,11.75,0,0,0,1.88,2,.36.36,0,0,1-.14.31q-.29.27-.8.7a.21.21,0,0,1-.14-.08,7.08,7.08,0,0,1-1.19-1.39q-.53-.8-1.17-2v9.61c0,.14-.1.21-.31.21h-.78q-.31,0-.31-.21v-8.4a17.09,17.09,0,0,1-1.15,2,12.25,12.25,0,0,1-1.58,2,.46.46,0,0,1-.33-.1l-.9-.41c-.12,0-.18,0-.18-.1a13.89,13.89,0,0,0,2-2.32,10.86,10.86,0,0,0,1.15-2.09,12.08,12.08,0,0,0,.76-2h-3.18q-.23,0-.23-.31V42q0-.33.23-.33h3.44v-2.4a14.91,14.91,0,0,1-3,.29.32.32,0,0,1-.33-.25,4.45,4.45,0,0,0-.45-.74q0-.33.23-.33a17.33,17.33,0,0,0,3.69-.27,6.12,6.12,0,0,0,3-1.35.59.59,0,0,1,.31-.1.43.43,0,0,1,.27.16,5.81,5.81,0,0,1,.82,1c0,.14-.05.21-.16.21Zm10.31,8.5c.16,0,.23.1.23.31v.78c0,.22-.08.33-.23.33l-1.87.49v6.07c0,.14-.1.21-.31.21h-.78q-.31,0-.31-.21V48.6l-5.86,1.56c-.16,0-.23-.11-.23-.33v-.78c0-.21.08-.31.23-.31l5.86-1.54V36.71q0-.23.31-.23,1.48,0,1.48.23c0,.18-.07.29-.2.31s-.2.14-.2.39v9.41Zm-7.89-3.44A20,20,0,0,1,307.73,44q.84.63,1.45,1.11a.89.89,0,0,1-.1.18q-.59.86-.61.86a15.19,15.19,0,0,0-2-1.45,7.86,7.86,0,0,0-1.41-.76,4.22,4.22,0,0,1,.63-.88C305.79,42.93,305.85,42.88,305.9,42.88Zm.39-5.14a15.56,15.56,0,0,1,1.8,1.17q.84.68,1.41,1.25a.68.68,0,0,1-.1.16,6.58,6.58,0,0,1-.61.84,17.23,17.23,0,0,0-1.91-1.58,9.11,9.11,0,0,0-1.37-.84,4.23,4.23,0,0,1,.61-.88Q306.23,37.74,306.29,37.74Z"/><rect class="cls-1" x="71.59" y="6.03" width="88.23" height="31.89" rx="3.93" ry="3.93"/><rect class="cls-17" x="68.4" y="2.84" width="88.23" height="31.89" rx="3.93" ry="3.93"/><path class="cls-6" d="M96.38,11.16h10.7c.21,0,.31.08.31.23v5.08h2.66c.21,0,.31.08.31.23v4c0,.17-.1.25-.31.25h-.78c-.21,0-.31-.08-.31-.25V17.74H94.58v3c0,.17-.1.25-.31.25h-.78c-.21,0-.31-.08-.31-.25v-4q0-.33.31-.33h2.58V11.39C96.07,11.23,96.17,11.16,96.38,11.16Zm.47,7.73h9.84q.39,0,.39.31v8.5q0,.51-.9.82a11.42,11.42,0,0,1-2.15.29.23.23,0,0,1-.25-.21,4.14,4.14,0,0,0-.45-1.27s.06-.06.18-.06a9,9,0,0,0,1.84-.1q.33-.12.33-.37v-.86H97.94V28.6c0,.14-.1.21-.31.21h-.78c-.21,0-.31-.07-.31-.21V19.12C96.54,19,96.64,18.89,96.85,18.89Zm.63-2.42h2.73V13.66c0-.14.11-.21.33-.21H106V12.33H97.47Zm.47,5.33h7.73V20.22H97.94Zm0,2.87h7.73V23H97.94Zm3.67-8.2H106V14.59h-4.37Z"/><path class="cls-6" d="M120.29,12a8.86,8.86,0,0,1-2.5,1.07v2.73h2.89q.23,0,.23.33v.61q0,.31-.23.31h-2.62a13.54,13.54,0,0,0,1.29,2.29,11.75,11.75,0,0,0,1.88,2,.36.36,0,0,1-.14.31q-.29.27-.8.7a.21.21,0,0,1-.14-.08A7.1,7.1,0,0,1,119,20.86q-.53-.8-1.17-2v9.61c0,.14-.1.21-.31.21h-.78c-.21,0-.31-.07-.31-.21V20a17,17,0,0,1-1.15,2,12.25,12.25,0,0,1-1.58,2,.46.46,0,0,1-.33-.1l-.9-.41c-.12,0-.18,0-.18-.1a13.89,13.89,0,0,0,2-2.32A10.83,10.83,0,0,0,115.36,19a12.08,12.08,0,0,0,.76-2h-3.18q-.23,0-.23-.31V16.1q0-.33.23-.33h3.44v-2.4a14.91,14.91,0,0,1-3,.29.32.32,0,0,1-.33-.25,4.41,4.41,0,0,0-.45-.74q0-.33.23-.33a17.33,17.33,0,0,0,3.69-.27,6.11,6.11,0,0,0,3-1.35.59.59,0,0,1,.31-.1.43.43,0,0,1,.27.16,5.81,5.81,0,0,1,.82,1c0,.14-.05.21-.16.21Zm10.31,8.5c.16,0,.23.1.23.31v.78c0,.22-.08.33-.23.33l-1.87.49v6.07c0,.14-.1.21-.31.21h-.78c-.21,0-.31-.07-.31-.21v-5.7l-5.86,1.56c-.16,0-.23-.11-.23-.33v-.78c0-.21.08-.31.23-.31l5.86-1.54V10.84c0-.16.1-.23.31-.23q1.48,0,1.48.23c0,.18-.07.29-.2.31s-.2.14-.2.39V21ZM122.71,17a19.9,19.9,0,0,1,1.84,1.07q.84.63,1.45,1.11a.86.86,0,0,1-.1.18q-.59.86-.61.86a15.15,15.15,0,0,0-2-1.45,7.83,7.83,0,0,0-1.41-.76,4.22,4.22,0,0,1,.63-.88C122.6,17.06,122.66,17,122.71,17Zm.39-5.14a15.51,15.51,0,0,1,1.8,1.17q.84.68,1.41,1.25a.66.66,0,0,1-.1.16,6.52,6.52,0,0,1-.61.84,17.18,17.18,0,0,0-1.91-1.58,9.11,9.11,0,0,0-1.37-.84,4.26,4.26,0,0,1,.61-.88Q123,11.88,123.1,11.88Z"/><rect class="cls-1" x="4.98" y="58.47" width="88.23" height="31.89" rx="3.93" ry="3.93"/><rect class="cls-17" x="1.79" y="55.9" width="88.23" height="31.89" rx="3.93" ry="3.93"/><path class="cls-6" d="M8.45,70.2l1.31.21a.18.18,0,0,1,.18.2.3.3,0,0,1-.16.29.47.47,0,0,0-.27.49Q9.31,75.09,9,78.5c0,.25-.1.37-.21.37l-1-.08c-.18,0-.27-.05-.27-.16Q7.81,77,7.92,76a54.33,54.33,0,0,0,.33-5.61A.17.17,0,0,1,8.45,70.2Zm-.62-3.28h7c.16,0,.23.1.23.31v.63c0,.22-.08.33-.23.33H12V80.61c0,.14-.1.21-.31.21h-.78q-.23,0-.23-.21V68.19H7.83c-.16,0-.23-.11-.23-.33v-.62C7.59,67,7.67,66.92,7.83,66.92Zm.7-3.59h5.55c.16,0,.23.1.23.31v.63q0,.31-.23.31H8.53q-.23,0-.23-.31v-.62C8.29,63.43,8.37,63.33,8.53,63.33Zm4.77,6.8H14a.28.28,0,0,1,.31.31,12.63,12.63,0,0,0-.23,2.36,21.71,21.71,0,0,0,.7,5.68c0,.09-.07.16-.21.21l-1.11.1-.12-.31q-.33-3.87-.33-8Q13,70.13,13.29,70.13Zm3.13-4.36h3.75V63c0-.16.11-.23.33-.23Q22,62.78,22,63c0,.18-.07.29-.2.31s-.2.14-.2.39v2.05H25.4c.21,0,.31.07.31.21v9.14c0,.16-.1.23-.31.23H21.58v5.25c0,.14-.1.21-.31.21H20.5c-.22,0-.33-.07-.33-.21V75.36H16.42c-.21,0-.31-.08-.31-.23V66C16.11,65.84,16.21,65.77,16.42,65.77Zm1.09,4.14h2.66V67H17.51Zm2.66,4.22v-3H17.51v3ZM21.58,67v2.91h2.73V67Zm2.73,7.13v-3H21.58v3Z"/><path class="cls-6" d="M31.73,62.63l1.54.88a1.4,1.4,0,0,1,.1.21c0,.12-.11.18-.33.18s-.51.08-.61.23q-1,1.6-1.89,2.93.59.55,1.19,1.19.92-1.29,1.56-2.34a8,8,0,0,1,1.41,1.25c0,.09-.07.14-.21.14s-.44,0-.51.14q-1.54,2.17-3.07,4l2.87-.33q-.22-.49-.49-1,0-.12,1-.62a20.19,20.19,0,0,1,.92,2.05,14.15,14.15,0,0,1,.57,1.78,4,4,0,0,1-1.17.39,9.84,9.84,0,0,0-.41-1.52L34.13,72l-1.86.45v8.18c0,.14-.1.21-.31.21h-.78q-.23,0-.23-.21V72.74l-2.5.59a2.89,2.89,0,0,1-.55.55A9.12,9.12,0,0,1,27.51,72a4.71,4.71,0,0,1,1.64-.33q1.17-1.5,2-2.6-1-.84-1.52-1.23a14.18,14.18,0,0,0-1.7-.92q0-.18.82-1a.32.32,0,0,1,.2-.12l.63.45q.59-.8,1-1.56Q31.4,63.31,31.73,62.63ZM29.08,74.19q1.43.31,1.43.47a.29.29,0,0,1-.18.25.52.52,0,0,0-.25.35,19,19,0,0,1-.49,2.95q-.19.62-.43,1.29c-.05.1-.1.16-.16.16a8.28,8.28,0,0,0-1.09-.27.18.18,0,0,1-.16-.2,11.68,11.68,0,0,0,.66-1.84,19.64,19.64,0,0,0,.47-2.95C28.88,74.26,28.95,74.19,29.08,74.19Zm5.08,0q.41,1.15.68,2.11t.41,1.89a5.2,5.2,0,0,1-1.17.37A10.74,10.74,0,0,0,33.78,77a19.12,19.12,0,0,0-.64-2.15Q33.14,74.68,34.15,74.19Zm3-8.67,1.39.59a.24.24,0,0,1,.1.2c0,.13-.09.21-.27.23a.69.69,0,0,0-.43.23A9.88,9.88,0,0,1,36.81,69v.08l.08.06a6.79,6.79,0,0,1,1.33,1.76,7.26,7.26,0,0,1,.47,1.29c0,.12-.07.18-.2.2l-.82.12c-.16,0-.21-.06-.16-.2a4.48,4.48,0,0,0-.86-1.86,4.89,4.89,0,0,0-1.25-1.29c0-.05-.07-.08-.08-.08a.11.11,0,0,1,0-.08,8.21,8.21,0,0,0,.84-1.37,11,11,0,0,0,.68-1.84C36.93,65.6,37,65.52,37.12,65.52Zm-.78,8h8.75c.1,0,.16.08.16.23v.63c0,.21-.05.31-.16.31H41.42v4.47h4.38c.1,0,.16.07.16.21V80c0,.21-.05.31-.16.31H35.5c-.12,0-.18-.1-.18-.31v-.62c0-.14.06-.21.18-.21H40V74.66H36.34c-.1,0-.16-.1-.16-.31v-.62C36.19,73.56,36.24,73.49,36.34,73.49Zm-.55-9.84h9.84c.1,0,.16.08.16.23v.63c0,.22-.05.33-.16.33H35.79c-.1,0-.16-.11-.16-.33v-.62C35.64,63.72,35.69,63.64,35.79,63.64Zm4.77,2.05,1.37.57a.22.22,0,0,1,.12.21c0,.12-.09.18-.27.2a.78.78,0,0,0-.43.25,9.35,9.35,0,0,1-1.17,2V69l.06.06a6.49,6.49,0,0,1,1.29,1.72A7.94,7.94,0,0,1,42,72c0,.1-.07.16-.2.18l-.82.16c-.16,0-.21-.08-.16-.23A4.22,4.22,0,0,0,40,70.3a5,5,0,0,0-1.21-1.25c0-.05-.07-.08-.08-.08a.13.13,0,0,1,0-.1,7.42,7.42,0,0,0,.88-1.25,9.57,9.57,0,0,0,.72-1.72Q40.38,65.69,40.56,65.69Zm3.28-.18,1.39.59a.24.24,0,0,1,.1.2c0,.13-.09.21-.27.23a.69.69,0,0,0-.43.23,10.45,10.45,0,0,1-1,2.21v.08l.06.06a6.47,6.47,0,0,1,1.17,1.68A7.57,7.57,0,0,1,45.25,72c0,.1-.07.16-.2.18l-.82.16c-.14,0-.2-.08-.16-.23a4.19,4.19,0,0,0-.74-1.74,5.2,5.2,0,0,0-1.13-1.25s-.05-.06-.08-.06,0-.05.06-.08a10.92,10.92,0,0,0,1.43-3.2C43.65,65.6,43.72,65.52,43.84,65.52Z"/><path class="cls-6" d="M52.59,62.63l1.43.53c.14.1.21.19.21.25a.31.31,0,0,1-.23.31.42.42,0,0,0-.45.37q-.29,1-.59,1.74h4.16a.44.44,0,0,1,.35.14,1.87,1.87,0,0,1,.43.66,37.71,37.71,0,0,1-1.11,4.43,24,24,0,0,1-1.29,3.28,12.56,12.56,0,0,1-1.66,2.52,11.54,11.54,0,0,1-2.48,2.27A8.89,8.89,0,0,1,49,80.36a.46.46,0,0,1-.41-.18l-.47-.7a.39.39,0,0,1-.12-.21.18.18,0,0,1,.12-.2,13.37,13.37,0,0,0,1.76-.8,8.52,8.52,0,0,0,2.7-2.21,12.34,12.34,0,0,0,1-1.37,16.75,16.75,0,0,0-2.6-2q-.12-.06-.12-.12a4.58,4.58,0,0,1,.68-.92.37.37,0,0,1,.25-.16,24.09,24.09,0,0,1,2.52,1.89l.06-.1a18,18,0,0,0,1.19-3.2,31.21,31.21,0,0,0,.68-3.07H52.51q-.22.51-.41.88a31,31,0,0,1-1.46,2.77,15.72,15.72,0,0,1-1.72,2.05,1.11,1.11,0,0,1-.45-.08,7.74,7.74,0,0,0-.82-.31c-.09-.05-.14-.1-.14-.16a.26.26,0,0,1,.12-.23,13.59,13.59,0,0,0,2.54-3.3,12.33,12.33,0,0,0,1.13-2.4,22.25,22.25,0,0,0,1.07-3.44C52.44,62.7,52.51,62.63,52.59,62.63Zm8.2.16q1.48,0,1.48.23c0,.18-.07.29-.2.31s-.2.14-.2.39v5a40.15,40.15,0,0,1,3.95,4.36.45.45,0,0,1,.2.35c0,.07,0,.12-.14.16q-.72.7-.88.7a.33.33,0,0,1-.25-.14,30.14,30.14,0,0,0-2.87-3.34v9.9c0,.14-.1.21-.31.21h-.78q-.29,0-.29-.21V63Q60.5,62.78,60.79,62.78Z"/><path class="cls-6" d="M75.25,64.13a8.86,8.86,0,0,1-2.5,1.07v2.73h2.89q.23,0,.23.33v.61q0,.31-.23.31H73a13.54,13.54,0,0,0,1.29,2.29,11.75,11.75,0,0,0,1.88,2,.36.36,0,0,1-.14.31q-.29.27-.8.7a.21.21,0,0,1-.14-.08A7.1,7.1,0,0,1,73.92,73q-.53-.8-1.17-2v9.61c0,.14-.1.21-.31.21h-.78c-.21,0-.31-.07-.31-.21v-8.4a17,17,0,0,1-1.15,2,12.25,12.25,0,0,1-1.58,2,.46.46,0,0,1-.33-.1l-.9-.41c-.12,0-.18,0-.18-.1a13.89,13.89,0,0,0,2-2.32,10.83,10.83,0,0,0,1.15-2.09,12.08,12.08,0,0,0,.76-2H67.9q-.23,0-.23-.31v-.61q0-.33.23-.33h3.44v-2.4a14.91,14.91,0,0,1-3,.29.32.32,0,0,1-.33-.25,4.41,4.41,0,0,0-.45-.74q0-.33.23-.33a17.33,17.33,0,0,0,3.69-.27,6.11,6.11,0,0,0,3-1.35.59.59,0,0,1,.31-.1.43.43,0,0,1,.27.16A5.81,5.81,0,0,1,76,64c0,.14-.05.21-.16.21Zm10.31,8.5c.16,0,.23.1.23.31v.78c0,.22-.08.33-.23.33l-1.87.49v6.07c0,.14-.1.21-.31.21h-.78c-.21,0-.31-.07-.31-.21v-5.7l-5.86,1.56c-.16,0-.23-.11-.23-.33v-.78c0-.21.08-.31.23-.31l5.86-1.54V63c0-.16.1-.23.31-.23q1.48,0,1.48.23c0,.18-.07.29-.2.31s-.2.14-.2.39v9.41Zm-7.89-3.44a19.9,19.9,0,0,1,1.84,1.07q.84.63,1.45,1.11a.86.86,0,0,1-.1.18q-.59.86-.61.86a15.15,15.15,0,0,0-2-1.45,7.83,7.83,0,0,0-1.41-.76,4.22,4.22,0,0,1,.63-.88C77.57,69.23,77.62,69.19,77.67,69.19Zm.39-5.14a15.51,15.51,0,0,1,1.8,1.17q.84.68,1.41,1.25a.66.66,0,0,1-.1.16,6.52,6.52,0,0,1-.61.84,17.18,17.18,0,0,0-1.91-1.58A9.11,9.11,0,0,0,77.28,65a4.26,4.26,0,0,1,.61-.88Q78,64.05,78.06,64.05Z"/><rect class="cls-1" x="47.5" y="110.2" width="88.23" height="31.89" rx="3.93" ry="3.93"/><rect class="cls-17" x="44.31" y="107.01" width="88.23" height="31.89" rx="3.93" ry="3.93"/><path class="cls-6" d="M61.79,114.92h4.45q.39,0,.39.29v15.1a1.72,1.72,0,0,1-.78,1.48,5.85,5.85,0,0,1-2,.55c-.14,0-.23-.08-.25-.25a3.55,3.55,0,0,0-.45-1.25c0-.07.05-.1.16-.1a2.86,2.86,0,0,0,1.6-.25.87.87,0,0,0,.27-.72v-4.24H62.79a28.58,28.58,0,0,1-.47,3.26,17.24,17.24,0,0,1-.92,3.3.3.3,0,0,1-.23-.12,5.45,5.45,0,0,0-.86-.47.28.28,0,0,1-.16-.27,21.71,21.71,0,0,0,.86-2.75,19.83,19.83,0,0,0,.43-3.26q0-1.7,0-4.37v-5.62Q61.48,114.92,61.79,114.92Zm1.05,9.36h2.38v-3.44H62.89q0,1.68,0,3.34Zm0-4.69h2.34v-3.44H62.89Zm4.84,3.28H78.59c.1,0,.16.08.16.25v.61c0,.22-.05.33-.16.33H71.77a7,7,0,0,1-.62,1l-.14.2H78.2q.31,0,.31.33,0,2.36-.12,3.59a10.48,10.48,0,0,1-.51,2.09,2,2,0,0,1-.7,1,2.92,2.92,0,0,1-1.48.25,10.52,10.52,0,0,1-1.45-.1q-.31,0-.31-.16a5.45,5.45,0,0,0-.35-1.07V131a11.79,11.79,0,0,0,2,.23,1.12,1.12,0,0,0,.68-.16,1.18,1.18,0,0,0,.35-.57,9,9,0,0,0,.31-1.45,24.59,24.59,0,0,0,.12-2.58h-.92A28.69,28.69,0,0,1,74.39,129a18.3,18.3,0,0,1-1.82,1.93,18.08,18.08,0,0,1-2.27,1.62.42.42,0,0,1-.31-.12q-.37-.37-.72-.68a.59.59,0,0,1-.06-.2A11.36,11.36,0,0,0,71,130.46,11.69,11.69,0,0,0,73,128.57a23.15,23.15,0,0,0,1.56-2.09H73.41A21.05,21.05,0,0,1,72,128.16a13.28,13.28,0,0,1-3.4,2.46.37.37,0,0,1-.29-.14l-.66-.62a.59.59,0,0,1-.06-.2A12,12,0,0,0,69,129a10,10,0,0,0,1.76-1.29q.41-.39,1.13-1.19H70.09a11.74,11.74,0,0,1-1.11,1A4.13,4.13,0,0,1,68,128q-.12,0-.23-.23-.27-.33-.62-.7c-.1-.1-.16-.18-.16-.23a9.11,9.11,0,0,0,1.52-.82,6.23,6.23,0,0,0,1.25-1.13q.25-.33.59-.84H67.73c-.1,0-.16-.11-.16-.33v-.61C67.57,123,67.63,122.87,67.73,122.87ZM69.14,115h8c.21,0,.31.08.31.23v6.17c0,.16-.1.23-.31.23h-8q-.31,0-.31-.23v-6.17Q68.82,115,69.14,115Zm1.09,2.73H76v-1.56H70.23ZM76,120.44v-1.56H70.23v1.56Z"/><path class="cls-6" d="M82.34,114.66H96.72c.21,0,.31.08.31.25v6.23c0,.16-.1.23-.31.23H82.34q-.31,0-.31-.23v-6.23C82,114.75,82.13,114.66,82.34,114.66Zm1.25,8h12q.39,0,.39.23v8.55q0,.53-.8.84a10.27,10.27,0,0,1-2,.29.23.23,0,0,1-.25-.21,3.53,3.53,0,0,0-.45-1.27s.06-.06.18-.06a7.27,7.27,0,0,0,1.64-.1.4.4,0,0,0,.29-.39v-1.41H84.68v3c0,.17-.1.25-.31.25h-.78c-.2,0-.29-.08-.29-.25v-9.3Q83.3,122.63,83.59,122.63Zm-.16-5.08h5.16v-1.72H83.43Zm5.16,2.66v-1.48H83.43v1.48Zm-3.91,5.23h9.84V123.8H84.68Zm0,2.5h9.84v-1.33H84.68ZM90,115.83v1.72h5.63v-1.72Zm5.63,4.38v-1.48H90v1.48Z"/><path class="cls-6" d="M108,115.78a8.87,8.87,0,0,1-2.5,1.07v2.73h2.89q.23,0,.23.33v.61q0,.31-.23.31h-2.62a13.54,13.54,0,0,0,1.29,2.29,11.75,11.75,0,0,0,1.88,2,.36.36,0,0,1-.14.31q-.29.27-.8.7a.21.21,0,0,1-.14-.08,7.08,7.08,0,0,1-1.19-1.39q-.53-.8-1.17-2v9.61c0,.14-.1.21-.31.21h-.78q-.31,0-.31-.21v-8.4a17.09,17.09,0,0,1-1.15,2,12.25,12.25,0,0,1-1.58,2,.46.46,0,0,1-.33-.1l-.9-.41c-.12,0-.18,0-.18-.1a13.89,13.89,0,0,0,2-2.32,10.86,10.86,0,0,0,1.15-2.09,12.08,12.08,0,0,0,.76-2H100.7q-.23,0-.23-.31v-.61q0-.33.23-.33h3.44v-2.4a14.91,14.91,0,0,1-3,.29.32.32,0,0,1-.33-.25,4.45,4.45,0,0,0-.45-.74q0-.33.23-.33a17.33,17.33,0,0,0,3.69-.27,6.12,6.12,0,0,0,3-1.35.59.59,0,0,1,.31-.1.43.43,0,0,1,.27.16,5.81,5.81,0,0,1,.82,1c0,.14-.05.21-.16.21Zm10.31,8.5c.16,0,.23.1.23.31v.78c0,.22-.08.33-.23.33l-1.87.49v6.07c0,.14-.1.21-.31.21h-.78q-.31,0-.31-.21v-5.7l-5.86,1.56c-.16,0-.23-.11-.23-.33V127c0-.21.08-.31.23-.31l5.86-1.54V114.66q0-.23.31-.23,1.48,0,1.48.23c0,.18-.07.29-.2.31s-.2.14-.2.39v9.41Zm-7.89-3.44a20,20,0,0,1,1.84,1.07q.84.63,1.45,1.11a.89.89,0,0,1-.1.18q-.59.86-.61.86a15.19,15.19,0,0,0-2-1.45,7.86,7.86,0,0,0-1.41-.76,4.22,4.22,0,0,1,.63-.88C110.36,120.88,110.41,120.83,110.47,120.83Zm.39-5.14a15.56,15.56,0,0,1,1.8,1.17q.84.68,1.41,1.25a.68.68,0,0,1-.1.16,6.58,6.58,0,0,1-.61.84,17.23,17.23,0,0,0-1.91-1.58,9.11,9.11,0,0,0-1.37-.84,4.23,4.23,0,0,1,.61-.88Q110.8,115.7,110.86,115.7Z"/><rect class="cls-1" x="318.19" y="119.77" width="88.23" height="31.89" rx="3.93" ry="3.93"/><rect class="cls-17" x="315" y="116.58" width="88.23" height="31.89" rx="3.93" ry="3.93"/><path class="cls-6" d="M332,130.2l1.31.55q.33.14.33.31a.54.54,0,0,1-.23.49q-.33,0-.43.49a35.48,35.48,0,0,1-1.76,5.68q-.2.47-.31.47a.67.67,0,0,1-.37-.16q-.45-.21-.86-.37-.18-.08-.18-.12a.88.88,0,0,1,.1-.31,22.51,22.51,0,0,0,1.27-3.07,19.77,19.77,0,0,0,.92-3.44Q331.9,130.2,332,130.2Zm3.36-2,1.46.16c.17,0,.25.07.25.14s0,.21-.14.23-.18.1-.18.25v9.75q0,.94,1.09.94h3.75q1.64,0,2-.55a11.75,11.75,0,0,0,1-3.52,2.41,2.41,0,0,0,.88.8q.29.12.29.29-.8,3.3-1.23,3.63a1.93,1.93,0,0,1-1.82.74h-5q-2.42,0-2.42-1.48V128.41C335.3,128.26,335.33,128.19,335.38,128.19Zm.94-4.47a.9.9,0,0,1,.35.12,31.54,31.54,0,0,1,4.65,2.64q.23.12.23.29a.27.27,0,0,1-.08.2l-.41.57a.92.92,0,0,1-.37.1.72.72,0,0,1-.41-.21,34.51,34.51,0,0,0-4.34-2.36q-.41-.12-.41-.31a.41.41,0,0,1,.06-.21l.51-.72A.4.4,0,0,1,336.32,123.72ZM343,130a23.49,23.49,0,0,1,2.81,2.05q1.29,1.21,2.19,2.15a.57.57,0,0,1-.12.2,9.29,9.29,0,0,1-.74,1,25.59,25.59,0,0,0-3-2.75,11.88,11.88,0,0,0-2.11-1.46,4.7,4.7,0,0,1,.74-1C342.92,130,343,130,343,130Z"/><path class="cls-6" d="M350.62,124.27h3.59a.35.35,0,0,1,.39.39v15a1.75,1.75,0,0,1-.68,1.46,4.09,4.09,0,0,1-1.66.55.24.24,0,0,1-.25-.23,3.28,3.28,0,0,0-.45-1.19.1.1,0,0,1,.12-.12q1.15,0,1.35-.21a1,1,0,0,0,.25-.74v-4.86h-1.64q-.06,1-.14,1.84a23.24,23.24,0,0,1-.57,3.36,11.78,11.78,0,0,1-.62,1.91.37.37,0,0,1-.2,0,4.67,4.67,0,0,0-.72-.49.34.34,0,0,1-.1-.25,12.72,12.72,0,0,0,.59-2.32,30.72,30.72,0,0,0,.39-3.24q.12-1.8.12-4.34v-6.11C350.38,124.37,350.46,124.27,350.62,124.27Zm1.05,8.75h1.6v-3.11h-1.56v.78Q351.71,131.94,351.67,133Zm0-4.37h1.56v-3.12h-1.56Zm6.88,1.19v4.51q0,1.64-.12,3.13a14.83,14.83,0,0,1-.49,2.68,7.93,7.93,0,0,1-.8,1.7.37.37,0,0,1-.27-.12,3.25,3.25,0,0,0-.66-.43.31.31,0,0,1-.16-.23,6,6,0,0,0,.76-1.52,12.52,12.52,0,0,0,.47-2.15,18.66,18.66,0,0,0,.16-2h-.86q0,1.09-.08,1.6a8.27,8.27,0,0,1-.23,1.39,2.78,2.78,0,0,1-.31.74,2.34,2.34,0,0,1-.45.57l-.7-.76a1.68,1.68,0,0,0,.21-.39,2.14,2.14,0,0,0,.25-.66,8.63,8.63,0,0,0,.18-1.15q0-.49.06-1.33h-.23c-.1,0-.16-.1-.16-.31v-.47c0-.16.05-.23.16-.23h2.19v-1.93H356.4v.29c0,.1-.08.16-.23.16h-.62c-.16,0-.23-.05-.23-.16v-4.14q0-.16.23-.16,1.17,0,1.17.16t-.16.23c-.1,0-.16.12-.16.31v2.29h1.09v-2.6a.21.21,0,0,1,.23-.23H364q0-.45,0-.94a.14.14,0,0,1,.16-.16,4.06,4.06,0,0,1,1.41.23q0,.18-.21.23a.92.92,0,0,0-.18.47v.16h2.58q.16,0,.16.23v.63c0,.22-.05.33-.16.33h-2.56q0,2.73.1,4.38.08,1.27.21,2.3.33-.8.64-1.76a20.53,20.53,0,0,0,.64-2.7q0-.21.18-.21,1.33.49,1.33.64a.24.24,0,0,1-.16.21q-.22,0-.31.27a24.8,24.8,0,0,1-1.05,3.42,18,18,0,0,1-.9,1.88q.16.51.31.92a6.84,6.84,0,0,0,.35.82q.18.27.35.27t.23-.35a8.4,8.4,0,0,0,.25-1.31c0-.09,0-.14.06-.14a.24.24,0,0,1,.21.16,6.93,6.93,0,0,1,.55.53c.06,0,.1.07.1.18a10.71,10.71,0,0,1-.8,2q-.27.45-.53.45a.81.81,0,0,1-.59-.33,3.39,3.39,0,0,1-.8-1.09,5.43,5.43,0,0,1-.41-.92,14.26,14.26,0,0,1-2,2.13.42.42,0,0,1-.23.08.34.34,0,0,1-.29-.21,2.24,2.24,0,0,0-.43-.43.24.24,0,0,1-.14-.21c0-.05,0-.1.12-.14a4.31,4.31,0,0,0,1-.78,9,9,0,0,0,1.48-1.82.06.06,0,0,1,0,0,20.66,20.66,0,0,1-.45-2.71q-.18-1.66-.23-5.45Zm-3-4.92h3.13v-1.27q0-.16.23-.16,1.41,0,1.41.23t-.16.27c-.1,0-.16.13-.16.35v.57h3v-1.27q0-.16.23-.16,1.41,0,1.41.23t-.16.27c-.1,0-.16.13-.16.35v.57h3.36q.16,0,.16.21v.64q0,.29-.16.29h-3.36V127c0,.16-.1.23-.31.23h-.78A.21.21,0,0,1,363,127v-.94h-3v1.09c0,.17-.1.25-.31.25h-.78q-.23,0-.23-.25v-1.09h-3.12c-.1,0-.16-.1-.16-.29v-.64C355.38,125,355.43,124.91,355.54,124.91Zm6.72,8.42H363q.23,0,.23.16v2.81c0,.22-.08.33-.23.33h-.78V138h1.09c.1,0,.16.08.16.25v.61c0,.17-.05.25-.16.25h-3v1.56c0,.09-.07.14-.21.14h-.64c-.16,0-.23,0-.23-.14v-9.63a.21.21,0,0,1,.23-.23h3.83q.16,0,.16.23v.63q0,.23-.16.23h-1Zm-2-1.41v1.41h.86v-1.41Zm0,3.67h1.88v-1.25H360.3Zm0,2.42h.86v-1.39h-.86Zm5.94-11.64a.24.24,0,0,1,.12.06,11.25,11.25,0,0,1,1.45,1.27.19.19,0,0,1,.08.16.28.28,0,0,1,0,.16l-.33.47a.52.52,0,0,1-.25.08s-.08,0-.14-.1a8.58,8.58,0,0,0-1.31-1.15c-.08-.05-.12-.1-.12-.16a.48.48,0,0,1,0-.18l.35-.55A.33.33,0,0,1,366.24,126.37Z"/><path class="cls-6" d="M377.33,125a8.87,8.87,0,0,1-2.5,1.07v2.73h2.89q.23,0,.23.33v.61q0,.31-.23.31h-2.62a13.54,13.54,0,0,0,1.29,2.29,11.75,11.75,0,0,0,1.88,2,.36.36,0,0,1-.14.31q-.29.27-.8.7a.21.21,0,0,1-.14-.08,7.08,7.08,0,0,1-1.19-1.39q-.53-.8-1.17-2v9.61c0,.14-.1.21-.31.21h-.78q-.31,0-.31-.21v-8.4a17.09,17.09,0,0,1-1.15,2,12.25,12.25,0,0,1-1.58,2,.46.46,0,0,1-.33-.1l-.9-.41c-.12,0-.18,0-.18-.1a13.89,13.89,0,0,0,2-2.32,10.86,10.86,0,0,0,1.15-2.09,12.08,12.08,0,0,0,.76-2H370q-.23,0-.23-.31v-.61q0-.33.23-.33h3.44v-2.4a14.91,14.91,0,0,1-3,.29.32.32,0,0,1-.33-.25,4.45,4.45,0,0,0-.45-.74q0-.33.23-.33a17.33,17.33,0,0,0,3.69-.27,6.12,6.12,0,0,0,3-1.35.59.59,0,0,1,.31-.1.43.43,0,0,1,.27.16,5.81,5.81,0,0,1,.82,1c0,.14-.05.21-.16.21Zm10.31,8.5c.16,0,.23.1.23.31v.78c0,.22-.08.33-.23.33l-1.87.49v6.07c0,.14-.1.21-.31.21h-.78q-.31,0-.31-.21v-5.7l-5.86,1.56c-.16,0-.23-.11-.23-.33v-.78c0-.21.08-.31.23-.31l5.86-1.54V123.87q0-.23.31-.23,1.48,0,1.48.23c0,.18-.07.29-.2.31s-.2.14-.2.39V134ZM379.76,130a20,20,0,0,1,1.84,1.07q.84.63,1.45,1.11a.89.89,0,0,1-.1.18q-.59.86-.61.86a15.19,15.19,0,0,0-2-1.45,7.86,7.86,0,0,0-1.41-.76,4.22,4.22,0,0,1,.63-.88C379.65,130.09,379.7,130,379.76,130Zm.39-5.14a15.56,15.56,0,0,1,1.8,1.17q.84.68,1.41,1.25a.68.68,0,0,1-.1.16,6.58,6.58,0,0,1-.61.84,17.23,17.23,0,0,0-1.91-1.58,9.11,9.11,0,0,0-1.37-.84A4.23,4.23,0,0,1,380,125Q380.09,124.91,380.15,124.91Z"/><rect class="cls-1" x="256.2" y="204.95" width="88.23" height="31.89" rx="3.93" ry="3.93"/><rect class="cls-17" x="253.02" y="201.77" width="88.23" height="31.89" rx="3.93" ry="3.93"/><path class="cls-6" d="M270.26,209.88h8q.16,0,.16.21v.64c0,.14-.05.21-.16.21h-3v1.43h2.66c.21,0,.31.07.31.21v2.66q0,.33-.31.33h-2.66v1.23h3q.16,0,.16.23v.63q0,.23-.16.23h-7v.55c0,.16-.1.23-.31.23h-.78q-.31,0-.31-.23v-8.36Q269.95,209.88,270.26,209.88Zm1.09,2.5h2.5V211h-2.5Zm0,2.17H277v-1.17h-5.64Zm0,2.27h2.5v-1.23h-2.5Zm1.17,1.88h11.41q.39,0,.39.25v7.72q0,.47-.9.76a11.88,11.88,0,0,1-2.15.25.23.23,0,0,1-.25-.21,4.13,4.13,0,0,0-.45-1.27s.06-.06.18-.06a9,9,0,0,0,1.84-.1c.22-.05.33-.16.33-.31v-1.41h-9.3v3.07c0,.14-.1.21-.31.21h-.78c-.21,0-.31-.07-.31-.21v-8.44C272.21,218.77,272.32,218.69,272.53,218.69Zm1.09,2.34h9.3v-1.15h-9.3Zm0,2.21h9.3v-1.11h-9.3Zm6.33-13.44h6.33a.47.47,0,0,1,.31.1q.41.41.41.51a18.29,18.29,0,0,1-.88,2.48,10.69,10.69,0,0,1-1,1.84,7.34,7.34,0,0,1-.8.94,6.51,6.51,0,0,0,1.07.64,9,9,0,0,0,2.13.86c.1.05.16.1.16.14a.24.24,0,0,1-.1.2,7.48,7.48,0,0,0-.7.72c-.09.1-.16.16-.21.16a.87.87,0,0,1-.27-.12q-.63-.25-1.37-.61a12,12,0,0,1-1.62-1.07l-.06-.06a9.18,9.18,0,0,1-1.43.86,8,8,0,0,1-1.82.7.4.4,0,0,1-.37-.2q-.22-.31-.47-.64a.34.34,0,0,1-.1-.2c0-.05,0-.09.1-.12a10.87,10.87,0,0,0,1.37-.41,7.88,7.88,0,0,0,1.78-1,4.28,4.28,0,0,1-.33-.45,6.11,6.11,0,0,1-1-1.76,12.94,12.94,0,0,1-.74-2.4h-.43q-.23,0-.23-.29V210Q279.71,209.8,279.95,209.8Zm1.6,1.15a8.06,8.06,0,0,0,.37,1.29,8.36,8.36,0,0,0,.88,1.78,7.15,7.15,0,0,0,.55.7,7.83,7.83,0,0,0,.76-.88,7.07,7.07,0,0,0,.9-1.74q.19-.45.43-1.15Z"/><path class="cls-6" d="M290,210h3.59a.35.35,0,0,1,.39.39v15a1.75,1.75,0,0,1-.68,1.46,4.1,4.1,0,0,1-1.66.55.24.24,0,0,1-.25-.23A3.28,3.28,0,0,0,291,226a.1.1,0,0,1,.12-.12q1.15,0,1.35-.21a1,1,0,0,0,.25-.74V220H291q-.06,1-.14,1.84a23.25,23.25,0,0,1-.57,3.36,11.78,11.78,0,0,1-.62,1.91.37.37,0,0,1-.2,0,4.64,4.64,0,0,0-.72-.49.34.34,0,0,1-.1-.25,12.72,12.72,0,0,0,.59-2.32,30.73,30.73,0,0,0,.39-3.24q.12-1.8.12-4.34v-6.11C289.79,210.12,289.87,210,290,210Zm1.05,8.75h1.6v-3.11h-1.56v.78Q291.12,217.69,291.08,218.76Zm0-4.37h1.56v-3.12h-1.56Zm6.88,1.19v4.51q0,1.64-.12,3.13a14.83,14.83,0,0,1-.49,2.68,8,8,0,0,1-.8,1.7.37.37,0,0,1-.27-.12,3.25,3.25,0,0,0-.66-.43.31.31,0,0,1-.16-.23,6,6,0,0,0,.76-1.52,12.52,12.52,0,0,0,.47-2.15,18.67,18.67,0,0,0,.16-2H296q0,1.09-.08,1.6a8.28,8.28,0,0,1-.23,1.39,2.79,2.79,0,0,1-.31.74,2.35,2.35,0,0,1-.45.57l-.7-.76a1.69,1.69,0,0,0,.21-.39,2.14,2.14,0,0,0,.25-.66,8.64,8.64,0,0,0,.18-1.15q0-.49.06-1.33h-.23c-.1,0-.16-.1-.16-.31v-.47c0-.16.05-.23.16-.23h2.19v-1.93h-1.09v.29c0,.1-.08.16-.23.16h-.62c-.16,0-.23-.05-.23-.16v-4.14q0-.16.23-.16,1.17,0,1.17.16t-.16.23c-.1,0-.16.12-.16.31v2.29h1.09v-2.6a.21.21,0,0,1,.23-.23h6.27q0-.45,0-.94a.14.14,0,0,1,.16-.16,4.06,4.06,0,0,1,1.41.23q0,.18-.21.23a.92.92,0,0,0-.18.47v.16h2.58q.16,0,.16.23v.63c0,.22-.05.33-.16.33h-2.56q0,2.73.1,4.38.08,1.27.21,2.3.33-.8.64-1.76a20.53,20.53,0,0,0,.64-2.7q0-.21.18-.21,1.33.49,1.33.64a.24.24,0,0,1-.16.21q-.22,0-.31.27a24.8,24.8,0,0,1-1.05,3.42,18,18,0,0,1-.9,1.88q.16.51.31.92a6.84,6.84,0,0,0,.35.82c.12.18.23.27.35.27s.17-.12.23-.35a8.4,8.4,0,0,0,.25-1.31c0-.09,0-.14.06-.14a.24.24,0,0,1,.21.16,6.93,6.93,0,0,1,.55.53c.06,0,.1.07.1.18a10.72,10.72,0,0,1-.8,2c-.18.3-.36.45-.53.45a.81.81,0,0,1-.59-.33,3.39,3.39,0,0,1-.8-1.09,5.44,5.44,0,0,1-.41-.92,14.26,14.26,0,0,1-2,2.13.42.42,0,0,1-.23.08.34.34,0,0,1-.29-.21,2.22,2.22,0,0,0-.43-.43.24.24,0,0,1-.14-.21c0-.05,0-.1.12-.14a4.32,4.32,0,0,0,1-.78,9,9,0,0,0,1.48-1.82.06.06,0,0,1,0,0,20.68,20.68,0,0,1-.45-2.72q-.18-1.66-.23-5.45Zm-3-4.92h3.13v-1.27q0-.16.23-.16,1.41,0,1.41.23t-.16.27c-.1,0-.16.13-.16.35v.57h3v-1.27q0-.16.23-.16,1.41,0,1.41.23t-.16.27c-.1,0-.16.13-.16.35v.57h3.36q.16,0,.16.21v.64q0,.29-.16.29h-3.36v.94c0,.16-.1.23-.31.23h-.78a.21.21,0,0,1-.23-.23v-.94h-3v1.09c0,.17-.1.25-.31.25h-.78q-.23,0-.23-.25v-1.09h-3.12c-.1,0-.16-.1-.16-.29v-.64C294.79,210.73,294.84,210.66,294.95,210.66Zm6.72,8.42h.78q.23,0,.23.16V222q0,.33-.23.33h-.78v1.39h1.09c.1,0,.16.08.16.25v.61c0,.17-.05.25-.16.25h-3v1.56c0,.09-.07.14-.21.14h-.64c-.16,0-.23,0-.23-.14v-9.63a.21.21,0,0,1,.23-.23h3.83q.16,0,.16.23v.63q0,.23-.16.23h-1Zm-2-1.41v1.41h.86v-1.41Zm0,3.67h1.88v-1.25h-1.87Zm0,2.42h.86v-1.39h-.86Zm5.94-11.64a.24.24,0,0,1,.12.06,11.25,11.25,0,0,1,1.45,1.27.19.19,0,0,1,.08.16.28.28,0,0,1,0,.16l-.33.47a.52.52,0,0,1-.25.08s-.08,0-.14-.1a8.58,8.58,0,0,0-1.31-1.15c-.08-.05-.12-.1-.12-.16a.48.48,0,0,1,0-.18l.35-.55A.33.33,0,0,1,305.65,212.12Z"/><path class="cls-6" d="M316.74,210.74a8.87,8.87,0,0,1-2.5,1.07v2.73h2.89q.23,0,.23.33v.61q0,.31-.23.31h-2.62a13.54,13.54,0,0,0,1.29,2.29,11.75,11.75,0,0,0,1.88,2,.36.36,0,0,1-.14.31q-.29.27-.8.7a.21.21,0,0,1-.14-.08,7.08,7.08,0,0,1-1.19-1.39q-.53-.8-1.17-2v9.61c0,.14-.1.21-.31.21h-.78c-.21,0-.31-.07-.31-.21v-8.4a17.09,17.09,0,0,1-1.15,2,12.27,12.27,0,0,1-1.58,2,.46.46,0,0,1-.33-.1l-.9-.41c-.12,0-.18,0-.18-.1a13.89,13.89,0,0,0,2-2.32,10.86,10.86,0,0,0,1.15-2.09,12.08,12.08,0,0,0,.76-2H309.4q-.23,0-.23-.31v-.61q0-.33.23-.33h3.44v-2.4a14.91,14.91,0,0,1-3,.29.32.32,0,0,1-.33-.25,4.45,4.45,0,0,0-.45-.74q0-.33.23-.33a17.33,17.33,0,0,0,3.69-.27,6.12,6.12,0,0,0,3-1.35.59.59,0,0,1,.31-.1.43.43,0,0,1,.27.16,5.81,5.81,0,0,1,.82,1c0,.14-.05.21-.16.21Zm10.31,8.5c.16,0,.23.1.23.31v.78c0,.22-.08.33-.23.33l-1.87.49v6.07c0,.14-.1.21-.31.21h-.78c-.21,0-.31-.07-.31-.21v-5.7l-5.86,1.56c-.16,0-.23-.11-.23-.33V222c0-.21.08-.31.23-.31l5.86-1.54V209.62q0-.23.31-.23,1.48,0,1.48.23c0,.18-.07.29-.2.31s-.2.14-.2.39v9.41Zm-7.89-3.44a20,20,0,0,1,1.84,1.07q.84.63,1.45,1.11a.89.89,0,0,1-.1.18q-.59.86-.61.86a15.19,15.19,0,0,0-2-1.45,7.86,7.86,0,0,0-1.41-.76,4.22,4.22,0,0,1,.63-.88C319.06,215.84,319.11,215.79,319.17,215.79Zm.39-5.14a15.56,15.56,0,0,1,1.8,1.17q.84.68,1.41,1.25a.68.68,0,0,1-.1.16,6.58,6.58,0,0,1-.61.84,17.23,17.23,0,0,0-1.91-1.58,9.11,9.11,0,0,0-1.37-.84,4.23,4.23,0,0,1,.61-.88Q319.5,210.66,319.56,210.66Z"/><path class="cls-18" d="M282.81,184.86a1.5,1.5,0,0,1-.82-1.1c0-.24-.09-.47-.13-.7-.27-1.4-.61-3.14.93-4.68l3.82-3.84c1.66-1.66,3.15-3.31,3.3-5.15a3.66,3.66,0,1,0-7.3.26,1.5,1.5,0,1,1-3,.45,6.66,6.66,0,1,1,13.25-.48c-.24,3.1-2.6,5.47-4.16,7l-3.82,3.84c-.36.36-.37.64-.11,2,0,.25.1.52.14.79a1.5,1.5,0,0,1-2.14,1.59Z"/><path class="cls-18" d="M282.41,192.79a2.43,2.43,0,0,1-.57-.39,1.49,1.49,0,0,1-.44-.72,3.23,3.23,0,0,1-.86-2,2.49,2.49,0,0,1,.26-1.33,2.42,2.42,0,0,1,1.8-1.23,2.72,2.72,0,0,1,1.72-.28,2.85,2.85,0,0,1,1.88,1.25,3.46,3.46,0,0,1-1.75,4.75A2.59,2.59,0,0,1,282.41,192.79Z"/><path class="cls-18" d="M215.33,21.46a1.5,1.5,0,0,1-.59-1.24c0-.24,0-.48,0-.71,0-1.43,0-3.2,1.82-4.42l4.49-3c1.95-1.31,3.73-2.63,4.23-4.42a3.64,3.64,0,0,0-.53-2.92,3.39,3.39,0,0,0-5.26-.84,3.64,3.64,0,0,0-1.42,2.6,1.5,1.5,0,0,1-3-.14,6.64,6.64,0,0,1,2.52-4.79,6.38,6.38,0,0,1,9.68,1.55,6.64,6.64,0,0,1,.9,5.34c-.84,3-3.61,4.86-5.45,6.1l-4.49,3c-.42.28-.49.55-.49,1.93,0,.26,0,.53,0,.8a1.5,1.5,0,0,1-2.41,1.14Z"/><path class="cls-18" d="M213.41,29.17a2.43,2.43,0,0,1-.48-.49,1.49,1.49,0,0,1-.29-.8,3.23,3.23,0,0,1-.46-2.11,2.49,2.49,0,0,1,.52-1.26,2.42,2.42,0,0,1,2-.85,2.72,2.72,0,0,1,1.74.06,2.85,2.85,0,0,1,1.6,1.59,2.85,2.85,0,0,1-1,3.46,2.92,2.92,0,0,1-1.67.87A2.59,2.59,0,0,1,213.41,29.17Z"/><path class="cls-18" d="M362.35,78.63a1.5,1.5,0,0,1-1.22-.63l-.43-.57c-.86-1.14-1.94-2.55-1.24-4.61l1.74-5.13c.75-2.22,1.37-4.36.68-6.08a3.66,3.66,0,1,0-6.43,3.46A1.5,1.5,0,1,1,353,66.78a6.66,6.66,0,1,1,11.68-6.28c1.15,2.89.08,6.06-.63,8.15l-1.74,5.13c-.16.48-.05.73.78,1.83l.48.64a1.5,1.5,0,0,1-1.22,2.37Z"/><path class="cls-18" d="M365.49,85.92a2.43,2.43,0,0,1-.68-.1,1.49,1.49,0,0,1-.71-.46A3.23,3.23,0,0,1,362.45,84a2.49,2.49,0,0,1-.35-1.31,2.42,2.42,0,0,1,1.07-1.89,2.72,2.72,0,0,1,1.42-1,2.85,2.85,0,0,1,2.24.3,3.46,3.46,0,0,1,.53,5A2.59,2.59,0,0,1,365.49,85.92Z"/><path class="cls-18" d="M27.06,37.9a1.5,1.5,0,0,1-1.1-.82c-.11-.22-.22-.43-.32-.64-.66-1.26-1.48-2.84-.45-4.75l2.57-4.77c1.11-2.06,2.08-4.07,1.69-5.88a3.66,3.66,0,1,0-6.92,2.33,1.5,1.5,0,1,1-2.72,1.27,6.66,6.66,0,1,1,12.57-4.23c.65,3-.94,6-2,7.93l-2.57,4.77c-.24.44-.17.72.47,1.94.12.23.24.47.36.71a1.5,1.5,0,0,1-1.6,2.13Z"/><path class="cls-18" d="M28.93,45.62a2.43,2.43,0,0,1-.65-.21,1.49,1.49,0,0,1-.63-.57,3.23,3.23,0,0,1-1.39-1.65,2.49,2.49,0,0,1-.13-1.35,2.42,2.42,0,0,1,1.37-1.69,2.72,2.72,0,0,1,1.57-.75,2.85,2.85,0,0,1,2.16.67A2.85,2.85,0,0,1,32,43.57a2.92,2.92,0,0,1-1.08,1.54A2.59,2.59,0,0,1,28.93,45.62Z"/></g></svg>