<?xml version="1.0" encoding="utf-8"?>
<!-- Generator: Adobe Illustrator 21.1.0, SVG Export Plug-In . SVG Version: 6.00 Build 0)  -->
<svg version="1.1" id="圖層_1" xmlns="http://www.w3.org/2000/svg" xmlns:xlink="http://www.w3.org/1999/xlink" x="0px" y="0px"
	 viewBox="0 0 580 580" style="enable-background:new 0 0 580 580;" xml:space="preserve">
<style type="text/css">
	.st0{fill:none;}
	.st1{fill:#A2D7DD;}
	.st2{fill:none;stroke:#FFFFFF;stroke-width:5;stroke-linecap:round;stroke-linejoin:round;}
	.st3{fill:#E6E6E6;}
	.st4{fill:#FFFFFF;}
	.st5{fill:#898989;}
	.st6{fill:none;stroke:#FFFFFF;stroke-width:3;stroke-linecap:round;stroke-linejoin:round;}
	.st7{fill:#4E2C4A;}
	.st8{fill:#D3B8A2;}
	.st9{fill:#FDEDDB;}
	.st10{fill:#9FA0A0;}
	.st11{fill:none;stroke:#E6E6E6;stroke-width:2.5;stroke-linecap:round;stroke-linejoin:round;}
	.st12{fill:none;stroke:#FFFFFF;stroke-width:8;stroke-linecap:round;stroke-linejoin:round;}
	.st13{fill:#FFEB27;}
	.st14{fill:#252B55;}
	.st15{fill:#006F83;}
	.st16{fill:#005D73;}
	.st17{fill:#B0BCC1;}
	.st18{fill:#E9473F;}
</style>
<title>card6</title>
<rect class="st0" width="580" height="580"/>
<g>
	<path class="st1" d="M516.6,470.1c18.4,6.4,41.7,18.4,46,38.5c12.1,56.3-85,60.5-122.2,62.6c-82.6,4.6-199-7.2-248-80.6
		c-6.7-10-10.8-22.4-7.6-33.9c3.8-13.5,16.8-23,30.4-28.1c34-12.7,74.3-17,109.7-7.7c34.2,9,59.1,39.4,95.2,43.3
		C452,467.6,485.9,459.5,516.6,470.1z"/>
	<line class="st2" x1="259.4" y1="408.1" x2="244.4" y2="464.1"/>
	<polyline class="st2" points="355.7,402.8 355.7,464.3 341.9,468.3 	"/>
	<ellipse class="st2" cx="341.9" cy="468.6" rx="9.2" ry="17"/>
	<ellipse class="st3" cx="341.9" cy="467.5" rx="3.3" ry="6.2"/>
	<path class="st4" d="M304.9,471.5l33-2.5c1.7-0.2,3-1.7,2.8-3.5l0.1-1.7l-8.6-2.1l-38.3-1.5l0.2,2.4c0.1,1.3,0.7,2.5,1.7,3.3
		l5.7,4.6C302.5,471.2,303.7,471.6,304.9,471.5z"/>
	<path class="st3" d="M303.3,467.1l36.8-2.8c0.4,0,0.7-0.4,0.7-0.8c0-0.2-0.1-0.4-0.3-0.5l-7-5.3c-0.4-0.3-0.9-0.5-1.5-0.4
		l-37.5,2.9c-0.4,0-0.8,0.4-0.7,0.9c0,0.2,0.1,0.4,0.3,0.6l6.4,4.9C301.3,466.9,302.3,467.2,303.3,467.1z"/>
	<path class="st4" d="M255.6,470.1l33-2.5c1.7-0.2,2.9-1.7,2.8-3.5l0.1-1.7l-8.6-2.1l-38.3-1.5l0.2,2.4c0.1,1.3,0.7,2.5,1.7,3.3
		l5.7,4.6C253.2,469.9,254.4,470.2,255.6,470.1z"/>
	<path class="st3" d="M254,465.8l36.8-2.8c0.4,0,0.7-0.4,0.7-0.8c0-0.2-0.1-0.4-0.3-0.5l-7-5.3c-0.4-0.3-0.9-0.5-1.5-0.4l-37.5,2.9
		c-0.4,0-0.8,0.4-0.7,0.9c0,0.2,0.1,0.4,0.3,0.6l6.4,4.9C252,465.6,253,465.9,254,465.8z"/>
	<path class="st5" d="M254,457.5c-1.5-3-3.8-5.5-5.1-8.6c-1.2-3.1-1-7.2,1.7-9.1c2.5-1.7,6-0.9,8.7,0.6c5.1,2.8,9.1,7.4,11.1,12.8
		c1.7,4.6,1.9,12.8-4.1,14.3C260.1,469.2,256.3,461.9,254,457.5z"/>
	<path class="st5" d="M314.1,457.5c-1.5-3-3.8-5.5-5.1-8.6c-1.2-3.1-1-7.2,1.7-9.1c2.5-1.7,6-0.9,8.7,0.6c5.1,2.8,9.1,7.4,11.1,12.8
		c1.7,4.6,1.9,12.8-4.1,14.3C320.2,469.2,316.4,461.9,314.1,457.5z"/>
	<ellipse class="st3" cx="393.1" cy="474" rx="4.7" ry="9.3"/>
	<path class="st3" d="M388.1,535.7c15.3,0,27.6-27.7,27.6-61.9s-12.4-61.9-27.6-61.9h-0.2c1.4-0.5,2.9-0.8,4.4-0.8
		c15.4,0,27.9,28.2,27.9,62.9s-12.5,62.9-27.9,62.9c-1.9,0-3.8-0.4-5.5-1.2C387.2,535.7,387.7,535.7,388.1,535.7z"/>
	<ellipse class="st2" cx="389.6" cy="473.8" rx="23.9" ry="59.3"/>
	<ellipse class="st6" cx="389.6" cy="473.8" rx="18.7" ry="53.6"/>
	<path class="st7" d="M269.6,467.8c-3.3,1.8-6.8,0.5-10.3-6c-3.2-6-1.1-14.1-0.8-20.5c0.8-14.1,4.2-41.9,15.6-50.8
		c7-5.5,19.6,7.3,21.7,16.5c1.8,7.9-5.5,16.7-8.5,23.5C284.7,436.9,278.3,463.1,269.6,467.8z"/>
	<path class="st7" d="M329.7,463.3c-3.3,1.8-6.8,0.5-10.3-6c-3.2-6-1.1-14.1-0.8-20.5c0.8-14.1,4.2-41.9,15.6-50.8
		c7-5.5,19.6,7.3,21.7,16.5c1.8,7.9-5.5,16.7-8.5,23.5C344.8,432.5,338.4,458.6,329.7,463.3z"/>
	<polyline class="st2" points="302.3,449.6 302.3,485.1 290.7,485.1 	"/>
	<line class="st2" x1="392.9" y1="439" x2="392.9" y2="474.5"/>
	<polyline class="st2" points="258,400.8 258,462.3 244.2,466.2 	"/>
	<ellipse class="st2" cx="242.9" cy="468" rx="9.2" ry="17"/>
	<ellipse class="st3" cx="242.9" cy="466.9" rx="3.3" ry="6.2"/>
	<polygon class="st4" points="299.4,449.5 401.1,440.6 353.1,400.5 251.4,409.4 	"/>
	<path class="st4" d="M247.9,409.4c0,0.8,0.2,1.7,0.5,2.5c0.4,0.8,1,1.4,1.7,1.9l45.1,36.6c2,2,4.9,2.8,7.7,2.1l97.2-8.6
		c1,0,1.9-0.2,2.8-0.7c1.9-1.2,2-3.8,1.8-6c0.4-3.2-1.1-6.3-3.8-8l-43-34.9c-2-2.2-5-3.2-7.9-2.6l-97.1,8.6c-2.1,0-4,1.5-4.4,3.6
		C248.1,405.7,247.9,407.6,247.9,409.4z M383.5,430.5l-82.8,8.9L269,413.8l82.8-8.9L383.5,430.5z"/>
	<path class="st4" d="M397.5,436.8l-42.1-31.9v-26.6c0-5.7,4.6-10.2,10.2-10.3c2.3,0,4.6,0.8,6.4,2.2l25.4,18.7V436.8z"/>
	<path class="st8" d="M382,319.2c5.7,4.7,7.5,14.4,9,21.2c2.2,10.3,3,20.9,2.6,31.4c-0.2,7.5-1.2,16.8-8.3,21.1
		c-0.5,0.4-1.1,0.6-1.8,0.7c-3,0.1-2.3-3.3-2.5-5.1c-0.3-3.4-0.9-6.7-1.3-10.1c-0.9-6.7-1.8-13.4-2.8-20.2
		c-1.4-10.2-3.6-20.5-3-30.7c0.1-2.7,0.3-9,3.9-9.8C379.4,317.2,380.9,318.3,382,319.2z"/>
	<path class="st7" d="M357.6,423.4c1,5.2-0.2,10.2-5.3,12.8c-9.4,4.9-23.5,4.5-33.6,1.9c-13.1-3.4-23.2-13.8-31.4-24.5
		c-6-7.8-15.4-17.2-17.7-27c-0.8-3.5,0.6-10.1,4.7-11.4c3.5-1.1,8,2,11.2,3.4c11.5,5,23.1,9.9,34.7,14.8c8.9,3.7,20.2,6.2,27.5,12.7
		C352.7,410.6,356.1,416.7,357.6,423.4z"/>
	<path class="st7" d="M380,429.8c-4.8,4.4-11.8,6.6-20.2,6.6c-5.9,0-12.2-0.9-16.4-5c-9.4-9-6-27.6,4.3-34.3
		c5.6-3.7,12.5-5,19.3-5.6c4.2-0.4,8.7-0.4,12.3,1.6c5.6,3.1,7.5,10.2,7.9,16.6C387.7,418.5,385,425.3,380,429.8z"/>
	<path class="st9" d="M338.2,319.5c-21.4,8.9-4,14.1-1.6,15c22.6,8.4,14.3,3,17.7,3.9c3.8,1.1,10.2-7.1,10.2-12.6
		c0-13,1.2-18.2-1.7-28.7c-4-0.5-20.2-3-18.8,0.7C353.2,321.9,340.6,318.5,338.2,319.5z"/>
	<path class="st9" d="M334.7,281.6c0,6.6,0.3,13.6,4,19.1c1.1,1.7,2.7,3.1,4.5,3.9c2.5,0.7,5.2,0.3,7.4-1.3c2.1-1.5,3.9-3.5,5.2-5.7
		c4.1-6.1,6.7-13.1,7.6-20.4c0.5-3,0.1-6.1-0.9-9c-3.8-8.7-13-6.9-19.7-3.4C336,268.2,334.7,274.2,334.7,281.6z"/>
	<path class="st10" d="M336.1,275.5c2.4-0.2,4.7-0.9,7.1-0.5c2.3,0.3,4.8,2.1,4.8,4.5c0,3.6-5.2,6.2-4.1,9.6
		c0.8,2.5,4.8,3.5,4.6,6.1c-0.1,1-0.8,1.9-0.9,2.9c-0.3,2.1,1.9,3.8,4,4.6c4.9,2.1,10.4,2.4,15.5,1c3.5-1.1,7.5-2.3,9.8-5.4
		c3.2-4.3,3.5-10.3,1.7-15.2c1.1-0.5,1.9-5.7,2.1-6.9c0.7-5.9,1-8.6-0.8-14.4c-1.9-6.8-8.2-11.4-15.3-11.1c-1.8,0.1-4,1-5.6-0.1
		c-9.8-6.4-18.9-4.6-25.7,4.4C328.9,260.8,323.6,276.7,336.1,275.5z"/>
	<path class="st3" d="M364.8,307.7c2.1,0.3,0.2,8.3,4.3,8.3c3.4,0,9.1,13.4,9.6,15.7c1.8,8.1-2.6,15.5-1.6,23.8
		c0.7,4.2,0.9,8.5,0.6,12.8c-0.6,5.4-2.8,10.4-5.3,15.2c-2.3,4.5-6.4,7.8-10.8,10.2c-5.6,2.8-11.9,3.6-18,2.4
		c-5.5-0.8-10.6-3.3-14.7-7c-5.7-5.5-7-15.2-7.9-22.7c-1.1-9.1-4.2-13.8-2.2-22.8c1.3-6,2.3-12.2,5.1-17.7
		c1.6-3.2,11.8-7.5,18.2-9.1c3.5-0.9,2.2-8.3,6.5-9C353.4,306.9,361.7,307.3,364.8,307.7z"/>
	<path class="st8" d="M311,341.6c-5.8,10.9-9.9,26-15,39.4c-2.9,7.5,7.5,12.4,15.5,5.6c8.5-7.2,15.9-15.7,22.1-25
		c2.4-3.3,4.2-7,5.5-10.9c1.9-6.7,5.2-22.4-1.6-27c-9.1-6.1-17.6,3.1-21.3,9.9C314.8,336.1,312.4,338.9,311,341.6z"/>
	<path class="st8" d="M376.5,315c5.3-1.5,9.7,9.8,11.2,13.2c6.8,15.9,4.5,51.2,3.4,68.6c-0.5,7.6-1.4,17.8-9.9,20.4
		c-12.8,4.2-26.1,6.7-39.5,7.6c-10.4,0.6-22.3-7.5-31-13.8c-5.3-3.8-9.4-1.4-14.4-5.5c-1-0.7-1.9-1.6-2.6-2.6
		c-3.4-5.5,2.5-19.7,6.6-23.7c3.4-3.4,7.5-3.5,8.8-8.8c1.9-7.7,3.5-15.6,6.4-23c3.1-7.9,7.5-26.5,15.8-29.2
		C341,315,349.6,322.5,376.5,315z"/>
	<path class="st4" d="M303.5,438.3l-42.1-31.9v-26.6c0-5.7,4.6-10.2,10.2-10.3c2.3,0,4.6,0.8,6.4,2.2l25.4,18.7V438.3z"/>
	<path class="st9" d="M270.2,367.9c-0.4,0.7-0.9,1.4-1.6,1.9c-0.8,0.4-1.7,0.7-2.6,0.9c-0.9,0.3-1.7,1.1-1.5,2
		c0.3,1.1,1.7,1.2,2.8,1c2.3-0.5,4.5-1.5,6.8-1.9c2.5-0.4,5.2-0.1,7.5,1.1c1.8,0.9,3.5,2.2,5.4,1.9c1.8-0.4,3.3-1.6,4.2-3.3
		c-1.3-1.8-3.2-3.2-4.6-4.9c-0.9-1.2-2.2-2.1-3.6-2.7C278.4,362.1,273.1,363.8,270.2,367.9z"/>
	<path class="st8" d="M305.7,369.2c-3.5-2-7.2-3.6-11.1-4.6c-3.2-1-6.5-1.4-9.8-1.3c-3.3,0.2-6.5,1.7-8.7,4.2
		c-1.1,1.2-1.6,2.8-1.2,4.4c0.3,0.7,0.6,1.6,1.3,1.9c15.8,4.4,2.6,11.5,22.5,13.4c7.1,0.7,11.1,5,16.7-0.3
		C323.1,379.7,311.8,372.8,305.7,369.2z"/>
	<polygon class="st4" points="392.1,398.3 299.1,407.2 299.1,346 392.1,337.1 	"/>
	<polygon class="st3" points="392.1,342.6 299.1,351.5 299.1,346 392.1,337.1 	"/>
	<path class="st2" d="M301,449.6V322.3c0-3.5,2.8-6.3,6.3-6.3c1.4,0,2.8,0.5,3.9,1.3l7.2,5.6"/>
	<path class="st11" d="M302.1,449.6V322.3c0-5.2,6.2-6.4,10.3-3.2"/>
	<ellipse class="st3" cx="290.7" cy="485.1" rx="4.7" ry="9.3"/>
	<path class="st3" d="M285.7,546.9c15.3,0,27.6-27.7,27.6-61.9S300.9,423,285.7,423h-0.2c1.4-0.5,2.9-0.8,4.4-0.8
		c15.4,0,27.9,28.2,27.9,62.9S305.4,548,289.9,548c-1.9,0-3.8-0.4-5.5-1.2C284.9,546.8,285.3,546.9,285.7,546.9z"/>
	<ellipse class="st2" cx="287.2" cy="484.9" rx="23.9" ry="59.3"/>
	<ellipse class="st6" cx="287.2" cy="484.9" rx="18.7" ry="53.6"/>
	<path class="st2" d="M394,443.7V316.4c0-3.5,2.8-6.3,6.3-6.3c1.4,0,2.8,0.5,3.9,1.3l7.2,5.6"/>
	<path class="st12" d="M311.9,317.9l6.4,5"/>
	<path class="st11" d="M396.6,430.9l-0.6-114.6c0-5.2,4.7-6.7,8.7-2"/>
	<path class="st12" d="M405,312l6.4,5"/>
	<path class="st13" d="M531.5,299.9c2.8,5.2,5.2,13.7,4.5,19.7c-1,8.6-11.7,1.1-15.1-1.4c-8.4-6.1-14.2-14-20.5-22
		c-5.3-6.8-15.8-17.8-14.3-27.1c0.7-4.3,2.1-11.6,6.6-13.5c5.5-2.3,13,5.9,16.5,9.1C519.6,274.1,524.7,287.4,531.5,299.9z"/>
	<path class="st13" d="M535.5,319.8c-1.4,7.9-5.5,15-10.5,21.2c-3.9,4.9-10,13.7-15.7,16.5c-6.8,3.3-6.7-7.9-4.9-11.5
		c6.9-13.9,14.8-30.6,26.8-40.9c0.3-0.4,0.8-0.6,1.3-0.7c0.8,0,1.3,0.8,1.7,1.5C536,310.4,536.5,315.2,535.5,319.8z"/>
	<path class="st14" d="M481.1,534.7l0.1,0.2c2.1,3,7.9,2.9,9.8,6.3c2.2,4,4.5,5.6,6.5,6.2c6.5,2.1,12-0.5,11-9.6
		c-0.1-1.2-0.4-3.1-1.6-3.5c-2.1-0.8-3.6-2.6-5.3-4.1c-4.6-4.3-11.6-8.8-18.9-5C479.8,526.6,479.3,531.9,481.1,534.7z"/>
	<path class="st14" d="M448.2,533.3c1.5,2.5,4.4,4.6,6.1,6.5c2.6,3,5.5,6.4,9.5,7.5c6.4,1.7,10.7-4.4,10.1-10.2
		c-0.1-1.3-0.4-3.2-1.7-3.6c-2.4-0.9-4.1-3.3-6.1-4.8c-3.7-2.8-10.4-6.8-15.1-4.2c-2.3,1.3-3.7,3.8-3.6,6.4
		C447.4,531.7,447.7,532.5,448.2,533.3z"/>
	<path class="st9" d="M440.7,237.1c2.4-2,6.1-2.7,8.6-0.1c7.9,8.7-3.7,4.7-5.5,7.9c-2,3.6-2.1,7.3-2.8,9.5c-0.3,1.1-1.4,1.2-2.1,2
		c-0.7,1-1.9,1.4-3,1c-3.1-1.3-3.8-5.5-3.2-7.8C433.8,244.6,436.7,240.2,440.7,237.1z"/>
	<path class="st15" d="M513.7,361.7c3.5,10.6,4.6,22.5,2.9,31.4c-2,10.7-7.6,47.6-7.3,66.5c0.1,6.7,1.7,73.9-3,76.9
		c-5.9,3.8-10.7,2.6-14.6,0.4c-3-1.7-6.9-119-7.9-122.8c-2.6-10.5-8.6-1.7-11.4-12.1c-4-15-2.9-31.3-0.3-46.4
		c0.5-4,1.9-7.7,4.1-11.1c0.9-1.3,9.6-7.8,9.6-7.5c2.9-1.1,3.4-1.2,6.3-0.2C503.1,340.3,509.9,350.4,513.7,361.7z"/>
	<path class="st16" d="M490,403.4c3.3,3.6,3.4,6.1,2.7,13.3c-0.8,7.6-1.5,25.6-1.4,33.2c0.2,11.8,1.3,23.5,2.1,35.3
		c1.2,16.1,3.9,33.5-0.5,49.6c-0.2,0.7-0.7,1.5-1.3,1.3c-0.3-0.1-0.6-0.4-0.7-0.8c-3.9-7.9-2-19.9-2.6-28.6c0-13.7-2.1-27.3-2.2-41
		c-0.1-13.3-1.1-33.2-2.6-47.6c-0.4-4.3-5.9-15,0.8-17.1C487,400.4,488.6,402,490,403.4z"/>
	<path class="st15" d="M454.4,363.3c-1.3,9.2-2.3,17.2-2.1,24.1c0.2,9.8,0.5,19.6,1.1,29.3c0.9,16.9,0,35.7,0.8,52.6v0.5v0.4
		c0,0.3,0.3,38,2,56.5c0.3,3.7,0.5,9.2,4.4,11c4.6,2,14.4,2.6,14.7-3.8c0.7-15,8.7-90.5,9.9-104.2c1.9-21.2,14.3-24.2,14-49.3
		c-0.2-17.7-0.1-47.6-25.8-41.7C463.6,340.9,455.7,353.9,454.4,363.3z"/>
	<path class="st9" d="M453.8,198.3c-6.2,5.2-2.1,15.7-2.1,19.8c0,9.6,1.9,23.5,12.3,25.6c4.2,0.8,12.2-9.8,14-13.7
		c1.6-3.8,2.7-7.9,3.4-11.9c0.5-4.6-0.4-9.6-1.4-14.2c-0.2-1.1-0.6-2.1-1.2-3c-1.4-1.8-4.1-2.3-6.1-3.1c-5.4-2.1-12-3.8-17.4-0.6
		C454.9,197.5,454.3,197.8,453.8,198.3z"/>
	<path class="st13" d="M453.8,285.1c-1.2,18.1,1.6,36.2,8,53.1c5.2,13.6,25.7,13.4,37.1,9.4c9-3.2,10.2-33.3,10.2-43.9
		c0.1-11.7-0.3-23.8-4.2-34.9c-3.6-10.1-9.5-19-14.6-28.3c-0.2-0.4-0.5-0.7-0.8-0.9c-0.3-0.1-0.6-0.1-0.8,0c-4.3,0.8-8.4,2.5-12,5
		c-4.2,3.4-7.9,7.5-10.7,12.1C460.7,264.5,454.4,275.6,453.8,285.1z"/>
	<path class="st13" d="M477.8,254.4c0.5,0.3,1,0.6,1.4,1c4.7,4.1,3.2,11.6,1.4,16.6c-9.7,27-32,50.4-59.9,56.9
		c-4.5,1.1-6.2-8.2-5.6-10.9c2.6-11.8,12.6-21.8,20.2-30.7c6.6-7.7,13.5-15.1,20.7-22.3C461.3,260,469.4,249.7,477.8,254.4z"/>
	<path class="st13" d="M438.1,249.5c2.5,2,3.6,5.2,2.8,8.3c-2.7,13.2-5,35.1-8.3,48.1c-1.2,4.5,1.5,1.6-0.7,5.7
		c-3.3,6.3-8.6,11.3-13.9,16c-4-6-6.4-17.1-5.6-31.3c0.5-9.7,9.9-31.4,15.4-39.5C431.5,251.6,435.4,247.5,438.1,249.5z"/>
	<path class="st14" d="M454.6,207.1c2.9,1.6,6,3,9.2,4.2c0.8,0.3,1.6,0.8,2.3,1.4c1.3,1.3,1.5,3.2,1.5,5c0,4.4-1.2,8.8-3.4,12.6
		c-1.1,1.9-2.4,3.8-2.3,6c0.1,2.2,1.8,4.1,3,6c3.5,5.5,3.5,12.4,5.3,18.6c3,10,10.9,17.9,19.5,23.9c3.3,2.3,7,4.4,11.1,4.6
		c5.6,0.2,10.9-3.6,13.5-8.6c2.7-4.9,3.1-10.9,2.6-16.4c-0.9-9.8-4.4-19.1-8.2-28.2c-3.7-8.9-3.9-18.1-7.8-27
		c-4-9.2-9.7-17.8-18.4-23.1s-17.1,3.4-25.3,4.7c-2.2,0.4-5.7,0.8-7.2,2.5C445.7,197.9,450.5,204.5,454.6,207.1z"/>
	<path class="st10" d="M217.2,92.9l1.5-10.6l0,0l0,0l0,0l-0.1-0.1l-0.1-0.1l0,0l-0.2-0.1l-0.2-0.1l-0.1-0.1c-0.3-0.2-0.8-0.2-1,0.1
		c-0.1,0.1-0.1,0.3-0.1,0.4v7.3c0-0.4,0.1-0.8,0.1-1.2c0-0.9-0.1-1.8-0.1-2.6v-1.2h-0.3c0-0.1-0.1-0.2-0.1-0.2l0,0
		c0-0.1,0-0.1-0.1-0.2l0,0c-0.1-0.4-0.2-0.7-0.4-1.1c-0.2-0.5-0.6-1.1-1-0.9l-0.7,0.2c0,0-0.1,0-0.1,0c-0.5,0-0.2-0.8-0.5-0.8l0,0
		c0,0,0-0.3,0-0.5c0.1,0,0.2-0.1,0.3-0.1c0.4-0.1,0.8-0.3,1.1-0.6c0.3-0.5,0.4-1.1,0.2-1.7c0.1,0,0.2-0.6,0.2-0.8
		c0.1-0.5,0.1-1.1-0.1-1.6c-0.2-0.8-1-1.4-1.9-1.3c-0.2,0-0.4,0.1-0.6,0c-0.8-0.7-2-0.5-2.7,0.3c-0.1,0.1-0.1,0.1-0.1,0.2
		c-0.5,0.6-1.1,2.3,0.2,2.3c0,0.2,0,0.4,0,0.7c-0.1,0.7,0.1,1.5,0.4,2.1c0.1,0.2,0.3,0.3,0.5,0.4c0.1,0,0.2,0,0.3,0
		c0,0.1,0.1,0.3,0.1,0.4c-0.3,0.2-0.2,0.8-0.6,0.9l-0.3,0.1c-0.3,0-0.6,0-1,0.1c-0.3,0.1-0.6,0.4-0.7,0.6c-0.3,0.2-0.6,0.5-0.8,0.9
		l0.1-0.7l-0.1,0.3h-0.1v-0.8V83l0.1,0.6h-0.1l-0.2-0.9v-0.2h0.2v-0.2l-0.2,0.1l-0.1,0.1h-0.1l0,0l-0.4-0.2
		c-0.4-0.3-0.9-0.2-1.2,0.2c-0.1,0.1-0.1,0.2-0.1,0.3v2.6l0,0v2.3c0-0.1-0.3-0.1-0.5-0.2c-0.3-0.1-0.7-0.2-1.1-0.1h-0.2
		c-0.5-0.2-1,0-1.3,0.5c0,0.1-0.1,0.2-0.2,0.2c-0.1,0-0.2,0.1-0.3,0.1c-0.1,0-0.3,0.1-0.3,0.2c-0.3,0.2-0.4,0.5-0.5,0.8v2.2
		c-0.3,0-0.5,0.1-0.8,0.1c-0.3,0-0.4,0.1-0.4,0.4c0,0.2,0,0.4,0,0.6c0,0.1,0,0.2,0.1,0.3c0,0.1,0.1,0.2,0.2,0.2l0.7,0.6l-0.5,2.2
		c-0.1,0-0.1,0-0.2,0.1c-0.3,0.3-0.4,0.7-0.2,1c0,0.1,0.1,0.2,0.1,0.2l-0.2,0.8h-0.3h-0.1l0,0c0,0,0,0.1,0,0.1v0.1
		c0,0.1,0,0.2,0.1,0.3c-0.1-0.1-0.2-0.1-0.3-0.1c-0.6,0-1.1,0.8-1.1,1.9s0.5,1.9,1.1,1.9s1-0.8,1-1.9c0-0.1,0-0.3,0-0.4l0.7-0.2
		v-0.5h0.6c-0.1,0.6-0.1,1.1-0.1,1.7c0,3.6,1.2,6.6,2.6,6.6c1.5,0,2.6-2.9,2.6-6.6c0-0.5,0-1.1-0.1-1.5h0.2c0.1,0.5,0.1,1,0.1,1.6
		c0,3.8-1.4,6.9-3.1,6.9h-0.1c0.2,0.1,0.4,0.1,0.6,0.1c1.7,0,3.1-3.1,3.1-7c0-0.5,0-1.1-0.1-1.6l1.7-0.1c0,1,0.5,1.8,1,1.8
		s1-0.8,1-1.9c0-0.1,0-0.2,0-0.3l0.5-0.1v-1.8c0.5,0,0.9,0,1.4-0.1c-0.2,1-0.3,2-0.3,3c0,3.6,1.2,6.6,2.7,6.6c1.5,0,2.7-2.9,2.7-6.6
		c0-2.9-0.7-5.3-1.8-6.2v-0.2c1.2,1,2,3.5,2,6.4c0,3.8-1.4,6.9-3.1,6.9h-0.1c0.2,0.1,0.4,0.1,0.6,0.1c1.7,0,3.1-3.1,3.1-7
		C219.6,96.4,218.6,93.6,217.2,92.9z M207.1,97.3h0.2c0.1,0.2,0.1,0.5,0.2,0.7h-0.2C207.2,97.8,207.1,97.5,207.1,97.3z M210.1,98
		L210.1,98z M202,94c-0.1,0.7-0.2,1.3-0.2,2l0,0v-2.1C201.7,93.8,201.9,93.9,202,94L202,94z M211.3,97.4c-0.1-0.1-0.2-0.1-0.4-0.1
		c-0.2,0-0.4,0.1-0.6,0.3c0.1-0.2,0.2-0.4,0.3-0.6l0.7-0.1L211.3,97.4z"/>
	<path class="st10" d="M207.7,82.5L207.7,82.5L207.7,82.5z"/>
	<path class="st10" d="M207.7,82.5l-0.1-0.1L207.7,82.5z"/>
	<path class="st10" d="M207.9,82.7l0.2,0.1L207.9,82.7z"/>
	<path class="st10" d="M208.1,82.8L208.1,82.8L208.1,82.8z"/>
	<path class="st10" d="M248.2,94.4l1.6-11.9l0,0l0,0h-0.1l-0.1-0.1l-0.2-0.1l0,0l-0.2-0.1l-0.2-0.1l-0.1-0.1c-0.3-0.3-0.8-0.3-1.1,0
		c-0.2,0.2-0.3,0.4-0.2,0.6v8.1c0-0.4,0.1-0.9,0.1-1.3c0-1-0.1-1.9-0.1-2.9v-1.4h-0.4c0-0.1-0.1-0.2-0.1-0.3l0,0
		c0-0.1,0-0.1-0.1-0.2l0,0c-0.1-0.4-0.3-0.8-0.5-1.2c-0.3-0.5-0.7-1.1-1.1-1.1l-0.7,0.2c0,0-0.1-0.1-0.1-0.1c-0.5,0-0.3-1-0.5-1.1
		l0,0c0-0.1,0-0.3,0-0.4l0.3-0.1c0.5-0.1,0.9-0.3,1.2-0.7c0.4-0.5,0.5-1.3,0.2-1.9c0.1-0.1,0.2-0.7,0.3-0.9c0.1-0.6,0.1-1.2-0.1-1.8
		c-0.2-0.8-1-1.4-1.9-1.4c-0.2,0-0.5,0.1-0.7,0c-0.9-0.8-2.3-0.6-3,0.3c-0.1,0.1-0.1,0.2-0.2,0.3c-0.5,0.7-1.2,2.6,0.2,2.6
		c0,0.2-0.1,0.5-0.1,0.7c-0.1,0.8,0.1,1.6,0.5,2.4c0.1,0.2,0.3,0.4,0.6,0.5c0.1,0,0.3,0,0.4,0c0,0.1,0.1,0.3,0.1,0.4
		c-0.3,0.3-0.2,0.9-0.6,1.1l-0.3,0.1c-0.4,0-0.7,0-1.1,0.1c-0.3,0.1-0.6,0.4-0.8,0.7c-0.4,0.3-0.7,0.6-0.9,1l0.2-0.9l-0.1,0.1h-0.3
		v-0.4v0.2l0.1,0.2h-0.1l-0.2-0.9v-0.1h0.1v0.1l-0.2,0.1l-0.1,0.1h-0.1l0,0l-0.4-0.2c-0.4-0.3-0.9-0.2-1.2,0.2
		c-0.1,0.1-0.1,0.3-0.2,0.4v2.9l0,0v2.5c0-0.1-0.4-0.2-0.6-0.2c-0.4-0.1-0.8-0.2-1.2-0.1h-0.3c-0.6-0.2-1.2,0-1.5,0.5
		c0,0.1-0.1,0.2-0.2,0.2c-0.1,0-0.2,0.1-0.3,0.1c-0.1,0-0.5,0.1-0.5,0.2c-0.2,0.2-0.7,0.5-0.7,0.9v2.4c-0.2,0.1-0.5,0.1-0.7,0.1
		c-0.3,0-0.3,0.2-0.4,0.4c0,0.2,0,0.4,0,0.7c0,0.1,0,0.2,0.1,0.3c0.1,0.1,0.1,0.2,0.2,0.2l0.8,0.7l-0.5,2.5c-0.1,0-0.1,0.1-0.2,0.1
		c-0.3,0.3-0.4,0.7-0.2,1.1c0,0.1,0.1,0.2,0.1,0.2l-0.2,0.9h-0.4h-0.1l0,0c0,0,0,0.1,0,0.1v0.1c0,0.1,0.1,0.2,0.1,0.3
		c-0.1-0.1-0.2-0.1-0.4-0.1c-0.6,0-1.1,0.9-1.1,2.1s0.5,2.1,1.1,2.1c0.6,0,1.1-0.9,1.1-2.1c0-0.2-0.1-0.3-0.2-0.5l0.6-0.2v-0.5
		l0.9-0.1c0,0.6,0,1.3,0,1.9c0,4,1.4,7.3,3,7.3s3-3.3,3-7.3c0-0.6,0-1.2-0.1-1.7h0.3c0.1,0.6,0.1,1.2,0.1,1.7c0,4.3-1.5,7.7-3.4,7.7
		h-0.1c0.2,0.1,0.4,0.1,0.7,0.1c1.9,0,3.5-3.5,3.5-7.8c0-0.6,0-1.2-0.1-1.8l1.9-0.1c0,1.1,0.5,2,1.1,2s1.1-0.9,1.1-2.1
		c0-0.1-0.3-0.2-0.3-0.4l0.3-0.2v-2c1.1,0,1.3-0.1,1.9-0.1c-0.2,1.1-0.2,2.2-0.2,3.3c0,4,1.4,7.3,3,7.3c1.6,0,3-3.3,3-7.3
		c0-3.2-0.8-5.9-1.9-6.9v-0.3c1.3,1.1,2.2,3.9,2.2,7.2c0,4.3-1.5,7.7-3.4,7.7h-0.1c0.2,0.1,0.4,0.1,0.7,0.1c1.9,0,3.5-3.5,3.5-7.8
		C250.9,98.3,249.8,95.2,248.2,94.4z M237,99.3h0.2c0.1,0.3,0.1,0.5,0.2,0.8h-0.3C237.1,99.8,237,99.5,237,99.3L237,99.3z
		 M240.4,100.1L240.4,100.1z M231.1,95.6c-0.1,0.8-0.3,1.6-0.3,2.1h-0.1v-2.4C230.6,95.4,231,95.5,231.1,95.6L231.1,95.6z
		 M241.7,99.4c-0.1-0.1-0.3-0.1-0.4-0.1c-0.2,0-0.5,0.1-0.6,0.3c0.1-0.2,0.2-0.4,0.3-0.6l0.8-0.1L241.7,99.4z"/>
	<path class="st10" d="M237.7,82.8L237.7,82.8L237.7,82.8z"/>
	<path class="st10" d="M237.7,82.8l-0.1-0.1L237.7,82.8z"/>
	<path class="st10" d="M237.9,83l0.2,0.2L237.9,83z"/>
	<path class="st10" d="M238.2,83.2L238.2,83.2L238.2,83.2z"/>
	<path class="st10" d="M278.2,109.4l1.6-11.9l0,0l0,0h-0.1l-0.1-0.1l-0.2-0.1l0,0l-0.2-0.1l-0.2-0.1l-0.1-0.1
		c-0.3-0.3-0.8-0.3-1.1,0c-0.2,0.2-0.3,0.4-0.2,0.6v8.1c0-0.4,0.1-0.9,0.1-1.3c0-1-0.1-1.9-0.1-2.9v-1.4h-0.4c0-0.1-0.1-0.2-0.1-0.3
		l0,0c0-0.1,0-0.1-0.1-0.2l0,0c-0.1-0.4-0.3-0.8-0.5-1.2c-0.3-0.5-0.7-1.1-1.1-1.1l-0.7,0.2c0,0-0.1-0.1-0.1-0.1
		c-0.5,0-0.3-1-0.5-1.1l0,0c0-0.1,0-0.3,0-0.4l0.3-0.1c0.5-0.1,0.9-0.3,1.2-0.7c0.4-0.5,0.5-1.3,0.2-1.9c0.1-0.1,0.2-0.7,0.3-0.9
		c0.1-0.6,0.1-1.2-0.1-1.8c-0.2-0.8-1-1.4-1.9-1.4c-0.2,0-0.5,0.1-0.7,0c-0.9-0.8-2.3-0.6-3,0.3c-0.1,0.1-0.1,0.2-0.2,0.3
		c-0.5,0.7-1.2,2.6,0.2,2.6c0,0.2-0.1,0.5-0.1,0.7c-0.1,0.8,0.1,1.6,0.5,2.4c0.1,0.2,0.3,0.4,0.6,0.5c0.1,0,0.3,0,0.4,0
		c0,0.1,0.1,0.3,0.1,0.4c-0.3,0.3-0.2,0.9-0.6,1.1l-0.3,0.1c-0.4,0-0.7,0-1.1,0.1c-0.3,0.1-0.6,0.4-0.8,0.7c-0.4,0.3-0.7,0.6-0.9,1
		l0.2-0.9l-0.1,0.1H268v-0.4v0.2l0.1,0.2h-0.1l-0.2-0.9v-0.1h0.1v0.1l-0.2,0.1l-0.1,0.1h-0.1l0,0l-0.4-0.2c-0.4-0.3-0.9-0.2-1.2,0.2
		c-0.1,0.1-0.1,0.3-0.2,0.4v2.9l0,0v2.5c0-0.1-0.4-0.2-0.6-0.2c-0.4-0.1-0.8-0.2-1.2-0.1h-0.3c-0.6-0.2-1.2,0-1.5,0.5
		c0,0.1-0.1,0.2-0.2,0.2c-0.1,0-0.2,0.1-0.3,0.1c-0.1,0-0.5,0.1-0.5,0.2c-0.2,0.2-0.7,0.5-0.7,0.9v2.4c-0.2,0.1-0.5,0.1-0.7,0.1
		c-0.3,0-0.3,0.2-0.4,0.4c0,0.2,0,0.4,0,0.7c0,0.1,0,0.2,0.1,0.3c0.1,0.1,0.1,0.2,0.2,0.2l0.8,0.7l-0.5,2.5c-0.1,0-0.1,0.1-0.2,0.1
		c-0.3,0.3-0.4,0.7-0.2,1.1c0,0.1,0.1,0.2,0.1,0.2l-0.2,0.9h-0.4h-0.1l0,0c0,0,0,0.1,0,0.1v0.1c0,0.1,0.1,0.2,0.1,0.3
		c-0.1-0.1-0.2-0.1-0.4-0.1c-0.6,0-1.1,0.9-1.1,2.1s0.5,2.1,1.1,2.1s1.1-0.9,1.1-2.1c0-0.2-0.1-0.3-0.2-0.5l0.6-0.2v-0.5l0.9-0.1
		c0,0.6,0,1.3,0,1.9c0,4,1.4,7.3,3,7.3s3-3.3,3-7.3c0-0.6,0-1.2-0.1-1.7h0.3c0.1,0.6,0.1,1.2,0.1,1.7c0,4.3-1.5,7.7-3.4,7.7h-0.1
		c0.2,0.1,0.4,0.1,0.7,0.1c1.9,0,3.5-3.5,3.5-7.8c0-0.6,0-1.2-0.1-1.8l1.9-0.1c0,1.1,0.5,2,1.1,2s1.1-0.9,1.1-2.1
		c0-0.1-0.3-0.2-0.3-0.4l0.3-0.2v-2c1.1,0,1.3-0.1,1.9-0.1c-0.2,1.1-0.2,2.2-0.2,3.3c0,4,1.4,7.3,3,7.3c1.6,0,3-3.3,3-7.3
		c0-3.2-0.8-5.9-1.9-6.9v-0.3c1.3,1.1,2.2,3.9,2.2,7.2c0,4.3-1.5,7.7-3.4,7.7h-0.1c0.2,0.1,0.4,0.1,0.7,0.1c1.9,0,3.5-3.5,3.5-7.8
		C280.9,113.2,279.7,110.1,278.2,109.4z M266.9,114.3h0.2c0.1,0.3,0.1,0.5,0.2,0.8h-0.3C267,114.8,267,114.5,266.9,114.3
		L266.9,114.3z M270.3,115L270.3,115z M261,110.6c-0.1,0.8-0.3,1.6-0.3,2.1h-0.1v-2.4C260.6,110.4,260.9,110.5,261,110.6L261,110.6z
		 M271.6,114.4c-0.1-0.1-0.3-0.1-0.4-0.1c-0.2,0-0.5,0.1-0.6,0.3c0.1-0.2,0.2-0.4,0.3-0.6l0.8-0.1L271.6,114.4z"/>
	<path class="st10" d="M267.7,97.8L267.7,97.8L267.7,97.8z"/>
	<path class="st10" d="M267.6,97.8l-0.1-0.1L267.6,97.8z"/>
	<path class="st10" d="M267.9,98l0.2,0.2L267.9,98z"/>
	<path class="st10" d="M268.1,98.1L268.1,98.1L268.1,98.1z"/>
	<path class="st10" d="M161.2,347.4c-0.3-0.2-0.5-0.5-0.5-0.8l0.6-32.8l3.3,0.9c0.7,0.2,1.4-0.2,1.6-0.9c0.2-0.7-0.2-1.4-0.9-1.6
		l-4-1.1c-0.2-0.1-0.4,0.1-0.6,0.2c-0.2,0.1-0.1,0.1-0.2,0.1H160c-0.5,0-0.9,0.2-0.9,0.7c0,0.5,0,1.2,0,1.5c0,0.5,0,1,0,1.5l-2,0.3
		c-0.5-2.3-2.1-4.9-4.4-4.3c-0.8,0.2-1.5,0.4-2.2,0.5c-0.1-0.1-0.3-0.2-0.4-0.2c-1.5,0-0.8-2.9-1.6-3c0-0.4-0.1-0.8-0.1-1.3
		c0.3-0.1,0.7-0.1,1-0.2c1.4-0.3,2.6-1,3.6-2c1-1.5,1.3-3.4,0.8-5.1c-0.1-0.2-0.1-0.5,0-0.7c0.3-0.7,0.5-1.5,0.6-2.3
		c0.4-1.8,0.3-3.6-0.3-5.3c-0.7-2.5-3-4.2-5.6-4.1c-0.7,0-1.4,0.4-2.1,0c-3.6-2.3-6.9-1.7-9.4,1.6c-1.5,2-3.2,6.9-0.1,7.5
		c0.4,0.1,0.7,0.5,0.7,1c0,0.4,0,0.9,0,1.3c0,2.4,0.1,5,1.5,7c0.4,0.6,1,1.1,1.7,1.4c0.4,0.1,0.7,0.2,1.1,0.1
		c0.1,0.4,0.2,0.9,0.3,1.3c-0.9,0.7-0.7,2.8-1.8,3l-0.9,0.3c-1.1-0.1-2.1,0-3.1,0.3c-1,0.4-1.8,1.2-2.3,2.1l-2.9-0.8
		c-0.2-0.3-0.5-0.4-0.8-0.4l-1.9,0.1c-0.5,0-1.4,0.4-1.4,0.9v14.7c0,0.5-1.2,0.1-1.7,0c-2.2-0.3-4.4-0.4-6.7-0.4
		c-2.1,0-3.5,0.1-4.8,2.1c-0.1,0.3-0.3,0.5-0.5,0.7c-0.3,0.1-0.6,0.2-0.9,0.3c-0.3,0.1-1,0.4-1,0.7c-0.8,0.6-1.4,1.6-1.6,2.7v7.3
		c-0.9,0.2-1.8,0.2-2.7,0.3c-0.8,0.1-1.2,0.5-1.4,1.3c-0.1,0.7-0.1,1.3-0.1,2c0,0.3,0.1,0.6,0.2,0.9c0.2,0.3,0.4,0.5,0.6,0.7l2,1.6
		c0.3,0.2,0.4,0.5,0.3,0.9l-1.4,6.8c-0.2,0.1-0.4,0.1-0.6,0.3c-0.9,0.8-1.2,2.2-0.6,3.3c0.1,0.2,0.2,0.5,0.4,0.7l-0.6,2.7l-1.1,0.1
		h-0.1h-0.1v0.1c-0.1,0.1-0.1,0.3,0,0.4v0.4c0,0.4,0.2,0.7,0.4,1c-0.3-0.2-0.7-0.4-1.1-0.4c-1.9,0-3.4,2.8-3.4,6.2s1.5,6.2,3.4,6.2
		s3.4-2.8,3.4-6.2c0-0.4,0.4-0.7,0.6-1.1c0.1-0.2,0.4-0.4,0.7-0.5l1.8-0.4c0.4-0.1,0.7-0.5,0.7-0.9c0-0.5,0.3-0.8,0.8-0.9l0.7-0.1
		c-0.3,1.9-0.6,3.8-0.7,5.7c0,12,3.7,21.7,8.6,21.7s8.7-9.7,8.7-21.7c0-1.8-0.1-3.5-0.3-5.1l0.8-0.1c0.2,1.7,0.3,3.4,0.3,5.1
		c0,12.5-4.5,22.7-10.1,22.7h-0.5c0.6,0.3,1.3,0.4,2,0.4c5.6,0,10.2-10.3,10.2-23c0-1.5-0.1-3-0.2-4.5c0-0.5,0.3-0.9,0.8-1
		c0,0,0,0,0,0l3.9-0.3c0.5,0,0.9,0.3,1,0.8c0.3,2.9,1.6,5.1,3.3,5.1c1.9,0,3.4-2.8,3.4-6.2c0-0.3,0.6-0.6,0.9-0.8
		c0.1-0.1,0.3-0.3,0.5-0.3l1.2-0.3c0.4-0.1,0.2-0.4,0.2-0.9v-5.3c1-0.2,1.9-0.3,2.9-0.3c0.6,0,1.3,0.5,1.2,1.1
		c-0.7,2.9-1,5.8-1.1,8.7c0,12,3.7,21.7,8.6,21.7s8.7-9.7,8.7-21.7c0-9.4-2.5-17.5-5.9-20.5l0.1-0.8c3.8,3.2,6.5,11.5,6.5,21.2
		c0,12.5-4.5,22.7-10.1,22.7h-0.5c0.6,0.3,1.3,0.4,2,0.4c5.6,0,10.2-10.2,10.2-22.9C168.7,358.9,165.5,350.1,161.2,347.4z
		 M109.7,352.5v-2.3c0,0.1,0.1,0.3,0.2,0.4C109.8,351.2,109.8,351.8,109.7,352.5z M127.9,363.9c-0.2-0.9-0.4-1.7-0.6-2.5l0.7-0.1
		c0.2,0.8,0.4,1.6,0.6,2.5L127.9,363.9z M137.4,363.7L137.4,363.7L137.4,363.7L137.4,363.7z M141.2,361.7c-0.3-0.3-0.8-0.4-1.2-0.4
		c-0.7,0.1-1.4,0.4-1.8,1.1c0.2-0.4,0.4-0.9,0.7-1.4c0.1-0.3,0.4-0.5,0.7-0.5l2-0.2L141.2,361.7z"/>
	<path class="st10" d="M210.3,382.6c-0.3-0.2-0.5-0.5-0.5-0.8l0.6-32.8l3.3,0.9c0.7,0.2,1.4-0.2,1.6-0.9c0.2-0.7-0.2-1.4-0.9-1.6
		l-4-1.1c-0.2-0.1-0.4,0.2-0.6,0.2s-0.1,0.2-0.2,0.2h-0.5c-0.5,0-0.9,0.2-0.9,0.7c0,0.5,0,1.2,0,1.4c0,0.5,0,1,0,1.5l-2,0.3
		c-0.5-2.3-2.1-4.9-4.4-4.3c-0.8,0.2-1.5,0.4-2.2,0.5c-0.1-0.1-0.3-0.2-0.4-0.2c-1.5,0-0.8-2.9-1.6-3c0-0.4-0.1-0.8-0.1-1.3
		c0.3-0.1,0.7-0.1,1-0.2c1.4-0.3,2.6-1,3.6-2c1-1.5,1.3-3.4,0.8-5.1c-0.1-0.2-0.1-0.5,0-0.7c0.3-0.7,0.5-1.5,0.6-2.3
		c0.4-1.8,0.3-3.6-0.3-5.3c-0.7-2.5-3-4.2-5.6-4.1c-0.7,0-1.4,0.4-2.1,0c-3.6-2.3-6.9-1.7-9.4,1.6c-1.5,2-3.2,6.9-0.1,7.5
		c0.4,0.1,0.7,0.5,0.7,1c0,0.4,0,0.9,0,1.3c0,2.4,0.1,5,1.5,7c0.4,0.6,1,1.1,1.7,1.4c0.4,0.1,0.7,0.2,1.1,0.1
		c0.1,0.4,0.2,0.9,0.3,1.3c-0.9,0.7-0.7,2.8-1.8,3l-0.9,0.3c-1.1-0.1-2.1,0-3.1,0.3c-1,0.4-1.8,1.2-2.3,2.1l-2.9-0.8
		c-0.2-0.3-0.5-0.4-0.8-0.4l-1.8,0.1c-0.5,0-1.3,0.4-1.3,0.9v14.7c0,0.5-1.2,0.1-1.7,0c-2.2-0.3-4.4-0.4-6.7-0.4
		c-2.1,0-3.5,0.1-4.8,2.1c-0.1,0.3-0.3,0.5-0.5,0.7c-0.3,0.1-0.6,0.2-0.9,0.3c-0.3,0.1-1,0.4-0.9,0.7c-0.8,0.7-1.3,1.6-1.5,2.7v7.3
		c-0.9,0.1-1.8,0.2-2.8,0.3c-0.8,0.1-1.2,0.5-1.4,1.3c-0.1,0.6-0.1,1.3-0.1,1.9c0,0.3,0.1,0.6,0.2,0.9c0.2,0.3,0.4,0.5,0.6,0.7
		l2,1.6c0.3,0.2,0.4,0.5,0.3,0.9l-1.4,6.8c-0.2,0.1-0.4,0.1-0.6,0.3c-0.9,0.8-1.2,2.2-0.6,3.3c0.1,0.2,0.2,0.5,0.4,0.7l-0.6,2.7
		l-1.1,0.1h-0.1h-0.1v0.1c-0.1,0.1-0.1,0.3,0,0.4v0.4c0,0.4,0.2,0.7,0.4,1c-0.3-0.2-0.7-0.4-1.1-0.4c-1.9,0-3.4,2.8-3.4,6.2
		c0,3.4,1.5,6.2,3.4,6.2c1.9,0,3.4-2.8,3.4-6.2c0-0.4,0.4-0.7,0.6-1.1c0.1-0.2,0.4-0.4,0.7-0.5l1.8-0.4c0.4-0.1,0.7-0.5,0.7-0.9
		c0-0.5,0.3-0.8,0.8-0.9l0.7-0.1c-0.3,1.9-0.6,3.8-0.7,5.7c0,12,3.7,21.7,8.6,21.7s8.7-9.7,8.7-21.7c0-1.8-0.1-3.5-0.3-5.1l0.8-0.1
		c0.2,1.7,0.3,3.4,0.3,5.1c0,12.5-4.5,22.7-10.1,22.7h-0.5c0.6,0.3,1.3,0.4,2,0.4c5.6,0,10.2-10.3,10.2-23c0-1.5-0.1-3-0.2-4.5
		c0-0.5,0.3-0.9,0.8-1c0,0,0,0,0,0l3.9-0.3c0.5,0,0.9,0.3,1,0.8c0.3,2.9,1.6,5.1,3.3,5.1c1.9,0,3.4-2.8,3.4-6.2
		c0-0.3,0.6-0.6,0.9-0.8c0.1-0.1,0.3-0.3,0.5-0.3l1.2-0.3c0.4-0.1,0.2-0.4,0.2-0.9v-5.3c0.9-0.2,1.9-0.3,2.9-0.3
		c0.6,0,1.3,0.5,1.2,1.1c-0.7,2.9-1,5.8-1.1,8.7c0,12,3.7,21.7,8.6,21.7c4.8,0,8.7-9.7,8.7-21.7c0-9.4-2.5-17.5-5.9-20.5l0.1-0.8
		c3.8,3.2,6.5,11.5,6.5,21.2c0,12.5-4.5,22.7-10.1,22.7h-0.5c0.6,0.3,1.3,0.4,2,0.4c5.6,0,10.2-10.2,10.2-22.9
		C217.9,394.1,214.6,385.3,210.3,382.6z M158.9,387.7v-2.3c0,0.1,0.1,0.3,0.2,0.4C159,386.4,159,387,158.9,387.7L158.9,387.7z
		 M177,399.2c-0.2-0.9-0.4-1.7-0.6-2.5l0.7-0.1c0.2,0.8,0.4,1.6,0.6,2.5L177,399.2z M186.5,399L186.5,399L186.5,399L186.5,399z
		 M190.4,396.9c-0.3-0.3-0.8-0.4-1.2-0.4c-0.7,0.1-1.4,0.4-1.8,1.1c0.2-0.4,0.4-0.9,0.7-1.4c0.1-0.3,0.4-0.5,0.7-0.5l2-0.2
		L190.4,396.9z"/>
	<path class="st10" d="M193,212.1c0,5.9,2.1,10.7,4.7,10.7c0.3,0,0.6-0.1,0.9-0.2h-0.2c-2.6,0-4.7-4.8-4.7-10.6
		c0-4.5,1.3-8.4,3.1-9.9v0.4c-1.6,1.4-2.8,5.1-2.8,9.5c0,5.6,1.7,10.2,4,10.2c2.3,0,4-4.5,4.1-10.1c0-1.4-0.2-2.7-0.5-4.1
		c-0.1-0.3,0.4-0.5,0.7-0.5c0.5,0,1,0.1,1.4,0.1v2.5c0,0.2-0.2,0.4,0,0.4l0.5,0.1c0.1,0,0.1,0.1,0.2,0.1s0.4,0.3,0.4,0.4
		c0,1.6,0.7,2.9,1.5,2.9s1.4-1.1,1.6-2.4c0-0.2,0.2-0.4,0.4-0.4l1.8,0.1c0.2,0,0.4,0.2,0.4,0.4c-0.1,0.7-0.1,1.4-0.1,2.1
		c0,5.9,2.1,10.8,4.7,10.8c0.3,0,0.6-0.1,0.9-0.2H216c-2.6,0-4.7-4.8-4.7-10.6c0-0.8,0.1-1.6,0.1-2.4h0.4c-0.1,0.8-0.1,1.6-0.1,2.4
		c0,5.6,1.7,10.2,4,10.2s4-4.5,4.1-10.1c-0.1-0.9-0.2-1.8-0.3-2.7h0.3c0.2,0,0.4,0.2,0.4,0.4c0,0.2,0.1,0.4,0.3,0.4l0.8,0.2
		c0.1,0,0.2,0.1,0.3,0.2c0.1,0.2,0.3,0.3,0.3,0.5c0,1.6,0.7,2.9,1.6,2.9c0.9,0,1.6-1.3,1.6-2.9s-0.7-2.9-1.6-2.9
		c-0.2,0-0.4,0.1-0.5,0.2c0.1-0.1,0.2-0.3,0.2-0.5v0c0-0.1,0-0.1,0-0.2l0,0H223h-0.5l-0.3-1.3c0.1-0.1,0.1-0.2,0.2-0.3
		c0.3-0.5,0.1-1.2-0.3-1.6c-0.1-0.1-0.2-0.1-0.3-0.1l-0.7-3.2c0-0.2,0-0.3,0.1-0.4l0.9-0.7c0.1-0.1,0.2-0.2,0.3-0.3
		c0-0.1,0-0.3,0-0.4c0-0.3-0.1-0.6-0.1-0.9c-0.1-0.4-0.4-0.6-0.8-0.6c-0.5,0-1.7-0.1-1.7-0.1v-3.4c0.1-0.4,0-0.9-0.3-1.2
		c0-0.1,0.1-0.3,0-0.3c-0.2,0-0.3-0.1-0.5-0.1c-0.1-0.1-0.2-0.2-0.3-0.3c-0.5-0.8-1.4-1.2-2.3-1c-1,0-2.1,0-3.1,0.2
		c-0.3,0-0.9,0.2-0.9,0v-6.9c0-0.2-0.3-0.4-0.5-0.4h-0.7c-0.2,0-0.3,0.1-0.4,0.2l-1.4,0.4c-0.2-0.4-0.6-0.8-1.1-1
		c-0.5-0.1-1-0.2-1.5-0.1l-0.4-0.1c-0.5-0.1-0.4-1.1-0.8-1.4c0-0.2,0.1-0.4,0.1-0.6c0.2,0,0.4,0,0.5,0c0.3-0.1,0.6-0.4,0.8-0.7
		c0.5-1,0.8-2.1,0.7-3.2c0-0.2,0-0.4,0-0.6c0-0.2,0.1-0.4,0.3-0.4c1.4-0.3,0.6-2.6,0-3.5c-0.8-1.4-2.7-1.9-4.1-1
		c-0.1,0.1-0.2,0.1-0.3,0.2c-0.3,0.2-0.7,0-1,0c-1.2-0.1-2.3,0.7-2.6,1.9c-0.3,0.8-0.3,1.6-0.1,2.5c0,0.4,0.1,0.7,0.3,1.1
		c0,0.1,0,0.2,0,0.3c-0.2,0.8,0,1.6,0.4,2.2c0.4,0.5,1,0.8,1.7,0.9c0.2,0,0.3,0.1,0.5,0.1c0,0.2,0,0.4-0.1,0.6c-0.4,0,0,1.4-0.8,1.4
		c-0.1,0-0.1,0-0.2,0.1l-1-0.3c-1.1-0.3-2,0.9-2.2,2l-1-0.1V186c0-0.1,0.1-0.1,0.1-0.4c0-0.3-0.1,0-0.3,0h-0.2c0,0,0-0.4-0.1-0.4
		c-0.1,0-0.2-0.2-0.3-0.2l-1.9,0.4c-0.3,0.1-0.5,0.4-0.5,0.7c0,0,0,0,0,0c0.1,0.3,0.4,0.5,0.7,0.4c0,0,0,0,0,0l1.6-0.4l0.1,15.3
		c0,0.2-0.1,0.3-0.2,0.4C194.6,203,193.1,207.1,193,212.1z M220.1,203.4c0.1,0,0.1-0.1,0.1-0.2v1.1
		C220.1,204,220.1,203.7,220.1,203.4z M211.8,209.6c0.1-0.4,0.2-0.8,0.3-1.2h0.3c-0.1,0.4-0.2,0.8-0.3,1.2H211.8z M207.7,209.4
		L207.7,209.4L207.7,209.4z M205.8,207.8l0.9,0.1c0.2,0,0.3,0.1,0.3,0.3c0.1,0.2,0.2,0.4,0.3,0.7c-0.2-0.3-0.5-0.5-0.9-0.5
		c-0.2,0-0.4,0.1-0.6,0.2L205.8,207.8z"/>
	<path class="st10" d="M160.9,228.9c0,5.9,2.1,10.7,4.8,10.7c0.3,0,0.6-0.1,0.9-0.2h-0.2c-2.6,0-4.7-4.7-4.7-10.6
		c0-4.5,1.3-8.4,3-9.9v0.4c-1.6,1.4-2.7,5.1-2.7,9.6c0,5.6,1.8,10.2,4,10.2s4-4.5,4-10.2c0-1.4-0.2-2.7-0.5-4.1
		c-0.1-0.3-0.1-0.5,0.2-0.5c0.3,0,0.6,0,1,0.1v2.5c0,0.2,0.3,0.4,0.5,0.4l0.8,0.1c0.1,0,0.2,0.1,0.3,0.1c0.1,0.1,0.4,0.3,0.4,0.4
		c0,1.6,0.7,2.9,1.6,2.9c0.9,0,1.4-1.1,1.6-2.4c0-0.2,0.2-0.4,0.4-0.4l1.8,0.1c0.2,0,0.4,0.2,0.4,0.4c0,0,0,0,0,0
		c-0.1,0.7-0.1,1.4-0.1,2.1c0,5.9,2.1,10.8,4.8,10.8c0.3,0,0.6-0.1,0.9-0.2h-0.2c-2.6,0-4.7-4.7-4.7-10.6c0-0.8,0-1.6,0.1-2.4h0.4
		c-0.1,0.8-0.1,1.6-0.1,2.4c0,5.6,1.8,10.2,4.1,10.2c2.3,0,4-4.5,4-10.2c-0.1-0.9-0.2-1.8-0.3-2.7h0.3c0.2,0,0.4,0.2,0.4,0.4
		c0,0.2,0.1,0.4,0.3,0.4l0.8,0.2c0.1,0,0.2,0.1,0.3,0.2c0.1,0.2,0.3,0.3,0.3,0.5c0,1.6,0.7,2.9,1.6,2.9s1.6-1.3,1.6-2.9
		s-0.7-2.9-1.6-2.9c-0.2,0-0.4,0.1-0.5,0.2c0.1-0.1,0.2-0.3,0.2-0.5v-0.2c0-0.1,0-0.1,0-0.2l0,0h-0.1h-0.5l-0.3-1.3
		c0.1-0.1,0.1-0.2,0.2-0.3c0.3-0.5,0.1-1.2-0.3-1.6c-0.1-0.1-0.2-0.1-0.3-0.1l-0.7-3.2c0-0.2,0-0.3,0.1-0.4l0.9-0.7
		c0.1-0.1,0.2-0.2,0.3-0.3c0-0.1,0-0.3,0-0.4c0-0.3-0.1-0.6-0.1-0.9c-0.1-0.4-0.9-0.6-1.3-0.6c-0.4,0-2.1-0.1-2.1-0.1v-3.4
		c0-0.5,0.5-0.9,0.2-1.2c0-0.1,0.4-0.3,0.2-0.3c-0.1,0-0.2-0.1-0.3-0.1c-0.1-0.1-0.1-0.2-0.2-0.3c-0.5-0.8-1.4-1.1-2.3-1
		c-1.2,0-2.4,0-3.6,0.2c-0.3,0-1.4,0.3-1.4,0V203c0-0.2,0.2-0.4,0-0.4h-0.4c-0.1,0-0.2,0.1-0.3,0.2l-1.3,0.4c-0.2-0.4-0.6-0.8-1.1-1
		c-0.5-0.1-1-0.2-1.5-0.1l-0.4-0.1c-0.5-0.1-0.4-1.1-0.8-1.4c0-0.2,0.1-0.4,0.1-0.6c0.2,0,0.4,0,0.5-0.1c0.3-0.1,0.6-0.4,0.8-0.7
		c0.5-1,0.8-2.1,0.7-3.3c0-0.2,0-0.4,0-0.6c0-0.2,0.1-0.4,0.3-0.4c1.4-0.3,0.6-2.6-0.1-3.5c-0.9-1.4-2.7-1.8-4.1-1
		c-0.1,0.1-0.2,0.1-0.3,0.2c-0.3,0.2-0.7,0-1,0c-1.2,0-2.3,0.7-2.6,1.9c-0.3,0.8-0.3,1.6-0.1,2.5c0,0.4,0.1,0.7,0.3,1.1
		c0,0.1,0,0.2,0,0.3c-0.3,0.8-0.1,1.7,0.4,2.4c0.4,0.5,1,0.8,1.7,0.9c0.2,0,0.3,0.1,0.5,0.1c0,0.2,0,0.4-0.1,0.6
		c-0.4,0,0,1.4-0.7,1.4c-0.1,0-0.1,0-0.2,0.1l-1-0.3c-1.1-0.3-2.5,0.9-2.7,2l-1.5-0.1v-0.7c0-0.1,0.6-0.1,0.6-0.4s0.4,0,0.2,0h-0.2
		c0,0-0.1-0.4-0.1-0.4s-0.2-0.2-0.3-0.2l-1.9,0.4c-0.3,0.1-0.5,0.4-0.4,0.7c0,0,0,0,0,0c0.1,0.3,0.4,0.5,0.8,0.4c0,0,0,0,0,0
		l1.6-0.4l0.3,15.3c0,0.2-0.1,0.3-0.2,0.4C162.4,219.8,160.9,223.9,160.9,228.9z M187.9,220c0.1,0,0.1-0.1,0.1-0.2v1.1
		C188,220.6,188,220.3,187.9,220z M179.7,226.3c0.1-0.4,0.2-0.8,0.3-1.2h0.3c-0.1,0.4-0.2,0.8-0.3,1.2L179.7,226.3z M175.6,226.2
		L175.6,226.2L175.6,226.2z M173.6,224.5l0.9,0.1c0.2,0,0.3,0.1,0.3,0.2c0.1,0.2,0.2,0.4,0.3,0.7c-0.2-0.3-0.5-0.5-0.9-0.5
		c-0.2,0-0.4,0.1-0.6,0.2L173.6,224.5z"/>
	<path class="st10" d="M131.1,255.4c0,5.9,2.1,10.7,4.8,10.7c0.3,0,0.6-0.1,0.9-0.2h-0.2c-2.6,0-4.7-4.7-4.7-10.6
		c0-4.5,1.3-8.4,3-9.9v0.4c-1.6,1.4-2.7,5.1-2.7,9.6c0,5.6,1.8,10.2,4,10.2s4-4.5,4-10.2c0-1.4-0.2-2.7-0.5-4.1
		c-0.1-0.3-0.1-0.5,0.1-0.5c0.6,0,0.9,0.1,0.9,0.1v2.5c0,0.2,0.4,0.4,0.6,0.4l0.8,0.1c0.1,0,0.2,0.1,0.3,0.1
		c0.1,0.1,0.5,0.3,0.5,0.4c0,1.6,0.7,2.9,1.6,2.9c0.9,0,1.4-1.1,1.6-2.4c0-0.2,0.2-0.4,0.4-0.4l1.8,0.1c0.2,0,0.4,0.2,0.4,0.4
		c0,0,0,0,0,0c-0.1,0.7-0.1,1.4-0.1,2.1c0,5.9,2.1,10.8,4.8,10.8c0.3,0,0.6-0.1,0.9-0.2h-0.2c-2.6,0-4.7-4.7-4.7-10.6
		c0-0.8,0-1.6,0.1-2.4h0.4c-0.1,0.8-0.1,1.6-0.1,2.4c0,5.6,1.8,10.2,4.1,10.2c2.3,0,4-4.5,4-10.2c-0.1-0.9-0.2-1.8-0.3-2.7h0.3
		c0.2,0,0.4,0.2,0.4,0.4c0,0.2,0.1,0.4,0.3,0.4l0.8,0.2c0.1,0,0.2,0.1,0.3,0.2c0.1,0.2,0.3,0.3,0.3,0.5c0,1.6,0.7,2.9,1.6,2.9
		s1.6-1.3,1.6-2.9c0-1.6-0.7-2.9-1.6-2.9c-0.2,0-0.4,0.1-0.5,0.2c0.1-0.1,0.2-0.3,0.2-0.5v-0.2c0-0.1,0-0.1,0-0.2l0,0h-0.1h-0.5
		l-0.3-1.3c0.1-0.1,0.1-0.2,0.2-0.3c0.3-0.5,0.1-1.2-0.3-1.6c-0.1-0.1-0.2-0.1-0.3-0.1l-0.7-3.2c0-0.2,0-0.3,0.1-0.4l0.9-0.7
		c0.1-0.1,0.2-0.2,0.3-0.3c0-0.1,0-0.3,0-0.4c0-0.3-0.1-0.6-0.1-0.9c-0.1-0.4-1-0.6-1.4-0.6s-2.2-0.1-2.2-0.1v-3.4
		c0-0.5,0.5-0.9,0.2-1.2c0-0.1,0.4-0.3,0.2-0.3c-0.1,0-0.2-0.1-0.3-0.1c-0.1-0.1-0.1-0.2-0.2-0.3c-0.5-0.8-1.4-1.1-2.3-1
		c-1.2,0-2.4,0-3.6,0.2c-0.3,0-1.5,0.3-1.5,0v-6.9c0-0.2,0.3-0.4,0-0.4h-0.4c-0.1,0-0.2,0.1-0.2,0.2l-1.3,0.4
		c-0.2-0.4-0.6-0.8-1.1-1c-0.5-0.1-1-0.2-1.5-0.1l-0.4-0.1c-0.5-0.1-0.4-1.1-0.8-1.4c0-0.2,0.1-0.4,0.1-0.6c0.2,0,0.4,0,0.5-0.1
		c0.3-0.1,0.6-0.4,0.8-0.7c0.5-1,0.8-2.1,0.7-3.3c0-0.2,0-0.4,0-0.6c0-0.2,0.1-0.4,0.3-0.4c1.4-0.3,0.6-2.6-0.1-3.5
		c-0.9-1.4-2.7-1.8-4.1-1c-0.1,0.1-0.2,0.1-0.3,0.2c-0.3,0.2-0.7,0-1,0c-1.2,0-2.3,0.7-2.6,1.9c-0.3,0.8-0.3,1.6-0.1,2.5
		c0,0.4,0.1,0.7,0.3,1.1c0,0.1,0,0.2,0,0.3c-0.3,0.8-0.1,1.7,0.4,2.4c0.4,0.5,1,0.8,1.7,0.9c0.2,0,0.3,0.1,0.5,0.1
		c0,0.2,0,0.4-0.1,0.6c-0.4,0,0,1.4-0.7,1.4c-0.1,0-0.1,0-0.2,0.1l-1-0.3c-1.1-0.3-2.5,0.9-2.8,2l-1.6-0.1v-0.7
		c0-0.1,0.7-0.6,0.7-0.8s0.5-0.5,0.2-0.5h-0.2c0,0-0.1,0.1-0.1,0.1c-0.1,0-0.2,0-0.3,0l-1.9,0.5c-0.3,0.1-0.5,0.4-0.4,0.8
		c0.1,0.3,0.4,0.5,0.8,0.4l1.6-0.4l0.3,15.3c0,0.2-0.1,0.3-0.2,0.4C132.6,246.3,131.1,250.5,131.1,255.4z M158.1,246.5
		c0.1,0,0.1-0.1,0.1-0.2v1.1C158.2,247.2,158.1,246.9,158.1,246.5L158.1,246.5z M149.9,252.8c0.1-0.4,0.2-0.8,0.3-1.2h0.3
		c-0.1,0.4-0.2,0.8-0.3,1.2L149.9,252.8z M145.8,252.7L145.8,252.7L145.8,252.7z M143.8,251.1l0.9,0.1c0.2,0,0.3,0.1,0.3,0.2
		c0.1,0.2,0.2,0.4,0.3,0.7c-0.2-0.3-0.5-0.5-0.9-0.5c-0.2,0-0.4,0.1-0.6,0.2L143.8,251.1z"/>
	<path class="st10" d="M219.7,178.4c0,5.5,2,9.8,4.4,9.8c0.3,0,0.6-0.1,0.9-0.2h-0.2c-2.4,0-4.3-4.4-4.3-9.7c0-4.2,1.2-7.7,2.8-9.1
		v0.3c-1.5,1.3-2.5,4.7-2.5,8.8c0,5.1,1.6,9.3,3.7,9.3c2.1,0,3.7-4.2,3.7-9.3c0-1.3-0.2-2.5-0.5-3.7c-0.1-0.2,0.4-0.5,0.6-0.5
		c0.4,0,0.9,0.1,1.3,0.1v2.3c0,0.2-0.2,0.3,0,0.4l0.5,0.1c0.1,0,0.1,0.1,0.2,0.1c0.1,0.1,0.4,0.2,0.4,0.4c0,1.5,0.6,2.7,1.4,2.7
		c0.8,0,1.3-0.9,1.4-2.1c0-0.2,0.2-0.4,0.4-0.3c0,0,0,0,0,0l1.7,0.1c0.2,0,0.4,0.2,0.4,0.4c0,0,0,0,0,0c-0.1,0.6-0.1,1.3-0.1,1.9
		c0,5.5,2,9.9,4.4,9.9c0.3,0,0.6-0.1,0.9-0.2h-0.2c-2.4,0-4.3-4.4-4.3-9.7c0-0.7,0-1.5,0.1-2.2h0.3c-0.1,0.7-0.1,1.4-0.1,2.1
		c0,5.1,1.6,9.3,3.7,9.3s3.7-4.2,3.7-9.3c-0.1-0.8-0.1-1.6-0.3-2.4h0.3c0.2,0,0.3,0.2,0.3,0.4c0,0.2,0.1,0.3,0.3,0.4l0.8,0.2
		c0.1,0,0.2,0.1,0.3,0.2c0.1,0.1,0.2,0.3,0.2,0.5c0,1.5,0.6,2.7,1.4,2.7s1.4-1.2,1.4-2.7s-0.6-2.7-1.4-2.7c-0.2,0-0.3,0.1-0.5,0.2
		c0.1-0.1,0.2-0.3,0.2-0.4V176c0,0,0-0.1,0-0.2l0,0h-0.1h-0.5l-0.2-1.2c0.1-0.1,0.1-0.2,0.1-0.3c0.2-0.5,0.1-1.1-0.3-1.4
		c-0.1-0.1-0.2-0.1-0.3-0.1l-0.6-2.9c0-0.1,0-0.3,0.1-0.4l0.8-0.7c0.1-0.1,0.2-0.2,0.2-0.3c0-0.1,0-0.3,0-0.4c0-0.3-0.1-0.6-0.1-0.8
		c0-0.3-0.3-0.6-0.6-0.6c-0.4,0-1.4-0.1-1.4-0.1v-3.1c0-0.4-0.1-0.8-0.4-1.1c0-0.1,0-0.2-0.1-0.3c-0.2,0-0.3-0.1-0.4-0.1
		c-0.1-0.1-0.2-0.2-0.3-0.3c-0.5-0.7-1.3-1-2.1-0.9c-1,0-2,0-3,0.2c-0.2,0-1.1,0.2-1.1,0v-6.3c0-0.2-0.1-0.4-0.3-0.4h-0.5
		c-0.1,0-0.2,0.1-0.3,0.2l-1.3,0.3c-0.2-0.4-0.6-0.7-1-0.9c-0.4-0.1-0.9-0.2-1.3-0.1l-0.4-0.1c-0.5-0.1-0.4-1-0.8-1.3
		c0-0.2,0.1-0.4,0.1-0.6c0.2,0,0.3,0,0.5,0c0.3-0.1,0.5-0.3,0.7-0.6c0.5-0.9,0.7-2,0.6-3c0-0.2,0-0.4,0-0.6c0-0.2,0.1-0.4,0.3-0.4
		c1.3-0.3,0.6-2.4,0-3.2c-0.8-1.3-2.5-1.7-3.7-0.9c-0.1,0.1-0.2,0.1-0.3,0.2c-0.3,0.2-0.6,0-0.9,0c-1.1,0-2.1,0.7-2.4,1.7
		c-0.2,0.7-0.3,1.5-0.1,2.3c0,0.3,0.1,0.7,0.2,1c0,0.1,0,0.2,0,0.3c-0.2,0.7-0.1,1.5,0.3,2.1c0.4,0.4,0.9,0.7,1.5,0.9
		c0.1,0,0.3,0.1,0.4,0.1c0,0.2,0,0.4,0,0.5c-0.3,0,0,1.3-0.7,1.3c-0.1,0-0.1,0-0.2,0.1l-0.9-0.2c-1-0.3-1.5,0.8-1.8,1.8l-0.7-0.1
		v-0.6c-0.1-0.3-0.1-0.5-0.2-0.8c0-0.2-0.4-0.5-0.6-0.5h-0.2c0,0,0,0.1-0.1,0.1c-0.1,0-0.2,0-0.3,0l-1.7,0.5
		c-0.3,0.2-0.4,0.5-0.2,0.8c0.1,0.2,0.3,0.3,0.5,0.3l1.4-0.4l0.3,14.1c0,0.1-0.1,0.3-0.2,0.3C221.1,170,219.7,173.8,219.7,178.4z
		 M244.4,170.2c0.1,0,0.1-0.1,0.1-0.1v1C244.5,170.8,244.5,170.5,244.4,170.2z M236.9,176c0.1-0.4,0.2-0.7,0.3-1.1h0.3
		c-0.1,0.3-0.2,0.7-0.2,1.1H236.9z M233.2,175.9L233.2,175.9L233.2,175.9z M231.4,174.4l0.8,0.1c0.1,0,0.3,0.1,0.3,0.2
		c0.1,0.2,0.2,0.4,0.3,0.6c-0.2-0.3-0.5-0.4-0.8-0.4c-0.2,0-0.4,0.1-0.5,0.2L231.4,174.4z"/>
	<path class="st10" d="M248.6,158.1c0,4.7,1.7,8.6,3.8,8.6c0.3,0,0.5-0.1,0.7-0.2H253c-2.1,0-3.8-3.8-3.8-8.4c0-3.6,1-6.7,2.4-7.9
		v0.3c-1.3,1.1-2.1,4.1-2.1,7.6c0,4.5,1.4,8.1,3.2,8.1s3.2-3.6,3.2-8.1c0-1.1-0.2-2.2-0.4-3.2c0-0.2-0.1-0.4,0.1-0.4
		c0.2,0,0.5,0,0.7,0.1v2c0,0.2,0.3,0.3,0.4,0.3l0.6,0.1c0.1,0,0.2,0.1,0.3,0.1c0.1,0.1,0.4,0.2,0.4,0.3c0,1.3,0.6,2.3,1.3,2.3
		s1.1-0.8,1.2-1.9c0-0.2,0.2-0.3,0.4-0.3c0,0,0,0,0,0l1.5,0.1c0.2,0,0.3,0.2,0.3,0.4c0,0,0,0,0,0c0,0.5-0.1,1.1-0.1,1.7
		c0,4.7,1.7,8.6,3.8,8.6c0.3,0,0.5-0.1,0.7-0.2H267c-2.1,0-3.8-3.8-3.8-8.4c0-0.6,0-1.3,0.1-1.9h0.3c-0.1,0.6-0.1,1.2-0.1,1.9
		c0,4.5,1.4,8.1,3.2,8.1s3.2-3.6,3.2-8.1c0-0.7-0.1-1.4-0.3-2.1h0.2c0.2,0,0.3,0.2,0.3,0.3c0,0.2,0.1,0.3,0.3,0.3l0.7,0.1
		c0.1,0,0.2,0.1,0.2,0.2c0.1,0.1,0.2,0.3,0.2,0.4c0,1.3,0.6,2.3,1.3,2.3c0.7,0,1.3-1.1,1.3-2.3c0-1.3-0.6-2.3-1.3-2.3
		c-0.1,0-0.3,0.1-0.4,0.1c0.1-0.1,0.1-0.2,0.1-0.4v-0.1c0,0,0-0.1,0-0.1l0,0h-0.1H272l-0.2-1.1c0-0.1,0.1-0.2,0.1-0.3
		c0.2-0.4,0.1-0.9-0.2-1.2c-0.1,0-0.2-0.1-0.2-0.1l-0.5-2.5c0-0.1,0-0.3,0.1-0.3l0.7-0.6c0.1-0.1,0.2-0.2,0.2-0.3c0-0.1,0-0.2,0-0.3
		c0-0.3,0-0.5-0.1-0.7c-0.1-0.3-0.7-0.5-1.1-0.5s-1.7-0.1-1.7-0.1v-2.7c0-0.4,0.4-0.7,0.1-1c0-0.1,0.3-0.2,0.2-0.2
		c-0.1,0-0.2-0.1-0.3-0.1c-0.1-0.1-0.1-0.2-0.2-0.3c-0.4-0.6-1.1-0.9-1.8-0.8c-1,0-2.1,0-3.1,0.1c-0.2,0-1.3,0.2-1.3,0v-5.5
		c0-0.2,0.4-0.3,0.2-0.3h-0.2c-0.1,0-0.1,0.1-0.1,0.1l-1.1,0.3c-0.2-0.3-0.5-0.6-0.8-0.8c-0.4-0.1-0.8-0.1-1.2-0.1l-0.3-0.1
		c-0.4-0.1-0.3-0.9-0.7-1.1c0-0.2,0.1-0.3,0.1-0.5c0.1,0,0.3,0,0.4,0c0.3-0.1,0.5-0.3,0.6-0.5c0.4-0.8,0.6-1.7,0.5-2.6
		c0-0.2,0-0.3,0-0.5c0-0.2,0.1-0.3,0.3-0.4c1.1-0.2,0.5-2.1,0-2.8c-0.7-1.1-2.1-1.5-3.3-0.8c-0.1,0.1-0.2,0.1-0.2,0.2
		c-0.2,0.1-0.5,0-0.8,0c-1,0-1.8,0.6-2.1,1.5c-0.2,0.6-0.2,1.3-0.1,2c0,0.3,0.1,0.6,0.2,0.9c0,0.1,0,0.2,0,0.3
		c-0.2,0.6-0.1,1.3,0.3,1.9c0.4,0.4,0.8,0.6,1.3,0.7l0.4,0.1c0,0.2,0,0.3,0,0.5c-0.3,0,0,1.1-0.6,1.1c-0.1,0-0.1,0-0.2,0.1l-0.8-0.2
		c-0.9-0.2-1.6,0.7-1.8,1.6l-0.8-0.1v-0.6c0-0.1,0.1-0.6,0.1-0.8c0-0.2-0.1-0.5-0.2-0.5h-0.2c0,0,0,0.2-0.1,0.2
		c-0.1,0-0.2,0.1-0.2,0.1l-1.5,0.4c-0.3,0.1-0.4,0.4-0.4,0.6c0.1,0.3,0.3,0.4,0.6,0.4l1.2-0.3l0.2,12.2c0,0.1-0.1,0.2-0.2,0.3
		C249.8,150.8,248.6,154.1,248.6,158.1z M270,151c0,0,0.1-0.1,0.1-0.1v0.9C270.1,151.5,270.1,151.3,270,151z M263.5,156
		c0.1-0.3,0.1-0.6,0.2-0.9h0.3c-0.1,0.3-0.1,0.6-0.2,0.9H263.5z M260.2,155.9L260.2,155.9L260.2,155.9z M258.7,154.6l0.7,0.1
		c0.1,0,0.2,0.1,0.3,0.2c0.1,0.2,0.2,0.4,0.2,0.5c-0.2-0.2-0.4-0.4-0.7-0.4c-0.2,0-0.3,0.1-0.4,0.2L258.7,154.6z"/>
	<path class="st10" d="M126.3,286c-0.2-0.1-0.3-0.3-0.3-0.5l0.4-22.8l2.3,0.6c0.5,0.1,1-0.2,1.1-0.7c0.1-0.5-0.2-1-0.7-1.1l0,0
		l-2.8-0.7c-0.1,0-0.3-0.3-0.4-0.3c-0.1,0-0.1-0.3-0.1-0.3h-0.3c-0.3,0-0.6,0.6-0.6,0.9s0,1.1,0,1.2c0,0.4,0,0.8,0,1.2l-1.4,0.3
		c-0.4-1.6-1.5-3.4-3.1-2.9c-0.5,0.1-1.1,0.3-1.5,0.4c-0.1-0.1-0.2-0.1-0.3-0.1c-1.1,0-0.6-2-1.1-2.1c0-0.3,0-0.6-0.1-0.9
		c0.2,0,0.5-0.1,0.7-0.1c1-0.2,1.8-0.7,2.5-1.4c0.7-1,0.9-2.3,0.5-3.5c-0.1-0.2-0.1-0.3,0-0.5c0.2-0.5,0.3-1.1,0.4-1.6
		c0.2-1.2,0.2-2.5-0.2-3.7c-0.5-1.7-2.1-2.9-3.9-2.8c-0.5,0-1,0.2-1.4,0c-2.5-1.6-4.8-1.2-6.5,1.1c-1.1,1.4-2.2,4.8-0.1,5.2
		c0.3,0.1,0.5,0.4,0.5,0.7c0,0.3,0,0.6,0,0.9c-0.1,1.7,0.2,3.4,1.1,4.8c0.3,0.4,0.7,0.8,1.2,1c0.3,0.1,0.5,0.1,0.8,0.1
		c0.1,0.3,0.1,0.6,0.2,0.9c-0.6,0.5-0.5,1.9-1.3,2.1l-0.6,0.2c-0.7-0.1-1.4,0-2.1,0.2c-0.7,0.3-1.3,0.8-1.6,1.5l-2-0.5
		c-0.1-0.2-0.3-0.3-0.5-0.3l-1.5,0c-0.3,0-1.1,0.3-1.1,0.6V273c0,0.4-0.7,0.1-1.1,0c-1.5-0.2-3-0.3-4.6-0.3c-1.5,0-2.4,0.1-3.3,1.5
		c-0.1,0.2-0.2,0.4-0.4,0.5c-0.2,0.1-0.4,0.2-0.6,0.2c-0.2,0.1-0.7,0.3-0.7,0.5c-0.6,0.5-1,1.1-1.1,1.8v5c-0.6,0.1-1.2,0.2-1.9,0.2
		c-0.6,0-0.8,0.3-0.9,0.9c-0.1,0.5-0.1,0.9,0,1.4c0,0.2,0.1,0.4,0.2,0.6c0.1,0.2,0.3,0.4,0.4,0.5l1.4,1.1c0.2,0.1,0.3,0.4,0.2,0.6
		l-1,4.7c-0.2,0-0.3,0.1-0.4,0.2c-0.6,0.6-0.8,1.5-0.4,2.3c0.1,0.2,0.2,0.3,0.2,0.5l-0.4,1.9l-0.8,0.1H87v0.1
		c-0.1,0.1-0.1,0.2,0,0.3v0.3c0,0.3,0.1,0.5,0.3,0.7c-0.2-0.2-0.5-0.3-0.8-0.3c-1.3,0-2.3,1.9-2.3,4.3s1.1,4.3,2.3,4.3
		c1.3,0,2.3-1.9,2.3-4.3c0-0.3,0.3-0.5,0.4-0.7c0.1-0.2,0.3-0.3,0.5-0.3l1.2-0.3c0.3-0.1,0.5-0.3,0.5-0.6c0-0.3,0.2-0.6,0.5-0.6
		l0.5-0.1c-0.2,1.3-0.4,2.6-0.5,3.9c0,8.3,2.6,15.1,5.9,15.1c3.4,0,6-6.7,6-15.1c0-1.2-0.1-2.4-0.2-3.5h0.5c0.1,1.2,0.2,2.4,0.2,3.6
		c0,8.7-3.1,15.7-7,15.7h-0.3c0.4,0.2,0.9,0.3,1.4,0.3c3.9,0,7.1-7.2,7.1-16c0-1.1,0-2.1-0.1-3.1c0-0.3,0.2-0.6,0.5-0.7c0,0,0,0,0,0
		l2.7-0.2c0.3,0,0.6,0.2,0.7,0.5c0.2,2,1.1,3.6,2.3,3.6s2.3-1.9,2.3-4.3c0-0.2,0.4-0.4,0.6-0.6c0.1-0.1,0.2-0.2,0.3-0.2l1-0.2
		c0.3,0,0.3-0.3,0.3-0.6v-3.7c0.6-0.1,1.2-0.2,1.9-0.2c0.4,0,0.9,0.3,0.8,0.7c-0.5,2-0.8,4-0.8,6.1c0,8.3,2.6,15.1,5.9,15.1
		s6-6.7,6-15.1c0-6.6-1.7-12.1-4.1-14.2l0.1-0.5c2.7,2.2,4.5,8,4.5,14.7c0,8.7-3.1,15.7-7,15.7h-0.3c0.4,0.2,0.9,0.3,1.4,0.3
		c3.9,0,7.1-7.1,7.1-15.9C131.6,293.9,129.3,287.8,126.3,286z M91.5,289.5v-1.6c0,0.1,0.1,0.2,0.1,0.2
		C91.6,288.6,91.6,289,91.5,289.5z M103.1,297.4c-0.1-0.6-0.3-1.2-0.4-1.7h0.5c0.2,0.6,0.3,1.1,0.4,1.7H103.1z M109.7,297.3
		L109.7,297.3L109.7,297.3z M112.4,295.8c-0.2-0.2-0.5-0.3-0.8-0.3c-0.5,0-1,0.3-1.3,0.7c0.2-0.3,0.3-0.6,0.5-1
		c0.1-0.2,0.3-0.4,0.5-0.4l1.4-0.1L112.4,295.8z"/>
	<polygon class="st17" points="127.9,92.4 141.5,58.9 50.4,58.6 10.8,109.3 110.2,110.3 133.3,127.3 166.4,111 188.5,94 	"/>
	<polygon class="st18" points="165.2,43 31.9,43 39.6,18.5 155.6,18.5 	"/>
	<rect x="31" y="43" class="st18" width="138.7" height="41.3"/>
	<polygon class="st18" points="188.2,43.4 127.1,43.4 127.1,25.9 156,2.5 188.2,25.9 	"/>
	<rect x="127.1" y="27" class="st18" width="61" height="66.7"/>
	<rect x="139.6" y="47.1" class="st4" width="5.1" height="41.6"/>
	<rect x="162.7" y="47.1" class="st4" width="5.1" height="41.6"/>
	<rect x="174.3" y="47.1" class="st4" width="5.1" height="41.6"/>
	<rect x="151.1" y="47.1" class="st4" width="5.1" height="41.6"/>
	<rect x="35.2" y="56.1" class="st4" width="16.2" height="5.2"/>
	<rect x="53.6" y="56.1" class="st4" width="16.2" height="5.2"/>
	<rect x="72" y="56.1" class="st4" width="16.2" height="5.2"/>
	<rect x="90.3" y="56.1" class="st4" width="16.2" height="5.2"/>
	<rect x="108.7" y="56.1" class="st4" width="16.2" height="5.2"/>
	<rect x="35.2" y="46.8" class="st4" width="16.2" height="5.2"/>
	<rect x="53.6" y="46.8" class="st4" width="16.2" height="5.2"/>
	<rect x="72" y="46.8" class="st4" width="16.2" height="5.2"/>
	<rect x="90.3" y="46.8" class="st4" width="16.2" height="5.2"/>
	<rect x="108.7" y="46.8" class="st4" width="16.2" height="5.2"/>
	<rect x="35.2" y="64.5" class="st4" width="16.2" height="5.2"/>
	<rect x="53.6" y="64.5" class="st4" width="16.2" height="5.2"/>
	<rect x="72" y="64.5" class="st4" width="16.2" height="5.2"/>
	<rect x="90.3" y="64.5" class="st4" width="16.2" height="5.2"/>
	<rect x="108.7" y="64.5" class="st4" width="16.2" height="5.2"/>
	<rect x="35.2" y="72.8" class="st4" width="16.2" height="5.2"/>
	<rect x="53.6" y="72.8" class="st4" width="16.2" height="5.2"/>
	<rect x="72" y="72.8" class="st4" width="16.2" height="5.2"/>
	<rect x="90.3" y="72.8" class="st4" width="16.2" height="5.2"/>
	<rect x="108.7" y="72.8" class="st4" width="16.2" height="5.2"/>
</g>
</svg>
