<?xml version="1.0" encoding="utf-8"?>
<!-- Generator: Adobe Illustrator 21.1.0, SVG Export Plug-In . SVG Version: 6.00 Build 0)  -->
<svg version="1.1" id="圖層_1" xmlns="http://www.w3.org/2000/svg" xmlns:xlink="http://www.w3.org/1999/xlink" x="0px" y="0px"
	 viewBox="0 0 580 580" style="enable-background:new 0 0 580 580;" xml:space="preserve">
<style type="text/css">
	.st0{fill:none;}
	.st1{fill:#CAE5EE;}
	.st2{fill:#EFF7FA;}
	.st3{fill:#C9CACA;}
	.st4{fill:#FFFFFF;}
	.st5{fill:#006F83;}
	.st6{fill:#E9473F;}
	.st7{fill:none;stroke:#C6E5E2;stroke-linecap:round;stroke-linejoin:round;}
	.st8{fill:#C6E5E2;}
	.st9{fill:#A2D7DD;}
	.st10{fill:#4CBBB4;}
	.st11{fill:#005D73;}
	.st12{fill:#FDEDDB;}
	.st13{fill:#FFEB27;}
	.st14{fill:#FDD35C;}
	.st15{fill:#252B55;}
</style>
<title>card4</title>
<rect class="st0" width="580" height="580"/>
<g>
	<rect x="215" y="5.8" class="st1" width="300.6" height="339.2"/>
	<rect x="215" y="327.6" class="st2" width="300.6" height="17.4"/>
	<rect x="497" y="5.8" class="st2" width="18.6" height="339.2"/>
	<rect x="497" y="327.6" class="st2" width="18.6" height="17.4"/>
	<path class="st3" d="M479.2,395.9H500c1.8,0,3.3,1.5,3.3,3.3v40.7c0,1.8-1.5,3.3-3.3,3.3h-20.8c-1.8,0-3.3-1.5-3.3-3.3v-40.7
		C475.9,397.4,477.4,395.9,479.2,395.9z"/>
	<circle class="st4" cx="484.6" cy="404.3" r="3.4"/>
	<circle class="st4" cx="484.6" cy="413.8" r="3.4"/>
	<circle class="st4" cx="484.6" cy="423.4" r="3.4"/>
	<circle class="st4" cx="484.6" cy="433" r="3.4"/>
	<circle class="st4" cx="496.4" cy="404.3" r="3.4"/>
	<circle class="st4" cx="496.4" cy="413.8" r="3.4"/>
	<circle class="st4" cx="496.4" cy="423.4" r="3.4"/>
	<circle class="st4" cx="496.4" cy="433" r="3.4"/>
	<path class="st3" d="M506.6,387.7l21.8,4.4c1.8,0.4,2.9,2.1,2.5,3.8l-8,39.4c-0.4,1.8-2.1,2.9-3.8,2.5l-21.8-4.4
		c-1.8-0.4-2.9-2.1-2.5-3.8l8-39.4C503.1,388.5,504.8,387.3,506.6,387.7z"/>
	<ellipse transform="matrix(0.203 -0.9792 0.9792 0.203 14.2716 815.1477)" class="st4" cx="507.9" cy="398.8" rx="3.4" ry="3.4"/>
	<ellipse transform="matrix(0.2 -0.9798 0.9798 0.2 5.7111 819.4725)" class="st4" cx="504.7" cy="406.2" rx="3.4" ry="3.4"/>
	<ellipse transform="matrix(0.203 -0.9792 0.9792 0.203 -7.1928 826.2903)" class="st4" cx="504" cy="417.6" rx="3.4" ry="3.4"/>
	<ellipse transform="matrix(0.203 -0.9792 0.9792 0.203 -17.9033 831.8661)" class="st4" cx="502" cy="426.9" rx="3.4" ry="3.4"/>
	<ellipse transform="matrix(0.203 -0.9792 0.9792 0.203 21.1608 828.3964)" class="st4" cx="519.4" cy="401.2" rx="3.4" ry="3.4"/>
	<ellipse transform="matrix(0.203 -0.9792 0.9792 0.203 10.4264 833.9672)" class="st4" cx="517.5" cy="410.6" rx="3.4" ry="3.4"/>
	<ellipse transform="matrix(0.203 -0.9792 0.9792 0.203 -0.3036 839.539)" class="st4" cx="515.5" cy="420" rx="3.4" ry="3.4"/>
	<ellipse transform="matrix(0.203 -0.9792 0.9792 0.203 -11.0379 845.1099)" class="st4" cx="513.6" cy="429.3" rx="3.4" ry="3.4"/>
	<path class="st3" d="M529.8,397.3l19.7,10.4c1.6,0.8,2.2,2.8,1.4,4.4l-18.8,35.6c-0.8,1.6-2.8,2.2-4.4,1.4L508,438.7
		c-1.6-0.8-2.2-2.8-1.4-4.4l18.8-35.6C526.2,397.1,528.2,396.5,529.8,397.3z"/>
	
		<ellipse transform="matrix(0.4662 -0.8847 0.8847 0.4662 -77.6516 686.7427)" class="st4" cx="530.3" cy="407.7" rx="3.4" ry="3.4"/>
	
		<ellipse transform="matrix(0.4662 -0.8847 0.8847 0.4662 -87.5231 687.3163)" class="st4" cx="525.8" cy="416.2" rx="3.4" ry="3.4"/>
	
		<ellipse transform="matrix(0.4662 -0.8847 0.8847 0.4662 -97.4056 687.8965)" class="st4" cx="521.4" cy="424.7" rx="3.4" ry="3.4"/>
	
		<ellipse transform="matrix(0.4662 -0.8847 0.8847 0.4662 -107.2899 688.4708)" class="st4" cx="516.9" cy="433.1" rx="3.4" ry="3.4"/>
	
		<ellipse transform="matrix(0.4662 -0.8847 0.8847 0.4662 -76.9468 698.9456)" class="st4" cx="540.7" cy="413.2" rx="3.4" ry="3.4"/>
	
		<ellipse transform="matrix(0.4662 -0.8847 0.8847 0.4662 -86.8184 699.5192)" class="st4" cx="536.3" cy="421.7" rx="3.4" ry="3.4"/>
	
		<ellipse transform="matrix(0.4662 -0.8847 0.8847 0.4662 -96.7009 700.0994)" class="st4" cx="531.8" cy="430.2" rx="3.4" ry="3.4"/>
	
		<ellipse transform="matrix(0.4662 -0.8847 0.8847 0.4662 -106.5731 700.6602)" class="st4" cx="527.3" cy="438.6" rx="3.4" ry="3.4"/>
	<path class="st4" d="M434.4,377.3h37c1.8,0,3.3,1.5,3.3,3.3v44.4c0,1.8-1.5,3.3-3.3,3.3h-37c-1.8,0-3.3-1.5-3.3-3.3v-44.4
		C431.2,378.7,432.6,377.3,434.4,377.3z"/>
	<path class="st5" d="M437.5,384.7c-1.4,0-2.5,1.1-2.5,2.5c0,1.4,1.1,2.5,2.5,2.5h4.9v-5H437.5z"/>
	<path class="st6" d="M448.8,384.7h-6.4v5h6.4c1.4,0,2.5-1.1,2.5-2.5C451.2,385.8,450.1,384.7,448.8,384.7z"/>
	<path class="st5" d="M437.5,392.2c-1.4,0-2.5,1.1-2.5,2.5c0,1.4,1.1,2.5,2.5,2.5h4.9v-5H437.5z"/>
	<path class="st6" d="M448.8,392.2h-6.4v5h6.4c1.4,0,2.5-1.1,2.5-2.5C451.2,393.3,450.1,392.2,448.8,392.2z"/>
	<path class="st5" d="M437.5,400.9c-1.4,0-2.5,1.1-2.5,2.5s1.1,2.5,2.5,2.5h4.9v-5H437.5z"/>
	<path class="st6" d="M448.8,400.9h-6.4v5h6.4c1.4,0,2.5-1.1,2.5-2.5S450.1,400.9,448.8,400.9z"/>
	<path class="st5" d="M437.5,408.3c-1.4,0-2.5,1.1-2.5,2.5s1.1,2.5,2.5,2.5h4.9v-5H437.5z"/>
	<path class="st6" d="M448.8,408.3h-6.4v5h6.4c1.4,0,2.5-1.1,2.5-2.5S450.1,408.3,448.8,408.3z"/>
	<path class="st5" d="M437.5,417c-1.4,0-2.5,1.1-2.5,2.5s1.1,2.5,2.5,2.5h4.9v-5H437.5z"/>
	<path class="st6" d="M448.8,417h-6.4v5h6.4c1.4,0,2.5-1.1,2.5-2.5S450.1,417,448.8,417z"/>
	<path class="st5" d="M457.3,384.7c-1.4,0-2.5,1.1-2.5,2.5c0,1.4,1.1,2.5,2.5,2.5h6.2v-5H457.3z"/>
	<path class="st6" d="M468.6,384.7h-5.1v5h5.1c1.4,0,2.5-1.1,2.5-2.5C471.1,385.8,470,384.7,468.6,384.7z"/>
	<path class="st5" d="M457.3,392.2c-1.4,0-2.5,1.1-2.5,2.5c0,1.4,1.1,2.5,2.5,2.5h6.2v-5H457.3z"/>
	<path class="st6" d="M468.6,392.2h-5.1v5h5.1c1.4,0,2.5-1.1,2.5-2.5C471.1,393.3,470,392.2,468.6,392.2z"/>
	<path class="st5" d="M457.3,400.9c-1.4,0-2.5,1.1-2.5,2.5s1.1,2.5,2.5,2.5h6.2v-5H457.3z"/>
	<path class="st6" d="M468.6,400.9h-5.1v5h5.1c1.4,0,2.5-1.1,2.5-2.5S470,400.9,468.6,400.9z"/>
	<path class="st5" d="M457.3,408.3c-1.4,0-2.5,1.1-2.5,2.5s1.1,2.5,2.5,2.5h6.2v-5H457.3z"/>
	<path class="st6" d="M468.6,408.3h-5.1v5h5.1c1.4,0,2.5-1.1,2.5-2.5S470,408.3,468.6,408.3z"/>
	<path class="st5" d="M457.3,417c-1.4,0-2.5,1.1-2.5,2.5s1.1,2.5,2.5,2.5h6.2v-5H457.3z"/>
	<path class="st6" d="M468.6,417h-5.1v5h5.1c1.4,0,2.5-1.1,2.5-2.5S470,417,468.6,417z"/>
	<path class="st4" d="M417.1,398.4h37c1.8,0,3.3,1.5,3.3,3.3v44.4c0,1.8-1.5,3.3-3.3,3.3h-37c-1.8,0-3.3-1.5-3.3-3.3v-44.4
		C413.8,399.8,415.3,398.4,417.1,398.4z"/>
	<path class="st5" d="M419.5,404.6c-1.4,0-2.5,0.5-2.5,1.9s1.1,1.9,2.5,1.9h5.5v-3.7H419.5z"/>
	<path class="st6" d="M430.7,404.6H425v3.7h5.8c1.4,0,2.5-0.5,2.5-1.9S432.1,404.6,430.7,404.6z"/>
	<path class="st5" d="M419.5,412.1c-1.4,0-2.5,1.1-2.5,2.5s1.1,2.5,2.5,2.5h5.5v-5H419.5z"/>
	<path class="st6" d="M430.7,412.1H425v5h5.8c1.4,0,2.5-1.1,2.5-2.5S432.1,412.1,430.7,412.1z"/>
	<path class="st5" d="M419.5,420.8c-1.4,0-2.5,1.1-2.5,2.5s1.1,2.5,2.5,2.5h5.5v-5H419.5z"/>
	<path class="st6" d="M430.7,420.8H425v5h5.8c1.4,0,2.5-1.1,2.5-2.5S432.1,420.8,430.7,420.8z"/>
	<path class="st5" d="M419.5,428.2c-1.4,0-2.5,1.1-2.5,2.5s1.1,2.5,2.5,2.5h5.5v-5H419.5z"/>
	<path class="st6" d="M430.7,428.2H425v5h5.8c1.4,0,2.5-1.1,2.5-2.5S432.1,428.2,430.7,428.2z"/>
	<path class="st5" d="M419.5,436.9c-1.4,0-2.5,1.1-2.5,2.5c0,1.4,1.1,2.5,2.5,2.5h5.5v-5H419.5z"/>
	<path class="st6" d="M430.7,436.9H425v5h5.8c1.4,0,2.5-1.1,2.5-2.5C433.2,438,432.1,436.9,430.7,436.9z"/>
	<path class="st5" d="M439.3,404.6c-1.4,0-2.5,0.5-2.5,1.9s1.1,1.9,2.5,1.9h4.3v-3.7H439.3z"/>
	<path class="st6" d="M450.6,404.6h-7v3.7h7c1.4,0,2.5-0.5,2.5-1.9S452,404.6,450.6,404.6z"/>
	<path class="st5" d="M439.3,412.1c-1.4,0-2.5,1.1-2.5,2.5s1.1,2.5,2.5,2.5h4.3v-5H439.3z"/>
	<path class="st6" d="M450.6,412.1h-7v5h7c1.4,0,2.5-1.1,2.5-2.5S452,412.1,450.6,412.1z"/>
	<path class="st5" d="M439.3,420.8c-1.4,0-2.5,1.1-2.5,2.5s1.1,2.5,2.5,2.5h4.3v-5H439.3z"/>
	<path class="st6" d="M450.6,420.8h-7v5h7c1.4,0,2.5-1.1,2.5-2.5S452,420.8,450.6,420.8z"/>
	<path class="st5" d="M439.3,428.2c-1.4,0-2.5,1.1-2.5,2.5s1.1,2.5,2.5,2.5h4.3v-5H439.3z"/>
	<path class="st6" d="M450.6,428.2h-7v5h7c1.4,0,2.5-1.1,2.5-2.5S452,428.2,450.6,428.2z"/>
	<path class="st5" d="M439.3,436.9c-1.4,0-2.5,1.1-2.5,2.5c0,1.4,1.1,2.5,2.5,2.5h4.3v-5H439.3z"/>
	<path class="st6" d="M450.6,436.9h-7v5h7c1.4,0,2.5-1.1,2.5-2.5C453.1,438,452,436.9,450.6,436.9z"/>
	<path class="st7" d="M92,347.3c4.2,9.8,4.9,22.4,6.6,32.9"/>
	<path class="st8" d="M104.2,293.6c-10.1,32.1-8.5,101.6-8.2,112h7.6c-0.4-16.8-0.7-33.2-0.7-49.6c0-11.2,0-16.3,0.5-27.5
		c0.4-10.9,1.4-23.8,3.7-33.9c1.5-5.8,3.6-11.5,6.2-16.9c0.4-0.8,1.5-2.8,1.8-3.7c0.9-2.3-0.9-1.8-1.8-0.5c-1.1,1.9-2.1,3.9-3.1,6
		c-1,2.3-1.8,4.5-3.1,7.3c-0.3,0.5-1,0.8-1.5,0.5c-0.3-0.2-0.5-0.5-0.6-0.8c-0.1-0.7-0.2-1.4-0.4-2.1c-2-5.7-3.5-11.3-5.9-16.8
		c-0.4-1-1.8-1.6-1.5,0c0.4,2.6,1.7,4.8,2.5,7.3c0.9,2.8,1.9,5.6,2.8,8.4c1.1,3.5,1.7,7.2,1.6,10.9"/>
	<path class="st9" d="M103.3,328.4c0.4-10.9,1.4-23.8,3.7-33.9c1.5-5.8,3.6-11.5,6.2-16.9c0.4-0.8,1.5-2.8,1.8-3.7c0,0,0-0.1,0-0.1
		c-0.8,1.4-2.3,4.5-2.9,5.7c-2.8,6.2-5.7,12.5-7.5,19.1c-1.6,6.7-2.8,13.6-3.6,20.4c-1.5,13.6-2.2,27.3-2,41
		c0.5,19.7,0,28.9,0.5,46.3l3.9-0.7c-1.6-21.8-0.7-33.2-0.7-49.6C102.8,344.7,102.8,339.6,103.3,328.4z"/>
	<path class="st5" d="M88.3,316.2c-0.2-0.1-0.4-0.3-0.6-0.4c-1.9-1-4.1-0.8-5.8,0.5c-0.4-6.6,3.5-13.5-1.7-19.3
		c-4-4.6-10.9-5.2-15.6-1.3c-0.6,0.5-1.1,1-1.5,1.6c-1.7-2.6-1.8-6.2-5-7.8c-4.1-2.1-10.4-1-13.3,2.5c-3.3,3.9-3.6,15.8,3.5,16.6
		c-1.2,0.1-2.3,0.8-2.8,1.8c-6.8,10.2,5.9,27.6,17.4,20c-3.5,4.9-0.9,10.2,3.7,13.1c8.1,5.1,16.4,4.5,25.7,4l2.4-9.4
		C96.8,331,94.8,320.9,88.3,316.2z"/>
	<path class="st7" d="M49.6,293.5c16.2,11.8,30.3,32.1,42.6,53.7"/>
	<path class="st8" d="M99.6,404.6c-1.4-9.9-4.8-22.4-10.2-31.5c-1.4-2.3-0.5-4.8,0.9-2.7c6.5,10.3,10.6,22,12.1,34.2H99.6z"/>
	<path class="st5" d="M108.8,296.5c0.3,0.5,0.7,1,1,1.5c0.8,1.5,1.2,3.3,1.9,5c2.2,4.7,7.6,7.5,12.8,7.3c5.2-0.4,10.2-2.7,13.8-6.5
		c1.9,3.5,7,3.2,11,2.2c3.7-0.9,7.4-1.9,10.4-4.1c3-2.2,5.2-6,4.6-9.7c2.7-0.5,5.1-1.9,6.9-4c1.8-2.1,2.2-5.1,1-7.6
		c-1.3-2-3.2-3.4-5.5-4c-8.4-3-17.6-1.7-24.8,3.5c-1.2,1.1-2.6,1.9-4.1,2.6c-5.1,1.9-10.5-2.4-15.9-1.8c-3.1,0.3-5.6,2.1-8.1,3.9
		c-2.8,1.8-5.3,4-7.5,6.5c-0.4,0.4-0.5,1.1-0.1,1.5C106.9,294,107.8,295.3,108.8,296.5z"/>
	<path class="st10" d="M137.4,343.4c6-1.8,12-5,14.9-10.5c2.9-5.5,1.4-13.7-4.4-16c3.7-4.7,4.8-11.8,1.7-17
		c-3.2-5.2-10.9-7.3-15.7-3.6c-1.1,1.1-2.3,2-3.7,2.7c-1.2,0.3-2.5,0.5-3.8,0.4c-6.9,0.7-12.1,6.6-11.9,13.6
		c-6.7-0.4-12.4,4.7-12.8,11.4c-0.1,2,0.3,4,1.1,5.8c-0.7-1.4-7.5,6.6-7.9,7.4c-1.8,3.7-1.6,10.1-0.6,14.1c1.8,7.3,3.1,14.8,9,21.7
		C117.3,373,144.2,358.9,137.4,343.4z"/>
	<path class="st8" d="M106.4,409.1c0.3-12,1.2-23.9,2.9-35.7c0.4-2.2,0.8-4.4,1.3-6.5c3.1-13.4,7.7-26.5,13.7-38.9
		c4.2-8.9,9.4-17.4,15.5-25.2c1-1.2,2.8-4.4,0.7-3.2c-0.3,0.2-0.5,0.4-0.7,0.6c-8.9,10.9-16.1,23.6-22,36.4
		c-5.4,11.7-10.3,24.1-12.5,36.9c-1.6,9.2-2.7,26.3-2.9,35.6L106.4,409.1z"/>
	<path class="st10" d="M114.8,246.7c1.1-1.7,7.6-7.5,7.5-2.3c0.1-9.3,7.8-16.8,17.1-16.6c1.6,0,3.3,0.3,4.9,0.8
		c1.9-4,5.7-6.8,10.1-7.5c2.7-0.5,5.5,0.3,7.5,2.1c1.8,2,1.9,5.5-0.2,7.1c3.2-0.8,6.5,1.8,7.1,5c0.4,3.3-1,6.6-3.7,8.6
		c-2.6,1.9-5.7,3.2-9,3.6c2.8,1.8,2.3,6.1,0.9,9.1c-6.3,13.1-29.5,18.9-42.9,18.6c-2.3-6.1-3.1-12.7-2.1-19.1
		C112.6,253.2,113.2,249.3,114.8,246.7z"/>
	<path class="st5" d="M84.9,221.7c2.8-1.2,6.2,0.4,7.7,3c1.4,2.7,1.8,5.8,1.1,8.8c-0.3,1.6-0.6,3.4,0,4.8c1.2,2.6,4.7,2.9,7,4.7
		c2.6,2.1,3,6,2.1,9.2c-0.8,3.2-2.2,6.1-3.3,9.2c-1.1,3.2-3,6.5-0.9,9.2c-5.5-3.2-11.5-1.8-17-5c-4.1-2.5-6.7-6.9-6.7-11.7
		c0-1.9,0.4-3.9-0.3-5.7c-0.7-1.6-1.8-3-3.2-4c-3.5-3.3-7-7.6-6.1-12.3c1-4.3,5.4-7,9.7-5.9c0.2,0.1,0.4,0.1,0.7,0.2
		c0.6-1.6-0.1-3.7,0.3-5.4c0.5-1.7,2-3,3.7-3.2C81.5,217.5,84.2,220.1,84.9,221.7z"/>
	<path class="st10" d="M177.9,409.1c-1.2,2.8-4.9,3.8-7.8,2.9c-2.9-1.1-5.2-3.2-6.7-5.8c-0.9-1.4-1.8-2.9-3.3-3.6
		c-2.6-1.1-5.5,1-8.3,1.2c-3.3,0.2-6.2-2.5-7.8-5.4c-1.6-2.9-2.1-6.3-3.4-9.4c-1.3-3.1-3.6-6.1-6.9-6.7c6.2-1.3,10.9-6.7,17.1-8
		c4.7-0.9,9.6,0.7,12.8,4.2c1.2,1.4,2.3,3.1,4,4.1c1.6,0.7,3.3,1,5.1,0.9c4.8,0.1,10.3,0.9,12.8,5c2.1,3.9,0.7,8.8-3.2,10.9
		c-0.2,0.1-0.4,0.2-0.6,0.3c0.6,1.6,2.6,2.7,3.4,4.2c0.8,1.6,0.5,3.5-0.7,4.9C183.2,409.9,179.5,409.8,177.9,409.1z"/>
	<path class="st10" d="M72.6,323.8c6.2,5,8.2,13.5,5,20.7c3.2-1,6.7,1,8.5,3.8c1.8,2.8,2.3,6.2,2.8,9.6l2.3,16
		c-8.2,1-16.7,1.9-24.5-0.6s-14.9-9.5-14.7-17.8c-4.6,1.6-9.7,0.6-13.4-2.5c-4.5-3.9-4-9-0.9-15.1c1.8-3.7-9.2-11-0.7-18
		c4.1-3.1,9.9-2.4,13,1.7c0.6,0.8,1.1,1.7,1.5,2.7C57.7,320.1,66.2,319,72.6,323.8z"/>
	<path class="st10" d="M56.1,243.3c2.2-0.2,4.4,0.6,5.9,2.1c1.6,2,2.4,4.4,2.4,6.9c6.7-2.8,14.4,0.3,17.3,7c0.6,1.3,0.9,2.8,1,4.2
		c3-1.6,6.6-0.5,9.5,1.2c5.8,3.4,13.7,18.9,13.7,25.7s-26.7,1.2-29.7,0.4c-5.5-1.4-7.2-4.7-8.5-9.9c-6.1,1.1-12.1,2.6-17.1-2.5
		c-4.5-4.7-4.5-11.7-1.5-17.1c-3.2-2.2-4.8-6.1-4-9.9C46.4,246.4,51.4,243.5,56.1,243.3z"/>
	<path class="st8" d="M158,230.8c0,0,0,0.1,0,0.1c0,0.4-0.4,0.8-0.7,1l-6.4,4.4c-2,1.4-4,3-6,4.5c-4.6,3.7-9,7.6-13.2,11.8
		c-4.1,4.1-8,8.4-11.6,13c-1,1.2-1.9,2.5-2.8,3.8c-0.2,0.3-3.3,6.2-2.8,5.3c0,0-2.3,1.4-1.4-1.4c0.1-0.3,4.3-7,4.6-7.5
		c1.5-2,3-4,4.6-5.9c3.3-3.9,6.8-7.6,10.6-11.1c4-3.7,8.2-7.1,12.6-10.4c3.7-2.8,7.8-5.4,11.7-7.9
		C157.7,230.5,157.9,230.6,158,230.8z"/>
	<polygon class="st3" points="125.1,463 84.4,463 76.1,404.6 132,404.6 	"/>
	<path class="st7" d="M77.4,228.9c9.2,7.8,16.8,30.7,21.2,41.8"/>
	<path class="st7" d="M54.4,255.9c17,15.9,30.1,23.7,48.8,34.1"/>
	<path class="st7" d="M40.7,324.8c9.3,3.5,17.7,10.7,25,17.4c9.2,8.3,21,20.3,25.5,32.1"/>
	<path class="st7" d="M108.9,293.6c20.6,1.4,41.2-2.8,59.5-12.3"/>
	<path class="st7" d="M134.9,382c6.9-0.9,12.2,1.6,16.9,4.3c9.8,5.6,19.2,11.9,28.1,18.9"/>
	<path class="st10" d="M84.3,446.3c1.8,2,3.7,3.8,5.7,5.6c4.5,3.3,10.4,3.7,15.3,1.2c-5.5,2.3-9.8,6.7-14.4,10.4
		c-7,5.6-15,10-23.6,12.8c-2.8,1.1-5.8,1.5-8.8,1.2c-2.9-0.5-5.8-2.7-6.2-5.7c-4.7,2.5-9.9,3.7-15.2,3.4c-3.3-0.2-6.9-1.1-9-3.7
		c-2.1-2.6-2-7.1,0.8-8.7c-4-2.6-5.1-8.6-2.9-12.8c2.2-4.3,7.1-6.7,11.9-6.9s8.4,3.2,12.7,3.4c3.7,0.1,7.1-3.6,10.7-4.7
		C69.1,439.2,78.4,440.6,84.3,446.3z"/>
	<path class="st6" d="M383.9,226.9c-4.1,0-7.9-2-10.3-5.3c-1.2-1.7-2.4-3.3-3.6-4.8c-7.3-9.6-16.3-21.4-10.4-38.8l14.6-43.2
		c6.3-18.7,11.5-36.7,5.7-51.2c-3-7.5-9.7-13.7-18.5-16.8c-8.7-3.1-17.8-2.8-24.9,1c-7.1,3.8-12.4,11.2-14.6,20.2
		c-2.2,9.1-0.8,18,3.8,24.6c4,5.7,2.6,13.6-3.2,17.6c-5.7,4-13.6,2.6-17.6-3.2c-8.7-12.5-11.5-28.9-7.7-44.9
		c3.8-16,13.7-29.4,27.2-36.6s30-8.1,45.5-2.5s27.6,17,33.3,31.1c9.7,24.3,0.7,50.9-5.3,68.6l-14.6,43.2c-1.4,4-0.4,6.2,6.6,15.4
		c1.3,1.7,2.7,3.5,4,5.4c4,5.7,2.7,13.6-3,17.6C389.1,226.1,386.5,226.9,383.9,226.9z"/>
	<path class="st6" d="M410.3,288.3c-1.9,0-3.9-0.3-5.7-0.8c-2.3-0.7-4.4-2-6-3.8c-5.8-2.2-10.7-6.3-13.8-11.7c-2-3.3-3-7.2-3-11.1
		c0.3-6.4,3.7-12.3,9-15.9c3-4.1,7.2-7,12-8.5c6.4-1.8,13.2-0.9,18.8,2.5c9.9,5.5,14.5,17.2,11.2,28.1c-0.6,5.4-3,10.4-6.7,14.3
		C422,285.7,416.3,288.2,410.3,288.3z"/>
	
		<rect x="439.1" y="475.2" transform="matrix(0.7943 -0.6075 0.6075 0.7943 -215.8633 390.7601)" class="st4" width="60.1" height="77.9"/>
	
		<rect x="485.4" y="462.1" transform="matrix(0.9606 -0.278 0.278 0.9606 -118.975 163.0379)" class="st4" width="60.1" height="77.9"/>
	<path class="st9" d="M413.6,498.6c0,16.6-32.4,27.9-45,32.6c-34.9,13.1-70.2,25.7-106.6,34.1c-28,6.4-77.7,20.2-103.4,2
		c-6.9-4.8-11.4-13.9-8.7-21.8c1.9-5.5,6.7-9.4,10.7-13.7c5.8-6.1,8.7-12.1,2.3-16.8c-7.9-5.8-19.1-5.1-27.5-10.3
		c-3.9-2.4-7.2-6.1-8.1-10.6c-0.9-4.9,1.2-9.9,4.5-13.7c13.9-15.4,40.3-15.9,59.2-18.6c23.4-3.3,47-4.8,70.6-4.7
		C345.7,457.2,413.6,475.7,413.6,498.6z"/>
	<path class="st11" d="M315.8,417.6c9.1-7.4,20.2-12,31.1-16.5c4.8-2,9.7-4,14.8-4c5.2,0,10.6,2.5,12.6,7.3
		c1.7,4.1,0.4,8.8-1.7,12.7c-5.4,10-15.6,16.3-25.4,22.2L307.4,463c-6.6,3.9-13.3,7.9-20.7,9.9c-2.1,0.6-4.6,0.9-6.1-0.7
		c-0.7-0.8-1.1-1.8-1.2-2.9c-2-10.2,2.2-20.7,8.7-28.8c6.5-8.1,15.2-14,23.7-19.9L315.8,417.6z"/>
	<path class="st12" d="M225.5,463.8c-1.4-0.7-3-0.9-4.5-0.6c-6.4,0.9-12.1,6.8-15.6,11.9c-2.7,3.9-5.1,8.4-9.5,10.2
		c-3.2,1.3-6.9,0.8-10.3,1.5c-3.4,0.7-7,3.4-6.4,6.9c0.6,3.4,5.1,4.8,8.7,4.5c5-0.4,9.6-2.4,14.2-3.9c5.4-1.8,11-3.2,15.9-5.9
		c5-2.7,9.4-7.1,10.5-12.7C229.4,471.3,229.2,465.7,225.5,463.8z"/>
	<path class="st12" d="M235.2,503.2c-1.7,2.4-3.8,4.5-6.3,6.1c-7,4-13.2,2-20.5,2.8c-6.1,0.6-10.9,5.2-17.2,6.1
		c-2.1,0.3-4.6,0.3-6.2-1.2c-9.3-8.5,12.8-17.5,16.8-19.4c9.4-4.4,20.4-20.5,32.3-16.6C243.9,484.2,240.8,495.6,235.2,503.2z"/>
	<path class="st12" d="M216.3,392.4c-6.9,10.5-11.6,22.4-17.7,33.3c-6.9,12.3-15.2,23.8-24.8,34.1c-1.2,1.3-2.6,2.9-2.3,4.7
		c0.4,2.2,2.9,3.1,5,3.6c3.1,0.8,6.8,1.4,9.1-0.8c1-0.9,1.1-2.5,2-3.5c13.3-13.8,21.4-22.8,30.8-33.1c9.3-9.9,13.3-23.7,10.6-37
		c-0.2-1.9-1.1-3.7-2.5-5c-1.6-1.2-5.4-0.5-7,0.4C218.2,390,217.1,391.1,216.3,392.4z"/>
	<path class="st12" d="M160.7,471.5c0.7-0.4,1.4-0.8,2-1.3c3.1-2.2,6.1-4.6,8.8-7.3c2-2.1,3.9-4.5,6.5-5.7c2-0.8,4.1-1.2,6.2-1.2
		c0.5-0.1,0.9,0,1.4,0.2c0.4,0.2,0.6,0.6,0.7,1c0.8,2-0.3,4.3,0,6.5c0.5,2.5,2,4.6,4.3,5.8c2.1,1.2,4.5,2,6.8,3.1
		c0.7,0.3,1.4,1,1.1,1.6c-0.2,0.3-0.6,0.6-1,0.7c-2.7,0.8-5.6,0.5-8-0.9c-4.9,2.9-11.1,1.2-16.7,0.9c-4.6-0.2-9.2,0.2-13.8,1.1
		c-2.1,0.2-4.1,0.6-6.1,1.4c-1.5,0.7-2.3,1.9-4.1,2c-0.3,0.1-0.5,0-0.7-0.2c-0.2-0.3-0.2-0.7,0-0.9c1-2.1,4.6-4,6.7-4.6
		C156.8,473,158.8,472.3,160.7,471.5z"/>
	<path class="st13" d="M209.3,400.7c-0.1,5.7,1,10.8,4.1,14.7c2.3,2.9,7.2,2.5,10.1,0.2c2.9-2.3,4.4-6,5.8-9.4
		c8-20.5,15.4-41.3,22.3-62.2c1.3-4.1,8.5-16.6-1.2-13.4c-14,4.6-22.4,15.4-28,28.6C218.2,368.6,209.7,386.3,209.3,400.7z"/>
	<path class="st12" d="M263.6,286.5c-2.2-2.4-0.1-6.6-2.4-8.9c-2.7-2.9-4.8-6.3-6.2-10.1c-1.9-4.5-2.9-9.4-2.8-14.3
		c0.2-4.5,2.3-9.1,4.7-12.9l-0.9,1c3.5-4.2,8.9-6.7,13.8-9.1c10.6-5.2,18.4-5.5,30,3.9c10.3,8.2,3.7,17.8,5,23.6
		c2.1,10.1-3.6,20-6.4,24.8c-0.5,1.1-1.4,2-2.5,2.5c-4.5,1.7-8.5-0.2-12.8-1.6c-0.3,2.2-2.3,6.2-2.1,10.1
		c0.6,11.6,9.3,27.6,9.3,27.6c-8.7-1.7-25.6,6.6-31.6-13.4C260.9,304.2,269.1,292.3,263.6,286.5z"/>
	<path class="st5" d="M344.4,436.6c8.2-5.5,17.4-9.3,27.1-11.4c9-1.9,23.4,3.4,24.8,14.1c0.5,3.7-1.6,7.2-3.7,10.3
		c-10.9,15.7-25.7,28.4-40.8,40.2c-10.9,8.5-22.1,16.7-33.5,24.5c-9.8,6.7-21.4,16.8-32.8,20.4c-3,0.7-6,1-9.1,0.9
		c-8.3,0.2-16.6,1.3-24.8,1c-4,0-8-0.8-11.7-2.4c-8.8-4.1-12.9-13.6-17.5-21.5c-4.8-8.3-10.3-14.8-7.2-24.7
		c3.1-10.2,6.8-20.3,11.1-30.1c4,1.7,8.7,0.8,12.8-0.8c4.1-1.6,7.9-3.9,12.1-5.2c16-4.8,32.8,6.3,49.3,4.2
		c15.1-1.9,26.9-14.4,41.8-17.9L344.4,436.6z"/>
	<path class="st13" d="M278.4,306.1c3.5,1.2,7.1,2.2,10.7,2.9c1.2,0.2,2.4,0.5,3.5,1c0.8,0.5,1.6,1.1,2.2,1.8
		c2.7,2.6,5.6,5.3,7.1,8.9c1.5,3.8,0,7.3,0,11.2c0,7,0.2,13.9,0.2,20.9c0,9.4-0.1,18.7-0.4,28.1c-0.3,11.3-1.9,22.6,3.4,33.2
		c2.4,4.4,5.1,8.6,8.1,12.6c2.4,3.3,6.9,7.7,7.5,11.9c0.6,4.8-4.1,7.2-7.3,9.6c-3.9,3-7.7,6.2-11.3,9.7c-9,8.4-19.5,19-32.7,19
		c-10.6,0-20.3-4.5-30.2-7.6c-5.1-1.6-16-3.7-14.9-11.2c0.1-0.9,0.4-1.8,0.8-2.6c2.6-5.2,6-10.4,8.1-15.9c3.1-8.1,0.3-17-0.8-25.2
		c-1.3-9.7-2.1-19.4-2.2-29.2c-0.2-19,0.3-42.2,8-59.8c3.8-8.8,9.9-16.1,17-22.4c1.9-1.7,4.2-4.3,6.9-4.6c2.7-0.2,4.9,2.8,7.2,4
		C272.3,303.8,275.3,305.1,278.4,306.1z"/>
	<path class="st14" d="M294.8,398.2c0-2.9,2.5-9.4,1.5-11.9c-0.9-2.2-2.9-2.5-5-2.2c-4.3,0.8-12.1-30.9-14.6-26.8
		c-1.7,2.8-5.2,50-4.8,53.3c1.3,11.4-0.1,12,3.1,19.8c2.7,6.6,11.4,9.2,16.4,14.2c1.9,2.2,4.4,3.8,7.1,4.8c2,0.9,6.4,3.2,8.8,3.7
		c2-1.7,4-3.4,6.1-5c3.2-2.4,7.9-4.8,7.3-9.6c-0.6-4.2-5.1-8.6-7.5-11.9C305.5,415.8,294.7,411.5,294.8,398.2z"/>
	<path class="st13" d="M282.2,323.4c3-7.6,8.3-16.2,15.2-10.9c2.4,1.9,3.7,4.8,4.6,7.7c2,7.1,3,14.4,3,21.8
		c0.6,16.9-0.7,33.8-3.9,50.4c-1.1,5.7-2.4,11.4-5.2,16.4c-1.1,2.1-2.7,3.9-4.7,5.2c-8,4.6-10.7-6.7-12-12.2
		c-5.2-22.7-5.7-48.3,0.4-70.8C280.4,328.4,281.2,325.9,282.2,323.4z"/>
	<path class="st12" d="M293.7,398.6c11.4,4.6,22,10.8,31.5,18.5c4.8,3.8,9.3,7.9,13.5,12.3c3.4,3.5,9.1,8.4,10.9,13
		c1.7,4.2-2.3,6.3-5.9,5.9c-4.8-0.6-9-3.2-13.2-5.3c-8.2-4.1-18.4-7.1-27.1-10.1c-7.2-2.5-13.7-11.6-18.2-18.2
		c-3.6-5.2-7.1-10.5-0.7-15.2C287.4,397.1,290.6,397.4,293.7,398.6z"/>
	<path class="st15" d="M287.5,220.7c2,0.6,4.1,0.9,6.2,1.1c6.8,0.4,11.4,3,13,10.3c2.4,10.9-12.6,11.6-20,12.2
		c2,2.4,1.8,6.1,0.1,8.7c-3.9,6.1-11,8.3-14.3,15.4c-5,10.6-5.1,22.6-9.5,33.4c-4,9.4-10.8,17.5-19.4,23
		c-7.9,5.3-16.8,8.9-25.8,12.1c-3.3,1.2-6.8,2.3-10.3,2c-8.3-0.7-10.5-9.2-9.3-16.2c3.7-20.2,17.6-39.4,28.8-56.2
		c6.9-10.3,9.4-22.1,15.3-33c5.6-10.5,15.2-21,28.3-18.2C277,216.4,281.8,219.1,287.5,220.7z"/>
	<path class="st12" d="M340.9,436.9c11.8,0.1,12.7-2.7,21.4-2.2c2,1.8,0.7,2.8-1.8,4.1c3.9,1.1,5.8-0.9,9.6,0.4
		c0.9,0.3,4.3,1.4,4.7,2.2c0.6,1.5,0.1,3.2-1.2,4.1c-1.2,0.9,0,2.5-1.6,2.8c-1.3,0.3-4.2,1.1-5.5,1.4c-6.8,1.4-10.1,2.3-21.5-1.8
		c-2.2-0.8-4-2.4-5.1-4.4c-1.1-2.1-0.7-4.6,0.9-6.2"/>
	<path class="st13" d="M276.9,328.6c2.2-7.5,3.5-13.7,10.3-17.6c7.7-4.5,17.1,6.2,18.4,12.5c2.7,13.7-0.4,35-0.5,35.3
		c-0.2,1.4-27.1,5.8-30.3,6.2c-1.2-10.3-1.2-22.8,1.2-33.1C276.3,330.8,276.6,329.7,276.9,328.6z"/>
	<path class="st13" d="M295.4,396.4c0.8,0.2,1.5,0.5,2.2,0.8c6.9,3,12.5,8.2,18.4,12.8c10.1,7.9,20.8,16.1,28.8,26.1
		c1.7,2.1-1,9.8-2.9,11.9c-2.9,3-14.3-2.2-17.2-3.5c-8.7-4-14.8-6.4-23.2-11c-16-8.8-22.6-22.6-22.6-35.2
		C279,387.2,286.3,393.7,295.4,396.4z"/>
	<path class="st13" d="M216.3,392.4c-6.9,10.5-11.6,22.4-17.7,33.3c-6.9,12.3-15.2,23.8-24.8,34.1c-1.2,1.3-2.6,2.9-2.3,4.7
		c0.4,2.2,2.9,3.1,5,3.6c3.1,0.8,6.8,1.4,9.1-0.8c1-0.9,1.1-2.5,2-3.5c13.3-13.8,21.4-22.8,30.8-33.1c9.3-9.9,13.3-23.7,10.6-37
		c-0.2-1.9-1.1-3.7-2.5-5c-1.6-1.2-5.4-0.5-7,0.4C218.2,390,217.1,391.1,216.3,392.4z"/>
</g>
</svg>
